<?xml version="1.0" encoding="UTF-8"?><svg id="_" xmlns="http://www.w3.org/2000/svg" viewBox="0 0 612.51 597.25"><defs><style>.cls-1,.cls-2{fill:#fff;}.cls-3{fill:#9b1915;}.cls-4{fill:#ce9906;}.cls-5{fill:#b41068;}.cls-6{fill:#1f799b;}.cls-2,.cls-7{isolation:isolate;}.cls-7{fill:#284666;}.cls-8{fill:#743a8e;}.cls-9{fill:#308d6d;}</style></defs><path class="cls-7" d="M312.64,551.62c-64.37,0-124.89-25.07-170.41-70.59-45.52-45.52-70.59-106.04-70.59-170.41s25.07-124.89,70.59-170.41c45.52-45.52,106.04-70.59,170.41-70.59s124.89,25.07,170.41,70.59c45.52,45.52,70.59,106.04,70.59,170.41s-25.07,124.89-70.59,170.41c-45.52,45.52-106.04,70.59-170.41,70.59Zm0-479.99c-131.78,0-238.99,107.21-238.99,238.99s107.21,238.99,238.99,238.99,238.99-107.21,238.99-238.99-107.21-238.99-238.99-238.99Z"/><g><g><circle class="cls-7" cx="312.64" cy="310.62" r="103.08"/><path class="cls-7" d="M312.64,419.48c-60.02,0-108.85-48.83-108.85-108.85s48.83-108.85,108.85-108.85,108.85,48.83,108.85,108.85-48.83,108.85-108.85,108.85Zm0-215.27c-58.68,0-106.42,47.74-106.42,106.42s47.74,106.42,106.42,106.42,106.42-47.74,106.42-106.42-47.74-106.42-106.42-106.42Z"/><path class="cls-2" d="M312.64,407.92c-53.65,0-97.3-43.65-97.3-97.3s43.65-97.3,97.3-97.3,97.3,43.65,97.3,97.3-43.65,97.3-97.3,97.3Zm0-193.38c-52.98,0-96.08,43.1-96.08,96.08s43.1,96.08,96.08,96.08,96.08-43.1,96.08-96.08-43.1-96.08-96.08-96.08Z"/></g><g><path class="cls-1" d="M229.51,296.72h2.37v18.12h-2.37v-18.12Z"/><path class="cls-1" d="M250.15,296.7v18.15h-2.37l-9.52-14.43v14.43h-2.37v-18.15h2.37l9.52,14.4v-14.4h2.37Z"/><path class="cls-1" d="M269.44,305.82c0,5.62-3.67,9.02-9.62,9.02h-5.64v-18.12h5.64c5.95,0,9.62,3.48,9.62,9.1Zm-9.62,7.07c4.73,0,7.2-2.65,7.2-7.07s-2.47-7.18-7.2-7.18h-3.28v14.25h3.28Z"/><path class="cls-1" d="M272.56,296.72h2.37v18.12h-2.37v-18.12Z"/><path class="cls-1" d="M287.12,296.49c3.93,0,7.05,1.98,8.4,5.49h-2.83c-.99-2.18-2.91-3.41-5.56-3.41-3.8,0-6.63,2.76-6.63,7.2s2.83,7.18,6.63,7.18c2.65,0,4.58-1.22,5.56-3.38h2.83c-1.35,3.48-4.47,5.43-8.4,5.43-5.07,0-9.05-3.8-9.05-9.23s3.98-9.28,9.05-9.28Z"/><path class="cls-1" d="M309.74,310.81h-7.9l-1.46,4.03h-2.5l6.55-18.02h2.73l6.53,18.02h-2.5l-1.46-4.03Zm-3.95-11.08l-3.28,9.15h6.55l-3.28-9.15Z"/><path class="cls-1" d="M331.81,305.82c0,5.62-3.67,9.02-9.62,9.02h-5.64v-18.12h5.64c5.95,0,9.62,3.48,9.62,9.1Zm-9.62,7.07c4.73,0,7.2-2.65,7.2-7.07s-2.47-7.18-7.2-7.18h-3.28v14.25h3.28Z"/><path class="cls-1" d="M343.15,315.03c-5.1,0-9.1-3.82-9.1-9.26s4-9.26,9.1-9.26,9.1,3.82,9.1,9.26-3.98,9.26-9.1,9.26Zm0-2.05c3.82,0,6.68-2.78,6.68-7.2s-2.86-7.2-6.68-7.2-6.68,2.76-6.68,7.2,2.86,7.2,6.68,7.2Z"/><path class="cls-1" d="M361.22,296.72c4.26,0,6.29,2.37,6.29,5.33,0,2.31-1.27,4.52-4.32,5.2l4.55,7.59h-2.83l-4.32-7.41h-2.86v7.41h-2.37v-18.12h5.85Zm0,1.95h-3.48v6.86h3.48c2.68,0,3.85-1.46,3.85-3.48s-1.14-3.38-3.85-3.38Z"/><path class="cls-1" d="M380.93,298.65h-7.38v6.06h6.6v1.95h-6.6v6.24h7.38v1.95h-9.75v-18.15h9.75v1.95Z"/><path class="cls-1" d="M390.26,315.03c-3.64,0-6.21-2.03-6.27-5.02h2.52c.16,1.51,1.22,3.02,3.74,3.02,2.29,0,3.64-1.3,3.64-3.02,0-4.89-9.8-1.77-9.8-8.5,0-2.99,2.42-5.02,6.01-5.02s5.72,1.9,6.01,4.65h-2.6c-.16-1.22-1.3-2.6-3.51-2.63-1.95-.05-3.48,.96-3.48,2.91,0,4.68,9.78,1.77,9.78,8.48,0,2.57-2.11,5.12-6.03,5.12Z"/></g></g><g><g><circle class="cls-7" cx="312.64" cy="71.64" r="67.84"/><path class="cls-7" d="M312.64,143.28c-39.5,0-71.64-32.14-71.64-71.64S273.14,0,312.64,0s71.64,32.14,71.64,71.64-32.14,71.64-71.64,71.64Zm0-141.68c-38.62,0-70.04,31.42-70.04,70.04s31.42,70.04,70.04,70.04,70.04-31.42,70.04-70.04S351.26,1.6,312.64,1.6Z"/><path class="cls-2" d="M312.64,135.67c-35.31,0-64.03-28.73-64.03-64.03S277.33,7.6,312.64,7.6s64.03,28.73,64.03,64.03-28.73,64.03-64.03,64.03Zm0-127.27c-34.87,0-63.23,28.37-63.23,63.23s28.37,63.23,63.23,63.23,63.23-28.37,63.23-63.23-28.37-63.23-63.23-63.23Z"/></g><path class="cls-1" d="M305.81,59.14h-9.71v-17.35h29.03V110.71h-19.32V59.14Z"/></g><g><g><circle class="cls-4" cx="215.34" cy="519.74" r="67.84"/><path class="cls-7" d="M215.34,591.38c-39.5,0-71.64-32.14-71.64-71.64s32.14-71.64,71.64-71.64,71.64,32.14,71.64,71.64-32.14,71.64-71.64,71.64Zm0-141.68c-38.62,0-70.04,31.42-70.04,70.04s31.42,70.04,70.04,70.04,70.04-31.42,70.04-70.04-31.42-70.04-70.04-70.04Z"/><path class="cls-2" d="M215.34,583.78c-35.31,0-64.03-28.73-64.03-64.03s28.73-64.03,64.03-64.03,64.03,28.73,64.03,64.03-28.73,64.03-64.03,64.03Zm0-127.27c-34.87,0-63.23,28.37-63.23,63.23s28.37,63.23,63.23,63.23,63.23-28.37,63.23-63.23-28.37-63.23-63.23-63.23Z"/></g><path class="cls-1" d="M238.3,489.9v16.31h-28.28v10.46c2.36-2.45,6.69-4.15,11.78-4.15,14.23,0,20.27,10.94,20.27,22.44,0,14.8-8.77,23.85-23.85,23.85-16.03,0-25.26-8.86-25.36-21.21h18c.28,2.55,2.07,5.37,6.6,5.37s6.69-3.49,6.69-8.3-2.54-7.54-6.98-7.54c-3.58,0-5.56,2.07-5.94,4.43h-18v-41.67h45.06Z"/></g><g><g><circle class="cls-5" cx="493.13" cy="165.14" r="67.84"/><path class="cls-7" d="M493.13,236.78c-39.5,0-71.64-32.14-71.64-71.64s32.14-71.64,71.64-71.64,71.64,32.14,71.64,71.64-32.14,71.64-71.64,71.64Zm0-141.68c-38.62,0-70.04,31.42-70.04,70.04s31.42,70.04,70.04,70.04,70.04-31.42,70.04-70.04-31.42-70.04-70.04-70.04Z"/><path class="cls-2" d="M493.13,229.17c-35.31,0-64.03-28.73-64.03-64.03s28.73-64.03,64.03-64.03,64.03,28.73,64.03,64.03-28.73,64.03-64.03,64.03Zm0-127.27c-34.87,0-63.23,28.37-63.23,63.23s28.37,63.23,63.23,63.23,63.23-28.37,63.23-63.23-28.37-63.23-63.23-63.23Z"/></g><path class="cls-1" d="M469.42,189.41c14.05-11.03,28.75-22.81,28.75-33.56,0-3.96-1.79-6.41-5.37-6.41s-5.84,2.92-5.66,9.05h-17.91c.57-17.53,11.97-24.6,24.7-24.6,16.4,0,22.91,9.33,22.91,20.64,0,14.33-11.88,26.11-22.91,33.75h23.57v14.99h-48.08v-13.86Z"/></g><g><g><circle class="cls-3" cx="436.05" cy="519.74" r="67.84"/><path class="cls-7" d="M436.05,591.38c-39.5,0-71.64-32.14-71.64-71.64s32.14-71.64,71.64-71.64,71.64,32.14,71.64,71.64-32.14,71.64-71.64,71.64Zm0-141.68c-38.62,0-70.04,31.42-70.04,70.04s31.42,70.04,70.04,70.04,70.04-31.42,70.04-70.04-31.42-70.04-70.04-70.04Z"/><path class="cls-2" d="M436.05,583.78c-35.31,0-64.03-28.73-64.03-64.03s28.73-64.03,64.03-64.03,64.03,28.73,64.03,64.03-28.73,64.03-64.03,64.03Zm0-127.27c-34.87,0-63.23,28.37-63.23,63.23s28.37,63.23,63.23,63.23,63.23-28.37,63.23-63.23-28.37-63.23-63.23-63.23Z"/></g><path class="cls-1" d="M438.83,547.5h-30.54v-15.27l28.94-41.29h20.27v40.54h7.26v16.03h-7.26v11.31h-18.67v-11.31Zm1.41-16.03v-19.7l-13.01,19.7h13.01Z"/></g><g><g><circle class="cls-6" cx="540.87" cy="359.65" r="67.84"/><path class="cls-7" d="M540.87,431.29c-39.5,0-71.64-32.14-71.64-71.64s32.14-71.64,71.64-71.64,71.64,32.14,71.64,71.64-32.14,71.64-71.64,71.64Zm0-141.68c-38.62,0-70.04,31.42-70.04,70.04s31.42,70.04,70.04,70.04,70.04-31.42,70.04-70.04-31.42-70.04-70.04-70.04Z"/><path class="cls-2" d="M540.87,423.69c-35.31,0-64.03-28.73-64.03-64.03s28.73-64.03,64.03-64.03,64.03,28.73,64.03,64.03-28.73,64.03-64.03,64.03Zm0-127.27c-34.87,0-63.23,28.37-63.23,63.23s28.37,63.23,63.23,63.23,63.23-28.37,63.23-63.23-28.37-63.23-63.23-63.23Z"/></g><path class="cls-1" d="M540.6,328.3c14.89,0,22.81,8.39,22.81,18.95,0,9.43-5.84,13.95-10.18,15.37v.38c6.6,2.45,11.41,7.35,11.41,16.21,0,11.88-8.48,20.08-23,20.08s-25.36-6.79-25.74-23.19h18c-.19,4.9,2.07,7.92,6.98,7.92,3.68,0,5.84-2.54,5.84-6.22,0-4.71-2.83-6.98-9.8-6.98h-3.3v-14.99h3.21c3.58,.09,8.58-.47,8.58-6.32,0-3.96-2.17-5.84-5.28-5.84-4.05,0-5.28,3.49-5.47,6.69h-18.01c.47-14.23,9.24-22.06,23.94-22.06Z"/></g><g><g><circle class="cls-9" cx="71.64" cy="359.65" r="67.84"/><path class="cls-7" d="M71.64,431.29C32.14,431.29,0,399.16,0,359.65s32.14-71.64,71.64-71.64,71.64,32.14,71.64,71.64-32.14,71.64-71.64,71.64Zm0-141.68c-38.62,0-70.04,31.42-70.04,70.04s31.42,70.04,70.04,70.04,70.04-31.42,70.04-70.04-31.42-70.04-70.04-70.04Z"/><path class="cls-2" d="M71.64,423.69c-35.31,0-64.03-28.73-64.03-64.03s28.73-64.03,64.03-64.03,64.03,28.73,64.03,64.03-28.73,64.03-64.03,64.03Zm0-127.27c-34.87,0-63.23,28.37-63.23,63.23s28.37,63.23,63.23,63.23,63.23-28.37,63.23-63.23-28.37-63.23-63.23-63.23Z"/></g><path class="cls-1" d="M78.1,349.61c-.85-4.05-2.55-6.22-6.6-6.22-6.13,0-7.92,5.94-8.01,17.16,2.55-3.87,7.54-6.32,13.39-6.32,11.78,0,20.17,7.45,20.17,21.87s-8.96,23.1-23.94,23.1c-20.93,0-26.02-14.89-26.02-34.88,0-24.42,7.45-35.82,25.45-35.82,15.55,0,21.96,10.46,22.72,21.12h-17.16Zm-13.29,26.21c0,5,2.83,7.64,7.64,7.64,4.43,0,7.26-2.54,7.26-7.45,0-4.62-2.73-7.45-7.35-7.45-4.24,0-7.54,2.45-7.54,7.26Z"/></g><g><g><circle class="cls-8" cx="118.72" cy="165.14" r="67.84"/><path class="cls-7" d="M118.72,236.78c-39.5,0-71.64-32.14-71.64-71.64s32.14-71.64,71.64-71.64,71.64,32.14,71.64,71.64-32.14,71.64-71.64,71.64Zm0-141.68c-38.62,0-70.04,31.42-70.04,70.04s31.42,70.04,70.04,70.04,70.04-31.42,70.04-70.04-31.42-70.04-70.04-70.04Z"/><path class="cls-2" d="M118.72,229.17c-35.31,0-64.03-28.73-64.03-64.03s28.73-64.03,64.03-64.03,64.03,28.73,64.03,64.03-28.73,64.03-64.03,64.03Zm0-127.27c-34.87,0-63.23,28.37-63.23,63.23s28.37,63.23,63.23,63.23,63.23-28.37,63.23-63.23-28.37-63.23-63.23-63.23Z"/></g><path class="cls-1" d="M141.87,135.39v13.67l-22.62,55.15h-18.95l22.81-52.98h-26.87v-15.84h45.63Z"/></g></svg>