<?xml version="1.0" encoding="UTF-8"?><svg id="img-slide-55" xmlns="http://www.w3.org/2000/svg" viewBox="0 0 525 380"><defs><style>.cls-1{fill:#54bfcd;}.cls-2{fill:#fff;}.cls-3{fill:#29696d;}.cls-4{fill:#108141;}.cls-5{opacity:.75;}.cls-5,.cls-6,.cls-7{fill:#a5bdca;}.cls-8{fill:#eb9b60;}.cls-9{fill:#1b8992;}.cls-6{opacity:.25;}.cls-10{fill:#ffa800;}.cls-7{opacity:.5;}.cls-11{fill:#2f5579;}</style></defs><g><circle class="cls-6" cx="261.23" cy="178.82" r="147.49"/><circle class="cls-7" cx="261.23" cy="178.82" r="109.46"/><circle class="cls-5" cx="261.23" cy="178.82" r="72.34"/></g><g><path class="cls-11" d="M221.84,157.66l2.47,2.96h-3.31l-1.44-1.94c-.4,.08-.82,.13-1.25,.13-3.19,0-5.78-2.38-5.78-5.76s2.59-5.75,5.78-5.75,5.75,2.37,5.75,5.75c0,1.97-.86,3.59-2.21,4.61Zm-3.54-1.34c1.79,0,2.96-1.3,2.96-3.27s-1.17-3.27-2.96-3.27-2.98,1.26-2.98,3.27,1.15,3.27,2.98,3.27Z"/><path class="cls-11" d="M234.42,158.7h-2.74v-1.22c-.54,.77-1.5,1.31-2.71,1.31-2.06,0-3.46-1.42-3.46-3.81v-5.22h2.72v4.85c0,1.22,.69,1.89,1.71,1.89s1.73-.67,1.73-1.89v-4.85h2.74v8.93Z"/><path class="cls-11" d="M239.78,149.64c1.33,0,2.27,.61,2.75,1.39v-1.26h2.74v8.93h-2.74v-1.26c-.5,.78-1.44,1.39-2.77,1.39-2.18,0-3.92-1.79-3.92-4.61s1.74-4.58,3.94-4.58Zm.8,2.38c-1.02,0-1.95,.77-1.95,2.19s.93,2.23,1.95,2.23,1.95-.78,1.95-2.21-.91-2.21-1.95-2.21Z"/><path class="cls-11" d="M247.25,146.85h2.74v11.84h-2.74v-11.84Z"/><path class="cls-11" d="M251.71,147.36c0-.83,.66-1.49,1.63-1.49s1.62,.66,1.62,1.49-.66,1.47-1.62,1.47-1.63-.66-1.63-1.47Zm.26,2.4h2.74v8.93h-2.74v-8.93Z"/><path class="cls-11" d="M260.08,149.64c1.18,0,2.21,.54,2.75,1.36v-4.15h2.74v11.84h-2.74v-1.28c-.5,.82-1.44,1.41-2.75,1.41-2.19,0-3.94-1.79-3.94-4.61s1.74-4.58,3.94-4.58Zm.8,2.38c-1.02,0-1.95,.77-1.95,2.19s.93,2.23,1.95,2.23,1.95-.78,1.95-2.21-.91-2.21-1.95-2.21Z"/><path class="cls-11" d="M270.94,149.64c1.33,0,2.27,.61,2.75,1.39v-1.26h2.74v8.93h-2.74v-1.26c-.5,.78-1.44,1.39-2.77,1.39-2.18,0-3.92-1.79-3.92-4.61s1.75-4.58,3.94-4.58Zm.8,2.38c-1.02,0-1.95,.77-1.95,2.19s.93,2.23,1.95,2.23,1.95-.78,1.95-2.21-.91-2.21-1.95-2.21Z"/><path class="cls-11" d="M281.81,149.64c1.18,0,2.21,.54,2.75,1.36v-4.15h2.74v11.84h-2.74v-1.28c-.5,.82-1.44,1.41-2.75,1.41-2.19,0-3.94-1.79-3.94-4.61s1.75-4.58,3.94-4.58Zm.8,2.38c-1.02,0-1.95,.77-1.95,2.19s.93,2.23,1.95,2.23,1.95-.78,1.95-2.21-.91-2.21-1.95-2.21Z"/><path class="cls-11" d="M293.25,158.83c-2.62,0-4.51-1.76-4.51-4.59s1.86-4.59,4.51-4.59,4.45,1.73,4.45,4.45c0,.26-.02,.53-.05,.8h-6.2c.1,1.17,.82,1.71,1.7,1.71,.77,0,1.2-.38,1.42-.86h2.91c-.43,1.75-2.02,3.09-4.24,3.09Zm-1.78-5.46h3.42c0-.98-.77-1.54-1.68-1.54s-1.58,.54-1.74,1.54Z"/><path class="cls-11" d="M302.77,158.83c-2.38,0-3.99-1.33-4.11-3.06h2.71c.06,.62,.62,1.04,1.38,1.04,.7,0,1.07-.32,1.07-.72,0-1.44-4.87-.4-4.87-3.68,0-1.52,1.3-2.77,3.63-2.77s3.59,1.28,3.76,3.04h-2.53c-.08-.61-.54-1.01-1.31-1.01-.64,0-.99,.26-.99,.69,0,1.42,4.83,.42,4.88,3.75,0,1.55-1.38,2.72-3.62,2.72Z"/><path class="cls-11" d="M204.53,168.84c1.18,0,2.21,.54,2.75,1.36v-4.15h2.74v11.84h-2.74v-1.28c-.5,.82-1.44,1.41-2.75,1.41-2.19,0-3.94-1.79-3.94-4.61s1.74-4.58,3.94-4.58Zm.8,2.38c-1.02,0-1.95,.77-1.95,2.19s.93,2.23,1.95,2.23,1.95-.78,1.95-2.21-.91-2.21-1.95-2.21Z"/><path class="cls-11" d="M215.97,178.03c-2.62,0-4.51-1.76-4.51-4.59s1.86-4.59,4.51-4.59,4.45,1.73,4.45,4.45c0,.26-.02,.53-.05,.8h-6.19c.1,1.17,.82,1.71,1.7,1.71,.77,0,1.2-.38,1.42-.86h2.91c-.43,1.74-2.02,3.09-4.24,3.09Zm-1.78-5.46h3.43c0-.98-.77-1.54-1.68-1.54s-1.58,.54-1.75,1.54Z"/><path class="cls-11" d="M225.49,178.03c-2.39,0-3.99-1.33-4.11-3.06h2.71c.06,.62,.62,1.04,1.38,1.04,.7,0,1.07-.32,1.07-.72,0-1.44-4.87-.4-4.87-3.68,0-1.52,1.3-2.77,3.63-2.77s3.59,1.28,3.76,3.04h-2.53c-.08-.61-.54-1.01-1.31-1.01-.64,0-.99,.26-.99,.69,0,1.42,4.83,.42,4.88,3.75,0,1.55-1.38,2.72-3.62,2.72Z"/><path class="cls-11" d="M234.75,178.03c-2.62,0-4.51-1.76-4.51-4.59s1.86-4.59,4.51-4.59,4.45,1.73,4.45,4.45c0,.26-.02,.53-.05,.8h-6.19c.1,1.17,.82,1.71,1.7,1.71,.77,0,1.2-.38,1.42-.86h2.91c-.43,1.74-2.02,3.09-4.24,3.09Zm-1.78-5.46h3.43c0-.98-.77-1.54-1.68-1.54s-1.58,.54-1.75,1.54Z"/><path class="cls-11" d="M243.38,168.97v10.08c0,2.32-1.3,3.11-3.15,3.11h-1.07v-2.32h.66c.61,0,.83-.22,.83-.75v-10.12h2.74Zm-3.01-2.4c0-.83,.66-1.49,1.63-1.49s1.62,.66,1.62,1.49-.66,1.47-1.62,1.47-1.63-.66-1.63-1.47Z"/><path class="cls-11" d="M248.74,168.84c1.33,0,2.27,.61,2.75,1.39v-1.26h2.74v8.93h-2.74v-1.26c-.5,.78-1.44,1.39-2.77,1.39-2.18,0-3.92-1.79-3.92-4.61s1.74-4.58,3.94-4.58Zm.8,2.38c-1.02,0-1.95,.77-1.95,2.19s.93,2.23,1.95,2.23,1.95-.78,1.95-2.21-.91-2.21-1.95-2.21Zm2.16-6.61v2.13l-3.86,1.62v-1.89l3.86-1.86Z"/><path class="cls-11" d="M258.29,168.97l1.94,6.37,1.94-6.37h2.91l-3.17,8.93h-3.38l-3.17-8.93h2.93Z"/><path class="cls-11" d="M270.19,178.03c-2.62,0-4.51-1.76-4.51-4.59s1.86-4.59,4.51-4.59,4.45,1.73,4.45,4.45c0,.26-.02,.53-.05,.8h-6.19c.1,1.17,.82,1.71,1.7,1.71,.77,0,1.2-.38,1.42-.86h2.91c-.43,1.74-2.02,3.09-4.24,3.09Zm-1.78-5.46h3.43c0-.98-.77-1.54-1.68-1.54s-1.58,.54-1.75,1.54Z"/><path class="cls-11" d="M275.82,166.57c0-.83,.66-1.49,1.63-1.49s1.62,.66,1.62,1.49-.66,1.47-1.62,1.47-1.63-.66-1.63-1.47Zm.26,2.4h2.74v8.93h-2.74v-8.93Z"/><path class="cls-11" d="M284.43,178.03c-2.38,0-3.99-1.33-4.11-3.06h2.71c.06,.62,.62,1.04,1.38,1.04,.7,0,1.07-.32,1.07-.72,0-1.44-4.87-.4-4.87-3.68,0-1.52,1.3-2.77,3.63-2.77s3.59,1.28,3.76,3.04h-2.53c-.08-.61-.54-1.01-1.31-1.01-.64,0-.99,.26-.99,.69,0,1.42,4.83,.42,4.88,3.75,0,1.55-1.38,2.72-3.62,2.72Z"/><path class="cls-11" d="M297.09,178.03c-2.62,0-4.51-1.76-4.51-4.59s1.86-4.59,4.51-4.59,4.45,1.73,4.45,4.45c0,.26-.02,.53-.05,.8h-6.2c.1,1.17,.82,1.71,1.7,1.71,.77,0,1.2-.38,1.42-.86h2.91c-.43,1.74-2.02,3.09-4.24,3.09Zm-1.78-5.46h3.42c0-.98-.77-1.54-1.68-1.54s-1.58,.54-1.74,1.54Z"/><path class="cls-11" d="M315.28,173.05c0-1.17-.67-1.81-1.71-1.81s-1.71,.64-1.71,1.81v4.85h-2.72v-4.85c0-1.17-.67-1.81-1.71-1.81s-1.71,.64-1.71,1.81v4.85h-2.74v-8.93h2.74v1.12c.53-.72,1.44-1.22,2.61-1.22,1.34,0,2.43,.59,3.04,1.67,.59-.94,1.71-1.67,3.01-1.67,2.21,0,3.63,1.41,3.63,3.81v5.22h-2.72v-4.85Z"/><path class="cls-11" d="M214.02,197.1h-2.74v-1.22c-.54,.77-1.5,1.31-2.71,1.31-2.06,0-3.46-1.42-3.46-3.81v-5.22h2.72v4.85c0,1.22,.69,1.89,1.71,1.89s1.73-.67,1.73-1.89v-4.85h2.74v8.93Z"/><path class="cls-11" d="M228.29,192.25c0-1.17-.67-1.81-1.71-1.81s-1.71,.64-1.71,1.81v4.85h-2.72v-4.85c0-1.17-.67-1.81-1.71-1.81s-1.71,.64-1.71,1.81v4.85h-2.74v-8.93h2.74v1.12c.53-.72,1.44-1.22,2.61-1.22,1.34,0,2.43,.59,3.04,1.66,.59-.94,1.71-1.66,3.01-1.66,2.21,0,3.63,1.41,3.63,3.81v5.22h-2.72v-4.85Z"/><path class="cls-11" d="M236.06,185.76c0-.83,.66-1.49,1.63-1.49s1.62,.66,1.62,1.49-.66,1.47-1.62,1.47-1.63-.66-1.63-1.47Zm.26,2.4h2.74v8.93h-2.74v-8.93Z"/><path class="cls-11" d="M247.2,192.25c0-1.22-.67-1.89-1.71-1.89s-1.71,.67-1.71,1.89v4.85h-2.74v-8.93h2.74v1.18c.54-.75,1.5-1.28,2.71-1.28,2.06,0,3.44,1.41,3.44,3.81v5.22h-2.72v-4.85Z"/><path class="cls-11" d="M255.22,188.04c1.18,0,2.21,.54,2.75,1.36v-4.15h2.74v11.84h-2.74v-1.28c-.5,.82-1.44,1.41-2.75,1.41-2.19,0-3.94-1.79-3.94-4.61s1.74-4.58,3.94-4.58Zm.8,2.38c-1.02,0-1.95,.77-1.95,2.19s.93,2.22,1.95,2.22,1.95-.78,1.95-2.21-.91-2.21-1.95-2.21Z"/><path class="cls-11" d="M262.43,185.76c0-.83,.66-1.49,1.63-1.49s1.62,.66,1.62,1.49-.66,1.47-1.62,1.47-1.63-.66-1.63-1.47Zm.26,2.4h2.74v8.93h-2.74v-8.93Z"/><path class="cls-11" d="M271.35,188.04c2.24,0,3.83,1.23,4.29,3.36h-2.91c-.22-.62-.67-1.02-1.42-1.02-.98,0-1.65,.77-1.65,2.26s.67,2.26,1.65,2.26c.75,0,1.18-.37,1.42-1.02h2.91c-.46,2.06-2.05,3.36-4.29,3.36-2.63,0-4.48-1.76-4.48-4.59s1.86-4.59,4.48-4.59Z"/><path class="cls-11" d="M280.48,188.04c1.33,0,2.27,.61,2.75,1.39v-1.26h2.74v8.93h-2.74v-1.26c-.5,.78-1.44,1.39-2.77,1.39-2.18,0-3.92-1.79-3.92-4.61s1.74-4.58,3.94-4.58Zm.8,2.38c-1.02,0-1.95,.77-1.95,2.19s.93,2.22,1.95,2.22,1.95-.78,1.95-2.21-.91-2.21-1.95-2.21Z"/><path class="cls-11" d="M291.34,188.04c1.18,0,2.21,.54,2.75,1.36v-4.15h2.74v11.84h-2.74v-1.28c-.5,.82-1.44,1.41-2.75,1.41-2.19,0-3.94-1.79-3.94-4.61s1.75-4.58,3.94-4.58Zm.8,2.38c-1.02,0-1.95,.77-1.95,2.19s.93,2.22,1.95,2.22,1.95-.78,1.95-2.21-.91-2.21-1.95-2.21Z"/><path class="cls-11" d="M302.88,197.23c-2.62,0-4.61-1.76-4.61-4.59s2.03-4.59,4.64-4.59,4.64,1.76,4.64,4.59-2.05,4.59-4.67,4.59Zm0-2.37c.98,0,1.89-.72,1.89-2.22s-.9-2.22-1.86-2.22-1.86,.7-1.86,2.22,.83,2.22,1.82,2.22Z"/><path class="cls-11" d="M311.74,197.1h-2.74v-8.93h2.74v1.49c.62-.94,1.6-1.58,2.8-1.58v2.9h-.75c-1.3,0-2.05,.45-2.05,1.99v4.15Z"/><path class="cls-11" d="M227.91,207.24c1.18,0,2.21,.54,2.75,1.36v-4.15h2.74v11.84h-2.74v-1.28c-.5,.82-1.44,1.41-2.75,1.41-2.19,0-3.94-1.79-3.94-4.61s1.74-4.58,3.94-4.58Zm.8,2.38c-1.02,0-1.95,.77-1.95,2.19s.93,2.22,1.95,2.22,1.95-.78,1.95-2.21-.91-2.21-1.95-2.21Z"/><path class="cls-11" d="M239.35,216.42c-2.62,0-4.51-1.76-4.51-4.59s1.86-4.59,4.51-4.59,4.45,1.73,4.45,4.45c0,.26-.02,.53-.05,.8h-6.19c.1,1.17,.82,1.71,1.7,1.71,.77,0,1.2-.38,1.42-.86h2.91c-.43,1.74-2.02,3.09-4.24,3.09Zm-1.78-5.46h3.43c0-.98-.77-1.54-1.68-1.54s-1.58,.54-1.75,1.54Z"/><path class="cls-11" d="M252.27,216.42c-2.39,0-3.99-1.33-4.11-3.06h2.71c.06,.62,.62,1.04,1.38,1.04,.7,0,1.07-.32,1.07-.72,0-1.44-4.87-.4-4.87-3.68,0-1.52,1.3-2.77,3.63-2.77s3.59,1.28,3.76,3.04h-2.53c-.08-.61-.54-1.01-1.31-1.01-.64,0-.99,.26-.99,.69,0,1.42,4.83,.42,4.88,3.75,0,1.55-1.38,2.72-3.62,2.72Z"/><path class="cls-11" d="M260.95,207.24c1.33,0,2.27,.61,2.75,1.39v-1.26h2.74v8.93h-2.74v-1.26c-.5,.78-1.44,1.39-2.77,1.39-2.18,0-3.92-1.79-3.92-4.61s1.74-4.58,3.94-4.58Zm.8,2.38c-1.02,0-1.95,.77-1.95,2.19s.93,2.22,1.95,2.22,1.95-.78,1.95-2.21-.91-2.21-1.95-2.21Z"/><path class="cls-11" d="M277.24,216.3h-2.74v-1.22c-.54,.77-1.5,1.31-2.71,1.31-2.06,0-3.46-1.42-3.46-3.81v-5.22h2.72v4.85c0,1.22,.69,1.89,1.71,1.89s1.73-.67,1.73-1.89v-4.85h2.74v8.93Zm-2.54-13.29v2.13l-3.86,1.62v-1.89l3.86-1.86Z"/><path class="cls-11" d="M282.6,207.24c1.18,0,2.21,.54,2.75,1.36v-4.15h2.74v11.84h-2.74v-1.28c-.5,.82-1.44,1.41-2.75,1.41-2.19,0-3.94-1.79-3.94-4.61s1.75-4.58,3.94-4.58Zm.8,2.38c-1.02,0-1.95,.77-1.95,2.19s.93,2.22,1.95,2.22,1.95-.78,1.95-2.21-.91-2.21-1.95-2.21Z"/><path class="cls-11" d="M294.04,216.42c-2.62,0-4.51-1.76-4.51-4.59s1.86-4.59,4.51-4.59,4.45,1.73,4.45,4.45c0,.26-.02,.53-.05,.8h-6.2c.1,1.17,.82,1.71,1.7,1.71,.77,0,1.2-.38,1.42-.86h2.91c-.43,1.74-2.02,3.09-4.24,3.09Zm-1.78-5.46h3.42c0-.98-.77-1.54-1.68-1.54s-1.58,.54-1.74,1.54Z"/></g><g><rect class="cls-8" x="190.73" y="290.68" width="141" height="58" rx="16.5" ry="16.5"/><g><path class="cls-2" d="M209.72,312.74c2.06,0,3.09,1.19,3.09,2.65,0,1.06-.58,2.05-1.87,2.44l1.94,3.33h-2.31l-1.75-3.18h-.49v3.18h-2.05v-8.42h3.44Zm-.12,1.7h-1.27v2.09h1.27c.77,0,1.13-.4,1.13-1.06,0-.62-.36-1.03-1.13-1.03Z"/><path class="cls-2" d="M217.08,321.25c-1.97,0-3.38-1.32-3.38-3.44s1.39-3.44,3.38-3.44,3.33,1.29,3.33,3.33c0,.19-.01,.4-.04,.6h-4.64c.07,.88,.61,1.28,1.27,1.28,.58,0,.9-.29,1.07-.65h2.18c-.32,1.31-1.51,2.31-3.18,2.31Zm-1.33-4.09h2.57c0-.73-.58-1.15-1.26-1.15s-1.19,.41-1.31,1.15Z"/><path class="cls-2" d="M225.61,314.37c1.64,0,2.95,1.32,2.95,3.43s-1.31,3.45-2.95,3.45c-.98,0-1.69-.47-2.06-1.03v4.13h-2.05v-9.88h2.05v.95c.37-.59,1.08-1.04,2.06-1.04Zm-.61,1.79c-.77,0-1.46,.59-1.46,1.66s.7,1.66,1.46,1.66,1.48-.6,1.48-1.67-.7-1.64-1.48-1.64Z"/><path class="cls-2" d="M231.69,321.15h-2.05v-6.69h2.05v1.12c.47-.71,1.2-1.19,2.1-1.19v2.17h-.56c-.97,0-1.54,.34-1.54,1.49v3.11Z"/><path class="cls-2" d="M237.82,321.25c-1.97,0-3.45-1.32-3.45-3.44s1.52-3.44,3.48-3.44,3.48,1.32,3.48,3.44-1.54,3.44-3.5,3.44Zm0-1.78c.73,0,1.42-.54,1.42-1.67s-.67-1.67-1.39-1.67-1.39,.53-1.39,1.67,.62,1.67,1.37,1.67Z"/><path class="cls-2" d="M244.96,314.37c.89,0,1.66,.41,2.06,1.02v-3.11h2.05v8.88h-2.05v-.96c-.37,.61-1.08,1.06-2.06,1.06-1.64,0-2.95-1.34-2.95-3.45s1.31-3.43,2.95-3.43Zm.6,1.79c-.77,0-1.46,.58-1.46,1.64s.7,1.67,1.46,1.67,1.46-.59,1.46-1.66-.68-1.66-1.46-1.66Z"/><path class="cls-2" d="M257.18,321.15h-2.05v-.91c-.41,.58-1.13,.98-2.03,.98-1.55,0-2.59-1.07-2.59-2.85v-3.91h2.04v3.63c0,.91,.52,1.42,1.28,1.42s1.3-.5,1.3-1.42v-3.63h2.05v6.69Z"/><path class="cls-2" d="M258.98,316.17h-.82v-1.7h.82v-1.63h2.05v1.63h1.34v1.7h-1.34v2.69c0,.4,.17,.56,.62,.56h.73v1.74h-1.04c-1.39,0-2.36-.59-2.36-2.33v-2.66Z"/><path class="cls-2" d="M263.34,312.66c0-.62,.49-1.12,1.22-1.12s1.21,.49,1.21,1.12-.49,1.1-1.21,1.1-1.22-.49-1.22-1.1Zm.19,1.8h2.05v6.69h-2.05v-6.69Z"/><path class="cls-2" d="M271.18,314.37c1.66,0,2.95,1.32,2.95,3.43s-1.31,3.45-2.95,3.45c-.98,0-1.69-.44-2.06-1.03v.94h-2.05v-8.88h2.05v3.13c.37-.6,1.1-1.04,2.06-1.04Zm-.61,1.79c-.77,0-1.46,.59-1.46,1.66s.7,1.66,1.46,1.66,1.47-.6,1.47-1.67-.7-1.64-1.47-1.64Z"/><path class="cls-2" d="M275.02,312.66c0-.62,.49-1.12,1.22-1.12s1.21,.49,1.21,1.12-.49,1.1-1.21,1.1-1.22-.49-1.22-1.1Zm.19,1.8h2.05v6.69h-2.05v-6.69Z"/><path class="cls-2" d="M278.76,312.28h2.05v8.88h-2.05v-8.88Z"/><path class="cls-2" d="M282.1,312.66c0-.62,.49-1.12,1.22-1.12s1.21,.49,1.21,1.12-.49,1.1-1.21,1.1-1.22-.49-1.22-1.1Zm.19,1.8h2.05v6.69h-2.05v-6.69Z"/><path class="cls-2" d="M288.38,314.37c.89,0,1.66,.41,2.06,1.02v-3.11h2.05v8.88h-2.05v-.96c-.37,.61-1.08,1.06-2.06,1.06-1.64,0-2.95-1.34-2.95-3.45s1.31-3.43,2.95-3.43Zm.6,1.79c-.77,0-1.46,.58-1.46,1.64s.7,1.67,1.46,1.67,1.46-.59,1.46-1.66-.68-1.66-1.46-1.66Z"/><path class="cls-2" d="M296.53,314.37c1,0,1.7,.46,2.06,1.04v-.95h2.05v6.69h-2.05v-.95c-.37,.59-1.08,1.04-2.08,1.04-1.63,0-2.94-1.34-2.94-3.45s1.31-3.43,2.95-3.43Zm.6,1.79c-.77,0-1.46,.58-1.46,1.64s.7,1.67,1.46,1.67,1.46-.59,1.46-1.66-.68-1.66-1.46-1.66Z"/><path class="cls-2" d="M304.67,314.37c.89,0,1.66,.41,2.06,1.02v-3.11h2.05v8.88h-2.05v-.96c-.37,.61-1.08,1.06-2.06,1.06-1.64,0-2.95-1.34-2.95-3.45s1.31-3.43,2.95-3.43Zm.6,1.79c-.77,0-1.46,.58-1.46,1.64s.7,1.67,1.46,1.67,1.46-.59,1.46-1.66-.68-1.66-1.46-1.66Z"/><path class="cls-2" d="M313.25,321.25c-1.97,0-3.38-1.32-3.38-3.44s1.39-3.44,3.38-3.44,3.33,1.29,3.33,3.33c0,.19-.01,.4-.04,.6h-4.64c.07,.88,.61,1.28,1.27,1.28,.58,0,.9-.29,1.07-.65h2.18c-.32,1.31-1.51,2.31-3.18,2.31Zm-1.33-4.09h2.57c0-.73-.58-1.15-1.26-1.15s-1.19,.41-1.31,1.15Z"/></g></g><g><g><rect class="cls-10" x="37.38" y="58.24" width="141" height="58" rx="16.5" ry="16.5"/><g><path class="cls-2" d="M49.26,80.2c2,0,3.51,1.13,3.99,2.95h-2.25c-.35-.72-.98-1.08-1.76-1.08-1.26,0-2.12,.94-2.12,2.42s.86,2.42,2.12,2.42c.78,0,1.42-.36,1.76-1.08h2.25c-.48,1.82-1.99,2.94-3.99,2.94-2.48,0-4.23-1.76-4.23-4.28s1.75-4.29,4.23-4.29Z"/><path class="cls-2" d="M57.56,88.81c-1.97,0-3.45-1.32-3.45-3.44s1.52-3.44,3.48-3.44,3.48,1.32,3.48,3.44-1.54,3.44-3.5,3.44Zm0-1.77c.73,0,1.42-.54,1.42-1.67s-.67-1.67-1.39-1.67-1.39,.53-1.39,1.67,.62,1.67,1.37,1.67Z"/><path class="cls-2" d="M71.38,85.08c0-.88-.5-1.36-1.28-1.36s-1.28,.48-1.28,1.36v3.63h-2.04v-3.63c0-.88-.5-1.36-1.28-1.36s-1.28,.48-1.28,1.36v3.63h-2.05v-6.69h2.05v.84c.4-.54,1.08-.91,1.96-.91,1.01,0,1.82,.44,2.28,1.25,.44-.71,1.28-1.25,2.25-1.25,1.66,0,2.72,1.06,2.72,2.85v3.91h-2.04v-3.63Z"/><path class="cls-2" d="M78.98,81.93c1.64,0,2.95,1.32,2.95,3.43s-1.31,3.45-2.95,3.45c-.98,0-1.69-.47-2.06-1.03v4.13h-2.05v-9.88h2.05v.95c.37-.59,1.08-1.04,2.06-1.04Zm-.61,1.79c-.77,0-1.46,.59-1.46,1.66s.7,1.66,1.46,1.66,1.48-.6,1.48-1.67-.7-1.64-1.48-1.64Z"/><path class="cls-2" d="M85.07,88.72h-2.05v-6.69h2.05v1.12c.47-.71,1.2-1.19,2.1-1.19v2.17h-.56c-.97,0-1.54,.34-1.54,1.49v3.11Z"/><path class="cls-2" d="M91.13,88.81c-1.97,0-3.38-1.32-3.38-3.44s1.39-3.44,3.38-3.44,3.33,1.29,3.33,3.33c0,.19-.01,.4-.04,.6h-4.64c.07,.88,.61,1.28,1.27,1.28,.58,0,.9-.29,1.07-.65h2.18c-.32,1.31-1.51,2.31-3.18,2.31Zm-1.33-4.09h2.57c0-.73-.58-1.15-1.26-1.15s-1.19,.41-1.31,1.15Z"/><path class="cls-2" d="M98.52,88.81c-1.97,0-3.38-1.32-3.38-3.44s1.39-3.44,3.38-3.44,3.33,1.29,3.33,3.33c0,.19-.01,.4-.04,.6h-4.64c.07,.88,.61,1.28,1.27,1.28,.58,0,.9-.29,1.07-.65h2.18c-.32,1.31-1.51,2.31-3.18,2.31Zm-1.33-4.09h2.57c0-.73-.58-1.15-1.26-1.15s-1.19,.41-1.31,1.15Z"/><path class="cls-2" d="M107.55,85.08c0-.91-.5-1.42-1.28-1.42s-1.28,.5-1.28,1.42v3.63h-2.05v-6.69h2.05v.89c.41-.56,1.13-.96,2.03-.96,1.55,0,2.58,1.06,2.58,2.85v3.91h-2.04v-3.63Z"/><path class="cls-2" d="M113.75,88.81c-1.79,0-2.99-1-3.08-2.29h2.03c.05,.47,.47,.78,1.03,.78,.53,0,.8-.24,.8-.54,0-1.08-3.65-.3-3.65-2.76,0-1.14,.97-2.07,2.72-2.07s2.69,.96,2.82,2.28h-1.9c-.06-.46-.41-.76-.98-.76-.48,0-.74,.19-.74,.52,0,1.07,3.62,.31,3.66,2.81,0,1.16-1.03,2.04-2.71,2.04Z"/><path class="cls-2" d="M117.53,80.22c0-.62,.49-1.12,1.22-1.12s1.21,.49,1.21,1.12-.49,1.1-1.21,1.1-1.22-.49-1.22-1.1Zm.19,1.8h2.05v6.69h-2.05v-6.69Z"/><path class="cls-2" d="M125.37,81.93c1.65,0,2.95,1.32,2.95,3.43s-1.31,3.45-2.95,3.45c-.98,0-1.69-.44-2.06-1.03v.94h-2.05v-8.88h2.05v3.13c.37-.6,1.1-1.04,2.06-1.04Zm-.61,1.79c-.77,0-1.46,.59-1.46,1.66s.7,1.66,1.46,1.66,1.48-.6,1.48-1.67-.7-1.64-1.48-1.64Z"/><path class="cls-2" d="M129.22,80.22c0-.62,.49-1.12,1.22-1.12s1.21,.49,1.21,1.12-.49,1.1-1.21,1.1-1.22-.49-1.22-1.1Zm.19,1.8h2.05v6.69h-2.05v-6.69Z"/><path class="cls-2" d="M132.95,79.84h2.05v8.88h-2.05v-8.88Z"/><path class="cls-2" d="M136.3,80.22c0-.62,.49-1.12,1.22-1.12s1.21,.49,1.21,1.12-.49,1.1-1.21,1.1-1.22-.49-1.22-1.1Zm.19,1.8h2.05v6.69h-2.05v-6.69Z"/><path class="cls-2" d="M142.57,81.93c.89,0,1.66,.41,2.06,1.02v-3.11h2.05v8.88h-2.05v-.96c-.37,.61-1.08,1.06-2.06,1.06-1.64,0-2.95-1.34-2.95-3.45s1.31-3.43,2.95-3.43Zm.6,1.79c-.77,0-1.46,.58-1.46,1.64s.7,1.67,1.46,1.67,1.46-.59,1.46-1.66-.68-1.66-1.46-1.66Z"/><path class="cls-2" d="M150.72,81.93c1,0,1.7,.46,2.06,1.04v-.95h2.05v6.69h-2.05v-.95c-.37,.59-1.08,1.04-2.07,1.04-1.63,0-2.94-1.34-2.94-3.45s1.31-3.43,2.95-3.43Zm.6,1.79c-.77,0-1.46,.58-1.46,1.64s.7,1.67,1.46,1.67,1.46-.59,1.46-1.66-.68-1.66-1.46-1.66Z"/><path class="cls-2" d="M158.87,81.93c.89,0,1.66,.41,2.06,1.02v-3.11h2.05v8.88h-2.05v-.96c-.37,.61-1.08,1.06-2.06,1.06-1.64,0-2.95-1.34-2.95-3.45s1.31-3.43,2.95-3.43Zm.6,1.79c-.77,0-1.46,.58-1.46,1.64s.7,1.67,1.46,1.67,1.46-.59,1.46-1.66-.68-1.66-1.46-1.66Z"/><path class="cls-2" d="M167.45,88.81c-1.97,0-3.38-1.32-3.38-3.44s1.39-3.44,3.38-3.44,3.33,1.29,3.33,3.33c0,.19-.01,.4-.04,.6h-4.64c.07,.88,.61,1.28,1.27,1.28,.58,0,.9-.29,1.07-.65h2.18c-.32,1.31-1.51,2.31-3.18,2.31Zm-1.33-4.09h2.57c0-.73-.58-1.15-1.26-1.15s-1.19,.41-1.31,1.15Z"/></g></g><g><rect class="cls-11" x="346.37" y="58.24" width="141" height="58" rx="16.5" ry="16.5"/><g><path class="cls-2" d="M365.04,73.1h2.42l2.36,5.83,2.34-5.83h2.41v8.42h-2.05v-5.05l-1.88,5.05h-1.66l-1.89-5.06v5.06h-2.05v-8.42Z"/><path class="cls-2" d="M379.03,81.61c-1.97,0-3.38-1.32-3.38-3.44s1.39-3.44,3.38-3.44,3.33,1.29,3.33,3.33c0,.19-.01,.4-.04,.6h-4.64c.07,.88,.61,1.28,1.27,1.28,.58,0,.9-.29,1.07-.65h2.18c-.32,1.31-1.51,2.31-3.18,2.31Zm-1.33-4.09h2.57c0-.73-.58-1.15-1.26-1.15s-1.19,.41-1.31,1.15Z"/><path class="cls-2" d="M388.06,77.88c0-.91-.5-1.42-1.28-1.42s-1.28,.5-1.28,1.42v3.63h-2.05v-6.69h2.05v.89c.41-.56,1.13-.96,2.03-.96,1.55,0,2.58,1.06,2.58,2.85v3.91h-2.04v-3.63Z"/><path class="cls-2" d="M394.25,81.61c-1.79,0-2.99-1-3.08-2.29h2.03c.05,.47,.47,.78,1.03,.78,.53,0,.8-.24,.8-.54,0-1.08-3.65-.3-3.65-2.76,0-1.14,.97-2.07,2.72-2.07s2.69,.96,2.82,2.28h-1.89c-.06-.46-.41-.76-.98-.76-.48,0-.74,.19-.74,.52,0,1.07,3.62,.31,3.66,2.81,0,1.16-1.03,2.04-2.71,2.04Z"/><path class="cls-2" d="M404.84,81.52h-2.05v-.91c-.41,.58-1.13,.98-2.03,.98-1.55,0-2.59-1.07-2.59-2.85v-3.91h2.04v3.63c0,.91,.52,1.42,1.28,1.42s1.29-.5,1.29-1.42v-3.63h2.05v6.69Z"/><path class="cls-2" d="M408.37,81.52h-2.05v-6.69h2.05v1.12c.47-.71,1.2-1.19,2.1-1.19v2.17h-.56c-.97,0-1.54,.34-1.54,1.49v3.11Z"/><path class="cls-2" d="M413.99,74.73c1,0,1.7,.46,2.06,1.04v-.95h2.05v6.69h-2.05v-.95c-.37,.59-1.08,1.04-2.07,1.04-1.63,0-2.94-1.34-2.94-3.45s1.31-3.43,2.95-3.43Zm.6,1.79c-.77,0-1.46,.58-1.46,1.64s.7,1.67,1.46,1.67,1.46-.59,1.46-1.66-.68-1.66-1.46-1.66Z"/><path class="cls-2" d="M423.71,74.73c1.66,0,2.95,1.32,2.95,3.43s-1.31,3.45-2.95,3.45c-.98,0-1.69-.44-2.06-1.03v.94h-2.05v-8.88h2.05v3.13c.37-.6,1.1-1.04,2.06-1.04Zm-.61,1.79c-.77,0-1.46,.59-1.46,1.66s.7,1.66,1.46,1.66,1.47-.6,1.47-1.67-.7-1.64-1.47-1.64Z"/><path class="cls-2" d="M427.56,73.02c0-.62,.49-1.12,1.22-1.12s1.21,.49,1.21,1.12-.49,1.1-1.21,1.1-1.22-.49-1.22-1.1Zm.19,1.8h2.05v6.69h-2.05v-6.69Z"/><path class="cls-2" d="M431.29,72.64h2.05v8.88h-2.05v-8.88Z"/><path class="cls-2" d="M434.64,73.02c0-.62,.49-1.12,1.22-1.12s1.21,.49,1.21,1.12-.49,1.1-1.21,1.1-1.22-.49-1.22-1.1Zm.19,1.8h2.05v6.69h-2.05v-6.69Z"/><path class="cls-2" d="M440.91,74.73c.89,0,1.66,.41,2.06,1.02v-3.11h2.05v8.88h-2.05v-.96c-.37,.61-1.08,1.06-2.06,1.06-1.64,0-2.95-1.34-2.95-3.45s1.31-3.43,2.95-3.43Zm.6,1.79c-.77,0-1.46,.58-1.46,1.64s.7,1.67,1.46,1.67,1.46-.59,1.46-1.66-.68-1.66-1.46-1.66Z"/><path class="cls-2" d="M449.06,74.73c1,0,1.7,.46,2.06,1.04v-.95h2.05v6.69h-2.05v-.95c-.37,.59-1.08,1.04-2.07,1.04-1.63,0-2.94-1.34-2.94-3.45s1.31-3.43,2.95-3.43Zm.6,1.79c-.77,0-1.46,.58-1.46,1.64s.7,1.67,1.46,1.67,1.46-.59,1.46-1.66-.68-1.66-1.46-1.66Z"/><path class="cls-2" d="M457.2,74.73c.89,0,1.66,.41,2.06,1.02v-3.11h2.05v8.88h-2.05v-.96c-.37,.61-1.08,1.06-2.06,1.06-1.64,0-2.95-1.34-2.95-3.45s1.31-3.43,2.95-3.43Zm.6,1.79c-.77,0-1.46,.58-1.46,1.64s.7,1.67,1.46,1.67,1.46-.59,1.46-1.66-.68-1.66-1.46-1.66Z"/><path class="cls-2" d="M465.78,81.61c-1.97,0-3.38-1.32-3.38-3.44s1.39-3.44,3.38-3.44,3.33,1.29,3.33,3.33c0,.19-.01,.4-.04,.6h-4.64c.07,.88,.61,1.28,1.27,1.28,.58,0,.9-.29,1.07-.65h2.18c-.32,1.31-1.51,2.31-3.18,2.31Zm-1.33-4.09h2.57c0-.73-.58-1.15-1.26-1.15s-1.19,.41-1.31,1.15Z"/><path class="cls-2" d="M380.72,96.01c-1.97,0-3.38-1.32-3.38-3.44s1.39-3.44,3.38-3.44,3.33,1.29,3.33,3.33c0,.19-.01,.4-.04,.6h-4.64c.07,.88,.61,1.28,1.27,1.28,.58,0,.9-.29,1.07-.65h2.18c-.32,1.31-1.51,2.31-3.18,2.31Zm-1.33-4.09h2.57c0-.73-.58-1.15-1.26-1.15s-1.19,.41-1.31,1.15Z"/><path class="cls-2" d="M389.24,89.22l1.45,4.77,1.45-4.77h2.18l-2.38,6.69h-2.53l-2.37-6.69h2.19Z"/><path class="cls-2" d="M395.01,87.42c0-.62,.49-1.12,1.22-1.12s1.21,.49,1.21,1.12-.49,1.1-1.21,1.1-1.22-.49-1.22-1.1Zm.19,1.8h2.05v6.69h-2.05v-6.69Z"/><path class="cls-2" d="M401.28,89.13c1,0,1.7,.46,2.06,1.04v-.95h2.05v6.69h-2.05v-.95c-.37,.59-1.08,1.04-2.08,1.04-1.63,0-2.94-1.34-2.94-3.45s1.31-3.43,2.95-3.43Zm.6,1.79c-.77,0-1.46,.58-1.46,1.64s.7,1.67,1.46,1.67,1.46-.59,1.46-1.66-.68-1.66-1.46-1.66Z"/><path class="cls-2" d="M411,89.13c1.65,0,2.95,1.32,2.95,3.43s-1.31,3.45-2.95,3.45c-.98,0-1.69-.44-2.06-1.03v.94h-2.05v-8.88h2.05v3.13c.37-.6,1.1-1.04,2.06-1.04Zm-.61,1.79c-.77,0-1.46,.59-1.46,1.66s.7,1.66,1.46,1.66,1.48-.6,1.48-1.67-.7-1.64-1.48-1.64Z"/><path class="cls-2" d="M414.84,87.42c0-.62,.49-1.12,1.22-1.12s1.21,.49,1.21,1.12-.49,1.1-1.21,1.1-1.22-.49-1.22-1.1Zm.19,1.8h2.05v6.69h-2.05v-6.69Z"/><path class="cls-2" d="M418.57,87.04h2.05v8.88h-2.05v-8.88Z"/><path class="cls-2" d="M421.92,87.42c0-.62,.49-1.12,1.22-1.12s1.21,.49,1.21,1.12-.49,1.1-1.21,1.1-1.22-.49-1.22-1.1Zm.19,1.8h2.05v6.69h-2.05v-6.69Z"/><path class="cls-2" d="M428.2,89.13c.89,0,1.66,.41,2.06,1.02v-3.11h2.05v8.88h-2.05v-.96c-.37,.61-1.08,1.06-2.06,1.06-1.64,0-2.95-1.34-2.95-3.45s1.31-3.43,2.95-3.43Zm.6,1.79c-.77,0-1.46,.58-1.46,1.64s.7,1.67,1.46,1.67,1.46-.59,1.46-1.66-.68-1.66-1.46-1.66Z"/><path class="cls-2" d="M436.34,89.13c1,0,1.7,.46,2.06,1.04v-.95h2.05v6.69h-2.05v-.95c-.37,.59-1.08,1.04-2.08,1.04-1.63,0-2.94-1.34-2.94-3.45s1.31-3.43,2.95-3.43Zm.6,1.79c-.77,0-1.46,.58-1.46,1.64s.7,1.67,1.46,1.67,1.46-.59,1.46-1.66-.68-1.66-1.46-1.66Z"/><path class="cls-2" d="M444.49,89.13c.89,0,1.66,.41,2.06,1.02v-3.11h2.05v8.88h-2.05v-.96c-.37,.61-1.08,1.06-2.06,1.06-1.64,0-2.95-1.34-2.95-3.45s1.31-3.43,2.95-3.43Zm.6,1.79c-.77,0-1.46,.58-1.46,1.64s.7,1.67,1.46,1.67,1.46-.59,1.46-1.66-.68-1.66-1.46-1.66Z"/><path class="cls-2" d="M453.07,96.01c-1.97,0-3.38-1.32-3.38-3.44s1.39-3.44,3.38-3.44,3.33,1.29,3.33,3.33c0,.19-.01,.4-.04,.6h-4.64c.07,.88,.61,1.28,1.27,1.28,.58,0,.9-.29,1.07-.65h2.18c-.32,1.31-1.51,2.31-3.18,2.31Zm-1.33-4.09h2.57c0-.73-.58-1.15-1.26-1.15s-1.19,.41-1.31,1.15Z"/></g></g></g><g><g><rect class="cls-4" x="25.5" y="213.2" width="141" height="58" rx="16.5" ry="16.5"/><g><path class="cls-2" d="M46.72,243.76c-1.81,0-3.23-.9-3.29-2.6h2.18c.06,.65,.47,.96,1.04,.96s.98-.3,.98-.79c0-1.56-4.21-.72-4.19-3.71,0-1.59,1.31-2.48,3.07-2.48s3.07,.91,3.15,2.52h-2.22c-.04-.54-.42-.86-.97-.88-.49-.01-.86,.24-.86,.77,0,1.46,4.16,.8,4.16,3.62,0,1.42-1.1,2.59-3.07,2.59Z"/><path class="cls-2" d="M57.66,243.67h-2.05v-.91c-.41,.58-1.13,.98-2.03,.98-1.55,0-2.59-1.07-2.59-2.85v-3.91h2.04v3.63c0,.91,.52,1.42,1.28,1.42s1.3-.5,1.3-1.42v-3.63h2.05v6.69Z"/><path class="cls-2" d="M61.86,243.77c-1.79,0-2.99-1-3.08-2.29h2.03c.05,.47,.47,.78,1.03,.78,.53,0,.8-.24,.8-.54,0-1.08-3.65-.3-3.65-2.76,0-1.14,.97-2.08,2.72-2.08s2.69,.96,2.82,2.28h-1.9c-.06-.46-.41-.75-.98-.75-.48,0-.74,.19-.74,.52,0,1.07,3.62,.31,3.66,2.81,0,1.16-1.03,2.04-2.71,2.04Z"/><path class="cls-2" d="M66.16,238.69h-.82v-1.7h.82v-1.63h2.05v1.63h1.34v1.7h-1.34v2.69c0,.4,.17,.56,.62,.56h.73v1.74h-1.04c-1.39,0-2.36-.59-2.36-2.33v-2.66Z"/><path class="cls-2" d="M73.68,243.77c-1.97,0-3.38-1.32-3.38-3.44s1.39-3.44,3.38-3.44,3.33,1.29,3.33,3.33c0,.19-.01,.4-.04,.6h-4.64c.07,.88,.61,1.28,1.27,1.28,.58,0,.9-.29,1.07-.65h2.18c-.32,1.31-1.51,2.31-3.18,2.31Zm-1.33-4.09h2.57c0-.73-.58-1.15-1.26-1.15s-1.19,.41-1.31,1.15Z"/><path class="cls-2" d="M82.72,240.04c0-.91-.5-1.42-1.28-1.42s-1.28,.5-1.28,1.42v3.63h-2.05v-6.69h2.05v.89c.41-.56,1.13-.96,2.03-.96,1.55,0,2.58,1.05,2.58,2.85v3.91h-2.04v-3.63Z"/><path class="cls-2" d="M86.51,238.69h-.82v-1.7h.82v-1.63h2.05v1.63h1.34v1.7h-1.34v2.69c0,.4,.17,.56,.62,.56h.73v1.74h-1.04c-1.39,0-2.36-.59-2.36-2.33v-2.66Z"/><path class="cls-2" d="M93.6,236.89c1,0,1.7,.46,2.06,1.04v-.95h2.05v6.69h-2.05v-.95c-.37,.59-1.08,1.04-2.07,1.04-1.63,0-2.94-1.34-2.94-3.45s1.31-3.43,2.95-3.43Zm.6,1.79c-.77,0-1.46,.58-1.46,1.64s.7,1.67,1.46,1.67,1.46-.59,1.46-1.66-.68-1.66-1.46-1.66Z"/><path class="cls-2" d="M103.32,236.89c1.65,0,2.95,1.32,2.95,3.43s-1.31,3.45-2.95,3.45c-.98,0-1.69-.44-2.06-1.03v.94h-2.05v-8.88h2.05v3.13c.37-.6,1.1-1.04,2.06-1.04Zm-.61,1.79c-.77,0-1.46,.59-1.46,1.66s.7,1.66,1.46,1.66,1.48-.6,1.48-1.67-.7-1.64-1.48-1.64Z"/><path class="cls-2" d="M107.17,235.18c0-.62,.49-1.12,1.22-1.12s1.21,.49,1.21,1.12-.49,1.1-1.21,1.1-1.22-.49-1.22-1.1Zm.19,1.8h2.05v6.69h-2.05v-6.69Z"/><path class="cls-2" d="M110.9,234.8h2.05v8.88h-2.05v-8.88Z"/><path class="cls-2" d="M114.25,235.18c0-.62,.49-1.12,1.22-1.12s1.21,.49,1.21,1.12-.49,1.1-1.21,1.1-1.22-.49-1.22-1.1Zm.19,1.8h2.05v6.69h-2.05v-6.69Z"/><path class="cls-2" d="M120.52,236.89c.89,0,1.66,.41,2.06,1.02v-3.11h2.05v8.88h-2.05v-.96c-.37,.61-1.08,1.05-2.06,1.05-1.64,0-2.95-1.34-2.95-3.45s1.31-3.43,2.95-3.43Zm.6,1.79c-.77,0-1.46,.58-1.46,1.64s.7,1.67,1.46,1.67,1.46-.59,1.46-1.66-.68-1.66-1.46-1.66Z"/><path class="cls-2" d="M128.67,236.89c1,0,1.7,.46,2.06,1.04v-.95h2.05v6.69h-2.05v-.95c-.37,.59-1.08,1.04-2.07,1.04-1.63,0-2.94-1.34-2.94-3.45s1.31-3.43,2.95-3.43Zm.6,1.79c-.77,0-1.46,.58-1.46,1.64s.7,1.67,1.46,1.67,1.46-.59,1.46-1.66-.68-1.66-1.46-1.66Z"/><path class="cls-2" d="M136.82,236.89c.89,0,1.66,.41,2.06,1.02v-3.11h2.05v8.88h-2.05v-.96c-.37,.61-1.08,1.05-2.06,1.05-1.64,0-2.95-1.34-2.95-3.45s1.31-3.43,2.95-3.43Zm.6,1.79c-.77,0-1.46,.58-1.46,1.64s.7,1.67,1.46,1.67,1.46-.59,1.46-1.66-.68-1.66-1.46-1.66Z"/><path class="cls-2" d="M145.39,243.77c-1.97,0-3.38-1.32-3.38-3.44s1.39-3.44,3.38-3.44,3.33,1.29,3.33,3.33c0,.19-.01,.4-.04,.6h-4.64c.07,.88,.61,1.28,1.27,1.28,.58,0,.9-.29,1.07-.65h2.18c-.32,1.31-1.51,2.31-3.18,2.31Zm-1.33-4.09h2.57c0-.73-.58-1.15-1.26-1.15s-1.19,.41-1.31,1.15Z"/></g></g><g><rect class="cls-3" x="356.5" y="213.2" width="141" height="58" rx="16.5" ry="16.5"/><g><path class="cls-2" d="M388.33,243.76c-2.39,0-4.33-1.79-4.33-4.32s1.94-4.31,4.33-4.31,4.31,1.78,4.31,4.31-1.92,4.32-4.31,4.32Zm0-1.87c1.34,0,2.22-.97,2.22-2.45s-.88-2.45-2.22-2.45-2.23,.95-2.23,2.45,.86,2.45,2.23,2.45Z"/><path class="cls-2" d="M397.9,236.89c1.64,0,2.95,1.32,2.95,3.43s-1.31,3.45-2.95,3.45c-.98,0-1.69-.47-2.06-1.03v4.13h-2.05v-9.88h2.05v.95c.37-.59,1.08-1.04,2.06-1.04Zm-.61,1.79c-.77,0-1.46,.59-1.46,1.66s.7,1.66,1.46,1.66,1.47-.6,1.47-1.67-.7-1.64-1.47-1.64Z"/><path class="cls-2" d="M404.98,243.77c-1.97,0-3.45-1.32-3.45-3.44s1.52-3.44,3.48-3.44,3.48,1.32,3.48,3.44-1.54,3.44-3.5,3.44Zm0-1.77c.73,0,1.42-.54,1.42-1.67s-.67-1.67-1.39-1.67-1.39,.53-1.39,1.67,.62,1.67,1.37,1.67Z"/><path class="cls-2" d="M411.63,243.67h-2.05v-6.69h2.05v1.12c.47-.71,1.2-1.19,2.1-1.19v2.17h-.56c-.97,0-1.54,.33-1.54,1.49v3.11Z"/><path class="cls-2" d="M415.04,238.69h-.82v-1.7h.82v-1.63h2.05v1.63h1.34v1.7h-1.34v2.69c0,.4,.17,.56,.62,.56h.73v1.74h-1.04c-1.39,0-2.36-.59-2.36-2.33v-2.66Z"/><path class="cls-2" d="M426.19,243.67h-2.05v-.91c-.41,.58-1.13,.98-2.03,.98-1.55,0-2.59-1.07-2.59-2.85v-3.91h2.04v3.63c0,.91,.52,1.42,1.28,1.42s1.29-.5,1.29-1.42v-3.63h2.05v6.69Z"/><path class="cls-2" d="M432.29,240.04c0-.91-.5-1.42-1.28-1.42s-1.28,.5-1.28,1.42v3.63h-2.05v-6.69h2.05v.89c.41-.56,1.13-.96,2.03-.96,1.55,0,2.58,1.05,2.58,2.85v3.91h-2.04v-3.63Z"/><path class="cls-2" d="M435.57,235.18c0-.62,.49-1.12,1.22-1.12s1.21,.49,1.21,1.12-.49,1.1-1.21,1.1-1.22-.49-1.22-1.1Zm.19,1.8h2.05v6.69h-2.05v-6.69Z"/><path class="cls-2" d="M441.84,236.89c.89,0,1.66,.41,2.06,1.02v-3.11h2.05v8.88h-2.05v-.96c-.37,.61-1.08,1.05-2.06,1.05-1.64,0-2.95-1.34-2.95-3.45s1.31-3.43,2.95-3.43Zm.6,1.79c-.77,0-1.46,.58-1.46,1.64s.7,1.67,1.46,1.67,1.46-.59,1.46-1.66-.68-1.66-1.46-1.66Z"/><path class="cls-2" d="M449.99,236.89c1,0,1.7,.46,2.06,1.04v-.95h2.05v6.69h-2.05v-.95c-.37,.59-1.08,1.04-2.08,1.04-1.63,0-2.94-1.34-2.94-3.45s1.31-3.43,2.95-3.43Zm.6,1.79c-.77,0-1.46,.58-1.46,1.64s.7,1.67,1.46,1.67,1.46-.59,1.46-1.66-.68-1.66-1.46-1.66Z"/><path class="cls-2" d="M458.14,236.89c.89,0,1.66,.41,2.06,1.02v-3.11h2.05v8.88h-2.05v-.96c-.37,.61-1.08,1.05-2.06,1.05-1.64,0-2.95-1.34-2.95-3.45s1.31-3.43,2.95-3.43Zm.6,1.79c-.77,0-1.46,.58-1.46,1.64s.7,1.67,1.46,1.67,1.46-.59,1.46-1.66-.68-1.66-1.46-1.66Z"/><path class="cls-2" d="M466.72,243.77c-1.97,0-3.38-1.32-3.38-3.44s1.39-3.44,3.38-3.44,3.33,1.29,3.33,3.33c0,.19-.01,.4-.04,.6h-4.64c.07,.88,.61,1.28,1.27,1.28,.58,0,.9-.29,1.07-.65h2.18c-.32,1.31-1.51,2.31-3.18,2.31Zm-1.33-4.09h2.57c0-.73-.58-1.15-1.26-1.15s-1.19,.41-1.31,1.15Z"/></g></g></g><g><g><rect class="cls-9" x="7.5" y="135.72" width="141" height="58" rx="16.5" ry="16.5"/><g><path class="cls-2" d="M45.32,155.97h-1.27v3.02h-2.05v-8.42h3.32c2.06,0,3.09,1.16,3.09,2.71,0,1.39-.95,2.69-3.09,2.69Zm-.16-1.63c.82,0,1.16-.41,1.16-1.06s-.35-1.06-1.16-1.06h-1.12v2.11h1.12Z"/><path class="cls-2" d="M52.46,159.09c-1.97,0-3.38-1.32-3.38-3.44s1.39-3.44,3.38-3.44,3.33,1.29,3.33,3.33c0,.19-.01,.4-.04,.6h-4.64c.07,.88,.61,1.28,1.27,1.28,.58,0,.9-.29,1.07-.65h2.18c-.32,1.31-1.51,2.31-3.18,2.31Zm-1.33-4.09h2.57c0-.73-.58-1.15-1.26-1.15s-1.19,.41-1.31,1.15Z"/><path class="cls-2" d="M58.93,159h-2.05v-6.69h2.05v1.12c.47-.71,1.2-1.19,2.1-1.19v2.17h-.56c-.97,0-1.54,.34-1.54,1.49v3.11Z"/><path class="cls-2" d="M62.34,154.01h-.82v-1.7h.82v-1.63h2.05v1.63h1.34v1.7h-1.34v2.69c0,.4,.17,.56,.62,.56h.73v1.74h-1.04c-1.39,0-2.36-.59-2.36-2.33v-2.66Z"/><path class="cls-2" d="M66.7,150.5c0-.62,.49-1.12,1.22-1.12s1.21,.49,1.21,1.12-.49,1.1-1.21,1.1-1.22-.49-1.22-1.1Zm.19,1.8h2.05v6.69h-2.05v-6.69Z"/><path class="cls-2" d="M75.04,155.36c0-.91-.5-1.42-1.28-1.42s-1.28,.5-1.28,1.42v3.63h-2.05v-6.69h2.05v.89c.41-.56,1.13-.96,2.03-.96,1.55,0,2.58,1.06,2.58,2.85v3.91h-2.04v-3.63Z"/><path class="cls-2" d="M81.49,159.09c-1.97,0-3.38-1.32-3.38-3.44s1.39-3.44,3.38-3.44,3.33,1.29,3.33,3.33c0,.19-.01,.4-.04,.6h-4.64c.07,.88,.61,1.28,1.27,1.28,.58,0,.9-.29,1.07-.65h2.18c-.32,1.31-1.51,2.31-3.18,2.31Zm1.83-7.29l-1.86-.98-1.86,.98v-1.42l1.86-.95,1.86,.95v1.42Zm-3.17,3.2h2.57c0-.73-.58-1.15-1.26-1.15s-1.19,.41-1.31,1.15Z"/><path class="cls-2" d="M90.52,155.36c0-.91-.5-1.42-1.28-1.42s-1.28,.5-1.28,1.42v3.63h-2.05v-6.69h2.05v.89c.41-.56,1.13-.96,2.03-.96,1.55,0,2.58,1.06,2.58,2.85v3.91h-2.04v-3.63Z"/><path class="cls-2" d="M96.95,152.21c1.68,0,2.87,.92,3.21,2.52h-2.18c-.17-.47-.5-.77-1.07-.77-.73,0-1.24,.58-1.24,1.69s.5,1.69,1.24,1.69c.56,0,.89-.28,1.07-.77h2.18c-.35,1.55-1.54,2.52-3.21,2.52-1.97,0-3.36-1.32-3.36-3.44s1.39-3.44,3.36-3.44Z"/><path class="cls-2" d="M101.06,150.5c0-.62,.49-1.12,1.22-1.12s1.21,.49,1.21,1.12-.49,1.1-1.21,1.1-1.22-.49-1.22-1.1Zm.19,1.8h2.05v6.69h-2.05v-6.69Z"/><path class="cls-2" d="M107.34,152.21c1,0,1.7,.46,2.06,1.04v-.95h2.05v6.69h-2.05v-.95c-.37,.59-1.08,1.04-2.07,1.04-1.63,0-2.94-1.34-2.94-3.45s1.31-3.43,2.95-3.43Zm.6,1.79c-.77,0-1.46,.58-1.46,1.64s.7,1.67,1.46,1.67,1.46-.59,1.46-1.66-.68-1.66-1.46-1.66Z"/><path class="cls-2" d="M43.67,173.49c-1.97,0-3.38-1.32-3.38-3.44s1.39-3.44,3.38-3.44,3.33,1.29,3.33,3.33c0,.19-.01,.4-.04,.6h-4.64c.07,.88,.61,1.28,1.27,1.28,.58,0,.9-.29,1.07-.65h2.18c-.32,1.31-1.51,2.31-3.18,2.31Zm-1.33-4.09h2.57c0-.73-.58-1.15-1.26-1.15s-1.19,.41-1.31,1.15Z"/><path class="cls-2" d="M52.68,173.4h-2.05v-6.69h2.05v1.12c.47-.71,1.2-1.19,2.1-1.19v2.17h-.56c-.97,0-1.54,.34-1.54,1.49v3.11Z"/><path class="cls-2" d="M58.74,173.49c-1.97,0-3.38-1.32-3.38-3.44s1.39-3.44,3.38-3.44,3.33,1.29,3.33,3.33c0,.19-.01,.4-.04,.6h-4.64c.07,.88,.61,1.28,1.27,1.28,.58,0,.9-.29,1.07-.65h2.18c-.32,1.31-1.51,2.31-3.18,2.31Zm-1.33-4.09h2.57c0-.73-.58-1.15-1.26-1.15s-1.19,.41-1.31,1.15Z"/><path class="cls-2" d="M63.16,164.52h2.05v8.88h-2.05v-8.88Z"/><path class="cls-2" d="M69.68,173.49c-1.97,0-3.38-1.32-3.38-3.44s1.39-3.44,3.38-3.44,3.33,1.29,3.33,3.33c0,.19-.01,.4-.04,.6h-4.64c.07,.88,.61,1.28,1.27,1.28,.58,0,.9-.29,1.07-.65h2.18c-.32,1.31-1.51,2.31-3.18,2.31Zm-1.33-4.09h2.57c0-.73-.58-1.15-1.26-1.15s-1.19,.41-1.31,1.15Z"/><path class="cls-2" d="M75.65,166.7l1.45,4.77,1.45-4.77h2.18l-2.38,6.69h-2.53l-2.37-6.69h2.19Z"/><path class="cls-2" d="M84.15,166.61c1,0,1.7,.46,2.06,1.04v-.95h2.05v6.69h-2.05v-.95c-.37,.59-1.08,1.04-2.07,1.04-1.63,0-2.94-1.34-2.94-3.45s1.31-3.43,2.95-3.43Zm2.69-.36l-1.86-.98-1.86,.98v-1.42l1.86-.95,1.86,.95v1.42Zm-2.09,2.15c-.77,0-1.46,.58-1.46,1.64s.7,1.67,1.46,1.67,1.46-.59,1.46-1.66-.68-1.66-1.46-1.66Z"/><path class="cls-2" d="M94.37,169.76c0-.91-.5-1.42-1.28-1.42s-1.28,.5-1.28,1.42v3.63h-2.05v-6.69h2.05v.89c.41-.56,1.13-.96,2.03-.96,1.55,0,2.58,1.06,2.58,2.85v3.91h-2.04v-3.63Z"/><path class="cls-2" d="M100.79,166.61c1.68,0,2.87,.92,3.21,2.52h-2.18c-.17-.47-.5-.77-1.07-.77-.73,0-1.24,.58-1.24,1.69s.5,1.69,1.24,1.69c.56,0,.89-.28,1.07-.77h2.18c-.35,1.55-1.54,2.52-3.21,2.52-1.97,0-3.36-1.32-3.36-3.44s1.39-3.44,3.36-3.44Z"/><path class="cls-2" d="M104.91,164.9c0-.62,.49-1.12,1.22-1.12s1.21,.49,1.21,1.12-.49,1.1-1.21,1.1-1.22-.49-1.22-1.1Zm.19,1.8h2.05v6.69h-2.05v-6.69Z"/><path class="cls-2" d="M111.18,166.61c1,0,1.7,.46,2.06,1.04v-.95h2.05v6.69h-2.05v-.95c-.37,.59-1.08,1.04-2.07,1.04-1.63,0-2.94-1.34-2.94-3.45s1.31-3.43,2.95-3.43Zm.6,1.79c-.77,0-1.46,.58-1.46,1.64s.7,1.67,1.46,1.67,1.46-.59,1.46-1.66-.68-1.66-1.46-1.66Z"/></g></g><g><rect class="cls-1" x="376.5" y="135.72" width="141" height="58" rx="16.5" ry="16.5"/><g><path class="cls-2" d="M425.56,157.78h2.17l-2.99,8.42h-2.57l-2.99-8.42h2.18l2.09,6.36,2.1-6.36Z"/><path class="cls-2" d="M431.13,159.41c1,0,1.7,.46,2.06,1.04v-.95h2.05v6.69h-2.05v-.95c-.37,.59-1.08,1.04-2.08,1.04-1.63,0-2.94-1.34-2.94-3.45s1.31-3.43,2.95-3.43Zm.6,1.79c-.77,0-1.46,.58-1.46,1.64s.7,1.67,1.46,1.67,1.46-.59,1.46-1.66-.68-1.66-1.46-1.66Z"/><path class="cls-2" d="M436.74,157.32h2.05v8.88h-2.05v-8.88Z"/><path class="cls-2" d="M440.09,157.7c0-.62,.49-1.12,1.22-1.12s1.21,.49,1.21,1.12-.49,1.1-1.21,1.1-1.22-.49-1.22-1.1Zm.19,1.8h2.05v6.69h-2.05v-6.69Z"/><path class="cls-2" d="M446.36,159.41c.89,0,1.66,.41,2.06,1.02v-3.11h2.05v8.88h-2.05v-.96c-.37,.61-1.08,1.06-2.06,1.06-1.64,0-2.95-1.34-2.95-3.45s1.31-3.43,2.95-3.43Zm.6,1.79c-.77,0-1.46,.58-1.46,1.64s.7,1.67,1.46,1.67,1.46-.59,1.46-1.66-.68-1.66-1.46-1.66Z"/><path class="cls-2" d="M454.51,159.41c1,0,1.7,.46,2.06,1.04v-.95h2.05v6.69h-2.05v-.95c-.37,.59-1.08,1.04-2.08,1.04-1.63,0-2.94-1.34-2.94-3.45s1.31-3.43,2.95-3.43Zm.6,1.79c-.77,0-1.46,.58-1.46,1.64s.7,1.67,1.46,1.67,1.46-.59,1.46-1.66-.68-1.66-1.46-1.66Z"/><path class="cls-2" d="M462.66,159.41c.89,0,1.66,.41,2.06,1.02v-3.11h2.05v8.88h-2.05v-.96c-.37,.61-1.08,1.06-2.06,1.06-1.64,0-2.95-1.34-2.95-3.45s1.31-3.43,2.95-3.43Zm.6,1.79c-.77,0-1.46,.58-1.46,1.64s.7,1.67,1.46,1.67,1.46-.59,1.46-1.66-.68-1.66-1.46-1.66Z"/><path class="cls-2" d="M471.24,166.29c-1.97,0-3.38-1.32-3.38-3.44s1.39-3.44,3.38-3.44,3.33,1.29,3.33,3.33c0,.19-.01,.4-.04,.6h-4.64c.07,.88,.61,1.28,1.27,1.28,.58,0,.9-.29,1.07-.65h2.18c-.32,1.31-1.51,2.31-3.18,2.31Zm-1.33-4.09h2.57c0-.73-.58-1.15-1.26-1.15s-1.19,.41-1.31,1.15Z"/></g></g></g></svg>