<?xml version="1.0" encoding="UTF-8"?><svg xmlns="http://www.w3.org/2000/svg" viewBox="0 0 416.25 436.5"><defs><style>.c{fill:#03c4a1;stroke:#fff;stroke-miterlimit:10;stroke-width:.75px;}</style></defs><g id="a"><g><path class="c" d="M82.48,183.56s-.04,.02-.06,.03c-.76,.25-1.61,.37-2.19,.93-1.2,1.18-.55,3.69-2.06,4.47-.87,.44-1.97-.03-2.88,.33-1.41,.55-1.45,2.55-2.42,3.72-1.04,1.26-3.28,1.2-4.24-.11-.05,1.6-.1,3.19-.15,4.79h-27.06v-15.33c-3.38,.22-6.13,3.9-9.36,4.92-1.21,.38-2.49,.36-3.75,.32-1.08-.03-2.17-.05-3.25-.08-.37-.02-.77-.03-1.05-.28-.26-.24-.34-.63-.39-.99-.19-1.22-.37-2.43-.56-3.65-1.79,.83-3.95-.09-5.39-1.43-1.45-1.34-2.47-3.09-3.91-4.43-1.52-1.4-3.62-2.61-3.83-4.67-.14-1.36,.64-2.85-.04-4.04-.25-.43-.65-.75-1.01-1.1-2.49-2.37-2.8-6.18-2.94-9.62-.08-1.74,.2-3.97,1.89-4.4,.2-.06,.43-.08,.66-.08l74.02,30.7Z"/><path class="c" d="M155.43,202.95l-11,18.61c-13.71-1.58-26.57-9.01-38.48-16.03-2.25-1.33-4.58-2.71-6.17-4.8-2.1-2.75-2.67-6.37-2.82-9.83-.14-3.37-.14-7.2-2.62-9.48-.94-.87-2.19-1.4-3.46-1.5l24.12-18.27h8.56l7.34,10.09,3.99-.08v21.51l16.23-.33-.83,4.47-4.64,.33,3.48,4.3,6.29,1Z"/><path class="c" d="M165.92,148.13l4.41,8.52-5.79,14.48-29.66,.54-3.99,.08-7.34-10.09h-8.56l-24.12,18.27c-.65-.06-1.33,0-1.97,.16-2.36,.64-4.11,2.71-6.43,3.48L8.46,152.86c1,0,2.08,.36,2.76-.32,.37-.37,.46-.93,.53-1.45,.15-1.19,.27-2.39,.2-3.59-.1-1.88-.67-3.79-.2-5.62,.47-1.82,2.66-3.39,4.22-2.33-.37-2.38-.66-4.36-.43-6.76,.03-.35,.09-.71,.31-.98,.25-.27,.64-.37,1-.4,1.48-.13,3.21,.36,4.3-.65,.56-.52,.79-1.31,1.28-1.9,1.9-2.34,6.1-.35,8.49-2.18,1.28-.98,1.66-2.82,2.89-3.86,2.65-2.25,7.17,.42,10.04-1.56,1.25-.86,1.82-2.4,2.32-3.85,.94-2.71,1.88-5.44,2.82-8.15,.74-2.14,1.49-4.35,1.4-6.61-.11-2.71-1.43-5.24-1.72-7.94-.39-3.7,1.11-7.78-.77-10.98-.94-1.62-2.6-2.68-3.81-4.11-1.21-1.43-1.9-3.7-.67-5.11,.97-1.12,2.69-1.18,4.15-.94,1.46,.26,2.96,.71,4.4,.34,1.44-.38,2.64-2.09,1.85-3.35,.21-.64-.27-1.28-.89-1.57-.61-.28-1.32-.26-2-.3-.68-.04-1.4-.17-1.88-.65-.66-.66-.6-1.73-.48-2.65,.14-1.09,.31-2.18,.52-3.25,.09-.48,.19-.97,.48-1.35,.26-.34,.65-.55,1.04-.73,1.57-.7,3.35-.83,5.07-.71,1.72,.12,3.41,.47,5.12,.7,.53,.07,1.07,.12,1.59,0,.52-.11,1.01-.43,1.22-.93,.14-.34,.12-.71,.19-1.07,.07-.37,.27-.74,.63-.83,.2-.04,.41,.02,.6,.09,1,.37,1.88,1,2.55,1.8,.26,.32,.54,.69,.94,.77,.48,.09,.91-.27,1.24-.63,.76-.83,1.4-1.75,2.17-2.56,.77-.82,1.73-1.51,2.83-1.7,.39,1.5,0,3.07-.3,4.59s-.45,3.2,.33,4.53c1.04,1.75,3.16,2.65,3.82,4.59l17.49-.86,11.52-3.84,1.14-5.4,6.54-.14,.21-2.3,5.44,2.02v5.45l4.08,3.57-.34,4.6-4.77,5.95,5.45,4.94,1.02,7.66,5.11,3.57,3.06-.85,2.89-9.2,6.81,.51,5.04-7.52,12.33-.48,.09,.22,6.38,15.11,22.99,9.2-25.2,47.17Z"/><path class="c" d="M165.06,64.95l-3.3,11.71-.09-.22-12.33,.48-5.04,7.52-6.81-.51-2.89,9.2-3.06,.85-5.11-3.57-1.02-7.66-5.45-4.94,4.77-5.95,.34-4.6-4.08-3.57v-5.45l-5.44-2.02,.21-2.25-8.11,.43-.43-14.93-8.68-7.68,12.66,3.7,3.13,3.27,6.4,.29,1.57,1.7,2.28-3.69c1.95,0,3.9,.17,5.85,.1,.51-.02,1.05-.04,1.51-.3,.91-.51,1.13-1.75,1.9-2.47,1-.92,2.54-.71,3.85-1.02,2.25-.54,3.76-2.57,4.97-4.53,.8-1.29,1.58-2.66,2.83-3.53,1.24-.88,3.11-1.07,4.2-.02,1.18,1.15,.93,3.09,.52,4.69-.08,.29-.14,.62,.03,.87,.12,.19,.35,.28,.56,.36,.79,.28,1.58,.57,2.37,.86l-3.14,24.62,5.83,4.69,.71,3.7c2.88,0,5.69-.05,8.51-.08Z"/><path class="c" d="M245.61,218.23l-23.25,30.28,.92,17.7v.04l-8.26-1.23v-8.26l-5.2,5.5-7.65-1.23-7.95-3.97-11.63,.92-7.49,14.41v-.3c.5-1.7,.52-3.53,.04-5.24-.36-1.28-1.24-2.36-1.83-3.56-.48-.96-.77-2.02-.87-3.08-.04-.52-.04-1.06-.26-1.53-.34-.72-1.11-1.11-1.79-1.51-1.3-.76-2.5-1.68-3.55-2.76-.66-.67-1.3-1.6-.98-2.48,.4-1.07,.08-1.83-.04-2.97-.06-.52-.17-1.05-.51-1.44-.47-.55-1.24-.7-1.96-.77-4.44-.48-8.9,.28-13.34,.67-.35,.03-.73,.05-1.01-.16-.21-.16-.32-.43-.38-.7-.38-1.57,.24-3.26-.2-4.81-.5-1.74-2.19-2.83-3.25-4.32-.46-.65-.81-1.46-.61-2.24,.19-.72,.81-1.25,1.46-1.61,.65-.37,1.38-.6,2-1.02,1.14-.77,1.84-2.14,1.8-3.5-.03-1.37-.8-2.7-1.97-3.4-.53-.31-1.11-.52-1.62-.85-1.05-.7-1.65-1.99-1.51-3.23-.09,0-.2-.03-.29-.03l11-18.61-6.29-1-3.48-4.3,4.64-.33,.83-4.47-16.23,.33v-21.51l29.66-.54,5.79-14.48,.32-.82,7.65,16.52,69.84,9.94,1.13,.16-4.59,18.35,.45,8.58,.47,8.86Z"/><path class="c" d="M254.45,68.03c-.29,.94-.83,1.75-1.26,2.62-.35,.7-.61,1.44-.79,2.19l-13.41,12.29v7.46l-5.71-.11-20.4-28.51-7.78,.11-.17-9.82c4.84-.77,9.6,2.24,14.55,2.56,2.08,.14,4.15-.2,6.2-.54,3.11-3.45,5.61-7.2,7.38-11.49,1.25-3.04,2.19-6.33,4.45-8.71,.12-.14,.26-.26,.43-.3,.25-.04,.48,.11,.65,.28,1.5,1.39,1.68,3.64,2.08,5.64,1.01,5.07,4,9.61,4.79,14.73,.06,.4,.12,.83,.38,1.12,.2,.23,.48,.35,.77,.43,1.38,.37,2.88-.16,4.27,.19,1.23,.31,2.21,1.32,2.77,2.47,.56,1.14,.76,2.42,.91,3.69,.14,1.24,.24,2.52-.13,3.71Z"/><path class="c" d="M338.8,111.53l-11.13,18.05v19.92h-8.04c-20.64,4.68-23.52,23.39-23.52,23.39l-.12,13.32-.48,.56-4.67-.2-5.52-10.2,.12-7.8h5.76v-6.6h-6.12l-4.93-3.48-.36-21.6-8.15-6.08,15.35-12.42,6.99-24.86c1,.1,2.02,.33,3,.38,.99,.05,2,.1,2.93,.45,.84,.31,1.57,.85,2.3,1.39,1.18,.87,2.36,1.74,3.55,2.6,.71,.52,1.44,1.05,2.29,1.28,.84,.22,1.74,.13,2.59,.31,1.51,.34,2.71,1.52,3.59,2.81,.88,1.28,1.56,2.71,2.56,3.9,.36,.43,.79,.84,1.34,.96,.71,.16,1.45-.21,1.99-.71,.54-.5,.94-1.12,1.48-1.63,5.22,1.66,10.15,4.78,15.51,5.95,.56,.12,1.13,.22,1.69,.31Z"/><path class="c" d="M369.52,150.75l4.19,9.71-5.05,5.36-6.7-7.18h-9.02l.07-2.9-7.52-43.73c2.17,.05,4.34,.08,6.49,.27,5.6,.51,11.08,2.19,16,4.91,2.43,1.34,4.71,2.93,6.99,4.51,2.19,1.52,4.38,3.04,6.58,4.56,1.05,.72,2.1,1.46,3,2.36-2.31,3.4-8.89,13.09-12.52,18.45-1.5,2.2-2.5,3.67-2.5,3.67Z"/><path class="c" d="M411.84,146.38v6.23l-14.95-3.83h-2.2v5.29h-6.24v-6.55l-8.75,2.84-5.37-3.16-2.31-.13c3.63-5.36,10.22-15.05,12.52-18.45,.1,.1,.2,.2,.31,.31,1.91,2.07,3.67,4.53,6.14,5.87,1.22,.66,2.63,.85,4.01,.98,4.34,.38,8.74,.21,13.03-.49,.66,1.85,.66,4.04,1.09,5.96,.43,1.92,1.19,3.89,2.72,5.12Z"/><path class="c" d="M411.84,152.6v8.18l-5.32,4.32-8.21,.48-7.41,4.89-4.35-11.52-7.81,6.24-4.89-4.89-.15,.16-4.19-9.71s1-1.47,2.5-3.67l2.31,.13,5.37,3.16,8.75-2.84v6.55h6.24v-5.29h2.2l14.95,3.83Z"/><path class="c" d="M411.84,160.79v9.03c-.08,1.44-1.11,2.72-2,3.86-.88,1.13-1.92,2.15-2.71,3.36-.22,.34-.43,.69-.6,1.05l-7.66,1.94-10.41,.55-5.13-4.41-2.68-.31-5.85,3.28-.07,.03-10.73-8.12-12.15,9.78-4.91-6.99,.25,.05-.07-3.25,5.64-4.56,.17-7.42h9.02l6.7,7.18,5.05-5.36,.15-.16,4.89,4.89,7.81-6.24,4.35,11.52,7.41-4.89,8.21-.48,5.32-4.32Z"/><path class="c" d="M406.53,178.08c-1.38,2.68-1.89,5.84-3.84,8.13-1.22,1.43-2.96,2.41-4.81,2.71,.11,1.11,.04,2.31,.16,3.4,.02,.18,.03,.39-.1,.51-.09,.08-.23,.09-.35,.1-1.5,.11-2.99,.2-4.49,.29-.06,.09-.12,.18-.18,.26l-12.67-1.51v-3.98h-5.52l.07-8.87,5.85-3.28,2.68,.31,5.13,4.41,10.41-.55,7.66-1.94Z"/><path class="c" d="M392.91,193.49c-2.59,3.85-6.37,6.69-9.32,10.29-.26,.31-.5,.64-.71,.99l-3.5-1.23-5.76-4.26v-6.86h6.63v-.43l12.67,1.51Z"/><path class="c" d="M382.88,204.77c-.13,.2-.23,.41-.31,.63-.45,1.17-.32,2.69-1.33,3.44-.33,.24-.74,.36-1.07,.6-1.12,.84-.77,2.59-1.09,3.95-.41,1.7-1.94,2.86-3.36,3.87-2.3,1.62-4.73,3.3-7.53,3.57-.65,.07-1.47,.14-1.74,.75-.26,.61,.24,1.24,.56,1.82,.41,.74,.55,1.63,.39,2.47v22.47c-.77,1.31-2.18,2.26-3.12,3.45-1.71,2.15-1.6,5.17-1.73,7.92-.03,.54-.07,1.1-.26,1.62-.26,.69-.77,1.26-1.13,1.91-1.51,2.64-.4,6.04-1.26,8.97h-5.39c-2.24-2.27-7.89-8.28-8.03-10.95-.16-3.33,7.34-7.34,7.43-8.76,.08-1.41-10.92-11.67-10.92-11.67l-7.59,.25-7.67-5.84-13.1-.5-.83-5.84-13.01,9.09-8.25,.59-.32-4.59,.91,.02,.31-23.65,.17-13.55-6.72,.12,8.63-10.12,6.61,.28,3.96,7.44,8.4-3.85,5.64-6.48-5.16-5.76,24.24,.37,5.15-5.52,2.59,.55,4.91,6.99,12.15-9.78,10.73,8.12,.07-.03-.07,8.87h5.52v4.41h-6.63v6.86l5.76,4.26,3.5,1.23Z"/><path class="c" d="M354.31,273.9c-.32,3.48-.77,7.04-1.04,10.49-.18,2.27-.36,4.54-.85,6.76-.25,1.1-.58,2.19-1.22,3.12-.66,.97-1.62,1.69-2.41,2.57-1.02,1.15-1.72,2.57-2.01,4.07-.21,1.08-.24,2.25-.9,3.14-.75,1-2.08,1.31-3.31,1.56-.9,.18-1.81,.36-2.72,.54,0,.09,0,.2,0,.29-3.16-2.73-7.43-6.32-8.69-7.38-.24-.2-.37-.31-.37-.31l-.42-6.17,6.01-.5,4.34-10.68,.5-11.59,4.76-.16,8.33,4.24Z"/><path class="c" d="M271.65,130.83l-6.32,5.11,8.49,1.09-12.63,30.72-13.03,14.54-69.84-9.94-7.65-16.52-.32,.82-4.41-8.52,25.2-47.17-22.99-9.2-6.38-15.11,3.3-11.71c2.88-.03,5.76-.04,8.69,.05,1.48-.97,2.88-1.8,4.27-2.89,4.21-.21,8.28-.49,12.48-.88,.37-.03,.76-.08,1.05-.3,.33-.26,.48-.68,.56-1.09,.2-.87,.21-1.79,.05-2.66-.05-.29-.12-.6,0-.87,.09-.2,.26-.35,.45-.47,1.19-.8,2.72-.88,4.15-.78,1.43,.1,2.87,.37,4.29,.17,1.17-.16,2.25-.63,3.4-.87,.16-.03,.32-.07,.48-.09l.17,9.82,7.78-.11,20.4,28.51,5.71,.11v-7.46l13.41-12.29c-.59,2.44-.34,5.09,.74,7.35,1.51,.65,3.27-.04,4.85,.41,.93,.27,1.7,.92,2.59,1.29,1.01,.44,2.14,.52,3.25,.57,2.99,.14,5.97,.18,8.97,.09-.51,1.57-2.06,2.53-3.21,3.73-2.29,2.36-3.13,6.03-2.09,9.14,.25,.74,.62,1.48,1.28,1.88,.76,.47,1.74,.37,2.57,.04,1.37-.55,2.44-1.73,3.05-3.08,.6-1.34,.77-2.87,.65-4.34-.06-.73-.14-1.57,.36-2.11,.54-.56,1.44-.48,2.2-.38,3.26,.43,6.55,.54,9.83,.33,1.04-.07,2.19-.14,2.99,.54,.37,.31,.61,.76,.84,1.19,.72,1.34,1.44,2.66,2.15,4,.19,0,.37,.03,.56,.05l-6.99,24.86-15.35,12.42Z"/><polygon class="c" points="286.87 196.91 293.59 196.79 293.42 210.34 281.64 216.73 269.88 216.63 266.2 213.05 262.53 212.78 258.85 217.92 252.15 213.97 252.61 204.69 247 210.02 245.14 209.38 244.69 200.79 249.28 182.45 248.15 182.28 261.18 167.75 273.81 137.03 265.33 135.94 271.65 130.83 279.8 136.91 280.15 158.51 285.08 161.99 291.19 161.99 291.19 168.59 285.44 168.59 285.32 176.39 290.84 186.59 295.51 186.78 286.87 196.91"/><path class="c" d="M354.51,272.19h-.05c-.04,.57-.09,1.14-.14,1.71l-8.33-4.24-4.76,.16-.5,11.59-4.34,10.68-6.01,.5,.42,6.17s.13,.11,.37,.31c-8.12,14.19-23.9,14.96-29.19,14.79-.8-.65-1.53-.98-1.53-.98l-10.1,4.94-5.48,.65-.11-14.5-6.01-14.39-16.54,.11-8.91-6.55-9.67-.8,.05-.6,11.52-11.28,20.52-.12,.96-9.72,5.64-9.48-.07-3.45-.15-7.32-.02-.86h4.68l-.36-5.64,5.81,.1,.32,4.59,8.25-.59,13.01-9.09,.83,5.84,13.1,.5,7.67,5.84,7.59-.25s11.01,10.26,10.92,11.67c-.09,1.42-7.59,5.43-7.43,8.76,.14,2.67,5.79,8.68,8.03,10.95Z"/><path class="c" d="M282.24,247.69h-12.91v-10.28l12.76,2.96,.15,7.32Z"/><path class="c" d="M339.83,312.81c-.03,.69-.09,1.4-.44,1.98-.46,.74-1.33,1.11-2.15,1.4-3.05,1.06-6.64,1.87-8.14,4.73-.31,.61-.54,1.33-1.11,1.73-.47,.32-1.07,.37-1.63,.41-4.19,.23-8.38,.28-12.56,.14-2.14-.07-4.33-.17-6.34,.56-.95,.36-1.85,.89-2.83,1.16-.86,.22-1.75,.22-2.64,.22-.66,0-1.32,0-1.98,0,1.54-2.02,3.84-5.35,3.99-7.42,.12-1.74-1-3.05-2.01-3.85,5.29,.17,21.07-.6,29.19-14.79,1.25,1.05,5.52,4.64,8.69,7.38-.09,2.1,.09,4.27-.03,6.36Z"/><path class="c" d="M303.99,317.72c-.14,2.07-2.45,5.4-3.99,7.42h0c-.99,0-1.98,0-2.97,0-.48,0-1.02,.02-1.39,.33-.32,.27-.44,.71-.6,1.1-.86,2.05-3.13,3.16-5.32,3.51-2.19,.36-4.45,.15-6.64,.5-2.19,.35-4.47,1.43-5.36,3.46-.36,.83-.46,1.76-.77,2.61-.63,1.7-2.06,2.95-3.44,4.13-1.17,1-2.32,1.99-3.48,2.99l-2.59-2.88-6.36,.13-8.88-20.65-19.8-9.6-7.35-.31c3.38-2.47,6.64-4.63,9.26-5.94l.37-9.6,5.52-7.92,2.99,.6,.43-5.28,9.67,.8,8.91,6.55,16.54-.11,6.01,14.39,.11,14.5,5.48-.65,10.1-4.94s.73,.33,1.53,.98c1.01,.81,2.13,2.12,2.01,3.85Z"/><path class="c" d="M243.62,282.34l-.43,5.28-2.99-.6-5.52,7.92-.37,9.6c-2.62,1.31-5.89,3.47-9.26,5.94-6.66,4.84-13.76,10.86-17.23,13.87v-.03c-2.62,1.4-5.8,2.77-8.68,3.52v-13.54c-1.1,.19-2.06,.39-3.17,.35-.2,0-.43-.02-.58-.15-.13-.11-.18-.27-.22-.43-.17-.57-.29-1.16-.36-1.75-.87-.02-1.73-.03-2.59-.04-.25,0-.5,0-.69-.16-.3-.26-.24-.71-.34-1.09-.27-.97-1.53-1.17-2.54-1.18-4.59-.09-9.18-.27-13.76-.57-.24-.02-.49-.04-.69-.19-.12-.1-.2-.25-.27-.39-.46-.94-.67-1.99-.6-3.04,.08-1.39,.63-2.68,1.08-3.97,.48-1.38,.64-2.59,.7-4.03v-25.23l7.49-14.41,11.63-.92,7.95,3.97,7.65,1.23,5.2-5.5v8.26l8.26,1.23v-.04l19.6,16.06,.75,.06Z"/><path class="c" d="M267.12,346.27c-.65,.56-1.31,1.12-1.97,1.68-1.29,1.11-2.68,2.43-2.68,4.13v22.78c-2.31,1.46-4.44,3.28-5.78,5.67-.49,.88-.93,1.83-1.67,2.51-.7,.64-1.6,.98-2.36,1.56l-1.19-10.33-22.56-13.08-22.22-.29c3.05-1.51,5.59-3.74,7.4-6.59v-3.88l14.45,.2s11.4,8.64,17.17-1.8l11.99,.37,9.41-2.92Z"/><path class="c" d="M270.03,343.78c-.97,.83-1.94,1.66-2.91,2.48l-9.41,2.92-11.99-.37c-5.77,10.45-17.17,1.8-17.17,1.8l-14.45-.2v-4.82h-6.29v-21.24c3.47-3.01,10.57-9.03,17.23-13.87l7.35,.31,19.8,9.6,8.88,20.65,6.36-.13,2.59,2.88Z"/><path class="c" d="M252.67,384.59l-.1,.08c-2.83,2.26-2.09,7.13-4.75,9.61-.77,.71-1.74,1.15-2.54,1.81-3.16,2.58-2.96,7.68-5.77,10.64-1.63,1.71-4.01,2.43-6.18,3.37-2.49,1.07-4.94,2.63-6.16,5.05-1.13,2.24-1.84,4.7-2.21,7.18-.11,.71-.21,1.48-.66,2.04-.62,.77-1.7,.95-2.62,1.3-1.39,.52-2.58,1.53-3.32,2.82-.27,.48-.5,1-.94,1.34-.33,.26-.75,.37-1.16,.44-1.48,.27-3.04,.13-4.44-.41,.21-1.54,1.44-2.72,2.53-3.84,1.08-1.11,2.17-2.48,2.03-4.04-.09-1.05-.73-1.97-1-2.99-.18-.68-.19-1.42-.53-2.04-.42-.75-1.22-1.17-1.91-1.69-1.17-.9-2.02-2.21-2.36-3.64-.36-1.49-.2-3.14-.97-4.46-.99-1.72-3.18-2.31-5.16-2.36-1.97-.07-4.02,.22-5.9-.39-3.56-1.16-5.36-5.06-8.29-7.39-3.37-2.69-7.95-3.11-12.25-3.43,1.22-2.61,3.72-4.41,5.84-6.36,2.13-1.95,4.22-4.22,4.7-7.06,.18-1.03,.14-2.09,.44-3.08,.36-1.14,1.14-2.08,1.95-2.96,1.48-1.61,3.1-3.1,4.81-4.45,1.35-1.05,2.87-2.17,3.28-3.84,.25-1.02,.03-2.12,.29-3.14,2.51-.08,4.98-.71,7.25-1.8h.1l22.22,.29,22.56,13.08,1.19,10.33Z"/><path class="c" d="M293.42,210.34l-.31,23.65-.91-.02-5.81-.1,.36,5.64h-4.68l.02,.86-12.76-2.96v10.28h12.91l.07,3.45-5.64,9.48-.96,9.72-20.52,.12-11.52,11.28-.05,.6-.75-.06-19.6-16.06-.92-17.7,23.25-30.28-.47-8.86,1.86,.64,5.61-5.33-.46,9.28,6.7,3.95,3.67-5.14,3.67,.27,3.67,3.58,11.76,.09,11.78-6.39Z"/><path class="c" d="M353,155.74l-.07,2.9-.17,7.42-5.64,4.56,.07,3.25-.25-.05-2.59-.55-5.15,5.52-24.24-.37,5.16,5.76-5.64,6.48-8.4,3.85-3.96-7.44-6.61-.28,.48-.56,.12-13.32s2.88-18.71,23.52-23.39h8.04v-19.92l11.13-18.05h0c2.2,.33,4.43,.42,6.67,.48l7.52,43.73Z"/></g></g><g id="b"/></svg>