<svg xmlns="http://www.w3.org/2000/svg" xmlns:xlink="http://www.w3.org/1999/xlink" viewBox="0 0 2500 2500"><defs><style>.cls-1{fill:none;}.cls-2{fill:#def7f9;}.cls-3{fill:#363e44;}.cls-4{fill:#ccc;}.cls-5{fill:#ffa800;}.cls-6{fill:#84524d;}.cls-7{fill:#fff;}.cls-8{fill:#d3bba3;}.cls-9{clip-path:url(#clip-path);}.cls-10{fill:#efbc73;}.cls-11{fill:#29696d;}.cls-12{fill:#1b8992;}.cls-13{fill:#40484c;}.cls-14{fill:#d38c79;}.cls-15{fill:#e2a18d;}.cls-16{fill:#108141;}.cls-17{fill:#d62230;}.cls-18{fill:#bc8271;}</style><clipPath id="clip-path"><path class="cls-1" d="M1503.81,687.91s-18.67-10-38-5.76-32,21.24-32,21.24,18.67,10,38,5.76S1503.81,687.91,1503.81,687.91Z"/></clipPath></defs><g id="Illustration"><g id="Vlog"><circle class="cls-2" cx="1250" cy="1250" r="915"/><path class="cls-3" d="M2043,1728.88H1351.88A54,54,0,0,1,1298,1675V438.69a54,54,0,0,1,53.89-53.89H2043a54,54,0,0,1,53.89,53.89V1675A54,54,0,0,1,2043,1728.88ZM1351.88,386.8A52,52,0,0,0,1300,438.69V1675a52,52,0,0,0,51.89,51.89H2043a52,52,0,0,0,51.89-51.89V438.69A52,52,0,0,0,2043,386.8Z"/><path class="cls-4" d="M1842.83,431.13v20.08a19,19,0,0,1-19,19H1571.08a19,19,0,0,1-19-19V431.13H1336.35V1666.55h722.17V431.13Z"/><path class="cls-5" d="M2055.51,1662.59V1460l-134.29-290.7-410.77,128.63c1.43,6.18-9.56,364.71-9.56,364.71Z"/><polygon class="cls-6" points="1075.06 1045.85 1206.34 870.37 1350.57 1039.67 1204.27 1194.41 1075.06 1045.85"/><path class="cls-6" d="M1158.62,1235.41c52.22-25.37,76.1-86.71,55.47-141C1187.3,1024,1147.56,920,1125.94,865.92c-36.35-90.89-103.26-219.78-121.17-210.19-10.2,5.46-4.71,24.93,13.42,76-3.5-1.66-15.34-4.09-24,2.53-12.77,9.8-7.69,22.29-7.77,23.6-1.14-.66-14.53-7.49-24.19-2.38-10.88,5.76-13.66,15.83-12.89,25.46-2.88-1.55-16.18-6.11-25.21-.74-11.74,7-11.67,22.11-7.33,32.52,8,19.09,31,70.72,39.75,99.59,7.5,24.85,36.8,248.31,98.22,310.14C1087.69,1255.55,1125.59,1251.46,1158.62,1235.41Z"/><path class="cls-3" d="M1026.11,903.91a1,1,0,0,1-1-1c-1-21.76,6.29-37.72,12.11-50.55s9.66-21.27,2.5-28.52c-6.14-6.21-10.24-16.2-12.2-29.69a9.64,9.64,0,0,1,5-10.05,9.87,9.87,0,0,1,11.31,1.2l48.06,41.7a1,1,0,0,1,.1,1.41,1,1,0,0,1-1.41.1l-48.06-41.7a7.81,7.81,0,0,0-9-1,7.71,7.71,0,0,0-4,8c1.9,13.05,5.81,22.67,11.64,28.56,8.13,8.23,3.84,17.68-2.1,30.76-5.73,12.63-12.87,28.35-11.94,49.63a1,1,0,0,1-.95,1Z"/><path class="cls-3" d="M941.82,841.74a1,1,0,0,1-.38-1.93,30.9,30.9,0,0,0,17.43-38.22l-4-12.05a1,1,0,0,1,1.8-.82l12.72,21.48a19.35,19.35,0,0,0,34.63-17l-12.29-30.89a1,1,0,0,1,.5-1.27,1,1,0,0,1,1.31.44l7.49,14.21a15.26,15.26,0,0,0,27.82-12.4l-8.07-21.86a1,1,0,0,1,1.88-.69l8.06,21.86a17.26,17.26,0,0,1-30.53,15.58l5.68,14.28a21.34,21.34,0,0,1-38.2,18.76l-7.93-13.4,1,3.14a32.91,32.91,0,0,1-18.57,40.7A1,1,0,0,1,941.82,841.74Z"/><path class="cls-3" d="M1198.81,1055.3a1,1,0,0,1-.93-.64c-16.84-44.15-31.68-82.81-44.1-114.92a1,1,0,0,1,1.87-.72c12.42,32.11,27.26,70.77,44.1,114.93a1,1,0,0,1-.58,1.29A1.13,1.13,0,0,1,1198.81,1055.3Z"/><path class="cls-7" d="M1859.37,951.32c-16.13-52.63-89.46-87.72-143.43-98.59l-262.63-52.87c-74-14.9-199.74-7.36-267.25,69.81l130.51,216.5,15.59-13.4,97.49,271.72,528.65-157.61-66.88-86.57,33.33-24.26Z"/><path class="cls-8" d="M1431.52,1089.11a66.26,66.26,0,0,1-66.18-68.72,1,1,0,1,1,2,.08,64.41,64.41,0,0,0,112.79,44.76,1,1,0,0,1,1.42-.09,1,1,0,0,1,.09,1.41A66.77,66.77,0,0,1,1431.52,1089.11Z"/><path class="cls-8" d="M1583,1092.09h-.17a66.85,66.85,0,0,1-47.16-34.46,1,1,0,0,1,1.77-.94,64.81,64.81,0,0,0,45.74,33.43,1,1,0,0,1-.18,2Z"/><path class="cls-6" d="M1674.36,1186.46c-7.62,6.26,31.94,335.75,33.77,444.07a33.56,33.56,0,0,0,32.58,33h0c19.82.58,38.41,10.47,49.27,27,7.22,11,18.4,22,35,24.7,36.1,5.91,0-52,0-52h54.8a61.64,61.64,0,0,1,46.28,21.68c11.68,13.73,26.21,28.26,32.22,23.91,10.81-7.82-5.94-70.91-26.52-85.45a83.07,83.07,0,0,0-21.5-10.38,46,46,0,0,1-31.72-43.62V1106.73S1748.76,1125.35,1674.36,1186.46Z"/><path class="cls-3" d="M1825,1653.17a1,1,0,0,1-.66-.24l-37.1-32.41a1,1,0,1,1,1.31-1.5l37.11,32.4a1,1,0,0,1,.09,1.41A1,1,0,0,1,1825,1653.17Z"/><path class="cls-3" d="M1661,627.6c-19.18,0-39.82-6.57-52.24-22.94a1,1,0,0,1,.19-1.4,1,1,0,0,1,1.41.19c15.66,20.64,45,25.16,67,20.47,25.16-5.34,47-20.65,65.51-34.58q3.75-2.82,7.5-5.68c17.3-13.17,35.2-26.8,55.62-35.11,26.53-10.81,53.89-9.95,73.18,2.31a1,1,0,0,1-1.08,1.69c-18.74-11.91-45.41-12.72-71.35-2.15-20.17,8.22-38,21.76-55.16,34.85q-3.75,2.87-7.5,5.69c-18.68,14.06-40.74,29.51-66.31,34.94A81.53,81.53,0,0,1,1661,627.6Z"/><path class="cls-3" d="M1788.82,841.94a1,1,0,0,1-.56-.17c-12.52-8.37-23.75-18.74-34.62-28.77-5.24-4.84-10.66-9.84-16.15-14.55-21-18.07-39.4-27.69-57.75-30.28-19-2.67-38.19,2.29-56.78,7.1l-7.25,1.85c-21.6,5.44-44.43,9.31-65,.94a1,1,0,0,1-.55-1.31,1,1,0,0,1,1.3-.54c20,8.15,42.45,4.32,63.73-1,2.4-.6,4.81-1.23,7.23-1.85,18.78-4.85,38.21-9.87,57.56-7.14,18.74,2.65,37.42,12.41,58.78,30.74,5.51,4.73,10.94,9.75,16.2,14.6,10.81,10,22,20.3,34.37,28.58a1,1,0,0,1,.28,1.39A1,1,0,0,1,1788.82,841.94Z"/><path class="cls-3" d="M1762.09,756.77s36.89.3,69.06,29.69q52.32-92.52,103.29-185.8c-28.41-33-77-47-118.62-34.29-20.25,6.21-38.28,17.94-56,29.48S1723.9,619,1703.58,625s-43.52,5.59-61.31-5.91c-12.06-7.8-20.73-20-32.71-27.93-11.41-7.56-25.21-10.78-38.86-11.88-15.32-1.24-31.88.43-43.85,10.08-14.17,11.42-18.48,31-19.95,49.16-1.72,21.2,1.25,42.19,0,63.29a69.83,69.83,0,0,0,16,49.49,72.88,72.88,0,0,0,47.89,25.5c33.77,3.49,65.78-16.86,99.71-18,22.26-.73,44.22,7,63.11,18.8s35,27.55,50,44c4.62,5.06,10.53,10.7,17.23,9.3,5.39-1.12,8.74-6.37,11.46-11.16,3.36-5.9,6.68-11.82,10-17.72C1804,782.06,1779.3,758.8,1762.09,756.77Z"/><path class="cls-3" d="M1596.73,602.05a28.53,28.53,0,0,1-14.46-3.78h0c-18.21-10.57-20.72-40.35-5.61-66.38,7.29-12.55,17.55-22.39,28.88-27.7s22.67-5.48,31.55-.33,14.33,14.95,15.34,27.56-2.45,26.27-9.74,38.82-17.54,22.39-28.88,27.7A40.46,40.46,0,0,1,1596.73,602.05Zm-13.46-5.51c8.3,4.81,18.84,4.67,29.69-.41s20.92-14.69,28-26.9,10.46-25.57,9.48-37.65-6.06-21.17-14.36-26-18.84-4.67-29.69.41-20.91,14.7-28,26.9c-14.56,25.07-12.37,53.62,4.88,63.64Z"/><path class="cls-3" d="M1562.49,598.82c21.15,12.28,55.21-6.9,72.1-36s10.23-57.09-10.91-69.37-48.77-4.19-65.66,24.91S1541.35,586.54,1562.49,598.82Z"/><circle class="cls-3" cx="1526.36" cy="656.58" r="100.19" transform="translate(-17.21 1271.61) rotate(-45)"/><path class="cls-6" d="M1444.45,779.31c22.14,15.72,84.67-27,84.67-27l35.78-74.84a69.15,69.15,0,0,0-69.16-69.16h0a69.15,69.15,0,0,0-69.16,69.16S1421.9,763.3,1444.45,779.31Z"/><path class="cls-6" d="M1587.6,838.53c-27.75,24.64-55.28,36.42-82.42,22.7l-46.42-168.58,84.06,16.6Z"/><path class="cls-6" d="M1434.53,695.7s-19.4,20.32-18.37,25.69c1.23,6.4,22.84,10.31,22.84,10.31S1434,695.75,1434.53,695.7Z"/><path class="cls-3" d="M1465.69,784.18a1,1,0,0,1-.18-2c26.57-4.73,62.69-29.23,63-29.47a1,1,0,1,1,1.13,1.65c-.37.25-36.85,25-63.83,29.79Z"/><path class="cls-7" d="M1503.81,687.91a65.86,65.86,0,0,0-28-6.82c-3.26,0,2.88,26,6,24.57A66,66,0,0,0,1503.81,687.91Z"/><g class="cls-9"><circle class="cls-3" cx="1456.85" cy="698.74" r="25.91"/></g><path class="cls-3" d="M1459.07,744.74a11.73,11.73,0,0,1-6.34-1.86,1,1,0,0,1-.3-1.38,1,1,0,0,1,1.38-.3A9.62,9.62,0,0,0,1468.6,732a1,1,0,1,1,2-.24,11.77,11.77,0,0,1-5.21,11.16A11.61,11.61,0,0,1,1459.07,744.74Z"/><path class="cls-3" d="M1581.73,695.7s-22-8.85-44.81,14.51l-14.76-8.08s8.55-94.11-94.6-57.12c0,0,35.37-79,104.38-50S1581.73,695.7,1581.73,695.7Z"/><path class="cls-6" d="M1582.61,712.23c-4,13.52-16.84,21.63-28.59,18.12s-18-17.31-14-30.82,16.83-21.63,28.58-18.12S1586.64,698.72,1582.61,712.23Z"/><path class="cls-3" d="M1549.22,702.83a1.45,1.45,0,0,1-.29,0,1,1,0,0,1-.67-1.25c2.46-8.24,10.35-13.19,17.59-11a13.32,13.32,0,0,1,8.93,9.87,1,1,0,1,1-1.94.48,11.37,11.37,0,0,0-7.56-8.44c-6.18-1.84-13,2.51-15.1,9.69A1,1,0,0,1,1549.22,702.83Z"/><path class="cls-10" d="M1560.35,765.35A21.62,21.62,0,1,1,1582,743.74,21.64,21.64,0,0,1,1560.35,765.35Zm0-41.23A19.62,19.62,0,1,0,1580,743.74,19.64,19.64,0,0,0,1560.35,724.12Z"/><path class="cls-3" d="M1687.1,1129.23a108.8,108.8,0,1,1,108.8-108.8A108.93,108.93,0,0,1,1687.1,1129.23Zm0-215.6a106.8,106.8,0,1,0,106.8,106.8A106.93,106.93,0,0,0,1687.1,913.63Z"/><path class="cls-3" d="M1645.67,1085.31V955.55l99.54,64.88Zm2-126.06v122.36l93.88-61.18Z"/><polygon class="cls-11" points="798.35 1054.93 735.39 995.77 344.9 995.77 344.9 833.89 798.35 833.89 798.35 1054.93"/><path class="cls-7" d="M466.8,908.72c0-16.73-18.83-30.29-42.07-30.29S382.66,892,382.66,908.72,401.5,939,424.73,939a56.92,56.92,0,0,0,14-1.74l16.83,17.39L457.18,928C463.19,922.76,466.8,916,466.8,908.72Z"/><polygon class="cls-7" points="706.18 947.55 673.54 929.45 643.65 947.55 643.65 878.43 706.18 878.43 706.18 947.55"/><path class="cls-7" d="M504.47,933a1,1,0,0,1-1-1V887.56a1,1,0,0,1,2,0V932A1,1,0,0,1,504.47,933Z"/><path class="cls-7" d="M526.7,910.79H482.23a1,1,0,0,1,0-2H526.7a1,1,0,0,1,0,2Z"/><path class="cls-7" d="M566.1,933a1,1,0,0,1-1-1V887.56a1,1,0,0,1,2,0V932A1,1,0,0,1,566.1,933Z"/><path class="cls-7" d="M588.33,910.79H543.86a1,1,0,0,1,0-2h44.47a1,1,0,0,1,0,2Z"/><path class="cls-7" d="M743.56,933a1,1,0,0,1-1-1V887.56a1,1,0,0,1,2,0V932A1,1,0,0,1,743.56,933Z"/><path class="cls-7" d="M765.79,910.79H721.32a1,1,0,0,1,0-2h44.47a1,1,0,0,1,0,2Z"/><polygon class="cls-12" points="880.39 1340.45 821.21 1284.84 463.36 1284.84 463.36 1132.65 880.39 1132.65 880.39 1340.45"/><path class="cls-7" d="M558.54,1180.89h0a21.76,21.76,0,0,0-30.76,0l-.17.17-.12-.13a21.82,21.82,0,0,0-30.84,0h0a21.8,21.8,0,0,0,0,30.84l30.89,30.9,31-31A21.74,21.74,0,0,0,558.54,1180.89Z"/><polygon class="cls-7" points="688.4 1214.97 657.64 1199.13 728.85 1174.52 704.24 1245.73 688.4 1214.97"/><path class="cls-7" d="M600.1,1225.91a1,1,0,0,1-1-1V1183.1a1,1,0,0,1,2,0v41.81A1,1,0,0,1,600.1,1225.91Z"/><path class="cls-7" d="M621,1205H579.2a1,1,0,0,1,0-2H621a1,1,0,0,1,0,2Z"/><path class="cls-7" d="M766.94,1225.91a1,1,0,0,1-1-1V1183.1a1,1,0,0,1,2,0v41.81A1,1,0,0,1,766.94,1225.91Z"/><path class="cls-7" d="M787.84,1205H746a1,1,0,0,1,0-2h41.81a1,1,0,1,1,0,2Z"/><path class="cls-7" d="M824.87,1225.91a1,1,0,0,1-1-1V1183.1a1,1,0,0,1,2,0v41.81A1,1,0,0,1,824.87,1225.91Z"/><path class="cls-7" d="M845.78,1205H804a1,1,0,0,1,0-2h41.81a1,1,0,0,1,0,2Z"/><polygon class="cls-5" points="679.44 677.05 824.38 769.6 753.57 500.12 679.44 677.05"/><circle class="cls-5" cx="713.05" cy="568.95" r="161.31" transform="translate(-193.46 670.84) rotate(-45)"/><path class="cls-13" d="M750.12,695.32a31.77,31.77,0,0,1-25.71-13L662.77,598a1,1,0,0,1,1.61-1.18L726,681.12a29.81,29.81,0,1,0,48.12-35.2L732,588.3a1,1,0,0,1,.22-1.4,1,1,0,0,1,1.39.22l42.15,57.62a31.8,31.8,0,0,1-25.63,50.58Z"/><path class="cls-3" d="M931.28,509a1,1,0,0,1-.59-1.8,44.91,44.91,0,0,0-28-81h0a1,1,0,0,1-1-1,1,1,0,0,1,1-1l1.38,0a46.92,46.92,0,0,1,27.87,84.62A1,1,0,0,1,931.28,509Z"/><path class="cls-3" d="M937.78,598.14h-.1L702.29,575.2a1,1,0,0,1-.88-.76L676.59,471.76a1,1,0,0,1,.43-1.07L875.59,341.31a1,1,0,0,1,1.52.6l61.64,255a1,1,0,0,1-.21.89A1,1,0,0,1,937.78,598.14ZM703.19,573.28,936.48,596l-61-252.26L678.7,472Z"/><path class="cls-3" d="M636.33,591a1,1,0,0,1-.52-.15,1,1,0,0,1-.45-.62L610.6,487.86a1,1,0,0,1,.74-1.21l66-16a1,1,0,0,1,.76.12,1.06,1.06,0,0,1,.45.62l24.75,102.4a1,1,0,0,1-.73,1.21l-66,16A.85.85,0,0,1,636.33,591ZM612.78,488.36l24.29,100.46,64.07-15.49L676.86,472.87Z"/><path class="cls-3" d="M641.2,574.7a1,1,0,0,1-.24-2l46-11.12-4.12-17.07a1,1,0,1,1,1.94-.47l4.36,18a1,1,0,0,1-.74,1.21l-47,11.35A.85.85,0,0,1,641.2,574.7Z"/><path class="cls-3" d="M634.46,546.83a1,1,0,0,1-.23-2l46-11.12-4.13-17.07a1,1,0,0,1,1.94-.47l4.36,18a1,1,0,0,1-.73,1.21l-47,11.35A1,1,0,0,1,634.46,546.83Z"/><path class="cls-3" d="M627.72,519a1,1,0,0,1-.23-2l46-11.12-4.13-17.06a1,1,0,1,1,1.95-.47l4.36,18a1,1,0,0,1-.74,1.2l-47,11.35A1,1,0,0,1,627.72,519Z"/><path class="cls-14" d="M341.84,1598.31c35.72-30,64.5-54,76.84-63.73a110.67,110.67,0,0,1,26.84-16.35c49.13-20.65,82.69,12.33,144.28,11.74,14.47-.14,107.09-43,121.48-22.29,7.09,10.19-3.51,28.51-38.46,55.37h0c28.9-17.35,69.13-39.17,78.67-23.17,10,19.07-16.35,40.67-42.74,57.48,30.09-19.17,38.53-12.19,41.63-1.94,4.87,16.13-17.28,38.66-62.67,65h0c36.43-9.45,46.67-6.32,47.2,3.41,1,17.76-36.76,38.73-72.95,52.16-40.74,15.12-77.58,12.72-100.78,10.64h0c-87.1,86.76-154.07,153.94-219.33,220.25Z"/><path class="cls-14" d="M532.93,1541.44c50.88-46.84,59.3-74.52,51.62-82.35-12.91-13.16-72.72,9.05-155.7,68.15C457.49,1533.79,504.29,1534.88,532.93,1541.44Z"/><path class="cls-3" d="M496.19,1624.73h-.29a1,1,0,0,1-1-1,1,1,0,0,1,1-1h.26c20.95,0,47.58-40.71,52.05-95.6a1,1,0,0,1,2,.16c-2.11,25.88-9.27,50.52-20.17,69.38C519.75,1614.52,507.42,1624.73,496.19,1624.73Z"/><path class="cls-3" d="M611.36,1577.59a1,1,0,0,1,0-2,135.48,135.48,0,0,0,59.18-14.26,1,1,0,0,1,1.35.45,1,1,0,0,1-.46,1.34,137.53,137.53,0,0,1-60,14.47Z"/><path class="cls-3" d="M632.36,1619.33a1,1,0,0,1-1-1,1,1,0,0,1,1-1,135.8,135.8,0,0,0,59.19-14.27,1,1,0,0,1,.89,1.8,137.61,137.61,0,0,1-60.06,14.47Z"/><path class="cls-3" d="M627.05,1675.91a1,1,0,0,1,0-2,135.56,135.56,0,0,0,59.19-14.26,1,1,0,1,1,.89,1.79,137.22,137.22,0,0,1-60.06,14.47Z"/><path class="cls-15" d="M354.77,2132.29l-11.88-257.4c44.32-83.9,85.62-161.54,99.52-185.76A110.16,110.16,0,0,1,461.22,1664c37.88-37.49,80.43-21.67,138.25-42.9,65.61-24.1,77-77.9,92.52-69,10.78,6.16,19.27,30.84-3.16,68.8h0c20.35-26.88,49.54-62.12,64.36-50.83,16.42,14-13,59.39-32.17,86,23.18-32.21,45.15-42.41,51.84-34,10.54,13.15-1.62,42.31-33.91,83.7h0c30.28-22.35,41-23.26,45.07-14.43,7.52,16.12-19.66,49.64-48.24,75.6-32.17,29.22-67.25,40.72-89.55,47.45h0c-59.73,139.21-94.34,220.5-138.45,327.07Z"/><path class="cls-15" d="M551,1652.9c29.74-62.43,27.24-91.25,17.2-95.65-16.89-7.4-64.11,35.51-119.08,121.28C478.12,1673.93,522,1657.5,551,1652.9Z"/><path class="cls-3" d="M491.79,1647.42a1,1,0,0,1-.35-1.94c14.22-5.46,29.47-7.41,45.62-9.47,7.57-1,15.4-2,23.56-3.37a1,1,0,0,1,1.16.81,1,1,0,0,1-.82,1.16c-8.2,1.41-16.05,2.41-23.65,3.38-16,2-31.16,4-45.16,9.36A1.1,1.1,0,0,1,491.79,1647.42Z"/><path class="cls-3" d="M636.86,1657.29a1,1,0,0,1-.39-1.93,135.62,135.62,0,0,0,49.61-35.29,1,1,0,1,1,1.49,1.32,137.45,137.45,0,0,1-50.33,35.82A1.08,1.08,0,0,1,636.86,1657.29Z"/><path class="cls-3" d="M671.9,1688.18a1,1,0,0,1-.38-1.92,135.72,135.72,0,0,0,49.6-35.3,1,1,0,0,1,1.5,1.33,137.56,137.56,0,0,1-50.33,35.81A.91.91,0,0,1,671.9,1688.18Z"/><path class="cls-3" d="M688.07,1742.67a1,1,0,0,1-.38-1.92,135.93,135.93,0,0,0,49.6-35.3,1,1,0,0,1,1.49,1.33,137.35,137.35,0,0,1-50.33,35.81A.84.84,0,0,1,688.07,1742.67Z"/><polygon class="cls-16" points="341.17 2157.43 341.17 1812.49 359.87 1770.26 611.36 1946.92 520.36 2157.43 341.17 2157.43"/><path class="cls-7" d="M632.37,1459.24l-.24,0a1,1,0,0,1-.74-1.21l20.51-83.77a1,1,0,0,1,1.94.48l-20.5,83.76A1,1,0,0,1,632.37,1459.24Z"/><path class="cls-7" d="M695.49,1475.27a1,1,0,0,1-.56-.17,1,1,0,0,1-.27-1.39l58.18-86.87a1,1,0,1,1,1.66,1.12l-58.18,86.86A1,1,0,0,1,695.49,1475.27Z"/><path class="cls-7" d="M749.84,1512.67a1,1,0,0,1-.8-.4,1,1,0,0,1,.2-1.4l61.78-46a1,1,0,1,1,1.19,1.6l-61.77,46A1,1,0,0,1,749.84,1512.67Z"/><path class="cls-17" d="M1003.69,1713.46a66.79,66.79,0,0,1,63.76-46.91h0a66.49,66.49,0,0,1,49,21.5,66.53,66.53,0,0,1,49-21.5h0a66.69,66.69,0,0,1,66.76,66.76c0,36.88-43.6,99.47-115.74,126.72-72.14-27.25-115.74-89.84-115.74-126.72A66.75,66.75,0,0,1,1003.69,1713.46Z"/><path class="cls-18" d="M1034.17,1768.13c-32.61,3-46.28,14.2-65,26.81,3.58.36,22.49-1.74,31.95,12.26,9.64,14.27,5.34,33.62,4.79,36.67,12.06,5.38,22.26,10.29,27.51,26.24,6.2,18.85-5.4,35.12-5.4,35.12s17.73,17.42,21,44.47c2.49,20.68-12.19,50.82-31.53,53.09-6.77.8-23.61-3.59-22.58-29.5-3,9.72-3.39,55-20.24,83.67-14,23.82-41.45,31.8-49.87,36-18,28.82-32.59,52.17-44.93,72H612.1c35.68-40.88,160.4-195,201.15-248.29,7.43-26,27-97.74,89.23-148.47s154.69-55.58,161.59-35.87C1067.29,1741.57,1061.29,1765.6,1034.17,1768.13Z"/><path class="cls-3" d="M939.2,1815.79a1,1,0,0,1-.77-1.64A68.62,68.62,0,0,1,966.18,1794a1,1,0,0,1,.73,1.86A66.45,66.45,0,0,0,940,1815.42,1,1,0,0,1,939.2,1815.79Z"/><path class="cls-3" d="M975.62,1857.91a1,1,0,0,1-.57-1.82,68.68,68.68,0,0,1,32.13-12,1,1,0,1,1,.21,2,66.37,66.37,0,0,0-31.2,11.66A1,1,0,0,1,975.62,1857.91Z"/><path class="cls-3" d="M982.42,1924.25a1,1,0,0,1-.49-.12,1,1,0,0,1-.39-1.36c2.83-5.09,9.37-14.26,21.48-18.55a38,38,0,0,1,22.15-.55,1,1,0,1,1-.57,1.91,35.92,35.92,0,0,0-20.91.53,38.38,38.38,0,0,0-20.4,17.63A1,1,0,0,1,982.42,1924.25Z"/><path class="cls-3" d="M994.3,1975.06a1,1,0,0,1-.66-.25,1,1,0,0,1-.08-1.42l17.41-19.45a1,1,0,1,1,1.49,1.33l-17.41,19.46A1,1,0,0,1,994.3,1975.06Z"/><path class="cls-18" d="M1968.4,1972.21c-18.67,18.27-39.7,34.58-51.45,44.48a182.15,182.15,0,0,0,35.38,5.72c27.14,1.66,33.86-1.28,39.31,9.74,5.63,11.36-11.43,29.86-35.18,36.54-28.32,8-66.55,4.51-66.55,4.51-8.93,37.17-16.24,64.87-22,89.42L1672,2160.55c12.94-57.53,28.54-95.57,43.84-156.64.63-14.28-2.36-55.32,17.3-82,16-21.71,40.53-26.59,60.65-47.2,34-34.78,25.41-74.75,42.62-74.25,11.82.35,17.8,23.43,17.78,45.9,0,23.06-9.74,38-6.43,39.8,3.63,2,11.54-14.42,23.26-33.94,5.45-9.07,5.07-43.18,21.28-45.09,12.92-1.52,22.19,33.85,12.82,64.33-6.63,21.56-25.12,33.28-22.27,36.25,2.14,2.23,13-5,20.48-14.06,12.35-14.91,12.34-49.82,27.29-51.28,14.65-1.43,22.21,29.59,15.36,58.18-5.76,24.09-28.34,36.31-24.82,40,2.48,2.61,12.25-2.37,31.39-15.86,16-11.25,42-42,56.27-27C2020.8,1910.24,1996.59,1944.63,1968.4,1972.21Z"/><path class="cls-3" d="M1874.35,2044a1,1,0,0,1-.39-1.92c16.13-6.75,33.57-19.52,42.53-26.54a1,1,0,0,1,1.23,1.58c-9,7.08-26.65,20-43,26.8A.91.91,0,0,1,1874.35,2044Z"/><path class="cls-15" d="M1484.25,2160.55s26.42-119.43,29.45-132.62c9.23-40.1,52-235.18,23.68-241.75-18.06-4.2-41.24,92.9-46.6,109.49,1.24-21,24.41-126.72,8.39-132.19-17.38-5.92-58.79,126.18-59.4,127.11,2.68-14.72,24.54-122.27,8.74-124.92-18.34-3.08-50.87,106.62-55.17,124.76-1.84-1.9,18.63-79.46,1.19-84.87-15.54-4.82-42.49,82.69-48,94.21-13.44,30.51-30.12,89-52.41,154.53C1279.63,2097,1261,2160.55,1261,2160.55Z"/><path class="cls-7" d="M1187.36,1588.86a1,1,0,0,1-.71-.29L1134.08,1536H933.8a1,1,0,0,1-1-1v-168a1,1,0,0,1,1-1h279.26a1,1,0,0,1,1,1v168a1,1,0,0,1-1,1h-24.7v51.86a1,1,0,0,1-.62.93A1,1,0,0,1,1187.36,1588.86ZM934.8,1534h199.7a1,1,0,0,1,.7.29l51.16,51.16V1535a1,1,0,0,1,1-1h24.7v-166H934.8Z"/><rect class="cls-3" x="1031.31" y="1320.93" width="59.97" height="133.72" rx="29.99"/><path class="cls-3" d="M1100.62,1474.67H1022a1,1,0,0,1-1-1v-59a1,1,0,0,1,2,0v58h76.65v-58a1,1,0,0,1,2,0v59A1,1,0,0,1,1100.62,1474.67Z"/><path class="cls-3" d="M1061.3,1500.61a1,1,0,0,1-1-1V1486a1,1,0,0,1,2,0v13.66A1,1,0,0,1,1061.3,1500.61Z"/><path class="cls-3" d="M1108.4,1513.48h-94.2a1,1,0,0,1,0-2h94.2a1,1,0,0,1,0,2Z"/><polygon class="cls-7" points="1091.23 578.47 1197.89 609.55 1105.09 455.31 1091.23 578.47"/><circle class="cls-7" cx="1092.45" cy="505.34" r="104.21" transform="translate(-37.36 920.49) rotate(-45)"/><path class="cls-17" d="M1149.86,486a34,34,0,0,0-32.47-23.89h0A33.86,33.86,0,0,0,1092.45,473a33.83,33.83,0,0,0-24.93-10.95h0a34,34,0,0,0-34,34c0,18.77,22.2,50.65,58.93,64.52,36.74-13.87,58.94-45.75,58.94-64.52A33.76,33.76,0,0,0,1149.86,486Z"/></g></g></svg>