<?xml version="1.0" encoding="utf-8"?>
<!-- Generator: Adobe Illustrator 26.2.1, SVG Export Plug-In . SVG Version: 6.00 Build 0)  -->
<svg version="1.1" id="Camada_1" xmlns="http://www.w3.org/2000/svg" xmlns:xlink="http://www.w3.org/1999/xlink" x="0px" y="0px"
	 viewBox="0 0 594 159" style="enable-background:new 0 0 594 159;" xml:space="preserve">
<style type="text/css">
	.st0{clip-path:url(#SVGID_00000026884077851118375350000017029134197674899096_);}
	.st1{fill:#1B8790;}
	.st2{clip-path:url(#SVGID_00000072976679798346325560000010039927623751903135_);}
	.st3{opacity:0.15;}
	.st4{clip-path:url(#SVGID_00000071532255636305856990000010251383688725288874_);}
	.st5{clip-path:url(#SVGID_00000016058153176393291110000009055924015397724343_);}
	.st6{fill:#FFFFFF;}
	.st7{fill:#108041;}
	.st8{fill:#294667;}
	.st9{clip-path:url(#SVGID_00000126281874142298399900000007783453148853280920_);}
	.st10{clip-path:url(#SVGID_00000145773809254256730200000016528296049698572672_);}
	.st11{clip-path:url(#SVGID_00000006670088414220804580000017137345872722558361_);}
	.st12{fill:#6DAFCC;}
	.st13{enable-background:new    ;}
</style>
<g id="img-slide-60" transform="translate(-147.007 -170.486)">
	<g id="Grupo_1283" transform="translate(147.007 170.486)">
		<g>
			<g>
				<defs>
					<rect id="SVGID_1_" width="594" height="159"/>
				</defs>
				<clipPath id="SVGID_00000060746037104286391480000013272736011897184180_">
					<use xlink:href="#SVGID_1_"  style="overflow:visible;"/>
				</clipPath>
				<g id="Grupo_1282" style="clip-path:url(#SVGID_00000060746037104286391480000013272736011897184180_);">
					<g id="Caminho_888">
						<path class="st1" d="M86.8,38.2h211l17.4,33.2l-17.4,33.2h-211l17.4-33.2L86.8,38.2z"/>
					</g>
					<g id="Grupo_1274" transform="translate(0 0)">
						<g>
							<g>
								<defs>
									<rect id="SVGID_00000170979689792715846050000003875474147232056994_" width="594" height="159"/>
								</defs>
								<clipPath id="SVGID_00000139974332334340057120000001991409098053468037_">
									<use xlink:href="#SVGID_00000170979689792715846050000003875474147232056994_"  style="overflow:visible;"/>
								</clipPath>
								<g id="Grupo_1273" style="clip-path:url(#SVGID_00000139974332334340057120000001991409098053468037_);">
									<g id="Grupo_1272" class="st3">
										<g id="Grupo_1271">
											<g>
												<g>
													<defs>
														<rect id="SVGID_00000040564033014207119510000018326693332735354771_" width="148" height="159"/>
													</defs>
													<clipPath id="SVGID_00000099651243340388883030000007982614743381172140_">
														<use xlink:href="#SVGID_00000040564033014207119510000018326693332735354771_"  style="overflow:visible;"/>
													</clipPath>
													<g id="Grupo_1270" style="clip-path:url(#SVGID_00000099651243340388883030000007982614743381172140_);">
														<g id="Grupo_1269">
															<g>
																<g>
																	<defs>
																		<rect id="SVGID_00000127012353831210424830000005189895273222630282_" width="148" height="159"/>
																	</defs>
																	<clipPath id="SVGID_00000043428843861948593290000007417556983106365082_">
																		<use xlink:href="#SVGID_00000127012353831210424830000005189895273222630282_"  style="overflow:visible;"/>
																	</clipPath>
																	<g id="Grupo_1268" style="clip-path:url(#SVGID_00000043428843861948593290000007417556983106365082_);">
																	</g>
																</g>
															</g>
														</g>
													</g>
												</g>
											</g>
										</g>
									</g>
								</g>
							</g>
						</g>
					</g>
					<g id="Caminho_889">
						<path class="st6" d="M107.2,71.4l-24.5,46.8H25l24.5-46.8L25,24.6h57.7L107.2,71.4z"/>
					</g>
					<g id="Caminho_890">
						<path class="st7" d="M91.2,71.4l-19.5,37.2H62l19.5-37.2L62,34.1h9.6L91.2,71.4z"/>
					</g>
					<g id="Caminho_891">
						<path class="st1" d="M73.7,71.4l-19.5,37.2h-9.6L64,71.4L44.5,34.1h9.6L73.7,71.4z"/>
					</g>
					<g id="Caminho_892">
						<path class="st8" d="M365.6,38.2L383,71.4l-17.4,33.2h211L594,71.4l-17.4-33.2H365.6z"/>
					</g>
					<g id="Grupo_1281" transform="translate(0 0)">
						<g>
							<g>
								<defs>
									<rect id="SVGID_00000108292864663224329320000011104161358471515272_" width="594" height="159"/>
								</defs>
								<clipPath id="SVGID_00000054957920218212261440000015369737203691823792_">
									<use xlink:href="#SVGID_00000108292864663224329320000011104161358471515272_"  style="overflow:visible;"/>
								</clipPath>
								<g id="Grupo_1280" style="clip-path:url(#SVGID_00000054957920218212261440000015369737203691823792_);">
									<g id="Grupo_1279" transform="translate(279.111)" class="st3">
										<g id="Grupo_1278">
											<g>
												<g>
													<defs>
														<rect id="SVGID_00000133530157435197451490000018290315030979161005_" x="0" width="148" height="159"/>
													</defs>
													<clipPath id="SVGID_00000096745304806709134540000010715447048190276236_">
														<use xlink:href="#SVGID_00000133530157435197451490000018290315030979161005_"  style="overflow:visible;"/>
													</clipPath>
													<g id="Grupo_1277" style="clip-path:url(#SVGID_00000096745304806709134540000010715447048190276236_);">
														<g id="Grupo_1276">
															<g>
																<g>
																	<defs>
																		<rect id="SVGID_00000173866500379896941700000006489912377167379093_" x="0" width="148" height="159"/>
																	</defs>
																	<clipPath id="SVGID_00000162326475662211902850000006164844682837446065_">
																		<use xlink:href="#SVGID_00000173866500379896941700000006489912377167379093_"  style="overflow:visible;"/>
																	</clipPath>
																	<g id="Grupo_1275" style="clip-path:url(#SVGID_00000162326475662211902850000006164844682837446065_);">
																	</g>
																</g>
															</g>
														</g>
													</g>
												</g>
											</g>
										</g>
									</g>
								</g>
							</g>
						</g>
					</g>
					<g id="Caminho_893">
						<path class="st6" d="M386,71.4l-24.5,46.8h-57.7l24.5-46.8l-24.5-46.8h57.7L386,71.4z"/>
					</g>
					<g id="Caminho_894">
						<path class="st12" d="M370,71.4l-19.5,37.2h-9.6l19.5-37.2l-19.5-37.2h9.6L370,71.4z"/>
					</g>
					<g id="Caminho_895">
						<path class="st8" d="M352.5,71.4L333,108.6h-9.6l19.5-37.2l-19.5-37.2h9.6L352.5,71.4z"/>
					</g>
				</g>
			</g>
		</g>
	</g>
	<g class="st13">
		<path class="st6" d="M300.1,235.8c0.8,0.4,1.4,1,1.8,1.7s0.6,1.6,0.6,2.6s-0.2,1.8-0.6,2.6s-1,1.3-1.8,1.7s-1.7,0.6-2.7,0.6H294
			v-9.8h3.4C298.4,235.2,299.3,235.4,300.1,235.8z M299.7,242.5c0.6-0.6,0.8-1.3,0.8-2.4s-0.3-1.8-0.8-2.4s-1.4-0.9-2.4-0.9h-1.4
			v6.5h1.4C298.3,243.3,299.1,243.1,299.7,242.5z"/>
		<path class="st6" d="M304,239c0.3-0.6,0.7-1.1,1.3-1.4c0.5-0.3,1.1-0.5,1.8-0.5c0.6,0,1.1,0.1,1.5,0.3s0.8,0.5,1,0.9v-1.1h2v7.8
			h-2v-1.1c-0.3,0.4-0.6,0.7-1,0.9s-1,0.4-1.5,0.4c-0.7,0-1.2-0.2-1.8-0.5c-0.5-0.3-1-0.8-1.3-1.4c-0.3-0.6-0.5-1.3-0.5-2.1
			C303.5,240.3,303.7,239.6,304,239z M309.3,239.9c-0.2-0.3-0.4-0.6-0.8-0.8c-0.3-0.2-0.7-0.3-1-0.3c-0.4,0-0.7,0.1-1,0.3
			s-0.6,0.4-0.7,0.8s-0.3,0.7-0.3,1.2s0.1,0.9,0.3,1.2c0.2,0.3,0.4,0.6,0.8,0.8c0.3,0.2,0.6,0.3,1,0.3s0.7-0.1,1-0.3
			s0.6-0.4,0.8-0.8c0.2-0.3,0.3-0.7,0.3-1.2S309.5,240.2,309.3,239.9z"/>
		<path class="st6" d="M313.5,239c0.3-0.6,0.7-1.1,1.3-1.4c0.5-0.3,1.1-0.5,1.8-0.5c0.5,0,1,0.1,1.4,0.3c0.5,0.2,0.8,0.5,1.1,0.9
			v-3.7h2V245h-2v-1.1c-0.2,0.4-0.6,0.7-1,0.9s-0.9,0.3-1.5,0.3c-0.7,0-1.3-0.2-1.8-0.5s-1-0.8-1.3-1.4c-0.3-0.6-0.5-1.3-0.5-2.1
			C313,240.3,313.1,239.6,313.5,239z M318.8,239.9c-0.2-0.3-0.4-0.6-0.8-0.8c-0.3-0.2-0.7-0.3-1-0.3c-0.4,0-0.7,0.1-1,0.3
			s-0.6,0.4-0.7,0.8s-0.3,0.7-0.3,1.2s0.1,0.9,0.3,1.2c0.2,0.3,0.4,0.6,0.8,0.8c0.3,0.2,0.6,0.3,1,0.3s0.7-0.1,1-0.3
			s0.6-0.4,0.8-0.8c0.2-0.3,0.3-0.7,0.3-1.2S319,240.2,318.8,239.9z"/>
		<path class="st6" d="M324.4,244.6c-0.6-0.3-1.1-0.8-1.4-1.4c-0.3-0.6-0.5-1.3-0.5-2.1s0.2-1.5,0.5-2.1c0.4-0.6,0.8-1.1,1.4-1.4
			c0.6-0.3,1.3-0.5,2-0.5s1.4,0.2,2,0.5s1.1,0.8,1.4,1.4c0.3,0.6,0.5,1.3,0.5,2.1s-0.2,1.5-0.5,2.1c-0.4,0.6-0.8,1.1-1.5,1.4
			s-1.3,0.5-2.1,0.5C325.7,245.1,325,245,324.4,244.6z M327.4,243.2c0.3-0.2,0.6-0.4,0.7-0.8c0.2-0.3,0.3-0.8,0.3-1.3
			c0-0.7-0.2-1.3-0.6-1.7s-0.9-0.6-1.4-0.6s-1,0.2-1.4,0.6c-0.4,0.4-0.6,1-0.6,1.7s0.2,1.3,0.6,1.7s0.8,0.6,1.4,0.6
			C326.8,243.4,327.1,243.3,327.4,243.2z"/>
		<path class="st6" d="M333.2,244.8c-0.5-0.2-0.9-0.5-1.2-0.9c-0.3-0.4-0.5-0.8-0.5-1.3h2c0,0.3,0.2,0.5,0.4,0.7s0.6,0.3,1,0.3
			s0.7-0.1,0.9-0.2s0.3-0.3,0.3-0.6s-0.1-0.4-0.4-0.6c-0.3-0.1-0.7-0.3-1.2-0.4c-0.6-0.1-1.1-0.3-1.4-0.4c-0.4-0.1-0.7-0.4-1-0.7
			s-0.4-0.7-0.4-1.2c0-0.4,0.1-0.8,0.4-1.2c0.2-0.4,0.6-0.6,1.1-0.8s1-0.3,1.6-0.3c0.9,0,1.7,0.2,2.2,0.7c0.6,0.5,0.9,1.1,0.9,1.9
			H336c0-0.3-0.2-0.6-0.4-0.7c-0.2-0.2-0.5-0.3-0.9-0.3s-0.6,0.1-0.8,0.2s-0.3,0.3-0.3,0.5c0,0.3,0.1,0.5,0.4,0.6s0.7,0.3,1.2,0.4
			c0.6,0.1,1,0.3,1.4,0.4c0.4,0.1,0.7,0.4,0.9,0.7c0.3,0.3,0.4,0.7,0.4,1.2c0,0.4-0.1,0.8-0.4,1.2c-0.2,0.4-0.6,0.6-1.1,0.8
			s-1,0.3-1.6,0.3C334.3,245.1,333.7,245,333.2,244.8z"/>
		<path class="st6" d="M345.9,237.5c0.4-0.2,0.9-0.4,1.5-0.4c0.7,0,1.3,0.2,1.8,0.5s1,0.8,1.3,1.4c0.3,0.6,0.5,1.3,0.5,2.1
			s-0.2,1.5-0.5,2.1s-0.7,1.1-1.3,1.4c-0.5,0.3-1.1,0.5-1.8,0.5c-0.6,0-1.1-0.1-1.5-0.3s-0.8-0.5-1.1-0.9v4.8h-2v-11.5h2v1.1
			C345.1,238,345.4,237.7,345.9,237.5z M348.7,239.9c-0.2-0.3-0.4-0.6-0.8-0.8c-0.3-0.2-0.7-0.3-1-0.3c-0.4,0-0.7,0.1-1,0.3
			s-0.6,0.4-0.8,0.8c-0.2,0.3-0.3,0.8-0.3,1.2s0.1,0.9,0.3,1.2c0.2,0.3,0.4,0.6,0.8,0.8c0.3,0.2,0.6,0.3,1,0.3s0.7-0.1,1-0.3
			s0.6-0.5,0.8-0.8c0.2-0.3,0.3-0.8,0.3-1.2C348.9,240.6,348.8,240.2,348.7,239.9z"/>
		<path class="st6" d="M355.3,237.5c0.4-0.2,0.9-0.4,1.4-0.4v2.1h-0.5c-0.6,0-1.1,0.1-1.4,0.4c-0.3,0.3-0.5,0.8-0.5,1.5v3.9h-2v-7.8
			h2v1.2C354.6,238,354.9,237.7,355.3,237.5z"/>
		<path class="st6" d="M358.2,236c-0.2-0.2-0.3-0.5-0.3-0.8s0.1-0.6,0.3-0.8c0.2-0.2,0.5-0.3,0.9-0.3s0.6,0.1,0.9,0.3
			c0.2,0.2,0.3,0.5,0.3,0.8s-0.1,0.6-0.3,0.8c-0.2,0.2-0.5,0.3-0.9,0.3S358.4,236.2,358.2,236z M360,237.2v7.8h-2v-7.8H360z"/>
		<path class="st6" d="M373.9,238c0.6,0.6,0.9,1.4,0.9,2.4v4.5h-2v-4.3c0-0.6-0.2-1.1-0.5-1.4c-0.3-0.3-0.7-0.5-1.3-0.5
			c-0.5,0-1,0.2-1.3,0.5s-0.5,0.8-0.5,1.4v4.3h-2v-4.3c0-0.6-0.2-1.1-0.5-1.4c-0.3-0.3-0.7-0.5-1.3-0.5c-0.5,0-1,0.2-1.3,0.5
			s-0.5,0.8-0.5,1.4v4.3h-2v-7.8h2v0.9c0.3-0.3,0.6-0.6,1-0.8s0.8-0.3,1.3-0.3c0.6,0,1.1,0.1,1.6,0.4c0.5,0.3,0.8,0.6,1.1,1.1
			c0.3-0.4,0.6-0.8,1.1-1.1s1-0.4,1.6-0.4C372.5,237.1,373.3,237.4,373.9,238z"/>
		<path class="st6" d="M376.6,239c0.3-0.6,0.7-1.1,1.3-1.4c0.5-0.3,1.1-0.5,1.8-0.5c0.6,0,1.1,0.1,1.5,0.3s0.8,0.5,1,0.9v-1.1h2v7.8
			h-2v-1.1c-0.3,0.4-0.6,0.7-1,0.9s-1,0.4-1.5,0.4c-0.7,0-1.2-0.2-1.8-0.5c-0.5-0.3-1-0.8-1.3-1.4c-0.3-0.6-0.5-1.3-0.5-2.1
			C376.1,240.3,376.2,239.6,376.6,239z M381.9,239.9c-0.2-0.3-0.4-0.6-0.8-0.8c-0.3-0.2-0.7-0.3-1-0.3c-0.4,0-0.7,0.1-1,0.3
			s-0.6,0.4-0.7,0.8s-0.3,0.7-0.3,1.2s0.1,0.9,0.3,1.2c0.2,0.3,0.4,0.6,0.8,0.8c0.3,0.2,0.6,0.3,1,0.3s0.7-0.1,1-0.3
			s0.6-0.4,0.8-0.8c0.2-0.3,0.3-0.7,0.3-1.2S382.1,240.2,381.9,239.9z M381.9,235.2l-3.2,1.5v-1.4l3.2-1.7V235.2z"/>
		<path class="st6" d="M389,237.5c0.4-0.2,0.9-0.4,1.4-0.4v2.1h-0.5c-0.6,0-1.1,0.1-1.4,0.4c-0.3,0.3-0.5,0.8-0.5,1.5v3.9h-2v-7.8h2
			v1.2C388.3,238,388.6,237.7,389,237.5z"/>
		<path class="st6" d="M391.9,236c-0.2-0.2-0.3-0.5-0.3-0.8s0.1-0.6,0.3-0.8c0.2-0.2,0.5-0.3,0.9-0.3s0.6,0.1,0.9,0.3
			c0.2,0.2,0.3,0.5,0.3,0.8s-0.1,0.6-0.3,0.8c-0.2,0.2-0.5,0.3-0.9,0.3S392.1,236.2,391.9,236z M393.7,237.2v7.8h-2v-7.8H393.7z"/>
		<path class="st6" d="M397.1,244.6c-0.6-0.3-1.1-0.8-1.4-1.4c-0.3-0.6-0.5-1.3-0.5-2.1s0.2-1.5,0.5-2.1c0.4-0.6,0.8-1.1,1.4-1.4
			c0.6-0.3,1.3-0.5,2-0.5s1.4,0.2,2,0.5s1.1,0.8,1.4,1.4c0.3,0.6,0.5,1.3,0.5,2.1s-0.2,1.5-0.5,2.1c-0.4,0.6-0.8,1.1-1.5,1.4
			s-1.3,0.5-2.1,0.5C398.3,245.1,397.7,245,397.1,244.6z M400.1,243.2c0.3-0.2,0.6-0.4,0.7-0.8c0.2-0.3,0.3-0.8,0.3-1.3
			c0-0.7-0.2-1.3-0.6-1.7s-0.9-0.6-1.4-0.6s-1,0.2-1.4,0.6c-0.4,0.4-0.6,1-0.6,1.7s0.2,1.3,0.6,1.7s0.8,0.6,1.4,0.6
			C399.4,243.4,399.8,243.3,400.1,243.2z"/>
		<path class="st6" d="M405.8,244.8c-0.5-0.2-0.9-0.5-1.2-0.9c-0.3-0.4-0.5-0.8-0.5-1.3h2c0,0.3,0.2,0.5,0.4,0.7s0.6,0.3,1,0.3
			s0.7-0.1,0.9-0.2s0.3-0.3,0.3-0.6s-0.1-0.4-0.4-0.6c-0.3-0.1-0.7-0.3-1.2-0.4c-0.6-0.1-1.1-0.3-1.4-0.4c-0.4-0.1-0.7-0.4-1-0.7
			s-0.4-0.7-0.4-1.2c0-0.4,0.1-0.8,0.4-1.2c0.2-0.4,0.6-0.6,1.1-0.8s1-0.3,1.6-0.3c0.9,0,1.7,0.2,2.2,0.7c0.6,0.5,0.9,1.1,0.9,1.9
			h-1.9c0-0.3-0.2-0.6-0.4-0.7c-0.2-0.2-0.5-0.3-0.9-0.3s-0.6,0.1-0.8,0.2s-0.3,0.3-0.3,0.5c0,0.3,0.1,0.5,0.4,0.6s0.7,0.3,1.2,0.4
			c0.6,0.1,1,0.3,1.4,0.4c0.4,0.1,0.7,0.4,0.9,0.7c0.3,0.3,0.4,0.7,0.4,1.2c0,0.4-0.1,0.8-0.4,1.2c-0.2,0.4-0.6,0.6-1.1,0.8
			s-1,0.3-1.6,0.3C406.9,245.1,406.3,245,405.8,244.8z"/>
	</g>
	<g class="st13">
		<path class="st6" d="M568.1,235.8c0.8,0.4,1.4,1,1.8,1.7s0.6,1.6,0.6,2.6s-0.2,1.8-0.6,2.6s-1,1.3-1.8,1.7s-1.7,0.6-2.7,0.6H562
			v-9.8h3.4C566.4,235.2,567.3,235.4,568.1,235.8z M567.7,242.5c0.6-0.6,0.8-1.3,0.8-2.4s-0.3-1.8-0.8-2.4c-0.6-0.6-1.4-0.9-2.4-0.9
			h-1.4v6.5h1.4C566.3,243.3,567.1,243.1,567.7,242.5z"/>
		<path class="st6" d="M572,239c0.3-0.6,0.7-1.1,1.3-1.4c0.5-0.3,1.1-0.5,1.8-0.5c0.6,0,1.1,0.1,1.5,0.3s0.8,0.5,1,0.9v-1.1h2v7.8
			h-2v-1.1c-0.3,0.4-0.6,0.7-1,0.9s-1,0.4-1.5,0.4c-0.7,0-1.2-0.2-1.8-0.5c-0.5-0.3-1-0.8-1.3-1.4s-0.5-1.3-0.5-2.1
			C571.5,240.3,571.7,239.6,572,239z M577.3,239.9c-0.2-0.3-0.4-0.6-0.8-0.8c-0.3-0.2-0.7-0.3-1-0.3s-0.7,0.1-1,0.3
			s-0.6,0.4-0.7,0.8s-0.3,0.7-0.3,1.2s0.1,0.9,0.3,1.2s0.4,0.6,0.8,0.8s0.6,0.3,1,0.3s0.7-0.1,1-0.3s0.6-0.4,0.8-0.8
			c0.2-0.3,0.3-0.7,0.3-1.2S577.5,240.2,577.3,239.9z"/>
		<path class="st6" d="M581.5,239c0.3-0.6,0.7-1.1,1.3-1.4c0.5-0.3,1.1-0.5,1.8-0.5c0.5,0,1,0.1,1.4,0.3c0.5,0.2,0.8,0.5,1.1,0.9
			v-3.7h2V245h-2v-1.1c-0.2,0.4-0.6,0.7-1,0.9s-0.9,0.3-1.5,0.3c-0.7,0-1.2-0.2-1.8-0.5c-0.5-0.3-1-0.8-1.3-1.4
			c-0.3-0.6-0.5-1.3-0.5-2.1C581,240.3,581.1,239.6,581.5,239z M586.8,239.9c-0.2-0.3-0.4-0.6-0.8-0.8c-0.3-0.2-0.7-0.3-1-0.3
			c-0.4,0-0.7,0.1-1,0.3s-0.6,0.4-0.7,0.8s-0.3,0.7-0.3,1.2s0.1,0.9,0.3,1.2s0.4,0.6,0.8,0.8c0.3,0.2,0.6,0.3,1,0.3s0.7-0.1,1-0.3
			s0.6-0.4,0.8-0.8c0.2-0.3,0.3-0.7,0.3-1.2S587,240.2,586.8,239.9z"/>
		<path class="st6" d="M592.4,244.6c-0.6-0.3-1.1-0.8-1.4-1.4c-0.3-0.6-0.5-1.3-0.5-2.1s0.2-1.5,0.5-2.1c0.4-0.6,0.8-1.1,1.4-1.4
			c0.6-0.3,1.3-0.5,2-0.5s1.4,0.2,2,0.5s1.1,0.8,1.4,1.4c0.3,0.6,0.5,1.3,0.5,2.1s-0.2,1.5-0.5,2.1c-0.4,0.6-0.8,1.1-1.5,1.4
			s-1.3,0.5-2.1,0.5C593.7,245.1,593,245,592.4,244.6z M595.4,243.2c0.3-0.2,0.6-0.4,0.7-0.8c0.2-0.3,0.3-0.8,0.3-1.3
			c0-0.7-0.2-1.3-0.6-1.7c-0.4-0.4-0.9-0.6-1.4-0.6c-0.6,0-1,0.2-1.4,0.6s-0.6,1-0.6,1.7s0.2,1.3,0.6,1.7c0.4,0.4,0.8,0.6,1.4,0.6
			C594.8,243.4,595.1,243.3,595.4,243.2z"/>
		<path class="st6" d="M601.2,244.8c-0.5-0.2-0.9-0.5-1.2-0.9s-0.5-0.8-0.5-1.3h2c0,0.3,0.2,0.5,0.4,0.7s0.6,0.3,1,0.3
			s0.7-0.1,0.9-0.2s0.3-0.3,0.3-0.6s-0.1-0.4-0.4-0.6c-0.3-0.1-0.7-0.3-1.2-0.4c-0.6-0.1-1.1-0.3-1.4-0.4s-0.7-0.4-1-0.7
			s-0.4-0.7-0.4-1.2c0-0.4,0.1-0.8,0.4-1.2c0.2-0.4,0.6-0.6,1.1-0.8s1-0.3,1.6-0.3c0.9,0,1.7,0.2,2.2,0.7c0.6,0.5,0.9,1.1,0.9,1.9
			H604c0-0.3-0.2-0.6-0.4-0.7c-0.2-0.2-0.5-0.3-0.9-0.3s-0.6,0.1-0.8,0.2s-0.3,0.3-0.3,0.5c0,0.3,0.1,0.5,0.4,0.6
			c0.3,0.1,0.7,0.3,1.2,0.4c0.6,0.1,1,0.3,1.4,0.4c0.4,0.1,0.7,0.4,0.9,0.7s0.4,0.7,0.4,1.2c0,0.4-0.1,0.8-0.4,1.2s-0.6,0.6-1.1,0.8
			s-1,0.3-1.6,0.3C602.3,245.1,601.7,245,601.2,244.8z"/>
		<path class="st6" d="M612.1,244.8c-0.5-0.2-0.9-0.5-1.2-0.9s-0.5-0.8-0.5-1.3h2c0,0.3,0.2,0.5,0.4,0.7s0.6,0.3,1,0.3
			s0.7-0.1,0.9-0.2s0.3-0.3,0.3-0.6s-0.1-0.4-0.4-0.6c-0.3-0.1-0.7-0.3-1.2-0.4c-0.6-0.1-1.1-0.3-1.4-0.4s-0.7-0.4-1-0.7
			s-0.4-0.7-0.4-1.2c0-0.4,0.1-0.8,0.4-1.2c0.2-0.4,0.6-0.6,1.1-0.8s1-0.3,1.6-0.3c0.9,0,1.7,0.2,2.2,0.7c0.6,0.5,0.9,1.1,0.9,1.9
			H615c0-0.3-0.2-0.6-0.4-0.7c-0.2-0.2-0.5-0.3-0.9-0.3s-0.6,0.1-0.8,0.2s-0.3,0.3-0.3,0.5c0,0.3,0.1,0.5,0.4,0.6
			c0.3,0.1,0.7,0.3,1.2,0.4c0.6,0.1,1,0.3,1.4,0.4c0.4,0.1,0.7,0.4,0.9,0.7s0.4,0.7,0.4,1.2c0,0.4-0.1,0.8-0.4,1.2s-0.6,0.6-1.1,0.8
			s-1,0.3-1.6,0.3C613.2,245.1,612.6,245,612.1,244.8z"/>
		<path class="st6" d="M625.7,241.7H620c0,0.6,0.2,1,0.6,1.3s0.8,0.5,1.3,0.5c0.7,0,1.2-0.3,1.6-0.9h2.1c-0.2,0.7-0.7,1.4-1.3,1.8
			s-1.4,0.7-2.3,0.7c-0.7,0-1.4-0.2-2-0.5s-1.1-0.8-1.4-1.4c-0.3-0.6-0.5-1.3-0.5-2.1s0.2-1.5,0.5-2.1s0.8-1.1,1.4-1.4
			c0.6-0.3,1.3-0.5,2-0.5s1.4,0.2,2,0.5s1,0.8,1.4,1.4c0.3,0.6,0.5,1.3,0.5,2C625.7,241.2,625.7,241.5,625.7,241.7z M623.7,240.4
			c0-0.5-0.2-0.9-0.5-1.2c-0.4-0.3-0.8-0.5-1.3-0.5s-0.9,0.1-1.2,0.4s-0.5,0.7-0.6,1.2h3.6V240.4z"/>
		<path class="st6" d="M627.1,239c0.3-0.6,0.8-1.1,1.4-1.4c0.6-0.3,1.2-0.5,2-0.5c1,0,1.8,0.2,2.4,0.7s1.1,1.2,1.3,2H632
			c-0.1-0.3-0.3-0.6-0.6-0.8s-0.6-0.3-1-0.3c-0.6,0-1,0.2-1.3,0.6c-0.3,0.4-0.5,1-0.5,1.7s0.2,1.3,0.5,1.7s0.8,0.6,1.3,0.6
			c0.8,0,1.3-0.4,1.6-1.1h2.1c-0.2,0.8-0.6,1.5-1.3,2c-0.6,0.5-1.4,0.7-2.4,0.7c-0.7,0-1.4-0.2-2-0.5s-1-0.8-1.4-1.4
			c-0.3-0.6-0.5-1.3-0.5-2.1S626.8,239.6,627.1,239z"/>
		<path class="st6" d="M642.9,237.2v7.8h-2v-1c-0.3,0.3-0.6,0.6-1,0.8s-0.8,0.3-1.3,0.3c-0.6,0-1.1-0.1-1.6-0.4s-0.8-0.6-1.1-1.1
			s-0.4-1.1-0.4-1.8v-4.5h2v4.3c0,0.6,0.2,1.1,0.5,1.4c0.3,0.3,0.7,0.5,1.3,0.5c0.5,0,1-0.2,1.3-0.5s0.5-0.8,0.5-1.4v-4.3h1.8V237.2
			z"/>
		<path class="st6" d="M651.4,238c0.6,0.6,0.9,1.4,0.9,2.4v4.5h-2v-4.3c0-0.6-0.2-1.1-0.5-1.4c-0.3-0.3-0.7-0.5-1.3-0.5
			c-0.5,0-1,0.2-1.3,0.5s-0.5,0.8-0.5,1.4v4.3h-2v-7.8h2v1c0.3-0.3,0.6-0.6,1-0.8s0.9-0.3,1.3-0.3
			C650.1,237.1,650.8,237.4,651.4,238z"/>
		<path class="st6" d="M654,239c0.3-0.6,0.7-1.1,1.3-1.4c0.5-0.3,1.1-0.5,1.8-0.5c0.5,0,1,0.1,1.4,0.3c0.5,0.2,0.8,0.5,1.1,0.9v-3.7
			h2V245h-2v-1.1c-0.2,0.4-0.6,0.7-1,0.9s-0.9,0.3-1.5,0.3c-0.7,0-1.3-0.2-1.8-0.5s-1-0.8-1.3-1.4s-0.5-1.3-0.5-2.1
			C653.6,240.3,653.7,239.6,654,239z M659.4,239.9c-0.2-0.3-0.4-0.6-0.8-0.8c-0.3-0.2-0.7-0.3-1-0.3s-0.7,0.1-1,0.3
			s-0.6,0.4-0.7,0.8s-0.3,0.7-0.3,1.2s0.1,0.9,0.3,1.2s0.4,0.6,0.8,0.8s0.6,0.3,1,0.3s0.7-0.1,1-0.3s0.6-0.4,0.8-0.8
			c0.2-0.3,0.3-0.7,0.3-1.2S659.6,240.2,659.4,239.9z"/>
		<path class="st6" d="M663.5,239c0.3-0.6,0.7-1.1,1.3-1.4c0.5-0.3,1.1-0.5,1.8-0.5c0.6,0,1.1,0.1,1.5,0.3s0.8,0.5,1,0.9v-1.1h2v7.8
			h-2v-1.1c-0.3,0.4-0.6,0.7-1,0.9s-1,0.4-1.5,0.4c-0.7,0-1.2-0.2-1.8-0.5s-1-0.8-1.3-1.4c-0.3-0.6-0.5-1.3-0.5-2.1
			C663.1,240.3,663.2,239.6,663.5,239z M668.9,239.9c-0.2-0.3-0.4-0.6-0.8-0.8c-0.3-0.2-0.7-0.3-1-0.3c-0.4,0-0.7,0.1-1,0.3
			s-0.6,0.4-0.7,0.8s-0.3,0.7-0.3,1.2s0.1,0.9,0.3,1.2s0.4,0.6,0.8,0.8c0.3,0.2,0.6,0.3,1,0.3s0.7-0.1,1-0.3s0.6-0.4,0.8-0.8
			c0.2-0.3,0.3-0.7,0.3-1.2S669.1,240.2,668.9,239.9z M668.9,235.2l-3.2,1.5v-1.4l3.2-1.7V235.2z"/>
		<path class="st6" d="M676,237.5c0.4-0.2,0.9-0.4,1.4-0.4v2.1h-0.5c-0.6,0-1.1,0.1-1.4,0.4s-0.5,0.8-0.5,1.5v3.9h-2v-7.8h2v1.2
			C675.3,238,675.6,237.7,676,237.5z"/>
		<path class="st6" d="M678.9,236c-0.2-0.2-0.3-0.5-0.3-0.8s0.1-0.6,0.3-0.8s0.5-0.3,0.9-0.3c0.3,0,0.6,0.1,0.9,0.3
			c0.2,0.2,0.3,0.5,0.3,0.8s-0.1,0.6-0.3,0.8s-0.5,0.3-0.9,0.3S679.1,236.2,678.9,236z M680.7,237.2v7.8h-2v-7.8H680.7z"/>
		<path class="st6" d="M684,244.6c-0.6-0.3-1.1-0.8-1.4-1.4c-0.3-0.6-0.5-1.3-0.5-2.1s0.2-1.5,0.5-2.1c0.4-0.6,0.8-1.1,1.4-1.4
			c0.6-0.3,1.3-0.5,2-0.5s1.4,0.2,2,0.5s1.1,0.8,1.4,1.4c0.3,0.6,0.5,1.3,0.5,2.1s-0.2,1.5-0.5,2.1c-0.4,0.6-0.8,1.1-1.5,1.4
			s-1.3,0.5-2.1,0.5C685.3,245.1,684.6,245,684,244.6z M687.1,243.2c0.3-0.2,0.6-0.4,0.7-0.8c0.2-0.3,0.3-0.8,0.3-1.3
			c0-0.7-0.2-1.3-0.6-1.7c-0.4-0.4-0.9-0.6-1.4-0.6c-0.6,0-1,0.2-1.4,0.6s-0.6,1-0.6,1.7s0.2,1.3,0.6,1.7c0.4,0.4,0.8,0.6,1.4,0.6
			C686.4,243.4,686.7,243.3,687.1,243.2z"/>
		<path class="st6" d="M692.8,244.8c-0.5-0.2-0.9-0.5-1.2-0.9s-0.5-0.8-0.5-1.3h2c0,0.3,0.2,0.5,0.4,0.7s0.6,0.3,1,0.3
			s0.7-0.1,0.9-0.2s0.3-0.3,0.3-0.6s-0.1-0.4-0.4-0.6c-0.3-0.1-0.7-0.3-1.2-0.4c-0.6-0.1-1.1-0.3-1.4-0.4s-0.7-0.4-1-0.7
			s-0.4-0.7-0.4-1.2c0-0.4,0.1-0.8,0.4-1.2c0.2-0.4,0.6-0.6,1.1-0.8s1-0.3,1.6-0.3c0.9,0,1.7,0.2,2.2,0.7c0.6,0.5,0.9,1.1,0.9,1.9
			h-1.9c0-0.3-0.2-0.6-0.4-0.7c-0.2-0.2-0.5-0.3-0.9-0.3s-0.6,0.1-0.8,0.2s-0.3,0.3-0.3,0.5c0,0.3,0.1,0.5,0.4,0.6
			c0.3,0.1,0.7,0.3,1.2,0.4c0.6,0.1,1,0.3,1.4,0.4c0.4,0.1,0.7,0.4,0.9,0.7s0.4,0.7,0.4,1.2c0,0.4-0.1,0.8-0.4,1.2s-0.6,0.6-1.1,0.8
			s-1,0.3-1.6,0.3C693.9,245.1,693.3,245,692.8,244.8z"/>
	</g>
</g>
</svg>
