<svg xmlns="http://www.w3.org/2000/svg" xmlns:xlink="http://www.w3.org/1999/xlink" width="183.159" height="182.75" viewBox="0 0 183.159 182.75"><defs><clipPath id="a"><rect width="111" height="79" transform="translate(0 0)"/></clipPath><clipPath id="b"><rect width="76.981" height="75.456"/></clipPath><clipPath id="d"><rect width="2.419" height="1.438"/></clipPath><clipPath id="f"><rect width="2.506" height="4.86"/></clipPath><clipPath id="h"><rect width="3.008" height="1.678"/></clipPath></defs><g transform="translate(-669.253 -249.625)"><g transform="translate(664.072 225.426)"><g transform="translate(5.928 24.574)"><path d="M40.259,166.628l-.027.013a2.409,2.409,0,0,0-.982.417c-.538.529-.247,1.655-.924,2-.39.2-.883-.013-1.292.148-.632.247-.65,1.144-1.085,1.668a1.262,1.262,0,0,1-1.9-.049c-.022.718-.045,1.431-.067,2.148H21.845V166.1c-1.516.1-2.749,1.749-4.2,2.206a5.045,5.045,0,0,1-1.682.144c-.484-.013-.973-.022-1.458-.036a.74.74,0,0,1-.471-.126.727.727,0,0,1-.175-.444c-.085-.547-.166-1.09-.251-1.637a2.308,2.308,0,0,1-2.417-.641c-.65-.6-1.108-1.386-1.753-1.987-.682-.628-1.623-1.17-1.718-2.094-.063-.61.287-1.278-.018-1.812a2.479,2.479,0,0,0-.453-.493c-1.117-1.063-1.256-2.771-1.318-4.314-.036-.78.09-1.78.848-1.973a1.05,1.05,0,0,1,.3-.036l33.2,13.768Z" transform="translate(-5.928 -95.328)" fill="#03c4a1"/><path d="M34.344,173.353H21.47v-6.808a6.044,6.044,0,0,0-1.8,1.022,7.1,7.1,0,0,1-1.913,1.1,4.414,4.414,0,0,1-1.326.17c-.153,0-.3,0-.481-.009l-.726-.018-.731-.018-.032,0a1.032,1.032,0,0,1-.679-.219l0,0a1.059,1.059,0,0,1-.292-.665q-.064-.409-.125-.816l-.059-.389a2.021,2.021,0,0,1-.356.031,3.058,3.058,0,0,1-2.012-.883,9.152,9.152,0,0,1-.922-1.041,8.54,8.54,0,0,0-.832-.946c-.139-.128-.292-.254-.453-.387a3.087,3.087,0,0,1-1.382-1.944A3.185,3.185,0,0,1,7.4,160.7a1.354,1.354,0,0,0-.024-.842,1.531,1.531,0,0,0-.279-.306l-.11-.1c-1.2-1.138-1.363-2.881-1.432-4.568-.06-1.311.338-2.146,1.122-2.35a1.409,1.409,0,0,1,.4-.049h.075l35,14.518H40.333c-.081.026-.162.049-.24.071a1.4,1.4,0,0,0-.582.254,1.548,1.548,0,0,0-.283.773,1.65,1.65,0,0,1-.73,1.295,1.409,1.409,0,0,1-.65.133c-.07,0-.139,0-.2,0s-.122,0-.179,0a.8.8,0,0,0-.292.04c-.219.086-.333.333-.493.731a3.061,3.061,0,0,1-.441.827,1.561,1.561,0,0,1-1.217.544,1.7,1.7,0,0,1-.621-.116ZM22.22,172.6h11.4l.09-2.873.643.878a.89.89,0,0,0,1.31.032,2.436,2.436,0,0,0,.324-.63,1.775,1.775,0,0,1,.915-1.148,1.52,1.52,0,0,1,.566-.092c.071,0,.139,0,.206,0s.121,0,.178,0a.681.681,0,0,0,.309-.051c.19-.1.253-.357.335-.772a2.111,2.111,0,0,1,.5-1.165,1.338,1.338,0,0,1,.247-.188L7.007,153.237a.531.531,0,0,0-.118.018l-.015,0c-.57.145-.585,1.162-.565,1.593.063,1.536.207,3.112,1.2,4.06l.1.1a2.131,2.131,0,0,1,.417.48,1.953,1.953,0,0,1,.116,1.331,2.6,2.6,0,0,0-.049.631c.058.57.571.994,1.114,1.442.162.134.329.272.485.415a9.231,9.231,0,0,1,.909,1.028,8.461,8.461,0,0,0,.845.959,2.343,2.343,0,0,0,1.5.683,1.185,1.185,0,0,0,.5-.107l.452-.209.077.492q.064.411.126.82t.125.817v.006a.539.539,0,0,0,.056.217.824.824,0,0,0,.216.028h.018l.723.018.731.018c.172.005.315.009.459.009a3.608,3.608,0,0,0,1.1-.135,6.467,6.467,0,0,0,1.7-.993,5.221,5.221,0,0,1,2.586-1.23l.4-.026Z" transform="translate(-5.928 -95.328)" fill="#fff"/><path d="M119.828,180.172l-4.933,8.346c-6.148-.709-11.916-4.041-17.257-7.189a9.173,9.173,0,0,1-2.767-2.153,7.725,7.725,0,0,1-1.265-4.408c-.063-1.511-.063-3.229-1.175-4.251a2.608,2.608,0,0,0-1.552-.673L101.7,161.65h3.839l3.292,4.525,1.789-.036v9.646l7.279-.148-.372,2-2.081.148L117,179.719l2.821.448Z" transform="translate(-52.782 -100.176)" fill="#03c4a1"/><path d="M115.094,188.918l-.242-.028a30.091,30.091,0,0,1-9.044-2.711,91.069,91.069,0,0,1-8.36-4.527,9.441,9.441,0,0,1-2.875-2.249,8.093,8.093,0,0,1-1.341-4.619c0-.089-.007-.179-.011-.269-.055-1.409-.111-2.866-1.043-3.723a2.245,2.245,0,0,0-1.327-.575l-.983-.077,11.7-8.865h4.156l3.289,4.521,1.976-.04V175.4l7.356-.15L117.839,178l-1.653.118,1.018,1.258,2.8.445.3.3Zm-23.349-19.26a2.924,2.924,0,0,1,.941.583c1.161,1.067,1.227,2.756,1.284,4.245q.005.134.011.266a7.42,7.42,0,0,0,1.188,4.2,8.884,8.884,0,0,0,2.66,2.057c4.792,2.825,10.741,6.331,16.868,7.11l4.53-7.664-2.425-.386-2.1-2.6,2.509-.178.235-1.267-7.2.146v-9.647l-1.6.032-3.295-4.529h-3.522Z" transform="translate(-52.782 -100.176)" fill="#fff"/><path d="M79.075,96.76l1.978,3.821-2.6,6.494-13.3.242-1.789.036-3.292-4.525H56.235l-10.817,8.193a2.672,2.672,0,0,0-.883.072c-1.058.287-1.843,1.215-2.884,1.561L8.46,98.881c.448,0,.933.161,1.238-.144a1.1,1.1,0,0,0,.238-.65,8.794,8.794,0,0,0,.09-1.61,8.372,8.372,0,0,1-.09-2.52c.211-.816,1.193-1.52,1.893-1.045a11.481,11.481,0,0,1-.193-3.032.786.786,0,0,1,.139-.439.68.68,0,0,1,.448-.179c.664-.058,1.44.161,1.928-.292a8.082,8.082,0,0,0,.574-.852c.852-1.049,2.736-.157,3.807-.978.574-.439.744-1.265,1.3-1.731,1.188-1.009,3.215.188,4.5-.7a3.268,3.268,0,0,0,1.04-1.727c.422-1.215.843-2.44,1.265-3.655a8.225,8.225,0,0,0,.628-2.964c-.049-1.215-.641-2.35-.771-3.561-.175-1.659.5-3.489-.345-4.924a14.377,14.377,0,0,0-1.709-1.843,1.843,1.843,0,0,1-.3-2.292A2.006,2.006,0,0,1,26,63.322a4.7,4.7,0,0,0,1.973.152c.646-.17,1.184-.937.83-1.5a.619.619,0,0,0-.4-.7,2.489,2.489,0,0,0-.9-.135,1.269,1.269,0,0,1-.843-.292,1.4,1.4,0,0,1-.215-1.188c.063-.489.139-.978.233-1.458a1.4,1.4,0,0,1,.215-.605,1.191,1.191,0,0,1,.466-.327,4.774,4.774,0,0,1,2.274-.318c.771.054,1.529.211,2.3.314a2.005,2.005,0,0,0,.713,0,.748.748,0,0,0,.547-.417,2.444,2.444,0,0,0,.085-.48.439.439,0,0,1,.283-.372.508.508,0,0,1,.269.04,2.735,2.735,0,0,1,1.144.807.827.827,0,0,0,.422.345.655.655,0,0,0,.556-.283c.341-.372.628-.785.973-1.148a2.354,2.354,0,0,1,1.269-.762,4.66,4.66,0,0,1-.135,2.058,2.918,2.918,0,0,0,.148,2.032c.466.785,1.417,1.188,1.713,2.058l7.844-.386,5.166-1.722.511-2.422,2.933-.063.094-1.031,2.44.906v2.444l1.83,1.6-.152,2.063L58.446,65.2l2.444,2.215.457,3.435,2.292,1.6,1.372-.381,1.3-4.126,3.054.229,2.26-3.372,5.53-.215.04.1,2.861,6.776,10.31,4.126-11.3,21.154Z" transform="translate(-7.324 -41.35)" fill="#03c4a1"/><path d="M41.636,113.054,6.578,98.506H8.46c.134,0,.263.012.388.023.109.01.212.019.3.019.18,0,.242-.037.281-.076a.873.873,0,0,0,.131-.435A8.325,8.325,0,0,0,9.651,96.5c-.013-.25-.046-.5-.08-.764a4.862,4.862,0,0,1,0-1.872,1.981,1.981,0,0,1,1.754-1.481h.042a10.242,10.242,0,0,1-.107-2.539,1.126,1.126,0,0,1,.222-.641l.016-.018a1.023,1.023,0,0,1,.693-.3c.092-.008.193-.012.309-.012s.226,0,.336.007.21.007.31.007a1.04,1.04,0,0,0,.75-.2,1.563,1.563,0,0,0,.258-.379,2.779,2.779,0,0,1,.282-.437,2.7,2.7,0,0,1,2.24-.712,2.756,2.756,0,0,0,1.628-.324,2.534,2.534,0,0,0,.576-.774,3.338,3.338,0,0,1,.706-.946,2.554,2.554,0,0,1,1.7-.521c.283,0,.573.022.853.044s.546.042.806.042a1.98,1.98,0,0,0,1.174-.286,2.94,2.94,0,0,0,.9-1.54q.317-.913.633-1.829t.632-1.827a8.006,8.006,0,0,0,.607-2.827,7.721,7.721,0,0,0-.381-1.829,9.875,9.875,0,0,1-.389-1.706,10.59,10.59,0,0,1,.029-1.9,4.881,4.881,0,0,0-.325-2.876,4.825,4.825,0,0,0-.943-1.058,8.542,8.542,0,0,1-.728-.733,2.19,2.19,0,0,1-.3-2.78,1.95,1.95,0,0,1,1.552-.6,4.05,4.05,0,0,1,.653.056c.129.023.255.048.376.073a5.231,5.231,0,0,0,1.007.138,1.735,1.735,0,0,0,.436-.051.975.975,0,0,0,.62-.549.417.417,0,0,0-.015-.39l-.093-.149.055-.167c.023-.069-.073-.187-.2-.248a1.7,1.7,0,0,0-.6-.092l-.16-.008a1.636,1.636,0,0,1-1.086-.4,1.757,1.757,0,0,1-.322-1.5c.067-.525.147-1.023.237-1.481a1.737,1.737,0,0,1,.285-.761,1.526,1.526,0,0,1,.607-.44,4.741,4.741,0,0,1,1.939-.371c.166,0,.34.006.518.019.522.036,1.04.119,1.54.2.256.041.521.083.78.118a2.754,2.754,0,0,0,.353.029,1,1,0,0,0,.226-.023h.007a.386.386,0,0,0,.279-.2.824.824,0,0,0,.035-.2c.006-.062.014-.133.028-.207a.794.794,0,0,1,.56-.664l.017,0a.685.685,0,0,1,.134-.013.976.976,0,0,1,.338.069,3.107,3.107,0,0,1,1.3.918l.023.029a.9.9,0,0,0,.181.189c.01,0,.075-.021.209-.167.152-.165.291-.339.439-.522.169-.21.344-.427.538-.631a2.679,2.679,0,0,1,1.477-.874l.34-.059.087.334a4.447,4.447,0,0,1-.091,2.034q-.019.1-.039.192a2.621,2.621,0,0,0,.1,1.769,3.711,3.711,0,0,0,.722.793,3.814,3.814,0,0,1,.911,1.068l7.531-.37,4.914-1.638.528-2.5,2.9-.062.108-1.186,3.144,1.167v2.535l1.843,1.612-.175,2.366-1.991,2.484,2.284,2.071.454,3.408,2.012,1.405,1.006-.279,1.324-4.215,3.133.235,2.245-3.349L77.4,64.2l.14.342,2.8,6.628,10.554,4.223-11.4,21.348,1.978,3.822-2.753,6.884-13.55.247-1.984.04L59.883,103.2H56.361l-10.833,8.205-.145-.013c-.062-.006-.126-.009-.191-.009a2.34,2.34,0,0,0-.563.07,4.862,4.862,0,0,0-1.394.747,6.025,6.025,0,0,1-1.466.806ZM9.89,99.069l31.77,13.183a6.029,6.029,0,0,0,1.154-.669,5.481,5.481,0,0,1,1.622-.852l.007,0a3.067,3.067,0,0,1,.859-.091l10.806-8.185h4.156l3.289,4.521,1.594-.032L78.2,106.7l2.44-6.1-1.9-3.67-.109-.182,11.2-20.972L79.768,71.748l-2.863-6.78-5.078.2-2.276,3.4-2.975-.223-1.268,4.036-1.739.483L61,71.061,60.536,67.6l-2.6-2.36,2.287-2.853.13-1.76-1.817-1.59V56.681L56.8,56.037l-.08.877-2.97.064-.494,2.341-5.419,1.806-8.177.4-.091-.268a2.668,2.668,0,0,0-.819-1.022,4.327,4.327,0,0,1-.862-.965,3.272,3.272,0,0,1-.194-2.3q.019-.1.039-.2a5.373,5.373,0,0,0,.159-1.3,2.364,2.364,0,0,0-.692.53c-.175.184-.333.38-.5.587-.149.184-.3.375-.47.558a1.1,1.1,0,0,1-.765.411.743.743,0,0,1-.137-.013A1.1,1.1,0,0,1,34.7,57.1l-.017-.021a2.355,2.355,0,0,0-.984-.694l-.035-.012a.313.313,0,0,0-.018.062c-.008.043-.013.092-.019.143a1.422,1.422,0,0,1-.088.41,1.119,1.119,0,0,1-.813.64,1.738,1.738,0,0,1-.391.041,3.43,3.43,0,0,1-.452-.036c-.269-.036-.539-.079-.8-.121-.506-.081-.984-.157-1.474-.191-.16-.011-.317-.017-.466-.017a4,4,0,0,0-1.629.3.877.877,0,0,0-.321.213,1.11,1.11,0,0,0-.145.447c-.087.445-.164.927-.23,1.436-.044.336-.065.7.108.876a.917.917,0,0,0,.6.182l.149.007a2.3,2.3,0,0,1,.883.161,1.016,1.016,0,0,1,.636.988,1.176,1.176,0,0,1,0,.923,1.722,1.722,0,0,1-1.128,1,2.477,2.477,0,0,1-.625.075,5.866,5.866,0,0,1-1.155-.153c-.122-.025-.238-.048-.354-.069a3.285,3.285,0,0,0-.526-.046,1.248,1.248,0,0,0-.986.343c-.4.463-.145,1.274.3,1.8a7.858,7.858,0,0,0,.666.668,5.46,5.46,0,0,1,1.081,1.229A5.5,5.5,0,0,1,26.9,71a10.036,10.036,0,0,0-.031,1.763,9.172,9.172,0,0,0,.363,1.576,8.4,8.4,0,0,1,.41,2.009,8.573,8.573,0,0,1-.648,3.1q-.316.911-.632,1.826t-.633,1.829a3.621,3.621,0,0,1-1.182,1.913,2.775,2.775,0,0,1-1.6.419c-.288,0-.58-.022-.863-.044s-.541-.042-.8-.042a1.773,1.773,0,0,0-1.214.344,2.744,2.744,0,0,0-.54.746,3.123,3.123,0,0,1-.771,1,3.37,3.37,0,0,1-2.075.478c-.712.009-1.327.016-1.669.438a2.145,2.145,0,0,0-.206.326,2.169,2.169,0,0,1-.4.565,1.755,1.755,0,0,1-1.26.4c-.113,0-.225,0-.335-.007s-.21-.007-.311-.007-.174,0-.245.009a.411.411,0,0,0-.2.053.65.65,0,0,0-.049.224,11.272,11.272,0,0,0,.19,2.942l.133.853-.714-.485a.5.5,0,0,0-.291-.089,1.248,1.248,0,0,0-1.028.918,4.241,4.241,0,0,0,.016,1.587c.035.267.071.542.085.819a8.994,8.994,0,0,1-.092,1.677A1.437,1.437,0,0,1,9.963,99,.949.949,0,0,1,9.89,99.069Z" transform="translate(-7.324 -41.35)" fill="#fff"/><path d="M128.372,42.681l-1.48,5.252-.04-.1-5.53.215-2.26,3.372-3.054-.229-1.3,4.126-1.372.381-2.292-1.6-.457-3.435-2.444-2.215,2.139-2.668.152-2.063-1.83-1.6V39.672l-2.44-.906.094-1.009-3.637.193-.193-6.7L98.54,27.81l5.678,1.659,1.4,1.466,2.87.13.7.762,1.022-1.655c.875,0,1.749.076,2.624.045a1.466,1.466,0,0,0,.677-.135c.408-.229.507-.785.852-1.108.448-.413,1.139-.318,1.727-.457a4.008,4.008,0,0,0,2.229-2.032A5.037,5.037,0,0,1,119.6,24.9a1.528,1.528,0,0,1,1.884-.009,2.176,2.176,0,0,1,.233,2.1.472.472,0,0,0,.013.39.481.481,0,0,0,.251.161c.354.126.709.256,1.063.386l-1.408,11.041,2.615,2.1.318,1.659c1.292,0,2.552-.022,3.816-.036Z" transform="translate(-57.007 -24.574)" fill="#03c4a1"/><path d="M113.269,56.109l-2.572-1.8-.461-3.463-2.6-2.36,2.287-2.853.13-1.76-1.817-1.59V39.933l-2.465-.915.081-.863-3.587.19-.2-6.917L97.036,26.98l7.383,2.158,1.369,1.43,2.874.13.474.513.873-1.413h.209c.369,0,.741.013,1.1.026s.718.026,1.074.026c.155,0,.3,0,.435-.007a1.184,1.184,0,0,0,.506-.086,1.162,1.162,0,0,0,.354-.459,2.364,2.364,0,0,1,.426-.6,2.24,2.24,0,0,1,1.369-.471,4.313,4.313,0,0,0,.527-.077,3.716,3.716,0,0,0,2-1.864l.088-.142a4.868,4.868,0,0,1,1.286-1.552,2.189,2.189,0,0,1,1.236-.4,1.578,1.578,0,0,1,1.122.426,2.505,2.505,0,0,1,.336,2.466l0,.007c-.01.036-.015.062-.019.08l.051.02c.354.125.713.257,1.06.385l.281.1-.035.3L122.03,38.816l2.558,2.058.286,1.49c.819,0,1.635-.013,2.426-.023l.78-.01.23-.815.323.809.229,0-.095.337.165.412-.282,0-1.693,6.007-.353-.864-5.077.2-2.276,3.4-2.975-.223-1.268,4.036ZM111.4,53.886l2.012,1.405,1.006-.279,1.324-4.215,3.133.235,2.245-3.349,5.517-.215,1.235-4.383-.559.007c-.894.011-1.818.023-2.745.023h-.31l-.351-1.828-2.671-2.149,1.4-10.953c-.259-.095-.521-.19-.778-.281l-.008,0a.732.732,0,0,1-.494-1c.222-.867.178-1.436-.132-1.739a.856.856,0,0,0-.6-.215,1.425,1.425,0,0,0-.805.261,4.248,4.248,0,0,0-1.079,1.331l-.089.143a4.343,4.343,0,0,1-2.46,2.2,4.934,4.934,0,0,1-.622.093,1.62,1.62,0,0,0-.938.276,1.76,1.76,0,0,0-.282.414,1.757,1.757,0,0,1-.64.745,1.793,1.793,0,0,1-.843.182c-.151.005-.3.008-.466.008-.369,0-.741-.013-1.1-.026-.285-.01-.577-.021-.866-.025l-1.171,1.9-.935-1.012-2.866-.13-1.438-1.5-3.972-1.161,2.758,2.441.186,6.474,3.687-.2-.108,1.155,2.415.9v2.535l1.842,1.612-.175,2.366-1.991,2.484,2.284,2.071Z" transform="translate(-57.007 -24.574)" fill="#fff"/><path d="M184.55,183.809l-10.427,13.579.413,7.938v.018l-3.7-.552v-3.7l-2.332,2.467L165.068,203l-3.565-1.78-5.216.413-3.359,6.462v-.135a4.271,4.271,0,0,0,.018-2.35,9.953,9.953,0,0,0-.821-1.6,3.931,3.931,0,0,1-.39-1.381,1.953,1.953,0,0,0-.117-.686,1.806,1.806,0,0,0-.8-.677,7.478,7.478,0,0,1-1.592-1.238c-.3-.3-.583-.718-.439-1.112a2.584,2.584,0,0,0-.018-1.332,1.161,1.161,0,0,0-.229-.646,1.277,1.277,0,0,0-.879-.345,30.767,30.767,0,0,0-5.983.3.651.651,0,0,1-.453-.072.53.53,0,0,1-.17-.314c-.17-.7.108-1.462-.09-2.157-.224-.78-.982-1.269-1.458-1.937a1.049,1.049,0,0,1,.381-1.727c.292-.166.619-.269.9-.457a1.839,1.839,0,0,0-.076-3.094c-.238-.139-.5-.233-.727-.381a1.564,1.564,0,0,1-.677-1.449c-.04,0-.09-.013-.13-.013l4.933-8.346-2.821-.448-1.561-1.928,2.081-.148.372-2-7.279.148v-9.646l13.3-.242,2.6-6.494.144-.368,3.431,7.409,31.321,4.458.507.072-2.058,8.229.2,3.848.211,3.973Z" transform="translate(-77.061 -96.961)" fill="#03c4a1"/><path d="M152.553,209.632v-1.723l.015-.052a3.875,3.875,0,0,0,.017-2.143,3.992,3.992,0,0,0-.461-.936c-.115-.191-.233-.388-.336-.6a4.322,4.322,0,0,1-.427-1.512v-.006c0-.038-.005-.076-.008-.114a1.317,1.317,0,0,0-.075-.442,1.334,1.334,0,0,0-.561-.459l-.092-.053a7.857,7.857,0,0,1-1.671-1.3c-.645-.655-.641-1.178-.523-1.5a1.371,1.371,0,0,0,.016-.782c-.019-.114-.04-.242-.054-.383a.85.85,0,0,0-.138-.439.993.993,0,0,0-.633-.218,12.175,12.175,0,0,0-1.321-.067,30.631,30.631,0,0,0-3.216.23c-.451.048-.917.1-1.377.138-.059.005-.123.01-.189.01a.838.838,0,0,1-.522-.155.88.88,0,0,1-.311-.529,3.8,3.8,0,0,1-.046-1.16,2.961,2.961,0,0,0-.039-.98,2.919,2.919,0,0,0-.785-1.11,6.524,6.524,0,0,1-.617-.713,1.416,1.416,0,0,1,.505-2.272c.134-.077.274-.14.41-.2a3.132,3.132,0,0,0,.459-.238,1.464,1.464,0,0,0-.058-2.462c-.09-.052-.19-.1-.3-.152a3.887,3.887,0,0,1-.441-.236l0,0a1.935,1.935,0,0,1-.843-1.4h-.413l4.987-8.437-2.418-.384-2.1-2.6,2.509-.178.235-1.267-7.2.146v-10.4l13.421-.244,2.5-6.263.462-1.185,3.715,8.022,32.038,4.559-2.146,8.579.431,8.162h-.216L174.5,197.507l.406,7.837v.435l-4.454-.663V202.03l-1.821,1.926-3.683-.592-3.523-1.759-4.9.388Zm-.444-7.029a3.568,3.568,0,0,0,.352,1.245c.09.183.2.358.307.544a3.89,3.89,0,0,1,.686,1.882l2.6-5,5.527-.437,3.607,1.8,3.178.511,2.843-3.007v4.324l2.932.437-.4-7.636,10.431-13.585-.408-7.734,1.971-7.88-.095-.013-31.523-4.486-3.149-6.8-2.511,6.281-13.182.24v8.9l7.356-.15-.509,2.742-1.653.118,1.018,1.258,3.223.512-5.01,8.476-.024.209a1.187,1.187,0,0,0,.51,1.093,3.3,3.3,0,0,0,.356.188c.115.055.235.113.354.183a2.214,2.214,0,0,1,.1,3.729,3.741,3.741,0,0,1-.568.3c-.126.057-.244.111-.353.173a.934.934,0,0,0-.478.492.952.952,0,0,0,.217.692,5.871,5.871,0,0,0,.548.629,3.512,3.512,0,0,1,.964,1.422,3.562,3.562,0,0,1,.067,1.234,3.188,3.188,0,0,0,.027.938l0,.007a.34.34,0,0,0,.032.095.31.31,0,0,0,.069.006c.036,0,.075,0,.124-.007.452-.04.915-.089,1.362-.137a31.193,31.193,0,0,1,3.3-.234,12.9,12.9,0,0,1,1.4.071,1.624,1.624,0,0,1,1.124.475,1.5,1.5,0,0,1,.316.846c.013.123.031.235.049.344a2.072,2.072,0,0,1-.052,1.162c-.085.235.22.58.355.718a7.113,7.113,0,0,0,1.514,1.177l.088.051a1.935,1.935,0,0,1,.864.789,1.908,1.908,0,0,1,.144.713C152.1,202.536,152.107,202.57,152.109,202.6Z" transform="translate(-77.061 -96.961)" fill="#fff"/><path d="M227.138,50.239a8.087,8.087,0,0,1-.565,1.175,4.6,4.6,0,0,0-.354.982L220.2,57.908v3.346l-2.561-.049L208.5,48.419l-3.489.049-.076-4.4c2.171-.345,4.305,1,6.525,1.148a12.083,12.083,0,0,0,2.78-.242,17.761,17.761,0,0,0,3.31-5.153,12.02,12.02,0,0,1,2-3.906.381.381,0,0,1,.193-.135.352.352,0,0,1,.291.126,4.448,4.448,0,0,1,.933,2.529c.453,2.274,1.794,4.31,2.148,6.606a.949.949,0,0,0,.17.5.68.68,0,0,0,.345.193c.619.166,1.292-.072,1.915.085a2.009,2.009,0,0,1,1.242,1.108,5.067,5.067,0,0,1,.408,1.655,4.071,4.071,0,0,1-.058,1.664Z" transform="translate(-115.685 -30.751)" fill="#03c4a1"/><path d="M220.58,61.636l-3.131-.06L208.3,48.8l-3.667.052-.088-5.1.322-.051a5.057,5.057,0,0,1,.792-.061,11.205,11.205,0,0,1,3.143.617,12.46,12.46,0,0,0,2.674.588c.135.009.276.014.419.014a13.3,13.3,0,0,0,2.146-.23,17.286,17.286,0,0,0,3.154-4.947c.108-.262.213-.536.315-.8a9.386,9.386,0,0,1,1.749-3.214.729.729,0,0,1,.385-.248l.027-.005a.61.61,0,0,1,.1-.008.734.734,0,0,1,.514.233,3.948,3.948,0,0,1,.965,2.318c.025.142.05.276.076.409a17.42,17.42,0,0,0,1.023,3.059,16.18,16.18,0,0,1,1.128,3.563l0,.012a.809.809,0,0,0,.077.3l0,0a.347.347,0,0,0,.162.077,1.706,1.706,0,0,0,.444.049c.129,0,.261-.008.4-.016s.294-.017.446-.017a2.476,2.476,0,0,1,.616.068,2.356,2.356,0,0,1,1.488,1.307,5.441,5.441,0,0,1,.443,1.775,6.707,6.707,0,0,1,.055,1.045l.14-.07-.259.839a4.816,4.816,0,0,1-.407.889c-.064.118-.124.228-.181.342a4.225,4.225,0,0,0-.326.9l-.027.111-5.977,5.478Zm-2.74-.8,1.99.038V57.743l6.053-5.547a4.93,4.93,0,0,1,.355-.949c.062-.125.129-.248.193-.367a5.517,5.517,0,0,0,.288-.581l.052-.167a3.775,3.775,0,0,0,.044-1.51,4.8,4.8,0,0,0-.372-1.532,1.638,1.638,0,0,0-1-.909,1.756,1.756,0,0,0-.433-.045c-.13,0-.262.008-.4.016s-.294.017-.445.017a2.427,2.427,0,0,1-.641-.075,1.049,1.049,0,0,1-.529-.307,1.244,1.244,0,0,1-.259-.684l0-.011a15.386,15.386,0,0,0-1.082-3.395A17.979,17.979,0,0,1,220.59,38.5c-.028-.14-.054-.284-.079-.423a3.353,3.353,0,0,0-.723-1.887,8.777,8.777,0,0,0-1.575,2.948c-.1.269-.21.546-.322.817a18.086,18.086,0,0,1-3.378,5.261l-.088.1-.129.021a14.641,14.641,0,0,1-2.4.262c-.159,0-.317-.005-.468-.015a13.015,13.015,0,0,1-2.838-.618,10.5,10.5,0,0,0-2.929-.586c-.119,0-.237,0-.352.014l.064,3.691,3.311-.047Z" transform="translate(-115.685 -30.751)" fill="#fff"/><path d="M301.759,101.6l-4.991,8.095v8.933h-3.606a13.517,13.517,0,0,0-10.548,10.49l-.054,5.974-.215.251-2.094-.09-2.476-4.574.054-3.5h2.583v-2.96h-2.745l-2.211-1.561-.161-9.687-3.655-2.727,6.884-5.57,3.135-11.149c.448.045.906.148,1.345.17a4.324,4.324,0,0,1,1.314.2,4.275,4.275,0,0,1,1.031.623q.794.585,1.592,1.166a3.228,3.228,0,0,0,1.027.574c.377.1.78.058,1.162.139a2.829,2.829,0,0,1,1.61,1.26c.395.574.7,1.215,1.148,1.749a1.15,1.15,0,0,0,.6.431,1.04,1.04,0,0,0,.892-.318c.242-.224.422-.5.664-.731,2.341.744,4.552,2.144,6.956,2.668.251.054.507.1.758.139Z" transform="translate(-152.478 -62.606)" fill="#03c4a1"/><path d="M281.383,93.126l.313.031c.2.02.4.05.59.08.258.04.5.077.737.089a3.612,3.612,0,0,1,2.549.9c.518.382,1.055.778,1.589,1.164a2.023,2.023,0,0,0,1.45.582,4.038,4.038,0,0,1,.6.068,3.127,3.127,0,0,1,1.842,1.416c.158.229.3.469.441.7a7.789,7.789,0,0,0,.685,1.019.857.857,0,0,0,.394.305.333.333,0,0,0,.074.008.782.782,0,0,0,.484-.235,3.6,3.6,0,0,0,.3-.336,4.416,4.416,0,0,1,.357-.393l.161-.152.211.067a28.725,28.725,0,0,1,2.985,1.2,20.729,20.729,0,0,0,3.937,1.455c.211.045.446.088.737.135l.554.089-5.23,8.482v9.2H293.2a13.031,13.031,0,0,0-8.47,5.856,12.884,12.884,0,0,0-1.746,4.291l-.055,6.081-.423.493-2.489-.107-2.623-4.848.061-3.965h2.577V124.6h-2.489l-2.464-1.739-.162-9.693-3.894-2.905,7.166-5.8Zm11.26,7.111a1.078,1.078,0,0,1-.237-.026,1.522,1.522,0,0,1-.806-.556,8.474,8.474,0,0,1-.753-1.114c-.139-.232-.271-.452-.416-.663a2.524,2.524,0,0,0-1.383-1.107,3.433,3.433,0,0,0-.483-.052,2.72,2.72,0,0,1-1.845-.725c-.535-.387-1.073-.783-1.593-1.167a2.908,2.908,0,0,0-2.137-.752,8.112,8.112,0,0,1-.817-.1l-.24-.036-3.08,10.953-6.6,5.341,3.416,2.548.161,9.681,1.958,1.382h3v3.71H278.2l-.047,3.031,2.328,4.3,1.7.073.008-.009.053-5.864,0-.027a13.333,13.333,0,0,1,1.856-4.6,13.552,13.552,0,0,1,3.283-3.607,14.689,14.689,0,0,1,5.7-2.592l.041-.009h3.273v-8.665l4.757-7.715-.227-.046a21.285,21.285,0,0,1-4.085-1.5c-.877-.393-1.782-.8-2.685-1.1-.048.055-.1.112-.146.171a4.219,4.219,0,0,1-.37.405A1.494,1.494,0,0,1,292.643,100.236Z" transform="translate(-152.478 -62.606)" fill="#fff"/><path d="M356.267,129.384l1.879,4.355-2.265,2.4-3-3.22h-4.045l.031-1.3L345.49,112.01c.973.022,1.946.036,2.911.121a18.3,18.3,0,0,1,7.175,2.2,36.574,36.574,0,0,1,3.135,2.023q1.473,1.022,2.951,2.045a9.32,9.32,0,0,1,1.345,1.058c-1.036,1.525-3.987,5.87-5.615,8.274l-1.121,1.646Z" transform="translate(-193.209 -72.798)" fill="#03c4a1"/><path d="M355.88,136.69l-3.166-3.393h-4.266l.04-1.648-3.443-20.024.779.018c.856.019,1.742.038,2.611.115A18.774,18.774,0,0,1,355.757,114a36.011,36.011,0,0,1,3.083,1.984l.084.058c.962.668,1.956,1.358,2.95,2.045a9.616,9.616,0,0,1,1.4,1.1l.219.219-.174.257c-1.094,1.61-4.026,5.928-5.614,8.274l-1.01,1.482,1.895,4.39Zm-6.664-4.143h3.824l2.843,3.047,1.821-1.933-1.883-4.363.16-.159,1.1-1.616c1.508-2.226,4.227-6.231,5.435-8.009a10.92,10.92,0,0,0-1.067-.8c-1-.688-1.991-1.378-2.953-2.046l-.084-.058a35.442,35.442,0,0,0-3.018-1.944,18.017,18.017,0,0,0-7.028-2.157c-.8-.071-1.627-.092-2.43-.109l3.3,19.2Z" transform="translate(-193.209 -72.798)" fill="#fff"/><path d="M389.878,136.585v2.794l-6.7-1.718h-.987v2.372h-2.8V137.1l-3.924,1.274-2.408-1.417-1.036-.058c1.628-2.4,4.583-6.749,5.615-8.274l.139.139a11.869,11.869,0,0,0,2.754,2.632,4.654,4.654,0,0,0,1.8.439,23.6,23.6,0,0,0,5.843-.22,22.982,22.982,0,0,1,.489,2.673,3.988,3.988,0,0,0,1.22,2.3Z" transform="translate(-207.841 -81.959)" fill="#03c4a1"/><path d="M382.562,140.408h-3.548v-2.8l-3.594,1.166-2.475-1.457-1.605-.09.371-.548c.836-1.234,1.995-2.941,3.116-4.592,1.027-1.512,2-2.94,2.5-3.682l.255-.376.471.471c.2.213.391.437.58.654a8.113,8.113,0,0,0,2.077,1.9,4.327,4.327,0,0,0,1.655.4c.659.058,1.333.087,2,.087a23.336,23.336,0,0,0,3.747-.3l.309-.05.105.294a8.041,8.041,0,0,1,.338,1.684c.046.364.09.708.163,1.033a3.564,3.564,0,0,0,1.089,2.086l.14.113v3.461l-7.127-1.826h-.564Zm-2.8-.75h2.048v-2.372h1.409L389.5,138.9v-2.143a4.433,4.433,0,0,1-1.211-2.386c-.081-.359-.129-.737-.175-1.1a9.791,9.791,0,0,0-.21-1.232,24.1,24.1,0,0,1-3.544.263c-.69,0-1.386-.03-2.069-.09a5.032,5.032,0,0,1-1.944-.483,8.661,8.661,0,0,1-2.286-2.071c-.125-.143-.252-.29-.38-.433-.539.795-1.367,2.015-2.237,3.3-.963,1.418-1.955,2.878-2.745,4.044l.466.026,2.341,1.378,4.254-1.381Z" transform="translate(-207.841 -81.959)" fill="#fff"/><path d="M388.493,149.556v3.668l-2.386,1.937-3.682.215L379.1,157.57l-1.951-5.166-3.5,2.8-2.193-2.193-.067.072-1.879-4.355,1.121-1.646,1.036.058,2.408,1.417L378,147.282v2.937h2.8v-2.372h.987l6.7,1.718Z" transform="translate(-206.456 -92.14)" fill="#03c4a1"/><path d="M370.441,146.694l1.338.075,2.341,1.378,4.254-1.381v3.078h2.048v-2.372h1.409l6.456,1.654.58-1.169V153.4l-2.618,2.126-3.7.216-3.631,2.4-1.934-5.123-3.362,2.686-2.156-2.156-.194.207-2.187-5.069.116-.17,1.121-1.646Zm1.115.814-.734-.041-.886,1.3,1.663,3.855,2.078,2.078,3.643-2.911,1.967,5.21,3.016-1.99,3.662-.214,2.153-1.749v-3.189l-6.381-1.635h-.564v2.372h-3.548v-2.8l-3.594,1.166Z" transform="translate(-206.456 -92.14)" fill="#fff"/><path d="M376.045,159.615v4.05a3.367,3.367,0,0,1-.9,1.731c-.395.507-.861.964-1.215,1.507a4.1,4.1,0,0,0-.269.471l-3.435.87-4.669.247-2.3-1.978-1.2-.139-2.624,1.471-.031.013-4.812-3.642-5.449,4.386-2.2-3.135.112.022-.031-1.458,2.529-2.045.076-3.328h4.045l3,3.22,2.265-2.4.067-.072L361.2,161.6l3.5-2.8,1.951,5.166,3.323-2.193,3.682-.215,2.386-1.937Z" transform="translate(-194.008 -98.527)" fill="#03c4a1"/><path d="M364.872,158.184l1.967,5.21,3.016-1.99,3.662-.214,2.292-1.861.233.287h.379v4.07a3.545,3.545,0,0,1-.943,1.9l-.033.042c-.156.2-.323.393-.484.58a8.545,8.545,0,0,0-.713.9,3.7,3.7,0,0,0-.244.426l-.076.16-3.642.922-4.855.257-2.328-2-.967-.112-2.553,1.429-.232.1-4.752-3.6-5.533,4.453-2.971-4.23.573.115-.025-1.174,2.537-2.051.081-3.52h4.575l2.843,3.047L359,158.865l2.23,2.23Zm-11.364.851h-3.516l-.072,3.135-2.521,2.039.028,1.3,1.791,2.55,5.365-4.318,4.853,3.672,2.544-1.426,1.437.166,2.274,1.955,4.482-.237,3.235-.819c.058-.108.127-.223.211-.353a9.238,9.238,0,0,1,.774-.983c.162-.188.316-.365.46-.55l.034-.043a3,3,0,0,0,.784-1.469v-3.246l-1.868,1.517-3.7.216-3.631,2.4-1.934-5.123-3.362,2.686-2.157-2.157-2.342,2.485Z" transform="translate(-194.008 -98.527)" fill="#fff"/><path d="M388.991,176.845c-.619,1.2-.848,2.619-1.722,3.646a3.631,3.631,0,0,1-2.157,1.215c.049.5.018,1.036.072,1.525a.191.191,0,0,1-.2.274c-.673.049-1.341.09-2.014.13-.027.04-.054.081-.081.117l-5.682-.677v-1.785H374.73l.031-3.978,2.624-1.471,1.2.139,2.3,1.978,4.669-.247,3.435-.87Z" transform="translate(-209.335 -108.003)" fill="#03c4a1"/><path d="M377.307,175.454l1.437.166,2.274,1.955,4.482-.237,3.87-.98,0,.575-.041.084a12.3,12.3,0,0,0-.565,1.361,7.5,7.5,0,0,1-1.205,2.356,4.037,4.037,0,0,1-2.046,1.272c.007.147.009.293.012.437.005.264.01.512.036.747a.625.625,0,0,1-.163.545l-.005,0a.6.6,0,0,1-.372.138h-.007c-.629.046-1.264.085-1.838.12l-.113.151-6.227-.742v-1.743h-2.478l.036-4.574Zm1.122.885-.967-.112-2.328,1.305-.027,3.382h2.473v1.827l5.126.611.054-.08.186-.011c.571-.034,1.213-.073,1.853-.118-.019-.227-.023-.459-.028-.684,0-.251-.01-.487-.032-.715l-.035-.351.348-.056a3.265,3.265,0,0,0,1.932-1.089,6.838,6.838,0,0,0,1.072-2.13c.088-.239.178-.482.276-.724l-2.719.689-4.855.257Z" transform="translate(-209.335 -108.003)" fill="#fff"/><path d="M382.271,192.663c-1.161,1.727-2.857,3-4.18,4.615a3.477,3.477,0,0,0-.318.444l-1.57-.552-2.583-1.91v-3.076h2.973v-.193l5.682.677Z" transform="translate(-208.723 -116.91)" fill="#03c4a1"/><path d="M376.218,191.568l5.867.7.125-.186.235.229.476.057-.167.248.559.554-.866-.1a20.04,20.04,0,0,1-2.3,2.567,25.682,25.682,0,0,0-1.769,1.882,3.132,3.132,0,0,0-.287.4l-.157.262-1.911-.672-2.781-2.056v-3.641h2.973Zm5.374,1.4-4.624-.551v.145h-2.973v2.512l2.386,1.764,1.241.436q.086-.119.182-.234a26.235,26.235,0,0,1,1.818-1.936A22.023,22.023,0,0,0,381.592,192.963Z" transform="translate(-208.723 -116.91)" fill="#fff"/><path d="M329.938,186.172a1.378,1.378,0,0,0-.139.283c-.2.525-.143,1.206-.6,1.543-.148.108-.332.161-.48.269-.5.377-.345,1.162-.489,1.771a3.333,3.333,0,0,1-1.507,1.736,7.359,7.359,0,0,1-3.377,1.6c-.292.031-.659.063-.78.336s.108.556.251.816a1.664,1.664,0,0,1,.175,1.108v10.077a15.677,15.677,0,0,1-1.4,1.547c-.767.964-.718,2.319-.776,3.552a2.512,2.512,0,0,1-.117.727,6.92,6.92,0,0,1-.507.857c-.677,1.184-.179,2.709-.565,4.023h-2.417c-1-1.018-3.538-3.713-3.6-4.911-.072-1.493,3.292-3.292,3.332-3.929s-4.9-5.234-4.9-5.234l-3.4.112-3.44-2.619-5.875-.224-.372-2.619-5.835,4.077-3.7.265-.144-2.058.408.009.139-10.606.076-6.077-3.014.054,3.87-4.538,2.964.126,1.776,3.337,3.767-1.727,2.529-2.906-2.314-2.583,10.871.166,2.31-2.476,1.162.247,2.2,3.135,5.449-4.386,4.812,3.642.031-.013-.031,3.978h2.476v1.978H325.79v3.076l2.583,1.91,1.57.552Z" transform="translate(-160.889 -105.361)" fill="#03c4a1"/><path d="M321.468,170.574l4.872,3.687.358-.154-.033,4.174h2.473v2.728h-2.973v2.512l2.386,1.764,3.59,1.262h-1.976l-.014.036,0,.006a3.142,3.142,0,0,0-.126.5,1.805,1.805,0,0,1-.6,1.21,1.9,1.9,0,0,1-.3.171,1.326,1.326,0,0,0-.181.1c-.193.147-.228.435-.262.892a4.272,4.272,0,0,1-.085.663,3.707,3.707,0,0,1-1.655,1.955,7.668,7.668,0,0,1-3.558,1.669l-.022,0c-.1.011-.414.044-.45.11-.018.056.093.242.152.343.029.048.057.1.083.143a2.026,2.026,0,0,1,.222,1.322v10.145l-.052.088a4.819,4.819,0,0,1-.865,1,6.087,6.087,0,0,0-.564.59,4.887,4.887,0,0,0-.678,2.889c-.005.151-.011.3-.018.448a2.833,2.833,0,0,1-.139.838,2.952,2.952,0,0,1-.344.615c-.069.1-.133.2-.187.295l0,0a4.177,4.177,0,0,0-.344,2.074,6.679,6.679,0,0,1-.186,1.868l-.079.269h-2.855l-.11-.112c-1.356-1.374-3.641-3.872-3.709-5.154-.053-1.109,1.27-2.2,2.334-3.073a7.4,7.4,0,0,0,.98-.891,41.088,41.088,0,0,0-4.648-4.838l-3.382.111-3.452-2.628L299,199.976l-.33-2.325-5.419,3.786-4.178.3-.2-2.843.441.01.134-10.228.071-5.69-3.459.062,4.529-5.311,3.361.142,1.711,3.214,3.372-1.546,2.259-2.6-2.665-2.975,11.561.176,2.341-2.509,1.513.321,2.057,2.928Zm4.474,4.326-4.46-3.375-5.533,4.453-2.347-3.342-.81-.172-2.278,2.442-10.18-.155,1.963,2.192-2.8,3.217-4.162,1.908-1.841-3.459-2.567-.109-3.212,3.766,2.568-.046-.081,6.463-.144,10.985-.375-.008.089,1.274,3.222-.23,6.25-4.367.414,2.913,5.68.217,3.428,2.61,3.425-.113.113.106c.012.012,1.252,1.169,2.472,2.389,2.576,2.577,2.557,2.916,2.544,3.14-.025.392-.43.742-1.27,1.433s-2.1,1.724-2.062,2.456c.037.708,1.361,2.489,3.384,4.554h1.966a7.47,7.47,0,0,0,.09-1.391,4.794,4.794,0,0,1,.442-2.44c.069-.125.146-.238.22-.348a2.357,2.357,0,0,0,.263-.457,2.185,2.185,0,0,0,.093-.615c.007-.142.012-.289.017-.437a5.5,5.5,0,0,1,.839-3.327,6.732,6.732,0,0,1,.632-.665,4.737,4.737,0,0,0,.686-.756V195.6l.007-.035a1.294,1.294,0,0,0-.135-.856c-.022-.041-.047-.081-.071-.122a1.1,1.1,0,0,1-.2-1.023l0,0a1.159,1.159,0,0,1,1.057-.555l.026,0a7.106,7.106,0,0,0,3.2-1.535,3.015,3.015,0,0,0,1.358-1.517,3.687,3.687,0,0,0,.066-.545,1.794,1.794,0,0,1,.562-1.438l0,0a1.9,1.9,0,0,1,.3-.168,1.3,1.3,0,0,0,.183-.1,1.226,1.226,0,0,0,.305-.752,4.164,4.164,0,0,1,.137-.554l-1.229-.432-2.781-2.056v-3.641h2.973v-1.228H325.91Z" transform="translate(-160.889 -105.361)" fill="#fff"/><path d="M341.106,271.556c-.144,1.561-.345,3.157-.466,4.7a22.137,22.137,0,0,1-.381,3.032,3.981,3.981,0,0,1-.547,1.4,11.874,11.874,0,0,1-1.081,1.153,3.874,3.874,0,0,0-.9,1.825,3.33,3.33,0,0,1-.4,1.408,2.34,2.34,0,0,1-1.484.7l-1.22.242v.13c-1.417-1.224-3.332-2.834-3.9-3.31l-.166-.139-.188-2.767,2.7-.224,1.946-4.79.224-5.2,2.135-.072,3.736,1.9Z" transform="translate(-184.869 -159.742)" fill="#03c4a1"/><path d="M337.454,269.272l4.025,2.049,0,.247,0,.023c-.06.657-.132,1.33-.2,1.981-.1.9-.195,1.825-.264,2.719a22.546,22.546,0,0,1-.389,3.083,4.35,4.35,0,0,1-.6,1.531,5.041,5.041,0,0,1-.71.787c-.142.137-.277.266-.4.4a3.479,3.479,0,0,0-.812,1.646c-.02.1-.036.205-.053.315a2.1,2.1,0,0,1-2.129,2.089l-.919.183v.642l-.62-.536c-1.372-1.186-3.228-2.747-3.838-3.26l-.055-.046-.167-.14-.121-.1-.224-3.294,2.834-.236,1.835-4.516.236-5.48Zm3.255,2.5-3.423-1.742-1.691.057L335.383,275l-2.058,5.063-2.557.213.152,2.239.043.036.056.047c.573.482,2.244,1.888,3.585,3.041l.01,0,1.152-.229a2.017,2.017,0,0,0,1.258-.557,2.068,2.068,0,0,0,.278-.911c.017-.112.035-.228.058-.344a4.231,4.231,0,0,1,.989-2c.144-.16.295-.305.441-.445a4.417,4.417,0,0,0,.611-.669,3.669,3.669,0,0,0,.491-1.271,21.966,21.966,0,0,0,.373-2.977c.071-.9.17-1.838.267-2.741C340.593,272.926,340.655,272.343,340.709,271.77Z" transform="translate(-184.869 -159.742)" fill="#fff"/><path d="M211.047,88.6l-2.834,2.292,3.807.489-5.664,13.777-5.843,6.521-31.321-4.458-3.431-7.409-.143.368-1.978-3.821,11.3-21.154-10.31-4.126L161.77,64.3l1.48-5.252c1.292-.013,2.583-.018,3.9.022.664-.435,1.292-.807,1.915-1.3,1.888-.094,3.713-.22,5.6-.395a.888.888,0,0,0,.471-.135.8.8,0,0,0,.251-.489,2.97,2.97,0,0,0,.022-1.193.679.679,0,0,1,0-.39.507.507,0,0,1,.2-.211,2.947,2.947,0,0,1,1.861-.35,9.229,9.229,0,0,0,1.924.076c.525-.072,1.009-.283,1.525-.39.072-.013.144-.031.215-.04l.076,4.4,3.489-.049L193.844,71.4l2.561.049V68.1l6.014-5.512a5,5,0,0,0,.332,3.3c.677.291,1.466-.018,2.175.184a11.669,11.669,0,0,1,1.162.579,4.088,4.088,0,0,0,1.458.256c1.341.063,2.677.081,4.023.04-.229.7-.924,1.135-1.44,1.673a4.137,4.137,0,0,0-.937,4.1,1.5,1.5,0,0,0,.574.843,1.3,1.3,0,0,0,1.153.018,2.639,2.639,0,0,0,1.368-1.381,4,4,0,0,0,.292-1.946,1.221,1.221,0,0,1,.161-.946,1.14,1.14,0,0,1,.987-.17,22.638,22.638,0,0,0,4.408.148,1.832,1.832,0,0,1,1.341.242,1.743,1.743,0,0,1,.377.534c.323.6.646,1.193.964,1.794a2.373,2.373,0,0,1,.251.022l-3.135,11.149-6.884,5.57Z" transform="translate(-91.88 -40.947)" fill="#03c4a1"/><path d="M200.658,112.076l-31.721-4.515-3.147-6.8-.125.32-2.449-4.732,11.2-20.959-10.067-4.028-2.973-7.042,1.592-5.648.281,0c.627-.007,1.135-.01,1.6-.01.8,0,1.524.009,2.195.029l.4-.255c.484-.31.941-.6,1.394-.958l.094-.074.119-.006c1.953-.1,3.778-.226,5.581-.394a.725.725,0,0,0,.276-.058.453.453,0,0,0,.112-.264l0-.012a2.593,2.593,0,0,0,.019-1.041l-.006-.035a.945.945,0,0,1,.032-.576.858.858,0,0,1,.339-.372,2.9,2.9,0,0,1,1.656-.426c.137,0,.28.005.436.016.176.012.352.03.523.047a8.784,8.784,0,0,0,.88.06,3.153,3.153,0,0,0,.442-.029,5.384,5.384,0,0,0,.82-.2c.218-.066.444-.134.681-.183h.008l.064-.013c.052-.011.11-.023.173-.031l.414-.052.077,4.448,3.311-.047,9.153,12.792,1.99.038V67.939l7.043-6.454-.289,1.2a4.663,4.663,0,0,0,.243,2.909,1.845,1.845,0,0,0,.507.057c.118,0,.238-.005.365-.011s.266-.012.4-.012a2.613,2.613,0,0,1,.728.088,3.347,3.347,0,0,1,.758.358,3.834,3.834,0,0,0,.445.235l.006,0a3.769,3.769,0,0,0,1.325.225c.872.041,1.73.062,2.551.062.485,0,.971-.007,1.444-.021l.533-.016-.165.507a3.335,3.335,0,0,1-1.085,1.4c-.157.141-.306.275-.44.415a3.756,3.756,0,0,0-.852,3.721,1.128,1.128,0,0,0,.413.641.649.649,0,0,0,.348.089,1.3,1.3,0,0,0,.472-.1,2.261,2.261,0,0,0,1.165-1.187,3.616,3.616,0,0,0,.259-1.761l0-.019a1.513,1.513,0,0,1,.262-1.213l.005-.006a1.133,1.133,0,0,1,.863-.317,3.386,3.386,0,0,1,.442.035,22.338,22.338,0,0,0,2.911.191c.473,0,.952-.015,1.425-.046.131-.009.3-.02.459-.02a1.728,1.728,0,0,1,1.148.351,2.048,2.048,0,0,1,.463.641l.331.613c.177.328.359.665.539,1l.055.006.442.047L218.26,83.241l-6.836,5.532-.14.118-2.152,1.74,3.422.439-5.875,14.289Zm-31.212-5.2,30.921,4.4,5.667-6.323,5.454-13.265-4.193-.538,3.379-2.732.138-.116,6.791-5.495,2.979-10.594-.1-.185c-.209-.395-.424-.793-.632-1.178l-.331-.613a1.467,1.467,0,0,0-.287-.424.984.984,0,0,0-.665-.174c-.138,0-.283.01-.41.018-.49.031-.985.047-1.474.047a23.089,23.089,0,0,1-3.009-.2,2.724,2.724,0,0,0-.344-.029c-.228,0-.3.06-.32.085-.105.118-.083.395-.062.639l0,.019a4.364,4.364,0,0,1-.323,2.13,3.016,3.016,0,0,1-1.57,1.576,2.058,2.058,0,0,1-.75.153,1.383,1.383,0,0,1-.74-.2,1.863,1.863,0,0,1-.732-1.042,4.523,4.523,0,0,1,1.023-4.48c.152-.159.318-.308.479-.452a5.714,5.714,0,0,0,.578-.569c-.267,0-.535.006-.8.006-.832,0-1.7-.021-2.585-.062A4.38,4.38,0,0,1,205.94,67a4.477,4.477,0,0,1-.531-.278,2.744,2.744,0,0,0-.588-.285,1.9,1.9,0,0,0-.521-.059c-.12,0-.24.005-.368.011s-.264.012-.4.012a2.318,2.318,0,0,1-.931-.164l-.129-.056-.061-.127a5.285,5.285,0,0,1-.506-2.48l-5.126,4.7v3.563l-3.131-.06L184.5,58.992l-3.667.052-.075-4.322c-.127.034-.256.073-.389.113a6.033,6.033,0,0,1-.934.227,3.886,3.886,0,0,1-.546.036,9.479,9.479,0,0,1-.956-.064c-.165-.017-.335-.034-.5-.045-.139-.01-.264-.014-.384-.014a2.186,2.186,0,0,0-1.242.3l-.009.006a.272.272,0,0,0-.057.044.924.924,0,0,0,.018.142l.006.034a3.344,3.344,0,0,1-.025,1.335,1.131,1.131,0,0,1-.386.705l-.005,0a1.246,1.246,0,0,1-.667.21c-1.773.165-3.571.292-5.491.389-.449.344-.891.627-1.358.926-.161.1-.323.207-.488.315l-.1.065-.118,0c-.7-.021-1.446-.032-2.29-.032-.391,0-.813,0-1.311.007l-1.368,4.855,2.749,6.511,10.554,4.223L164.064,96.36l1.506,2.91.162-.415Z" transform="translate(-91.88 -40.947)" fill="#fff"/><path d="M263.606,160.465l3.014-.054-.076,6.077-5.283,2.866-5.274-.045-1.65-1.605-1.646-.121-1.65,2.305-3-1.771.206-4.162-2.516,2.39-.834-.287-.2-3.852,2.058-8.225-.507-.076,5.843-6.516,5.664-13.777-3.8-.489,2.834-2.292,3.655,2.727.157,9.687L262.8,144.8h2.74v2.96h-2.579l-.054,3.5,2.476,4.574,2.094.085Z" transform="translate(-137.614 -83.178)" fill="#03c4a1"/><path d="M251.145,170.384l-3.5-2.061.171-3.452-2,1.9-1.289-.443-.218-4.161,1.972-7.879-.786-.118,6.265-6.986,5.454-13.265-4.188-.538,3.743-3.027,4.036,3.011.157,9.681,1.958,1.382h3v3.71h-2.584l-.047,3.031,2.327,4.3,2.652.108-3.835,4.5,2.568-.046-.084,6.683-5.561,3.017-5.521-.047-1.66-1.615-1.3-.1Zm-2.724-2.477,2.514,1.482,1.573-2.2,1.992.147,1.64,1.6,5.027.043,5-2.715.069-5.47-3.459.062,3.914-4.589-1.537-.063-2.624-4.848.061-3.965h2.573v-2.21h-2.484l-2.464-1.739-.157-9.693L256.79,131.3l-1.925,1.557,3.418.439-5.875,14.289-5.422,6.047.227.034-2.145,8.571.186,3.544.38.131,3.03-2.879Z" transform="translate(-137.614 -83.178)" fill="#fff"/><path d="M293.356,248.3h-.022c-.018.256-.04.511-.063.767l-3.736-1.9-2.135.072-.224,5.2-1.946,4.79-2.7.224.188,2.767.166.139c-3.642,6.364-10.718,6.709-13.091,6.633a3.511,3.511,0,0,0-.686-.439l-4.529,2.215-2.458.292-.049-6.5-2.7-6.453-7.418.049-4-2.937-4.337-.359.022-.269,5.166-5.059,9.2-.054.431-4.359,2.529-4.251-.031-1.547-.067-3.283-.009-.386h2.1l-.161-2.529,2.606.045.144,2.058,3.7-.265,5.835-4.077.372,2.619,5.875.224,3.44,2.619,3.4-.112s4.938,4.6,4.9,5.234-3.4,2.435-3.332,3.929c.063,1.2,2.6,3.893,3.6,4.911Z" transform="translate(-137.029 -137.256)" fill="#03c4a1"/><path d="M275.38,228.223l.414,2.913,5.68.217,3.428,2.61,3.425-.113.113.106c.012.012,1.253,1.169,2.473,2.389.719.719,1.292,1.321,1.7,1.787.723.823.856,1.12.841,1.356-.025.39-.43.739-1.27,1.43s-2.1,1.724-2.061,2.456,1.409,2.553,3.493,4.665l.63.638h-.568c-.012.144-.024.285-.037.425l-.049.553-4.145-2.11-1.691.057-.212,4.916-2.057,5.063-2.557.213.152,2.239.043.036.242.2-.156.273c-3.527,6.164-10.2,6.829-12.909,6.829-.176,0-.351,0-.52-.008l-.126,0-.1-.08a3.367,3.367,0,0,0-.455-.31l-4.417,2.16-2.937.348-.052-6.848-2.57-6.153-7.29.048-4.011-2.948-4.6-.381.065-.782,5.375-5.263,9.016-.053.406-4.106,2.517-4.231-.114-5.491h2.083l-.162-2.536,3.356.058.141,2.027,3.222-.23Zm5.829,3.87-6.069-.232-.33-2.325-5.419,3.786-4.178.3-.146-2.09-1.855-.032.161,2.522h-2.115v0l.1,4.938-2.542,4.272-.456,4.612-9.389.055-4.727,4.628,3.857.319,3.981,2.927,7.545-.05,2.821,6.754.047,6.158,1.978-.235,4.631-2.265.161.073a3.82,3.82,0,0,1,.666.41c.123,0,.248,0,.373,0,2.535,0,8.728-.609,12.1-6.183l-.045-.038-.224-3.294,2.834-.236,1.835-4.516.236-5.48,2.578-.087,3.325,1.692,0-.055c-1.367-1.4-3.507-3.775-3.573-5.016-.053-1.109,1.27-2.2,2.334-3.073a7.384,7.384,0,0,0,.981-.891,40.8,40.8,0,0,0-4.648-4.837l-3.382.111Z" transform="translate(-137.029 -137.256)" fill="#fff"/><path d="M275.12,242.02h-5.79v-4.61l5.722,1.327.067,3.283Z" transform="translate(-151.204 -141.961)" fill="#03c4a1"/><path d="M275.5,242.4h-6.547v-5.457l6.466,1.5Zm-5.8-.75h5.032l-.053-2.608-4.978-1.155Z" transform="translate(-151.204 -141.961)" fill="#fff"/><path d="M317.868,305.237a1.857,1.857,0,0,1-.2.888,1.763,1.763,0,0,1-.964.628c-1.368.475-2.978.839-3.651,2.121a1.929,1.929,0,0,1-.5.776,1.464,1.464,0,0,1-.731.184q-2.819.155-5.633.063a7.559,7.559,0,0,0-2.843.251c-.426.161-.83.4-1.269.52a4.749,4.749,0,0,1-1.184.1h-.888a8.583,8.583,0,0,0,1.789-3.328,2.079,2.079,0,0,0-.9-1.727c2.372.076,9.449-.269,13.091-6.633.561.471,2.476,2.081,3.9,3.31-.04.942.04,1.915-.013,2.852Z" transform="translate(-168.125 -175.974)" fill="#03c4a1"/><path d="M300.9,311.142h-1.645l.459-.6a7.864,7.864,0,0,0,1.714-3.127,1.72,1.72,0,0,0-.76-1.405l-.89-.705,1.135.036c.161.005.328.008.5.008,2.575,0,8.925-.629,12.258-6.452l.223-.39.344.289c.9.759,2.611,2.2,3.9,3.313l.137.119-.008.181c-.019.435-.011.89,0,1.33.009.5.018,1.021-.011,1.528l-.048.843-.074-.075a1.46,1.46,0,0,1-.132.288,2.086,2.086,0,0,1-1.16.788c-.19.066-.384.13-.573.192-1.16.381-2.359.775-2.871,1.75-.024.047-.05.1-.077.162a1.712,1.712,0,0,1-.538.747l0,0a1.8,1.8,0,0,1-.915.248h-.006c-1.188.065-2.385.1-3.559.1-.7,0-1.411-.012-2.107-.035l-.1,0c-.271-.009-.551-.018-.823-.018a5.286,5.286,0,0,0-1.781.249c-.155.059-.309.129-.471.2a5.473,5.473,0,0,1-.829.326l-.007,0A5.059,5.059,0,0,1,300.9,311.142Zm-.146-.75h.146a4.447,4.447,0,0,0,1.088-.086,4.86,4.86,0,0,0,.712-.284c.167-.077.341-.156.52-.224l0,0a5.977,5.977,0,0,1,2.04-.3c.285,0,.571.009.848.019l.1,0c.688.023,1.389.035,2.082.035,1.159,0,2.342-.033,3.515-.1a1.2,1.2,0,0,0,.542-.118,1.151,1.151,0,0,0,.285-.446c.029-.062.059-.127.091-.191.655-1.248,2.062-1.711,3.3-2.119.194-.064.377-.124.559-.187a1.42,1.42,0,0,0,.769-.472,1.569,1.569,0,0,0,.141-.706l.022-.494c0-.325,0-.655-.007-.978-.007-.391-.014-.794,0-1.193-1.118-.965-2.509-2.139-3.419-2.9-3.424,5.554-9.475,6.379-12.313,6.441a2.137,2.137,0,0,1,.4,1.373A7.129,7.129,0,0,1,300.752,310.392Z" transform="translate(-168.125 -175.974)" fill="#fff"/><path d="M260.452,298.2a8.523,8.523,0,0,1-1.789,3.328H257.33a.96.96,0,0,0-.623.148,1.2,1.2,0,0,0-.269.493,3,3,0,0,1-2.386,1.574c-.982.161-2,.067-2.978.224a3.052,3.052,0,0,0-2.4,1.552c-.161.372-.206.789-.345,1.17a4.826,4.826,0,0,1-1.543,1.852c-.525.448-1.04.892-1.561,1.341l-1.162-1.292-2.852.058-3.982-9.261-8.88-4.305-3.3-.139a31.782,31.782,0,0,1,4.153-2.664l.166-4.305,2.476-3.552,1.341.269.193-2.368,4.337.359,4,2.937,7.418-.049,2.7,6.453.049,6.5,2.458-.292,4.53-2.215a3.51,3.51,0,0,1,.686.439,2.091,2.091,0,0,1,.9,1.727Z" transform="translate(-126.782 -166.73)" fill="#03c4a1"/><path d="M245.189,310.4l-1.292-1.437-2.933.06-4.027-9.364-8.684-4.21-4.289-.181.865-.632a33.426,33.426,0,0,1,4.008-2.6l.162-4.2L231.677,284l1.169.234.189-2.322,4.817.4,3.981,2.927,7.545-.05,2.821,6.754.047,6.158,1.978-.235,4.631-2.265.161.073a3.888,3.888,0,0,1,.768.49,2.472,2.472,0,0,1,1.043,1.966l.006.017-.005.074a7.977,7.977,0,0,1-1.865,3.53l-.113.148H257.33a.79.79,0,0,0-.383.06.753.753,0,0,0-.122.242c-.014.036-.027.071-.041.106a3.343,3.343,0,0,1-2.674,1.8,11.913,11.913,0,0,1-1.549.119,11.38,11.38,0,0,0-1.429.106,2.674,2.674,0,0,0-2.12,1.332,3.675,3.675,0,0,0-.176.584,5.271,5.271,0,0,1-.161.565,5.2,5.2,0,0,1-1.651,2.009c-.534.456-1.065.914-1.56,1.34Zm-.964-2.194,1.031,1.146c.414-.356.848-.73,1.284-1.1a4.557,4.557,0,0,0,1.435-1.7,4.641,4.641,0,0,0,.136-.484,4.29,4.29,0,0,1,.217-.706,3.357,3.357,0,0,1,2.689-1.773,12.118,12.118,0,0,1,1.523-.115,11.182,11.182,0,0,0,1.453-.109,2.617,2.617,0,0,0,2.1-1.349c.011-.026.022-.056.034-.086a1.25,1.25,0,0,1,.339-.549,1.28,1.28,0,0,1,.865-.236h1.145a7.8,7.8,0,0,0,1.6-2.909l0-.009.005-.074a1.738,1.738,0,0,0-.762-1.408,3.387,3.387,0,0,0-.457-.312l-4.417,2.16-2.937.348-.052-6.848-2.57-6.153-7.29.048-4.011-2.948-3.857-.319-.2,2.414-1.513-.3-2.272,3.26-.17,4.417-.2.1a26.742,26.742,0,0,0-3.218,2l2.288.1,9.075,4.4,3.938,9.157Z" transform="translate(-126.782 -166.73)" fill="#fff"/><path d="M204.845,268.254l-.193,2.368-1.341-.269-2.476,3.552-.166,4.305a31.479,31.479,0,0,0-4.153,2.664c-2.987,2.171-6.171,4.87-7.727,6.22v-.013a18.793,18.793,0,0,1-3.893,1.579v-6.072a6.638,6.638,0,0,1-1.422.157.4.4,0,0,1-.26-.067.347.347,0,0,1-.1-.193,4.689,4.689,0,0,1-.161-.785c-.39-.009-.776-.013-1.161-.018a.457.457,0,0,1-.309-.072c-.135-.117-.108-.318-.152-.489-.121-.435-.686-.525-1.139-.529-2.058-.04-4.117-.121-6.171-.256a.575.575,0,0,1-.309-.085.532.532,0,0,1-.121-.175,2.7,2.7,0,0,1-.269-1.363,6.634,6.634,0,0,1,.484-1.78,5.933,5.933,0,0,0,.314-1.807V263.809l3.359-6.462,5.216-.413,3.565,1.78,3.431.552,2.332-2.467v3.7l3.7.552v-.018l8.79,7.2.336.027Z" transform="translate(-98.249 -152.655)" fill="#03c4a1"/><path d="M192.4,255.857v4.323l2.954.44v-.375l9.157,7.5.049-.6.506.758.183.015-.019.232.367.549-.409-.033-.2,2.4-1.513-.3-2.272,3.26-.17,4.417-.2.1a30.638,30.638,0,0,0-4.1,2.631c-2.973,2.161-6.1,4.813-7.7,6.2l-.621.538v-.22a18.54,18.54,0,0,1-3.423,1.326l-.469.122v-6.112a5.158,5.158,0,0,1-1.054.086.744.744,0,0,1-.5-.159.693.693,0,0,1-.215-.377,4.993,4.993,0,0,1-.123-.515c-.278,0-.556-.008-.827-.011h-.015a.789.789,0,0,1-.547-.16l0,0a.822.822,0,0,1-.251-.563,1.071,1.071,0,0,0-.018-.111c-.045-.154-.337-.248-.781-.252-2.188-.043-4.212-.127-6.192-.256h-.007a.92.92,0,0,1-.5-.159l-.015-.012a.885.885,0,0,1-.216-.3,3.077,3.077,0,0,1-.308-1.556,5.63,5.63,0,0,1,.4-1.6c.034-.094.068-.188.1-.283a5.543,5.543,0,0,0,.293-1.692v-11.4l3.5-6.728,5.527-.437,3.607,1.8,3.178.511Zm-2.571,3.811-3.683-.592-3.523-1.759-4.9.388-3.221,6.2V275.14a6.268,6.268,0,0,1-.334,1.915c-.034.1-.069.194-.1.291a4.99,4.99,0,0,0-.36,1.388,2.326,2.326,0,0,0,.232,1.177l.021.04c.027.005.071.009.1.011,1.963.129,3.976.212,6.149.255,1.051.01,1.393.443,1.493.8v.005a1.588,1.588,0,0,1,.037.21c0,.021.006.048.01.071h.072c.375,0,.763.009,1.15.018l.325.007.038.323a4.31,4.31,0,0,0,.146.714h.015a5.418,5.418,0,0,0,1.174-.122l.17-.03.439-.076v6.022a19.342,19.342,0,0,0,3.341-1.413l0,0c1.63-1.412,4.73-4.033,7.68-6.178a32.894,32.894,0,0,1,4.007-2.595l.162-4.2,2.679-3.844,1.169.234.127-1.561-.069-.006-8.774-7.189-3.948-.588v-3.085Z" transform="translate(-98.249 -152.655)" fill="#fff"/><path d="M233.791,346.27c-.292.251-.587.5-.883.753a2.7,2.7,0,0,0-1.2,1.852v10.216a7.409,7.409,0,0,0-2.592,2.543,4.286,4.286,0,0,1-.749,1.126c-.314.287-.718.439-1.058.7l-.534-4.633-10.117-5.866-9.965-.13a8.194,8.194,0,0,0,3.319-2.955v-1.74l6.48.09s5.112,3.875,7.7-.807l5.377.166,4.22-1.31Z" transform="translate(-116.655 -202.001)" fill="#03c4a1"/><path d="M235.4,345.382l-1.349,1.162-.06.061-.016.005c-.274.236-.552.471-.821.7-.54.465-1.069.97-1.069,1.566V359.3l-.175.11a6.969,6.969,0,0,0-2.465,2.409c-.035.063-.07.127-.1.191a3.724,3.724,0,0,1-.718,1.027,3.6,3.6,0,0,1-.656.449,4.047,4.047,0,0,0-.429.272l-.525.4-.588-5.1-9.869-5.722-11.423-.149,1.4-.691a7.776,7.776,0,0,0,3.11-2.73v-2.01l6.984.1.1.074a7.565,7.565,0,0,0,3.884,1.43,3.613,3.613,0,0,0,3.262-2.119l.111-.2,5.543.171Zm-4.065,13.5V348.876a2.453,2.453,0,0,1,.872-1.717l-2.585.8L224.4,347.8a4.255,4.255,0,0,1-3.8,2.306,8.084,8.084,0,0,1-4.234-1.507l-5.981-.083v1.469l-.058.092a8.387,8.387,0,0,1-2.294,2.4l8.727.114,10.365,6.01.487,4.226a2.863,2.863,0,0,0,.5-.34,3.124,3.124,0,0,0,.565-.831c.036-.067.073-.134.109-.2A7.529,7.529,0,0,1,231.33,358.887Z" transform="translate(-116.655 -202.001)" fill="#fff"/><path d="M235.713,325.414c-.435.372-.87.744-1.305,1.112l-4.22,1.31-5.377-.166c-2.588,4.686-7.7.807-7.7.807l-6.48-.09v-2.162H207.81V316.7c1.556-1.35,4.74-4.05,7.727-6.22l3.3.139,8.88,4.305,3.982,9.261,2.852-.058,1.162,1.292Z" transform="translate(-117.273 -182.261)" fill="#03c4a1"/><path d="M221.222,330.36a8.076,8.076,0,0,1-4.235-1.509l-6.731-.093V326.6h-2.821V316.529l.129-.112c1.61-1.4,4.758-4.064,7.752-6.24l.106-.077,3.5.148,9.075,4.4,3.938,9.157,2.771-.057,1.533,1.7-.277.237-.274.272-.019-.021c-.338.289-.683.584-1.024.872l-.058.049-4.353,1.351-5.215-.161A4.255,4.255,0,0,1,221.222,330.36Zm-10.216-2.342,6.234.086.1.075a7.558,7.558,0,0,0,3.884,1.431,3.613,3.613,0,0,0,3.261-2.121l.111-.2,5.543.171,4.087-1.268c.315-.267.635-.539.948-.808l-.789-.878-2.933.06-4.027-9.364-8.684-4.21-3.088-.13c-2.862,2.088-5.851,4.613-7.467,6.011v8.979h2.821Z" transform="translate(-117.273 -182.261)" fill="#fff"/><path d="M211.492,371.524l-.045.036c-1.269,1.014-.937,3.2-2.13,4.31-.345.318-.78.516-1.139.812-1.417,1.157-1.327,3.444-2.588,4.772a8,8,0,0,1-2.771,1.511,5.284,5.284,0,0,0-2.763,2.265,10.652,10.652,0,0,0-.991,3.22,1.89,1.89,0,0,1-.3.915,2.552,2.552,0,0,1-1.175.583,2.9,2.9,0,0,0-1.489,1.265,1.842,1.842,0,0,1-.422.6,1.134,1.134,0,0,1-.52.2,3.72,3.72,0,0,1-1.991-.184,3.353,3.353,0,0,1,1.135-1.722,2.472,2.472,0,0,0,.91-1.812,8.26,8.26,0,0,0-.448-1.341,3.922,3.922,0,0,0-.238-.915,2.8,2.8,0,0,0-.857-.758,2.94,2.94,0,0,1-1.058-1.632,7.166,7.166,0,0,0-.435-2,2.654,2.654,0,0,0-2.314-1.058,9.64,9.64,0,0,1-2.646-.175c-1.6-.52-2.4-2.269-3.718-3.314-1.511-1.206-3.565-1.395-5.494-1.538a10.139,10.139,0,0,1,2.619-2.852,5.916,5.916,0,0,0,2.108-3.166,11.64,11.64,0,0,1,.2-1.381,3.664,3.664,0,0,1,.875-1.327,18.528,18.528,0,0,1,2.157-2,3.5,3.5,0,0,0,1.471-1.722c.112-.457.013-.951.13-1.408a8.123,8.123,0,0,0,3.251-.807h.045l9.965.13,10.117,5.866.534,4.633Z" transform="translate(-100.837 -210.07)" fill="#03c4a1"/><path d="M190.733,360.525h.13l10.068.131,10.365,6.01.5,4.362,1.558-.515-1.675,1.34a3.672,3.672,0,0,0-.985,1.992,3.553,3.553,0,0,1-1.8,2.791,3.638,3.638,0,0,0-1.776,2.652,6.494,6.494,0,0,1-1.26,2.423,6.379,6.379,0,0,1-2.338,1.366c-.184.075-.375.152-.556.231a4.821,4.821,0,0,0-2.577,2.089,10.236,10.236,0,0,0-.955,3.107l-.007.048A1.664,1.664,0,0,1,198,390.2c-.1.032-.19.062-.276.095a2.512,2.512,0,0,0-1.3,1.1l-.055.1a1.79,1.79,0,0,1-.462.61,1.493,1.493,0,0,1-.686.27,4.084,4.084,0,0,1-.729.065,4.041,4.041,0,0,1-1.46-.269l-.277-.107.04-.294a3.449,3.449,0,0,1,1.155-1.849l.082-.084a2.188,2.188,0,0,0,.806-1.517,2.335,2.335,0,0,0-.218-.686,4.266,4.266,0,0,1-.219-.593c-.032-.119-.052-.236-.072-.348a1.62,1.62,0,0,0-.132-.482,1.677,1.677,0,0,0-.524-.475c-.075-.052-.153-.106-.229-.164a3.3,3.3,0,0,1-1.2-1.845,6.286,6.286,0,0,1-.121-.779,2.862,2.862,0,0,0-.273-1.119,2.357,2.357,0,0,0-2-.872c-.1,0-.2-.005-.321-.005-.141,0-.286,0-.426,0s-.292,0-.44,0a5.058,5.058,0,0,1-1.565-.2,5.969,5.969,0,0,1-2.55-2.052,9.961,9.961,0,0,0-1.285-1.325c-1.47-1.174-3.587-1.331-5.288-1.458l-.542-.04.23-.492a7.85,7.85,0,0,1,2.127-2.456c.192-.168.391-.342.578-.514a5.633,5.633,0,0,0,1.992-2.953c.029-.167.045-.337.061-.517a4.457,4.457,0,0,1,.147-.91,4,4,0,0,1,.957-1.473,18.923,18.923,0,0,1,2.2-2.036l.079-.061a3.06,3.06,0,0,0,1.26-1.456,2.837,2.837,0,0,0,.052-.613,3.379,3.379,0,0,1,.078-.8l.07-.273.282-.009a7.7,7.7,0,0,0,3.1-.77Zm9.992.879-9.823-.128a8.458,8.458,0,0,1-3.013.791c-.009.114-.011.235-.013.359a3.439,3.439,0,0,1-.074.78,3.642,3.642,0,0,1-1.529,1.87l-.076.059a18.166,18.166,0,0,0-2.111,1.953,3.367,3.367,0,0,0-.793,1.187,3.843,3.843,0,0,0-.117.756c-.017.187-.034.381-.069.577a6.275,6.275,0,0,1-2.224,3.378c-.193.177-.4.355-.591.526a9.366,9.366,0,0,0-1.664,1.721,9.223,9.223,0,0,1,5.111,1.574,10.514,10.514,0,0,1,1.387,1.423,5.34,5.34,0,0,0,2.213,1.827,4.312,4.312,0,0,0,1.333.161c.141,0,.287,0,.427,0s.292,0,.439,0c.126,0,.239,0,.344.006a3.048,3.048,0,0,1,2.626,1.246,3.457,3.457,0,0,1,.369,1.411,5.644,5.644,0,0,0,.105.688,2.579,2.579,0,0,0,.923,1.423c.062.047.131.094.2.145a2.278,2.278,0,0,1,.752.727,2.231,2.231,0,0,1,.215.717c.018.1.034.2.058.285a3.648,3.648,0,0,0,.184.489,2.928,2.928,0,0,1,.276.916,2.816,2.816,0,0,1-1.015,2.105l-.083.085a3.832,3.832,0,0,0-.868,1.129,3.39,3.39,0,0,0,1.472.062.833.833,0,0,0,.355-.123,1.176,1.176,0,0,0,.264-.376l.063-.114a3.264,3.264,0,0,1,1.684-1.432c.1-.039.207-.073.309-.106a1.493,1.493,0,0,0,.7-.361,1.535,1.535,0,0,0,.21-.691l.007-.047a10.978,10.978,0,0,1,1.027-3.331,5.517,5.517,0,0,1,2.949-2.44c.189-.082.383-.161.571-.237a5.739,5.739,0,0,0,2.077-1.188,5.856,5.856,0,0,0,1.1-2.156A4.337,4.337,0,0,1,208.495,376a2.857,2.857,0,0,0,1.479-2.359,4.535,4.535,0,0,1,1.11-2.267l-.49-4.252Z" transform="translate(-100.837 -210.07)" fill="#fff"/><path d="M254.222,207.224l-.139,10.606-.408-.009-2.606-.045.161,2.529h-2.1l.009.386-5.722-1.327v4.61h5.79l.031,1.547-2.529,4.251-.431,4.359-9.2.054-5.166,5.059-.022.269-.336-.027-8.79-7.2-.413-7.938,10.427-13.58-.211-3.973.834.287,2.516-2.39-.206,4.162,3,1.771,1.646-2.305,1.646.121,1.646,1.605,5.274.04,5.283-2.866Z" transform="translate(-125.292 -123.914)" fill="#03c4a1"/><path d="M236.337,203.773l-.241,4.871,2.513,1.482,1.569-2.2,1.992.147,1.636,1.6,5.026.038,5.341-2.9.428.143-.148,11.258-.786-.017-2.2-.038.161,2.522h-2.115l.011.485-5.734-1.33V223.6h5.782l.041,2.022-2.541,4.272-.456,4.612-9.389.055-4.958,4.855-.042.5-.826-.066-9.009-7.382-.428-8.241,10.427-13.579-.233-4.39,1.145.394Zm2.483,7.348-3.5-2.061.171-3.452-2,1.9-.523-.18.189,3.556-10.427,13.58.4,7.634,8.462,6.934,5.333-5.222,9.016-.053.406-4.106,2.517-4.231-.022-1.073h-5.8v-5.457l5.711,1.325-.007-.286h2.083l-.162-2.536,3.044.053.126-9.6-4.819,2.614-5.522-.042-1.656-1.615-1.3-.1Z" transform="translate(-125.292 -123.914)" fill="#fff"/><path d="M321.292,131.368l-.031,1.3L321.185,136l-2.529,2.045.031,1.458-.112-.022-1.162-.247L315.1,141.7l-10.871-.166,2.314,2.583-2.529,2.906-3.767,1.727-1.776-3.337-2.964-.126.215-.251.054-5.974a13.517,13.517,0,0,1,10.548-10.49h3.606v-8.933l4.991-8.095h0a24.584,24.584,0,0,0,2.991.215l3.372,19.611Z" transform="translate(-165.643 -72.544)" fill="#03c4a1"/><path d="M300.085,149.243l-1.841-3.459-3.521-.149.629-.733.053-5.864,0-.027a13.333,13.333,0,0,1,1.856-4.6,13.552,13.552,0,0,1,3.283-3.607,14.689,14.689,0,0,1,5.7-2.592l.041-.009h3.273v-8.665l5.177-8.4.245.037a24.279,24.279,0,0,0,2.946.211l.307.008,3.231,18.787.244-.489-.072,2.981-.08,3.5-2.521,2.039.038,1.741-.571-.114-.958-.2-2.278,2.442-10.18-.155,1.963,2.192-2.8,3.217Zm-3.984-4.3,2.6.11,1.711,3.214,3.372-1.546,2.259-2.6-2.665-2.975,11.561.176,2.341-2.509,1.018.216-.025-1.17,2.537-2.051.1-4.388L317.6,112.131a24.464,24.464,0,0,1-2.483-.176l-4.807,7.8v9.2h-3.938a13.031,13.031,0,0,0-8.47,5.856,12.884,12.884,0,0,0-1.746,4.291Z" transform="translate(-165.643 -72.544)" fill="#fff"/></g></g><g transform="translate(385.667 198.095)"><g transform="translate(338.333 81.905)"><g transform="translate(0 0)" clip-path="url(#a)"><g transform="translate(16.94 1.655)"><g transform="translate(0 0)"><g clip-path="url(#b)"><g clip-path="url(#b)"><path d="M325.076,55.327V47.263a2.691,2.691,0,0,0-1.787-2.332l-4.076-1.33V38h-4.25v5.6l-4.076,1.33a2.743,2.743,0,0,0-1.787,2.332v8.064Z" transform="translate(-250.536 -24.792)" fill="#994d3c"/><path d="M336.762,18.723c0,4.839-2.223,5.8-3.531,5.8s-3.531-.959-3.531-5.8c0-2.441,1.591-3.923,3.531-3.923,1.962,0,3.531,1.482,3.531,3.923" transform="translate(-266.646 -6.649)" fill="#ad5d4b"/><path d="M327.965,32.546c.153.763-.022,1.438-.371,1.5s-.763-.5-.894-1.264c-.153-.763.022-1.438.371-1.5s.741.5.894,1.264" transform="translate(-264.257 -19.534)" fill="#ad5d4b"/><path d="M358.7,32.546c-.153.763.022,1.438.371,1.5s.763-.5.894-1.264c.153-.763-.022-1.438-.371-1.5s-.741.5-.894,1.264" transform="translate(-289.283 -19.534)" fill="#ad5d4b"/><path d="M321.384,84.109l3.792-16.826a2.746,2.746,0,0,0-1.787-2.354l-4.054-1.33-2.092,1.308-2.2-1.308-4.054,1.33a2.746,2.746,0,0,0-1.787,2.354l3.008,17.436Z" transform="translate(-250.614 -44.812)" fill="#e7eae1"/><path d="M336,40.653v3.095a3.3,3.3,0,0,0,2.136,1.656,2.121,2.121,0,0,0,2.136-.785v-3.2l-2.136-.915Z" transform="translate(-271.573 -26.747)" fill="#893d30"/><path d="M337.408,37.019l-3.2-.719-3.2.719c.109,1.024.414,2.528.414,2.528a3.24,3.24,0,0,0,2.79,1.809,3.161,3.161,0,0,0,2.79-1.678,23.873,23.873,0,0,0,.414-2.659" transform="translate(-267.663 -23.463)" fill="#e7eae1"/><path d="M335.008,37.1v1.395s-2.594.632-3.008-.676Z" transform="translate(-268.445 -24.088)" fill="#f6f7f5"/><path d="M344.1,69.6h-1.5v.937l.371.349-.283,8.042.654.5.654-.5-.283-8.042.371-.349Z" transform="translate(-276.734 -49.505)" fill="#003e4d"/><path d="M335.286,63.265l-1.2,1.569L332.3,62.263l.785-.763Z" transform="translate(-268.679 -43.17)" fill="#f6f7f5"/><path d="M346,63.265l1.242,1.569,1.635-2.572-.806-.763Z" transform="translate(-279.393 -43.17)" fill="#f6f7f5"/><path d="M336.482,17.55a.775.775,0,0,1,.218-.044A3.365,3.365,0,0,0,333.387,15a3.477,3.477,0,0,0-3.487,3.291,2,2,0,0,1,.022.371,4.178,4.178,0,0,0,.392-1.613c0-.414,1.112-1.264,3.051-.24,2.027-.5,2.964.349,3.117.741" transform="translate(-266.802 -6.805)" fill="#994d3c"/><path d="M329.651,9.082c-1.308,1.722-.545,2.485-.545,3.792a4.294,4.294,0,0,0,.392-1.656c0-.414,1.112-1.373,3.051-.545,2.267-.741,3.182.262,3.182.567,0,.588-.2.436.305,1.744.414-1.678.589-2.681-.61-4.119a3.834,3.834,0,0,0-5.776.218" transform="translate(-266.009 -1.061)" fill="#3a3a3a"/><path d="M329.353,30l-.153.283.479,2.158.109-.371Z" transform="translate(-266.255 -18.536)" fill="#e7eae1"/><path d="M360.136,30l.153.283-.48,2.158-.109-.371Z" transform="translate(-290.107 -18.536)" fill="#e7eae1"/><path d="M337.354,9.5c-2.964.131-4.054,1.656-4.054.828s1.068-1.613,2.376-1.765c1.329-.131,2.506.894,1.678.937" transform="translate(-269.461 -1.758)" fill="#494949"/><path d="M332.808,149.1l-4.795.153-4.686.044s-.327,3.03-.327,6.037c0,1.5,1.395,24.324,1.395,24.324l2.354-.065.959-24.171.022-.022h.5l1.133,24.5,2.485.044s1.308-23.822,1.395-24.912a58.178,58.178,0,0,0-.436-5.928" transform="translate(-261.406 -111.677)" fill="#0269af"/><path d="M360.912,91.439c0-8.173,1.068-24.694,1.068-24.694a3.032,3.032,0,0,0-1.787-2.615l-3.4-1.33s-1.569,19.006,1.569,20.836c.305,9.241,2.55,9.176,2.55,7.8" transform="translate(-287.527 -44.187)" fill="#ddd"/><path d="M357.75,67.545l-.567-1.744.436-.283-.283-2.746s-1.068-.741-1.112-.436a66.9,66.9,0,0,0-.305,13.622Z" transform="translate(-286.98 -43.766)" fill="#f4f4f4"/><path d="M366.336,66.763,364.2,66l.218,1.2c1.09-.065,2.485-.2,1.918-.436" transform="translate(-293.627 -46.689)" fill="#f6f7f5"/><rect width="2.615" height="1.308" transform="translate(70.247 24.629)" fill="#003e4d"/><rect width="2.485" height="1.177" transform="translate(70.312 24.716)" fill="#f4f4f4"/><rect width="0.349" height="0.283" transform="translate(71.38 24.498)" fill="#b7bdbd"/><rect width="0.785" height="0.959" transform="translate(70.486 24.825)" fill="#b7bdbd"/><path d="M330.5,289.714c0,.414-.479.763-1.09.763h-.719c-.589,0-1.09-.349-1.09-.763v-1.635c0-.414.479-.479,1.09-.479h.719c.588,0,1.09.065,1.09.479Z" transform="translate(-265.004 -219.991)" fill="#003e61"/><path d="M330.5,287.323c0,.305-.479.567-1.09.567h-.719c-.589,0-1.09-.262-1.09-.567V286.1a1.252,1.252,0,0,1,1.09-1h.719a1.253,1.253,0,0,1,1.09,1Z" transform="translate(-265.004 -218.036)" fill="#3f5e77"/><path d="M354.1,289.714c0,.414-.479.763-1.09.763h-.719c-.589,0-1.09-.349-1.09-.763v-1.635c0-.414.479-.479,1.09-.479h.719c.589,0,1.09.065,1.09.479Z" transform="translate(-283.46 -219.991)" fill="#003e61"/><path d="M354.1,287.323c0,.305-.479.567-1.09.567h-.719c-.589,0-1.09-.262-1.09-.567V286.1a1.252,1.252,0,0,1,1.09-1h.719a1.253,1.253,0,0,1,1.09,1Z" transform="translate(-283.46 -218.036)" fill="#3f5e77"/><path d="M365.845,101.6c.545,4.555-.262,5.58-2.18,12.009-.022.022-.065.044-.065.087a1.735,1.735,0,0,0,.371.327c.044,1.417.153,2.615.283,3.618a24.288,24.288,0,0,0,2.441-2.942c.174-4.6.436-9.59.632-13.1Z" transform="translate(-293.157 -74.53)" fill="#b7bdbd"/><path d="M367.11,90.284c-.458.283-2.267-2.071-1.656-2.485,2.637-6.408,3.117-6.56,1.744-11.334.436-1.874-.371-5.71.262-5.907l.044-.959c2.2,1.177,2.18,2.376,2.921,4.512,1.112,3.269,2.746,8.609-3.313,16.172" transform="translate(-294.51 -49.505)" fill="#ddd"/><path d="M357,159.953c.654.414,1.308.85,2.005,1.221a20.287,20.287,0,0,0,1.177-1.962,2.338,2.338,0,0,1-1.177-1.112c-.5.24-1.395.5-1.547.741-.24.414-.305.915-.458,1.112" transform="translate(-287.996 -118.716)" fill="#eab794"/><path d="M309.968,91.439c0-8.173-1.068-24.694-1.068-24.694a3.032,3.032,0,0,1,1.787-2.615l3.4-1.33s1.569,19.006-1.569,20.836c-.327,9.241-2.55,9.176-2.55,7.8" transform="translate(-250.379 -44.187)" fill="#ddd"/><path d="M325.7,67.545l.567-1.744-.436-.283.283-2.746s1.068-.741,1.112-.436a66.9,66.9,0,0,1,.305,13.622Z" transform="translate(-263.518 -43.766)" fill="#f4f4f4"/><path d="M316.357,66.763,318.493,66l-.218,1.2c-1.09-.065-2.463-.2-1.918-.436" transform="translate(-256.115 -46.689)" fill="#f6f7f5"/><path d="M311.582,101.6c-.545,4.555.262,5.58,2.18,12.009.022.022.065.044.065.087a1.736,1.736,0,0,1-.371.327c-.044,1.417-.153,2.615-.283,3.618a24.291,24.291,0,0,1-2.441-2.942c-.174-4.6-.436-9.59-.632-13.1Z" transform="translate(-251.318 -74.53)" fill="#b7bdbd"/><path d="M301.569,90.284c.458.283,2.267-2.071,1.656-2.485-2.637-6.408-3.117-6.56-1.744-11.334-.436-1.874.371-5.71-.262-5.907l-.044-.959c-2.2,1.177-2.18,2.376-2.921,4.512-1.112,3.269-2.746,8.609,3.313,16.172" transform="translate(-241.218 -49.505)" fill="#ddd"/><path d="M322.382,159.953c-.654.414-1.308.85-2.005,1.221a20.287,20.287,0,0,1-1.177-1.962,2.338,2.338,0,0,0,1.177-1.112c.5.24,1.395.5,1.547.741.24.414.327.915.458,1.112" transform="translate(-258.434 -118.716)" fill="#eab794"/><path d="M70.6,36.38V35.094a2.726,2.726,0,0,0-1.635-2.376l-3.509-1.351V25.7H61.144v5.689L57.635,32.74A2.738,2.738,0,0,0,56,35.116V36.4H70.6Z" transform="translate(-52.6 -15.173)" fill="#e29a59"/><path d="M79.6,28.353v3.139a3.289,3.289,0,0,0,2.18,1.678,2.221,2.221,0,0,0,2.18-.806V29.137L81.78,28.2Z" transform="translate(-71.056 -17.128)" fill="#d67f43"/><path d="M80.192,6.267c0,4.9-2.267,5.885-3.6,5.885S73,11.171,73,6.267a3.614,3.614,0,1,1,7.192,0" transform="translate(-65.895 3.127)" fill="#efaf6a"/><path d="M71.31,20.068c.153.785-.022,1.46-.392,1.526-.349.065-.763-.5-.915-1.286s.022-1.46.392-1.526.763.523.915,1.286" transform="translate(-63.507 -9.759)" fill="#efaf6a"/><path d="M102.7,20.068c-.153.785.022,1.46.392,1.526.349.065.763-.5.915-1.286s-.022-1.46-.392-1.526-.785.523-.915,1.286" transform="translate(-89.08 -9.759)" fill="#efaf6a"/><path d="M80.249,12.91c-1.417-1.918-5.623-2.31-7.149.022h0c0,.022,2.921-2.637,7.149-.022" transform="translate(-65.973 -3.93)" fill="#e29a59"/><path d="M79.953,13.5c-.153,4.512-1.068,6.735-3.356,6.735-2.31,0-3.182-2.245-3.356-6.735A5.189,5.189,0,0,0,73,15.026c0,4.9,2.267,6.1,3.6,6.1s3.6-1.2,3.6-6.1a4.56,4.56,0,0,0-.24-1.526" transform="translate(-65.895 -5.632)" fill="#474747"/><path d="M73.1-4.985v3.139c1.5-2.354,5.732-1.962,7.171-.044v-3.2c-.741-.981-2.2-2.506-3.662-2.506-1.395,0-2.79,1.46-3.509,2.615" transform="translate(-65.973 10.869)" fill="#017de1"/><path d="M77.469-6.7c-.915,0-2.594,1.308-3.269,2.55v1.177A7.138,7.138,0,0,0,77.469-6.7" transform="translate(-66.833 10.165)" fill="#31acff"/><path d="M85.645,41.8l-.545.545.523.523h.937l.523-.523-.545-.545Z" transform="translate(-75.357 -27.764)" fill="#474747"/><path d="M83.109,34.068c-.371.371,0,2.114,0,2.114h.262s-.305-1.395,0-1.7a2.067,2.067,0,0,1,2.071,0c.305.305,0,1.7,0,1.7H85.7s.371-1.744,0-2.114a2.621,2.621,0,0,0-2.594,0" transform="translate(-73.672 -21.449)" fill="#474747"/><path d="M63.223,204.5H62.7c.458,4.882.828,8.784,1.2,12.358.022.327.109,1.787.153,2.071.022.262-.436,1.635-.414,1.874a1.965,1.965,0,0,0,.654,1.5l3.03.2.305-1.417-.24-1.547.305-14.93c-1.5-.065-2.986-.087-4.468-.109" transform="translate(-57.84 -155.003)" fill="#0269af"/><path d="M91.6,205l.7,15.061-.305,1.351.436,1.395,2.724.044a2.318,2.318,0,0,0,.61-1.591c.022-.305-.392-1.831-.371-2.223.327-3.509.872-8.74,1.351-13.993-1.722,0-3.444-.022-5.144-.044" transform="translate(-80.441 -155.394)" fill="#0269af"/><path d="M65.486,87.121c0-4.1-.022-13.666.523-21.425a101.476,101.476,0,0,1,1.5-11.443,2.97,2.97,0,0,0-1.9-2.572L61.585,50.2l-2.594,5.3L56.55,50.2,52.5,51.66a2.97,2.97,0,0,0-1.9,2.572,80.051,80.051,0,0,1,1.417,11.573c.436,6.866.436,17,.436,21.294.022,1.874,13.034,1.831,13.034.022" transform="translate(-48.377 -34.333)" fill="#017de1"/><path d="M98.8,53.178l.632-1.678,3.814,1.373c.894.349-4.446.305-4.446.305" transform="translate(-86.072 -35.35)" fill="#31acff"/><path d="M56.943,52.973,60.757,51.6,62,54.259c0-.022-8.348.305-5.057-1.286" transform="translate(-52.737 -35.428)" fill="#31acff"/><rect width="2.877" height="1.438" transform="translate(13.077 21.795)" fill="#003e4d"/><rect width="2.724" height="1.286" transform="translate(13.143 21.861)" fill="#f4f4f4"/><rect width="0.371" height="0.327" transform="translate(14.32 21.643)" fill="#b7bdbd"/><rect width="0.85" height="1.068" transform="translate(13.339 21.992)" fill="#b7bdbd"/><path d="M72.539,286.932c0,.458-.523.828-1.177.828h-.785c-.654,0-1.177-.371-1.177-.828v-1.787c0-.458.523-.545,1.177-.545h.785c.654,0,1.177.065,1.177.545Z" transform="translate(-63.079 -217.645)" fill="#003e61"/><path d="M72.539,284.419c0,.349-.523.632-1.177.632h-.785c-.654,0-1.177-.283-1.177-.632v-1.33A1.343,1.343,0,0,1,70.577,282h.785a1.343,1.343,0,0,1,1.177,1.09Z" transform="translate(-63.079 -215.611)" fill="#3f5e77"/><path d="M97.539,286.932c0,.458-.523.828-1.177.828h-.785c-.654,0-1.177-.371-1.177-.828v-1.787c0-.458.523-.545,1.177-.545h.785c.654,0,1.177.065,1.177.545Z" transform="translate(-82.63 -217.645)" fill="#003e61"/><path d="M97.539,284.419c0,.349-.523.632-1.177.632h-.785c-.654,0-1.177-.283-1.177-.632v-1.33A1.343,1.343,0,0,1,95.577,282h.785a1.343,1.343,0,0,1,1.177,1.09Z" transform="translate(-82.63 -215.611)" fill="#3f5e77"/><path d="M107.248,89.8c.567,4.664-.262,5.71-2.223,12.293L104,103.117a3.5,3.5,0,0,1,1.547,2.441c.5-.436,1.177-.327,1.874-1.308.174-4.708,1.155-10.876,1.351-14.45Z" transform="translate(-90.138 -65.302)" fill="#0269af"/><path d="M111.938,78.285c-.458.283-2.332-2.136-1.7-2.55,2.7-6.56,3.182-6.735,1.765-11.617.436-1.918-.392-5.841.262-6.037l.044-.981c2.267,1.2,2.223,2.441,2.986,4.621,1.177,3.335,2.855,8.805-3.356,16.564" transform="translate(-94.915 -39.729)" fill="#017de1"/><path d="M101.6,149.127c.676.436,1.351.872,2.071,1.242.218-.414,1.112-1.2,1.308-1.765a5.482,5.482,0,0,1-1.286-1.5,7.374,7.374,0,0,0-1.591.85c-.262.458-.349.981-.5,1.177" transform="translate(-88.261 -110.113)" fill="#eab794"/><path d="M55.2,89.8c-.806,4.969.371,6.931,3.4,13.6.022.022-1.569,1.133-1.678,2.158a2.934,2.934,0,0,1-2.158-1.46C54.594,99.39,53.9,93.374,53.7,89.8Z" transform="translate(-50.801 -65.302)" fill="#0269af"/><path d="M44.888,78.285c.458.283,2.332-2.136,1.7-2.55-2.7-6.56-3.182-6.735-1.765-11.617-.436-1.918.392-5.841-.262-6.037l-.044-.981c-2.289,1.221-2.245,2.441-3.008,4.642-1.155,3.313-2.833,8.784,3.378,16.543" transform="translate(-40.398 -39.729)" fill="#017de1"/><path d="M65.778,149.127c-.676.436-1.351.872-2.071,1.242-.218-.414-1.112-1.2-1.308-1.765a6.455,6.455,0,0,0,1.286-1.5,6.875,6.875,0,0,1,1.591.85c.283.458.349.981.5,1.177" transform="translate(-57.605 -110.113)" fill="#eab794"/><path d="M64.265,153.091a41.815,41.815,0,0,0,.262-6.691,17.836,17.836,0,0,1-3.727,2.332,16.036,16.036,0,0,0,.414,4.359Z" transform="translate(-56.354 -109.566)" fill="#31acff"/><path d="M101.354,153.091a41.814,41.814,0,0,1-.262-6.691,17.836,17.836,0,0,0,3.727,2.332,16.036,16.036,0,0,1-.414,4.359Z" transform="translate(-87.862 -109.566)" fill="#31acff"/><path d="M151.213.536a1.116,1.116,0,0,0,1.112-1.112h0V-.684a.79.79,0,0,0,1.112.065.778.778,0,0,0,.262-.588h0a1.105,1.105,0,0,0,1.526-.371,1.153,1.153,0,0,0-.109-1.308.8.8,0,0,0,.763-.806.2.2,0,0,0-.022-.109,1.1,1.1,0,0,0,.567-1.46.914.914,0,0,0-.2-.305.941.941,0,0,0,.371-1.286.951.951,0,0,0-.349-.371,1.105,1.105,0,0,0-.022-1.569.912.912,0,0,0-.392-.24.806.806,0,0,0-.5-1,.774.774,0,0,0-.218-.044,1.129,1.129,0,0,0-.109-1.569,1.083,1.083,0,0,0-1.308-.109h0a.781.781,0,0,0-.785-.785.778.778,0,0,0-.588.262v-.109a1.116,1.116,0,0,0-1.112-1.112,1.081,1.081,0,0,0-1.024.719A.777.777,0,0,0,149.1-13a.815.815,0,0,0-.283.327,1.113,1.113,0,0,0-1.547-.262,1.136,1.136,0,0,0-.458.894v.022a.8.8,0,0,0-1.024.458.811.811,0,0,0-.044.392,1.1,1.1,0,0,0-1.308.872.742.742,0,0,0-.022.218,1.293,1.293,0,0,0,.109.5.766.766,0,0,0-.545.959.768.768,0,0,0,.305.436.86.86,0,0,0-.61,1.046c0,.022.022.044.022.065a.77.77,0,0,0,.153,1.09c-.392,0-.588,1.242.392,1.242a.793.793,0,0,0-.109,1.112.784.784,0,0,0,.392.262A1.088,1.088,0,0,0,145-1.883a.993.993,0,0,0,.5.109.742.742,0,0,0,.218-.022.756.756,0,0,0,.676.872.811.811,0,0,0,.392-.044v.022A1.116,1.116,0,0,0,147.9.166a1.1,1.1,0,0,0,.894-.458A.8.8,0,0,0,149.84.1a.815.815,0,0,0,.327-.283,1.131,1.131,0,0,0,1.046.719" transform="translate(-121.049 15.483)" fill="#4d0100"/><path d="M158.024-.5A4.346,4.346,0,0,0,153.6,4.121c0,3.574,1.09,5.362,2.31,6.19a1.086,1.086,0,0,0,.763-.458.8.8,0,0,0,1.046.392.815.815,0,0,0,.327-.283,1.118,1.118,0,0,0,2.158-.392V9.46a.778.778,0,0,0,.588.262h0c.915-.981,1.656-2.7,1.656-5.623a4.352,4.352,0,0,0-4.424-4.6" transform="translate(-128.928 5.317)" fill="#3d0000"/><path d="M158.387,30.59a2.048,2.048,0,0,0-.741-.545l-3.574-1.5V22.7h-3.356v5.819l-3.574,1.5a2.336,2.336,0,0,0-.741.545h11.987Z" transform="translate(-123.297 -12.827)" fill="#a25742"/><path d="M166.1,27.408a2.512,2.512,0,0,0,1.94.959,2.412,2.412,0,0,0,1.417-.479V22.7H166.1Z" transform="translate(-138.703 -12.827)" fill="#893d30"/><path d="M165.087,7.705c0,4.577-2.18,5.492-3.444,5.492s-3.444-.915-3.444-5.492a3.453,3.453,0,1,1,6.887,0" transform="translate(-132.525 1.798)" fill="#ad5d4b"/><path d="M164.082,20.409a.117.117,0,0,0-.109-.109h-2.18c-.174,0-.458.131-.7.131s-.523-.131-.7-.131h-2.18a.1.1,0,0,0-.109.109h-.61v.218h.588c.065.479.305,1.373.436,1.373H160.2c.2,0,.48-.414.588-.7a.32.32,0,0,1,.371-.24.333.333,0,0,1,.24.24c.109.262.392.7.588.7h1.678c.131,0,.349-.872.436-1.373h.588v-.218Zm-3.88,1.5h-1.591c-.131,0-.545-1.438-.2-1.438h1.831c.959,0,.131,1.438-.044,1.438m3.378,0H161.99c-.153,0-.981-1.438-.022-1.438H163.8c.327,0-.087,1.438-.218,1.438" transform="translate(-131.978 -10.95)" fill="#003e4d"/><g transform="translate(26.307 9.525)" opacity="0.3"><g transform="translate(0 0)"><g clip-path="url(#d)"><path d="M163,22.538h-1.591c-.131,0-.545-1.438-.2-1.438h1.831c.959,0,.131,1.438-.044,1.438" transform="translate(-161.079 -21.1)" fill="#e7eae1"/></g></g></g><g transform="translate(29.511 9.525)" opacity="0.3"><g transform="translate(0 0)"><g clip-path="url(#d)"><path d="M177.977,22.538h-1.591c-.153,0-.981-1.438-.022-1.438H178.2c.327,0-.087,1.438-.218,1.438" transform="translate(-175.885 -21.1)" fill="#e7eae1"/></g></g></g><path d="M161.644,3.9A3.428,3.428,0,0,0,158.2,7.605v.414a.732.732,0,0,0,.087-.523.871.871,0,0,0,.676-.632h.044a1.234,1.234,0,0,0,1.046-.305.843.843,0,0,0,1.133.109,1.178,1.178,0,0,0,1.635.392c.065-.044.109-.065.174-.109a.847.847,0,0,0,1.155.283,1.159,1.159,0,0,0,.894.719h.022V7.583A3.405,3.405,0,0,0,161.644,3.9" transform="translate(-132.525 1.876)" fill="#3d0000"/><path d="M161.22,1.251c-.2-2.245-1.962-5.492-3.967-5.841a5.582,5.582,0,0,0-4.185.523C151.826-3.195,151.7-2.3,151.3-.95a2.5,2.5,0,0,1-.2.719c-.131.24-.392.283-.458.61a.864.864,0,0,0,1.7.305.622.622,0,0,0,0-.283.871.871,0,0,0,.676-.632h.044a1.234,1.234,0,0,0,1.046-.305.843.843,0,0,0,1.133.109,1.177,1.177,0,0,0,1.635.392.922.922,0,0,0,.153-.109.847.847,0,0,0,1.155.283,1.159,1.159,0,0,0,.894.719h.022a.871.871,0,0,0,.436.741.868.868,0,0,0,1.526.828,1.228,1.228,0,0,0,.087-.262,2.177,2.177,0,0,0,.065-.915" transform="translate(-126.609 8.644)" fill="#4d0100"/><path d="M166.905,4.468c-.436.523,1.853.959,3.226,1.09,1.09.109,2.027.174,1.264-.785-1.417-1.678-4.1-.806-4.49-.305" transform="translate(-139.29 1.962)" fill="#5b0909"/><path d="M151.452,130l4.076,1.635,3.989-1.438a21.916,21.916,0,0,1,1.046,6.146c0,1.526-1.547,13.709-1.547,13.818l-1.853,14.494-1.242.806.087-8.609.065-8.653s-.153-7.345-.087-9.263c.022-.632.218-2.506.218-2.506l-.436-.022H155s.218,1.853.24,2.485c.087,1.918-.087,9.263-.087,9.263l.087,8.609-.044,8.653-1.242-.523-1.809-14.538c0-.632-1.526-12.968-1.591-14.058a38.1,38.1,0,0,1,.894-6.3" transform="translate(-126.54 -96.74)" fill="#a25742"/><path d="M156.792,123.965l-.065-1.765H147.7l-.044,1.613c-.044.174-1.308,4.359-1.264,5.819.022.545.567,4.01,1.133,7.541a46.684,46.684,0,0,1,.763,4.773c0,2.027,8,2.027,8.086,0,.174-3.509,1.874-11.159,1.831-12.271a17.887,17.887,0,0,0-1.417-5.71" transform="translate(-123.293 -90.64)" fill="#16c4b3"/><path d="M149.023,148.207c-.741-3.008-1.656-6.626-1.765-7.28a56.054,56.054,0,0,1,.044-7.127,25.676,25.676,0,0,0-1,4.926c.022.545.414,3.967.981,7.5.262,1.591.545,3.291.763,4.751.153,1.024,1.787,1.308,1.787,1.308-.2-.85-.545-3.095-.806-4.076" transform="translate(-123.217 -99.712)" fill="#0eaf9c"/><path d="M186.037,133.8a35.6,35.6,0,0,1,.131,7.149c-.153,1.438-2.005,8.435-2.768,11.377a3.278,3.278,0,0,0,1.722-.85c.654-.85,2.049-11.617,2.005-12.729a15.807,15.807,0,0,0-1.09-4.948" transform="translate(-152.233 -99.712)" fill="#0eaf9c"/><path d="M161.123,285.405a8.673,8.673,0,0,0-.806,1.635c-.065.414-.2,1.569.153,1.722a4.621,4.621,0,0,0,1.962.044,2.685,2.685,0,0,0,.632-1.395,19.448,19.448,0,0,0-.24-2.31Z" transform="translate(-134.118 -218.036)" fill="#0eaf9c"/><path d="M162.949,282.146s-.763,1.547-.262,2.158c.2.24,2.005-.218,1.918-2.289s-1.656.131-1.656.131" transform="translate(-135.901 -214.929)" fill="#a25742"/><path d="M175.545,285.405a8.673,8.673,0,0,1,.806,1.635c.065.414.2,1.569-.153,1.722a4.621,4.621,0,0,1-1.962.044,2.874,2.874,0,0,1-.654-1.395,19.444,19.444,0,0,1,.24-2.31Z" transform="translate(-144.552 -218.036)" fill="#0eaf9c"/><path d="M176.546,282.146s.763,1.547.262,2.158c-.2.24-2.005-.218-1.918-2.289s1.656.131,1.656.131" transform="translate(-145.574 -214.929)" fill="#a25742"/><path d="M153.637,64.9l2.572-12.75a2.84,2.84,0,0,0-1.526-2.441l-3.6-1.5a6.651,6.651,0,0,1-1.744,2.071,7.164,7.164,0,0,1-1.722-2.071l-3.6,1.5a2.786,2.786,0,0,0-1.526,2.441l2.79,12.75Z" transform="translate(-120.247 -32.769)" fill="#16c4b3"/><path d="M182.114,76.1c-.349-3.248-2.31-9.873-2.354-12.423-.022-2.833,2.027-10.963,2.027-10.963a3.14,3.14,0,0,0-1.744-2.528l-2.812-1.09L174.9,60.87l.087,18.374c.022.022,7.367-.85,7.127-3.139" transform="translate(-145.585 -33.473)" fill="#ddd"/><path d="M190.2,52.655,190,51.5l2.005.806c.872.305-1.809.349-1.809.349" transform="translate(-157.394 -35.35)" fill="#f4f4f4"/><path d="M179,53.995l-.61-.937.327-.959-.392-2.637-.7-.262L175.4,60.446Z" transform="translate(-145.976 -33.551)" fill="#f4f4f4"/><rect width="2.942" height="1.482" transform="translate(32.105 21.839)" fill="#003e4d"/><rect width="2.79" height="1.308" transform="translate(32.192 21.904)" fill="#f4f4f4"/><rect width="0.392" height="0.327" transform="translate(33.391 21.686)" fill="#b7bdbd"/><rect width="0.872" height="1.09" transform="translate(32.366 22.035)" fill="#b7bdbd"/><g transform="translate(33.238 35.2)" opacity="0.2"><g clip-path="url(#f)"><path d="M194.661,138.9a30.617,30.617,0,0,1-1.613,3.008c-.61.414.763,2.114,1.2,1.831.414-.523.806-1.068,1.155-1.591-.24-1.068-.5-2.18-.741-3.248" transform="translate(-192.895 -138.9)" fill="#48545b"/></g></g><path d="M188.295,149.5c-.5.24-1.5.763-1.351,1,.2.327-.436.894-.719,1.242-.262.327,1.983,1.7,2.506,1.046a8,8,0,0,0,.828-2.049,2.825,2.825,0,0,1-1.264-1.242" transform="translate(-154.425 -111.99)" fill="#a25742"/><path d="M186.019,151.6s-.349,6.212.218,6.125,2.942-.741,3.422-1.722-.479-3.182-.479-3.182Z" transform="translate(-154.198 -113.632)" fill="#f4f4f4"/><path d="M196.455,77.13c-.436.283-2.092-1.744-1.5-2.136,4.381-7.345,3.16-8.13,1.482-13.317.327-2.005-1.024-4.9-.392-5.078V55.4c2.332,1.351,2.376,2.833,3.248,5.144a16.7,16.7,0,0,1-2.833,16.586" transform="translate(-161.169 -38.4)" fill="#ddd"/><path d="M140.081,76.1c.349-3.248,2.31-9.873,2.354-12.423.022-2.833-2.027-10.963-2.027-10.963a3.14,3.14,0,0,1,1.744-2.528l2.812-1.09L148.1,61.523l-.327,17.72c0,.022-7.934-.85-7.694-3.139" transform="translate(-118.351 -33.473)" fill="#ddd"/><path d="M150.083,52.655l.2-1.155-2.005.806c-.872.305,1.809.349,1.809.349" transform="translate(-124.626 -35.35)" fill="#f4f4f4"/><path d="M156.2,53.995l.61-.937-.327-.959.392-2.637.7-.262,3.139,12.423Z" transform="translate(-130.961 -33.551)" fill="#f4f4f4"/><g transform="translate(22.515 35.2)" opacity="0.2"><g clip-path="url(#f)"><path d="M144.341,138.9a30.61,30.61,0,0,0,1.613,3.008c.61.414-.763,2.114-1.2,1.831-.414-.523-.806-1.068-1.155-1.591.262-1.068.523-2.18.741-3.248" transform="translate(-143.622 -138.9)" fill="#48545b"/></g></g><path d="M147.764,149.5c.5.24,1.5.763,1.351,1-.2.327.436.894.719,1.242.262.327-1.983,1.7-2.506,1.046a8,8,0,0,1-.828-2.049,2.825,2.825,0,0,0,1.264-1.242" transform="translate(-123.375 -111.99)" fill="#a25742"/><path d="M148.158,151.6s.349,6.212-.218,6.125S145,156.983,144.518,156s.48-3.182.48-3.182Z" transform="translate(-121.72 -113.632)" fill="#f4f4f4"/><path d="M131.82,77.13c.436.283,2.092-1.744,1.5-2.136-4.381-7.345-3.16-8.13-1.482-13.317-.327-2.005,1.024-4.9.392-5.078V55.4c-2.332,1.351-2.376,2.833-3.248,5.144A16.7,16.7,0,0,0,131.82,77.13" transform="translate(-108.848 -38.4)" fill="#ddd"/><path d="M178.5,80.585a6.692,6.692,0,0,1-1.2-4.185h.153a6.679,6.679,0,0,0,1.068,3.923v.262Z" transform="translate(-147.462 -54.823)" fill="#b7bdbd"/><path d="M194.1,80.28a6.856,6.856,0,0,0,1.024-3.88h.153a6.788,6.788,0,0,1-1.177,4.141Z" transform="translate(-160.601 -54.823)" fill="#b7bdbd"/><path d="M193.3,94.014a.109.109,0,1,0,.218,0h0v-.305a.109.109,0,1,0-.218,0Z" transform="translate(-159.975 -68.274)" fill="#b7bdbd"/><path d="M182.5,94.014a.109.109,0,0,0,.218,0v-.305a.109.109,0,1,0-.218,0h0Z" transform="translate(-151.529 -68.274)" fill="#b7bdbd"/><path d="M191.6,94.2a.2.2,0,0,0,.2.2h.022a.2.2,0,1,0,0-.392H191.8a.23.23,0,0,0-.2.2" transform="translate(-158.645 -68.587)" fill="#b7bdbd"/><path d="M183.2,94.2a.2.2,0,0,0,.2.2h.022a.2.2,0,0,0,0-.392H183.4a.23.23,0,0,0-.2.2" transform="translate(-152.076 -68.587)" fill="#b7bdbd"/><path d="M177.183,59.069V59c0-2.528,1-4.577,2.2-4.577s2.2,2.049,2.2,4.577v.065h.305V59c0-2.7-1.133-4.9-2.506-4.9S176.9,56.3,176.9,59v.065Z" transform="translate(-147.149 -37.383)" fill="#003e4d"/><path d="M182.5,47.1a3.72,3.72,0,0,1,1.417,1.744h-.24a3.271,3.271,0,0,0-1.155-1.438V47.1Z" transform="translate(-151.529 -31.909)" fill="#003e4d"/><path d="M158.342,56.541h.262c-.371-3.444.567-8.587,1.09-8.958V47.3c-.654.414-1.613,4.49-1.351,9.241" transform="translate(-132.601 -32.065)" fill="#003e4d"/><path d="M153.469,92.36a1.58,1.58,0,1,0-1.569-1.591h0a1.581,1.581,0,0,0,1.569,1.591" transform="translate(-127.598 -64.833)" fill="#003e4d"/><path d="M155.264,91.082a1.482,1.482,0,1,0-1.482,1.482h0a1.47,1.47,0,0,0,1.482-1.482" transform="translate(-127.911 -65.146)" fill="#b7bdbd"/><path d="M158.3,95.149a.349.349,0,1,0-.349.349.344.344,0,0,0,.349-.349h0" transform="translate(-132.056 -69.212)" fill="#6a686b"/><path d="M154.658,97.7a.77.77,0,0,0,1.09.153.509.509,0,0,0,.153-.153h.479a1.083,1.083,0,0,1-1.177,1,1.1,1.1,0,0,1-1-1Z" transform="translate(-129.397 -71.48)" fill="#ddd"/><path d="M351.1,92.785a6.692,6.692,0,0,1-1.2-4.185h.153a6.679,6.679,0,0,0,1.068,3.923Z" transform="translate(-282.443 -64.364)" fill="#b7bdbd"/><path d="M366.7,92.48a6.856,6.856,0,0,0,1.024-3.88h.153a6.788,6.788,0,0,1-1.177,4.141Z" transform="translate(-295.582 -64.364)" fill="#b7bdbd"/><path d="M366,106.214a.109.109,0,1,0,.218,0v-.305a.109.109,0,1,0-.218,0Z" transform="translate(-295.034 -77.815)" fill="#b7bdbd"/><path d="M355.2,106.214a.109.109,0,0,0,.218,0v-.305a.109.109,0,0,0-.218,0Z" transform="translate(-286.588 -77.815)" fill="#b7bdbd"/><path d="M364.3,106.5a.2.2,0,0,0,.2.2h.022a.2.2,0,1,0,0-.392H364.5a.2.2,0,0,0-.2.2" transform="translate(-293.705 -78.206)" fill="#b7bdbd"/><path d="M355.9,106.5a.2.2,0,0,0,.2.2h.022a.2.2,0,0,0,0-.392H356.1a.2.2,0,0,0-.2.2" transform="translate(-287.136 -78.206)" fill="#b7bdbd"/><path d="M349.883,71.269V71.2c0-2.528,1-4.577,2.2-4.577s2.2,2.049,2.2,4.577v.065h.305V71.2c0-2.7-1.133-4.9-2.506-4.9s-2.485,2.2-2.485,4.9v.065Z" transform="translate(-282.209 -46.924)" fill="#003e4d"/><path d="M355.1,59.4a3.72,3.72,0,0,1,1.417,1.744h-.24a3.27,3.27,0,0,0-1.155-1.438V59.4Z" transform="translate(-286.51 -41.528)" fill="#003e4d"/><path d="M330.142,67.941h.262c-.371-3.444.567-8.587,1.09-8.958V58.7c-.654.414-1.613,4.49-1.351,9.241" transform="translate(-266.957 -40.98)" fill="#003e4d"/><path d="M325.291,103.682a1.591,1.591,0,1,0-1.591-1.591h0a1.6,1.6,0,0,0,1.591,1.591" transform="translate(-261.954 -73.67)" fill="#003e4d"/><path d="M327.064,102.482a1.482,1.482,0,1,0-1.482,1.482h0a1.47,1.47,0,0,0,1.482-1.482" transform="translate(-262.267 -74.061)" fill="#b7bdbd"/><path d="M330.1,106.549a.349.349,0,1,0-.349.349.332.332,0,0,0,.349-.349h0" transform="translate(-266.411 -78.128)" fill="#6a686b"/><path d="M326.458,109.1a.77.77,0,0,0,1.09.153.509.509,0,0,0,.153-.153h.479a1.083,1.083,0,0,1-1.177,1,1.1,1.1,0,0,1-1-1Z" transform="translate(-263.752 -80.395)" fill="#ddd"/><path d="M229.688,219.022A5.313,5.313,0,0,1,229.1,219c.5,5.383.915,9.7,1.308,13.666.044.349.131,1.962.153,2.289.022.283-.479,1.809-.458,2.049a2.235,2.235,0,0,0,.719,1.656l3.335.218.327-1.569-.262-1.722.349-16.477c-1.613-.022-3.247-.065-4.882-.087" transform="translate(-187.972 -166.342)" fill="#ddd"/><path d="M261,219.6l.763,16.63-.327,1.5.48,1.547,3.008.044a2.606,2.606,0,0,0,.676-1.744c.022-.349-.436-2.027-.414-2.441.349-3.88.981-9.655,1.5-15.431-1.9-.044-3.792-.065-5.689-.109" transform="translate(-212.919 -166.812)" fill="#ddd"/><path d="M237.061,27.882a3.272,3.272,0,0,0-1.635-1.613l-4.163-1.613V17.9H226.1v6.757l-4.163,1.613a3.189,3.189,0,0,0-1.635,1.613l8.3,3.509Z" transform="translate(-181.09 -9.073)" fill="#994d3c"/><path d="M247.644-5.17c0,5.841-2.681,7-4.272,7S239.1.649,239.1-5.17c0-2.942,1.918-4.73,4.272-4.73s4.272,1.787,4.272,4.73" transform="translate(-195.793 12.668)" fill="#ad5d4b"/><path d="M237.02,11.31c.174.915-.022,1.744-.458,1.809-.436.087-.915-.61-1.09-1.526s.022-1.744.458-1.809.915.61,1.09,1.526" transform="translate(-192.906 -2.723)" fill="#ad5d4b"/><path d="M274.373,11.31c-.174.915.022,1.744.458,1.809.436.087.915-.61,1.09-1.526s-.022-1.744-.458-1.809-.915.61-1.09,1.526" transform="translate(-223.328 -2.723)" fill="#ad5d4b"/><path d="M239.1-20.632v5.078c1.809-2.812,6.844-2.332,8.544-.044v-5.166c-1.7-2.289-6.735-2.7-8.544.131" transform="translate(-195.793 22.615)" fill="#16c4b3"/><path d="M232.334,89.557c0-4.533-.044-15.082.588-23.67A107.326,107.326,0,0,1,234.6,53.246a3.276,3.276,0,0,0-2.092-2.833L228.04,48.8l-2.855,5.819L222.46,48.8l-4.468,1.613a3.3,3.3,0,0,0-2.092,2.833,86.387,86.387,0,0,1,1.569,12.772c.5,7.585.479,18.766.479,23.5,0,2.092,14.385,2.049,14.385.044" transform="translate(-177.649 -33.238)" fill="#16c4b3"/><path d="M244.4-20.6a4.627,4.627,0,0,0-3.9,1.722v1.395Z" transform="translate(-196.887 21.036)" fill="#29d6c1"/><path d="M269,52.053l.7-1.853,4.228,1.526c.981.349-4.926.327-4.926.327" transform="translate(-219.176 -34.333)" fill="#29d6c1"/><path d="M222.781,51.726l4.228-1.526,1.373,2.942c0-.022-9.219.349-5.6-1.417" transform="translate(-182.372 -34.333)" fill="#29d6c1"/><path d="M247.622,2.723c-1.7-2.289-6.691-2.746-8.522.022h0c.022.022,3.487-3.139,8.522-.022" transform="translate(-195.793 4.274)" fill="#994d3c"/><path d="M246.9,21.1v3.749a4.042,4.042,0,0,0,2.572,2.005,2.592,2.592,0,0,0,2.572-.959v-3.88L249.472,20.9Z" transform="translate(-201.893 -11.419)" fill="#893d30"/><path d="M238.4,8.9l-.2.2.654,2.637.131-.436Z" transform="translate(-195.089 -2.034)" fill="#e7eae1"/><path d="M276.089,8.9l.2.2-.654,2.637L275.5,11.3Z" transform="translate(-224.259 -2.034)" fill="#e7eae1"/><path d="M246.2,8.131A.141.141,0,0,0,246.064,8h-2.7c-.218,0-.567.153-.872.153S241.836,8,241.618,8h-2.7a.164.164,0,0,0-.153.109H238v.24h.741a4.09,4.09,0,0,0,.523,1.591h2.092c.24,0,.61-.5.741-.806a.386.386,0,0,1,.741,0c.131.305.479.806.741.806h2.092c.153,0,.458-1.024.523-1.591h.741V8.131Zm-4.817,1.744h-1.983c-.153,0-.676-1.656-.262-1.656H241.4c1.221,0,.174,1.656-.022,1.656m4.185,0H243.58c-.2,0-1.242-1.656-.022-1.656h2.267c.414,0-.087,1.656-.262,1.656" transform="translate(-194.932 -1.331)" fill="#003e4d"/><g transform="translate(44.048 6.887)" opacity="0.3"><g clip-path="url(#h)"><path d="M244.884,10.656H242.9c-.153,0-.676-1.656-.262-1.656h2.267c1.221,0,.174,1.656-.022,1.656" transform="translate(-242.487 -9)" fill="#e7eae1"/></g></g><g transform="translate(48.037 6.887)" opacity="0.3"><g clip-path="url(#h)"><path d="M263.416,10.656h-1.983c-.2,0-1.242-1.656-.022-1.656h2.267c.414,0-.087,1.656-.262,1.656" transform="translate(-260.822 -9)" fill="#e7eae1"/></g></g><path d="M248.716,16.772l-3.858-.872L241,16.772c.131,1.242.48,3.051.48,3.051A3.872,3.872,0,0,0,244.858,22a3.822,3.822,0,0,0,3.378-2.027s.349-1.962.48-3.2" transform="translate(-197.278 -7.509)" fill="#e7eae1"/><path d="M245.64,16.8v1.678s-3.139.763-3.64-.828Z" transform="translate(-198.061 -8.213)" fill="#f6f7f5"/><rect width="3.16" height="1.591" transform="translate(50.217 22.079)" fill="#003e4d"/><rect width="3.008" height="1.417" transform="translate(50.304 22.166)" fill="#f4f4f4"/><rect width="0.414" height="0.349" transform="translate(51.59 21.904)" fill="#b7bdbd"/><rect width="0.959" height="1.177" transform="translate(50.5 22.297)" fill="#b7bdbd"/><path d="M239.987,310.25c0,.5-.588.915-1.308.915h-.872c-.719,0-1.308-.414-1.308-.915v-1.962c0-.5.588-.588,1.308-.588h.872c.719,0,1.308.087,1.308.588Z" transform="translate(-193.759 -235.71)" fill="#003e61"/><path d="M239.987,307.459c0,.371-.588.7-1.308.7h-.872c-.719,0-1.308-.305-1.308-.7V306a1.509,1.509,0,0,1,1.308-1.2h.872a1.509,1.509,0,0,1,1.308,1.2Z" transform="translate(-193.759 -233.442)" fill="#3f5e77"/><path d="M267.587,310.25c0,.5-.589.915-1.308.915h-.872c-.719,0-1.308-.414-1.308-.915v-1.962c0-.5.589-.588,1.308-.588h.872c.719,0,1.308.087,1.308.588Z" transform="translate(-215.344 -235.71)" fill="#003e61"/><path d="M267.587,307.459c0,.371-.589.7-1.308.7h-.872c-.719,0-1.308-.305-1.308-.7V306a1.509,1.509,0,0,1,1.308-1.2h.872a1.509,1.509,0,0,1,1.308,1.2Z" transform="translate(-215.344 -233.442)" fill="#3f5e77"/><path d="M216.022,70.2c0,.022-.022.065-.022.087.218,1.308,1.068,6.931,1.591,13.252a134.393,134.393,0,0,0,14.08-3.422c-.305-1.482-3.248-2.768-3.248-2.768s-9.743.915-9.7.131c.044-.763.545-4.926.545-4.926Z" transform="translate(-177.727 -49.974)" fill="#0eaf9c"/><path d="M207.848,66.7c-1.242,4.1-3.335,12.249-1.7,13.273s14.232-2.419,15.911-2.921a2.849,2.849,0,0,0-1.853-1.962s-10.527,1.46-10.484.7,1.482-6.3,1.482-6.3Z" transform="translate(-169.554 -47.237)" fill="#16c4b3"/><path d="M252.166,70.2c0,.022.022.065.022.087-.218,1.308-1.2,7.781-1.722,14.08-3.989-.523-10.767-4.468-11.966-4.839a4.51,4.51,0,0,1,.806-2.027s10.527,2.485,10.484,1.722-.894-6.669-.894-6.669Z" transform="translate(-195.323 -49.974)" fill="#0eaf9c"/><path d="M253.652,66.7c1.242,4.1,3.335,12.249,1.7,13.273S242.1,76.987,240.4,76.464c.305-1.482.632-2.79.632-2.79s10.157,2.136,10.723,2.267c.676.131-.022-.85-1.482-6.473Z" transform="translate(-196.809 -47.237)" fill="#16c4b3"/><path d="M244.2,100.8c.218.153,9.154,1.722,10.832,1.9,5.209,2.441-6.408.479-10.832-1.9" transform="translate(-199.781 -73.905)" fill="#29d6c1"/><path d="M279.613,98.51a4.964,4.964,0,0,0-2.833-1.221l-.087-.392c-.5-.044-3.792,1.809-3.792,1.809s4.839.763,5.885,1.351c.479.262,1.613-.894.828-1.547" transform="translate(-222.226 -70.852)" fill="#f4f4f4"/><path d="M291,99.3c1.395.588,2.877,1.853,2.833,1.46-.022-.392-1.329-1.373-2.833-1.46" transform="translate(-236.381 -72.731)" fill="#fff"/><path d="M227.719,95.3l-1.133.262s-.218-.131-.872.022c-.218.959-.392,1.744-.414,2.005a.113.113,0,0,0,.044.087,13.938,13.938,0,0,1,3.4.436l.479-2.071a9.447,9.447,0,0,0-1.5-.741" transform="translate(-185 -69.603)" fill="#f4f4f4"/><path d="M226.509,97.316c-.044.153-.065.305-.109.436a11.067,11.067,0,0,1,1.831-.414,4.168,4.168,0,0,0-1.722-.022" transform="translate(-185.861 -71.118)" fill="#fff"/></g></g></g></g></g></g></g></g></svg>