<?xml version="1.0" encoding="utf-8"?>
<!-- Generator: Adobe Illustrator 26.2.1, SVG Export Plug-In . SVG Version: 6.00 Build 0)  -->
<svg version="1.1" id="Camada_1" xmlns="http://www.w3.org/2000/svg" xmlns:xlink="http://www.w3.org/1999/xlink" x="0px" y="0px"
	 viewBox="0 0 510 361" style="enable-background:new 0 0 510 361;" xml:space="preserve">
<style type="text/css">
	.st0{clip-path:url(#SVGID_00000037652409968505032760000016088882579670939830_);}
	.st1{clip-path:url(#SVGID_00000106851894561155094590000004490678321045456809_);}
	.st2{clip-path:url(#SVGID_00000120539998958171990880000011568076102962183849_);}
	.st3{fill:#994D3C;}
	.st4{fill:#AD5D4B;}
	.st5{fill:#E7EAE1;}
	.st6{fill:#893D30;}
	.st7{fill:#F6F7F5;}
	.st8{fill:#003E4D;}
	.st9{fill:#3A3A3A;}
	.st10{fill:#494949;}
	.st11{fill:#0269AF;}
	.st12{fill:#DDDDDD;}
	.st13{fill:#F4F4F4;}
	.st14{fill:#B7BDBD;}
	.st15{fill:#003E61;}
	.st16{fill:#3F5E77;}
	.st17{fill:#EAB794;}
	.st18{fill:#E29A59;}
	.st19{fill:#D67F43;}
	.st20{fill:#EFAF6A;}
	.st21{fill:#474747;}
	.st22{fill:#017DE1;}
	.st23{fill:#31ACFF;}
	.st24{fill:#4D0100;}
	.st25{fill:#3D0000;}
	.st26{fill:#A25742;}
	.st27{opacity:0.3;}
	.st28{clip-path:url(#SVGID_00000135659391235052084410000012895467132916123050_);}
	.st29{clip-path:url(#SVGID_00000089549546086310715840000015336044961004617613_);}
	.st30{fill:#5B0909;}
	.st31{fill:#16C4B3;}
	.st32{fill:#0EAF9C;}
	.st33{opacity:0.2;}
	.st34{clip-path:url(#SVGID_00000057839086932000435060000017516720297507227266_);}
	.st35{fill:#48545B;}
	.st36{clip-path:url(#SVGID_00000055684121494924201770000012340476824915794605_);}
	.st37{fill:#6A686B;}
	.st38{fill:#29D6C1;}
	.st39{clip-path:url(#SVGID_00000040556112330591469330000014024822309492835219_);}
	.st40{clip-path:url(#SVGID_00000124163462563460763720000008073632529156163214_);}
	.st41{fill:#FFFFFF;}
</style>
<g id="img-slide-50" transform="translate(-338 -82)">
	<g>
		<defs>
			<rect id="SVGID_1_" x="338" y="82" width="510" height="361"/>
		</defs>
		<clipPath id="SVGID_00000107584999733532355810000004663563141804292541_">
			<use xlink:href="#SVGID_1_"  style="overflow:visible;"/>
		</clipPath>
		<g id="Grupo_de_máscara_4" style="clip-path:url(#SVGID_00000107584999733532355810000004663563141804292541_);">
			<g id="Grupo_514" transform="translate(376 112)">
				<g>
					<defs>
						<rect id="SVGID_00000111191920506567848010000013281667380749508499_" x="40.4" y="-22.6" width="353.2" height="346.2"/>
					</defs>
					<clipPath id="SVGID_00000049919741476617931980000005752050702668265656_">
						<use xlink:href="#SVGID_00000111191920506567848010000013281667380749508499_"  style="overflow:visible;"/>
					</clipPath>
					<g id="Grupo_513" style="clip-path:url(#SVGID_00000049919741476617931980000005752050702668265656_);">
						<g id="Grupo_512">
							<g>
								<defs>
									<rect id="SVGID_00000124160089574212937590000000669919559195121343_" x="40.4" y="-22.6" width="353.2" height="346.2"/>
								</defs>
								<clipPath id="SVGID_00000183229983912941947010000004306718297023729318_">
									<use xlink:href="#SVGID_00000124160089574212937590000000669919559195121343_"  style="overflow:visible;"/>
								</clipPath>
								<g id="Grupo_511" style="clip-path:url(#SVGID_00000183229983912941947010000004306718297023729318_);">
									<path id="Caminho_456" class="st3" d="M382.4,117.5v-37c0-4.4-3.7-9.2-8.2-10.7l-18.7-6.1V38H336v25.7l-18.7,6.1
										c-4.5,1.6-8.2,6.4-8.2,10.7v37H382.4z"/>
									<path id="Caminho_457" class="st4" d="M362.1,32.8c0,22.2-10.2,26.6-16.2,26.6c-6,0-16.2-4.4-16.2-26.6
										c0-11.2,7.3-18,16.2-18C354.9,14.8,362.1,21.6,362.1,32.8"/>
									<path id="Caminho_458" class="st4" d="M332.7,37.1c0.7,3.5-0.1,6.6-1.7,6.9c-1.6,0.3-3.5-2.3-4.1-5.8
										c-0.7-3.5,0.1-6.6,1.7-6.9C330.2,31,332,33.6,332.7,37.1"/>
									<path id="Caminho_459" class="st4" d="M358.9,37.1c-0.7,3.5,0.1,6.6,1.7,6.9c1.6,0.3,3.5-2.3,4.1-5.8
										c0.7-3.5-0.1-6.6-1.7-6.9S359.6,33.6,358.9,37.1"/>
									<path id="Caminho_460" class="st5" d="M365.1,157.7l17.4-77.2c0-4.4-3.7-9.2-8.2-10.8l-18.6-6.1l-9.6,6l-10.1-6l-18.6,6.1
										c-4.5,1.6-8.2,6.4-8.2,10.8l13.8,80L365.1,157.7z"/>
									<path id="Caminho_461" class="st6" d="M336,41.2v14.2c3,5,7,7.1,9.8,7.6c3.7,0.8,7.5-0.6,9.8-3.6V44.7l-9.8-4.2L336,41.2z"
										/>
									<path id="Caminho_462" class="st5" d="M360.4,39.6l-14.7-3.3l-14.7,3.3c0.5,4.7,1.9,11.6,1.9,11.6
										c3.5,6.4,9.1,8.3,12.8,8.3c5.4,0,10.3-3,12.8-7.7C358.6,51.8,360,44.3,360.4,39.6"/>
									<path id="Caminho_463" class="st7" d="M345.8,37.1v6.4c0,0-11.9,2.9-13.8-3.1L345.8,37.1z"/>
									<path id="Caminho_464" class="st8" d="M349.5,69.6h-6.9v4.3l1.7,1.6l-1.3,36.9l3,2.3l3-2.3l-1.3-36.9l1.7-1.6L349.5,69.6z"
										/>
									<path id="Caminho_465" class="st7" d="M346,69.6l-5.5,7.2l-8.2-11.8l3.6-3.5L346,69.6z"/>
									<path id="Caminho_466" class="st7" d="M346,69.6l5.7,7.2l7.5-11.8l-3.7-3.5L346,69.6z"/>
									<path id="Caminho_467" class="st3" d="M360.1,26.7c0.3-0.1,0.7-0.2,1-0.2C358.9,19.2,353,15,345.9,15
										c-8.2,0-14.9,5.7-16,15.1c0.1,0.5,0.1,1.1,0.1,1.7c1.1-2.3,1.7-4.9,1.8-7.4c0-1.9,5.1-5.8,14-1.1
										C355.1,21,359.4,24.9,360.1,26.7"/>
									<path id="Caminho_468" class="st9" d="M332.4,14.2c-6,7.9-2.5,11.4-2.5,17.4c0,0,1.9-4,1.8-7.6c0-1.9,5.1-6.3,14-2.5
										c10.4-3.4,14.6,1.2,14.6,2.6c0,2.7-0.9,2,1.4,8c1.9-7.7,2.7-12.3-2.8-18.9C353.5,6.7,339.7,4.6,332.4,14.2"/>
									<path id="Caminho_469" class="st5" d="M329.9,30l-0.7,1.3l2.2,9.9l0.5-1.7L329.9,30z"/>
									<path id="Caminho_470" class="st5" d="M361.7,30l0.7,1.3l-2.2,9.9l-0.5-1.7L361.7,30z"/>
									<path id="Caminho_471" class="st10" d="M351.9,12.9c-13.6,0.6-18.6,7.6-18.6,3.8s4.9-7.4,10.9-8.1
										C350.3,8,355.7,12.7,351.9,12.9"/>
									<path id="Caminho_472" class="st11" d="M368,149.1l-22,0.7l-21.5,0.2c0,0-1.5,13.9-1.5,27.7c0,6.9,6.4,111.6,6.4,111.6
										l10.8-0.3l4.4-110.9l0.1-0.1l2.3,0l5.2,112.4l11.4,0.2c0,0,6-109.3,6.4-114.3C370.4,169.5,368,149.1,368,149.1"/>
									<path id="Caminho_473" class="st12" d="M377.1,194.2c0-37.5,4.9-113.3,4.9-113.3c0-4.9-3.7-10.2-8.2-12l-15.6-6.1
										c0,0-7.2,87.2,7.2,95.6C366.8,200.8,377.1,200.5,377.1,194.2"/>
									<path id="Caminho_474" class="st13" d="M365.1,86.5l-2.6-8l2-1.3l-1.3-12.6c0,0-4.9-3.4-5.1-2c-4.4,28.1-1.4,62.5-1.4,62.5
										L365.1,86.5z"/>
									<path id="Caminho_475" class="st7" d="M374,69.5l-9.8-3.5l1,5.5C370.2,71.2,376.6,70.6,374,69.5"/>
									<rect id="Retângulo_146" x="362.7" y="90.4" class="st8" width="12" height="6"/>
									<rect id="Retângulo_147" x="363" y="90.8" class="st13" width="11.4" height="5.4"/>
									<rect id="Retângulo_148" x="367.9" y="89.8" class="st14" width="1.6" height="1.3"/>
									<rect id="Retângulo_149" x="363.8" y="91.3" class="st14" width="3.6" height="4.4"/>
									<path id="Caminho_476" class="st15" d="M340.9,297.3c0,1.9-2.2,3.5-5,3.5h-3.3c-2.7,0-5-1.6-5-3.5v-7.5
										c0-1.9,2.2-2.2,5-2.2h3.3c2.7,0,5,0.3,5,2.2V297.3z"/>
									<path id="Caminho_477" class="st16" d="M340.9,295.3c0,1.4-2.2,2.6-5,2.6h-3.3c-2.7,0-5-1.2-5-2.6v-5.6
										c0-1.4,2.2-4.6,5-4.6h3.3c2.7,0,5,3.1,5,4.6V295.3z"/>
									<path id="Caminho_478" class="st15" d="M364.5,297.3c0,1.9-2.2,3.5-5,3.5h-3.3c-2.7,0-5-1.6-5-3.5v-7.5
										c0-1.9,2.2-2.2,5-2.2h3.3c2.7,0,5,0.3,5,2.2V297.3z"/>
									<path id="Caminho_479" class="st16" d="M364.5,295.3c0,1.4-2.2,2.6-5,2.6h-3.3c-2.7,0-5-1.2-5-2.6v-5.6
										c0-1.4,2.2-4.6,5-4.6h3.3c2.7,0,5,3.1,5,4.6V295.3z"/>
									<path id="Caminho_480" class="st14" d="M373.9,101.6c2.5,20.9-1.2,25.6-10,55.1c-0.1,0.1-0.3,0.2-0.3,0.4
										c0.5,0.6,1.1,1.1,1.7,1.5c0.2,6.5,0.7,12,1.3,16.6c4.1-4.2,7.8-8.7,11.2-13.5c0.8-21.1,2-44,2.9-60.1L373.9,101.6z"/>
									<path id="Caminho_481" class="st12" d="M373.5,164.5c-2.1,1.3-10.4-9.5-7.6-11.4c12.1-29.4,14.3-30.1,8-52
										c2-8.6-1.7-26.2,1.2-27.1l0.2-4.4c10.1,5.4,10,10.9,13.4,20.7C393.8,105.3,401.3,129.8,373.5,164.5"/>
									<path id="Caminho_482" class="st17" d="M357,166.6c3,1.9,6,3.9,9.2,5.6c1-1.9,4.5-6.5,5.4-9c-1.5-0.2-4.1-2.7-5.4-5.1
										c-2.3,1.1-6.4,2.3-7.1,3.4C358,163.4,357.7,165.7,357,166.6"/>
									<path id="Caminho_483" class="st12" d="M313.8,194.2c0-37.5-4.9-113.3-4.9-113.3c0-4.9,3.7-10.2,8.2-12l15.6-6.1
										c0,0,7.2,87.2-7.2,95.6C324,200.8,313.8,200.5,313.8,194.2"/>
									<path id="Caminho_484" class="st13" d="M325.7,86.5l2.6-8l-2-1.3l1.3-12.6c0,0,4.9-3.4,5.1-2c4.4,28.1,1.4,62.5,1.4,62.5
										L325.7,86.5z"/>
									<path id="Caminho_485" class="st7" d="M316.8,69.5l9.8-3.5l-1,5.5C320.6,71.2,314.3,70.6,316.8,69.5"/>
									<path id="Caminho_486" class="st14" d="M316.9,101.6c-2.5,20.9,1.2,25.6,10,55.1c0.1,0.1,0.3,0.2,0.3,0.4
										c-0.5,0.6-1.1,1.1-1.7,1.5c-0.2,6.5-0.7,12-1.3,16.6c-4.1-4.2-7.8-8.7-11.2-13.5c-0.8-21.1-2-44-2.9-60.1L316.9,101.6z"/>
									<path id="Caminho_487" class="st12" d="M317.3,164.5c2.1,1.3,10.4-9.5,7.6-11.4c-12.1-29.4-14.3-30.1-8-52
										c-2-8.6,1.7-26.2-1.2-27.1l-0.2-4.4c-10.1,5.4-10,10.9-13.4,20.7C297,105.3,289.5,129.8,317.3,164.5"/>
									<path id="Caminho_488" class="st17" d="M333.8,166.6c-3,1.9-6,3.9-9.2,5.6c-1-1.9-4.5-6.5-5.4-9c1.5-0.2,4.1-2.7,5.4-5.1
										c2.3,1.1,6.4,2.3,7.1,3.4C332.8,163.4,333.2,165.7,333.8,166.6"/>
									<path id="Caminho_489" class="st18" d="M123,74.7v-5.9c-0.2-4.7-3.1-9-7.5-10.9l-16.1-6.2V25.7H79.6v26.1l-16.1,6.2
										c-4.4,1.9-7.2,6.1-7.5,10.9v5.9H123z"/>
									<path id="Caminho_490" class="st19" d="M79.6,28.9v14.4c3,5.1,7.1,7.2,10,7.7c3.7,0.8,7.6-0.7,10-3.7V32.5l-10-4.3
										L79.6,28.9z"/>
									<path id="Caminho_491" class="st20" d="M106,20.5c0,22.5-10.4,27-16.5,27S73,43,73,20.5C73,9.2,80.4,2.3,89.5,2.3
										S106,9.2,106,20.5"/>
									<path id="Caminho_492" class="st20" d="M76.2,24.7c0.7,3.6-0.1,6.7-1.8,7c-1.6,0.3-3.5-2.3-4.2-5.9s0.1-6.7,1.8-7
										C73.7,18.5,75.5,21.2,76.2,24.7"/>
									<path id="Caminho_493" class="st20" d="M102.9,24.7c-0.7,3.6,0.1,6.7,1.8,7c1.6,0.3,3.5-2.3,4.2-5.9c0.7-3.6-0.1-6.7-1.8-7
										C105.4,18.5,103.5,21.2,102.9,24.7"/>
									<path id="Caminho_494" class="st18" d="M105.9,18.6C99.4,9.8,80.1,8,73.1,18.7v0C73.1,18.8,86.5,6.6,105.9,18.6"/>
									<path id="Caminho_495" class="st21" d="M104.9,13.5c-0.7,20.7-4.9,30.9-15.4,30.9c-10.6,0-14.6-10.3-15.4-30.9
										c-0.7,2.3-1.1,4.6-1.1,7c0,22.5,10.4,28,16.5,28c6.1,0,16.5-5.5,16.5-28C106,18.1,105.7,15.8,104.9,13.5"/>
									<path id="Caminho_496" class="st22" d="M73.1,4.4v14.4C80,8,99.4,9.8,106,18.6V3.9C102.6-0.6,95.9-7.6,89.2-7.6
										C82.8-7.6,76.4-0.9,73.1,4.4"/>
									<path id="Caminho_497" class="st23" d="M89.2-6.7c-4.2,0-11.9,6-15,11.7v5.4C86.3,3.3,89.2-6.7,89.2-6.7"/>
									<path id="Caminho_498" class="st21" d="M87.6,41.8l-2.5,2.5l2.4,2.4h4.3l2.4-2.4l-2.5-2.5H87.6z"/>
									<path id="Caminho_499" class="st21" d="M83.7,35.3c-1.7,1.7,0,9.7,0,9.7h1.2c0,0-1.4-6.4,0-7.8c1.7-1.7,7.8-1.7,9.5,0
										c1.4,1.4,0,7.8,0,7.8h1.2c0,0,1.7-8,0-9.7C93.4,33.2,85.8,33.2,83.7,35.3"/>
									<path id="Caminho_500" class="st11" d="M65.1,204.5l-2.4,0c2.1,22.4,3.8,40.3,5.5,56.7c0.1,1.5,0.5,8.2,0.7,9.5
										c0.1,1.2-2,7.5-1.9,8.6c0.5,5.3,3,6.9,3,6.9l13.9,0.9l1.4-6.5l-1.1-7.1l1.4-68.5C78.7,204.7,71.9,204.6,65.1,204.5"/>
									<path id="Caminho_501" class="st11" d="M91.6,205l3.2,69.1l-1.4,6.2l2,6.4l12.5,0.2c0,0,2.4-2,2.8-7.3
										c0.1-1.4-1.8-8.4-1.7-10.2c1.5-16.1,4-40.1,6.2-64.2C107.3,205.2,99.4,205.1,91.6,205"/>
									<path id="Caminho_502" class="st22" d="M118.9,219.6c0-18.8-0.1-62.7,2.4-98.3c1.3-17.6,3.6-35.1,6.9-52.5
										c0-4.8-3.9-10.1-8.7-11.8L101,50.2L89.1,74.5L77.9,50.2l-18.6,6.7c-4.8,1.7-8.7,7-8.7,11.8c0,0,4.3,18.7,6.5,53.1
										c2,31.5,2,78,2,97.7C59.2,228.1,118.9,227.9,118.9,219.6"/>
									<path id="Caminho_503" class="st23" d="M98.8,59.2l2.9-7.7l17.5,6.3C123.3,59.4,98.8,59.2,98.8,59.2"/>
									<path id="Caminho_504" class="st23" d="M59.7,57.9l17.5-6.3l5.7,12.2C82.9,63.7,44.6,65.2,59.7,57.9"/>
									<rect id="Retângulo_150" x="100.4" y="77.4" class="st8" width="13.2" height="6.6"/>
									<rect id="Retângulo_151" x="100.7" y="77.7" class="st13" width="12.5" height="5.9"/>
									<rect id="Retângulo_152" x="106.1" y="76.7" class="st14" width="1.7" height="1.5"/>
									<rect id="Retângulo_153" x="101.6" y="78.3" class="st14" width="3.9" height="4.9"/>
									<path id="Caminho_505" class="st15" d="M83.8,295.3c0,2.1-2.4,3.8-5.4,3.8h-3.6c-3,0-5.4-1.7-5.4-3.8v-8.2
										c0-2.1,2.4-2.5,5.4-2.5h3.6c3,0,5.4,0.3,5.4,2.5V295.3z"/>
									<path id="Caminho_506" class="st16" d="M83.8,293.1c0,1.6-2.4,2.9-5.4,2.9h-3.6c-3,0-5.4-1.3-5.4-2.9V287
										c0-1.6,2.4-5,5.4-5h3.6c3,0,5.4,3.4,5.4,5V293.1z"/>
									<path id="Caminho_507" class="st15" d="M108.8,295.3c0,2.1-2.4,3.8-5.4,3.8h-3.6c-3,0-5.4-1.7-5.4-3.8v-8.2
										c0-2.1,2.4-2.5,5.4-2.5h3.6c3,0,5.4,0.3,5.4,2.5V295.3z"/>
									<path id="Caminho_508" class="st16" d="M108.8,293.1c0,1.6-2.4,2.9-5.4,2.9h-3.6c-3,0-5.4-1.3-5.4-2.9V287
										c0-1.6,2.4-5,5.4-5h3.6c3,0,5.4,3.4,5.4,5V293.1z"/>
									<path id="Caminho_509" class="st11" d="M118.9,89.8c2.6,21.4-1.2,26.2-10.2,56.4c-0.1,0.1-4.6,4.6-4.7,4.7
										c3.9,2.5,6.4,6.6,7.1,11.2c2.3-2,5.4-1.5,8.6-6c0.8-21.6,5.3-49.9,6.2-66.3L118.9,89.8z"/>
									<path id="Caminho_510" class="st22" d="M118.5,154.3c-2.1,1.3-10.7-9.8-7.8-11.7c12.4-30.1,14.6-30.9,8.1-53.3
										c2-8.8-1.8-26.8,1.2-27.7l0.2-4.5c10.4,5.5,10.2,11.2,13.7,21.2C139.3,93.6,147,118.7,118.5,154.3"/>
									<path id="Caminho_511" class="st17" d="M101.6,156.4c3.1,2,6.2,4,9.5,5.7c1-1.9,5.1-5.5,6-8.1c-1.1-0.5-4.6-4.5-5.9-6.9
										c-2.3,1.1-6.6,2.9-7.3,3.9C102.7,153.1,102.3,155.5,101.6,156.4"/>
									<path id="Caminho_512" class="st11" d="M60.6,89.8c-3.7,22.8,1.7,31.8,15.6,62.4c0.1,0.1-7.2,5.2-7.7,9.9
										c-2.4,0.3-6.8-2.2-9.9-6.7c-0.8-21.6-4-49.2-4.9-65.6H60.6z"/>
									<path id="Caminho_513" class="st22" d="M61,154.3c2.1,1.3,10.7-9.8,7.8-11.7c-12.4-30.1-14.6-30.9-8.1-53.3
										c-2-8.8,1.8-26.8-1.2-27.7l-0.2-4.5C48.8,62.7,49,68.3,45.5,78.4C40.2,93.6,32.5,118.7,61,154.3"/>
									<path id="Caminho_514" class="st17" d="M77.9,156.4c-3.1,2-6.2,4-9.5,5.7c-1-1.9-5.1-5.5-6-8.1c2.2-1.5,4.5-4.9,5.9-6.9
										c2.3,1.1,6.7,2.9,7.3,3.9C76.9,153.1,77.2,155.5,77.9,156.4"/>
									<path id="Caminho_515" class="st23" d="M76.7,177.1c1.4-6.9,1.2-18.3,1.2-30.7c-3.7,4.2-17.1,10.7-17.1,10.7
										c0,9.8,0.7,16.1,1.9,20L76.7,177.1z"/>
									<path id="Caminho_516" class="st23" d="M102.3,177.1c-1.4-6.9-1.2-18.3-1.2-30.7c3.7,4.2,17.1,10.7,17.1,10.7
										c0,9.8-0.7,16.1-1.9,20L102.3,177.1z"/>
									<path id="Caminho_517" class="st24" d="M178.8,50.9c2.8,0,5.1-2.3,5.1-5.1l0,0c0-0.2,0-0.3,0-0.5c1.3,1.5,3.6,1.6,5.1,0.3
										c0.8-0.7,1.2-1.7,1.2-2.7c0,0,0,0,0,0c2.4,1.5,5.5,0.7,7-1.7c1.1-1.9,0.9-4.3-0.5-6c2-0.1,3.5-1.7,3.5-3.7
										c0-0.2,0-0.3-0.1-0.5c2.6-1.1,3.7-4.1,2.6-6.7c-0.2-0.5-0.5-1-0.9-1.4c2.1-1.2,2.9-3.8,1.7-5.9c-0.4-0.7-0.9-1.3-1.6-1.7
										c2-2,1.9-5.2-0.1-7.2c-0.5-0.5-1.1-0.9-1.8-1.1c0.6-1.9-0.4-3.9-2.3-4.6c-0.3-0.1-0.7-0.2-1-0.2c1.8-2.1,1.6-5.3-0.5-7.2
										c-1.7-1.5-4.1-1.7-6-0.5c0,0,0,0,0,0c0-2-1.6-3.6-3.6-3.6c-1,0-2,0.4-2.7,1.2c0-0.2,0-0.3,0-0.5c0-2.8-2.3-5.1-5.1-5.1
										c-2.1,0-4,1.3-4.7,3.3c-1.1-1.7-3.3-2.1-5-1c-0.6,0.4-1,0.9-1.3,1.5c-1.6-2.3-4.8-2.8-7.1-1.2c-1.3,1-2.1,2.5-2.1,4.1
										c0,0,0,0,0,0.1c-1.9-0.7-3.9,0.2-4.7,2.1c-0.2,0.6-0.3,1.2-0.2,1.8c-2.8-0.6-5.4,1.2-6,4c-0.1,0.3-0.1,0.7-0.1,1
										c0,0.8,0.2,1.6,0.5,2.3c-1.9,0.5-3.1,2.5-2.5,4.4c0.2,0.8,0.7,1.5,1.4,2c-2.1,0.5-3.3,2.7-2.8,4.8c0,0.1,0.1,0.2,0.1,0.3
										c-1.2,1.6-0.9,3.8,0.7,5c-1.8,0-2.7,5.7,1.8,5.7c-1.5,1.3-1.8,3.5-0.5,5.1c0.5,0.6,1.1,1,1.8,1.2c-1.3,2.5-0.3,5.6,2.2,6.8
										c0.7,0.4,1.5,0.5,2.3,0.5c0.3,0,0.7,0,1-0.1c-0.3,2,1.1,3.8,3.1,4c0.6,0.1,1.2,0,1.8-0.2c0,0,0,0,0,0.1
										c0,2.8,2.3,5.1,5.1,5.1c1.6,0,3.2-0.8,4.1-2.1c0.8,1.8,3,2.6,4.8,1.8c0.6-0.3,1.1-0.7,1.5-1.3
										C174.8,49.6,176.7,50.9,178.8,50.9"/>
									<path id="Caminho_518" class="st25" d="M173.9-0.5c-11.2,0-20.3,8.1-20.3,21.2c0,16.4,5,24.6,10.6,28.4
										c1.4-0.2,2.7-0.9,3.5-2.1c0.8,1.8,3,2.6,4.8,1.8c0.6-0.3,1.1-0.7,1.5-1.3c1,2.6,3.9,3.9,6.6,2.9c2-0.8,3.3-2.6,3.3-4.7
										c0-0.2,0-0.3,0-0.5c0.7,0.8,1.7,1.2,2.7,1.2c0,0,0,0,0,0c4.2-4.5,7.6-12.4,7.6-25.8C194.2,7.6,185.1-0.4,173.9-0.5"/>
									<path id="Caminho_519" class="st26" d="M201.4,58.9c-0.9-1.1-2.1-1.9-3.4-2.5l-16.4-6.9V22.7h-15.4v26.7l-16.4,6.9
										c-1.3,0.6-2.5,1.5-3.4,2.5H201.4z"/>
									<path id="Caminho_520" class="st6" d="M166.1,44.3c2.2,2.7,5.4,4.4,8.9,4.4c2.3,0,4.6-0.8,6.5-2.2V22.7h-15.4V44.3z"/>
									<path id="Caminho_521" class="st4" d="M189.8,21c0,21-10,25.2-15.8,25.2s-15.8-4.2-15.8-25.2c0-10.6,7.1-17,15.8-17
										S189.8,10.4,189.8,21"/>
									<path id="Caminho_522" class="st8" d="M187.7,20.8c0-0.3-0.3-0.5-0.5-0.5h-10c-0.8,0-2.1,0.6-3.2,0.6
										c-1.1,0-2.4-0.6-3.2-0.6h-10c-0.3,0-0.5,0.2-0.5,0.5h-2.8v1h2.7c0.3,2.2,1.4,6.3,2,6.3h7.7c0.9,0,2.2-1.9,2.7-3.2
										c0.2-0.8,0.9-1.2,1.7-1.1c0.5,0.1,0.9,0.5,1.1,1.1c0.5,1.2,1.8,3.2,2.7,3.2h7.7c0.6,0,1.6-4,2-6.3h2.7v-1H187.7z
										 M169.9,27.7c-0.7,0-6.7,0-7.3,0c-0.6,0-2.5-6.6-0.9-6.6h8.4C174.5,21.1,170.7,27.7,169.9,27.7 M185.4,27.7
										c-0.6,0-6.6,0-7.3,0s-4.5-6.6-0.1-6.6h8.4C187.9,21.1,186,27.7,185.4,27.7"/>
									<g id="Grupo_495" class="st27">
										<g id="Grupo_494">
											<g>
												<defs>
													<rect id="SVGID_00000167366821528950606680000005424436739620489101_" x="161.1" y="21.1" width="11.1" height="6.6"/>
												</defs>
												<clipPath id="SVGID_00000145776629351843844060000000437209002651821219_">
													<use xlink:href="#SVGID_00000167366821528950606680000005424436739620489101_"  style="overflow:visible;"/>
												</clipPath>
												<g id="Grupo_493" style="clip-path:url(#SVGID_00000145776629351843844060000000437209002651821219_);">
													<path id="Caminho_523" class="st5" d="M169.9,27.7c-0.7,0-6.7,0-7.3,0c-0.6,0-2.5-6.6-0.9-6.6h8.4
														C174.5,21.1,170.7,27.7,169.9,27.7"/>
												</g>
											</g>
										</g>
									</g>
									<g id="Grupo_498" class="st27">
										<g id="Grupo_497">
											<g>
												<defs>
													<rect id="SVGID_00000096767146799564822910000005054148505214892160_" x="175.8" y="21.1" width="11.1" height="6.6"/>
												</defs>
												<clipPath id="SVGID_00000052789334416766761240000017334014525535593150_">
													<use xlink:href="#SVGID_00000096767146799564822910000005054148505214892160_"  style="overflow:visible;"/>
												</clipPath>
												<g id="Grupo_496" style="clip-path:url(#SVGID_00000052789334416766761240000017334014525535593150_);">
													<path id="Caminho_524" class="st5" d="M185.4,27.7c-0.6,0-6.6,0-7.3,0s-4.5-6.6-0.1-6.6h8.4
														C187.9,21.1,186,27.7,185.4,27.7"/>
												</g>
											</g>
										</g>
									</g>
									<path id="Caminho_525" class="st25" d="M174,3.9c-8.8,0-15.8,6.5-15.8,17c0,0.7,0,1.3,0,1.9c0.4-0.7,0.6-1.6,0.4-2.4
										c1.5-0.3,2.7-1.4,3.1-2.9c0.1,0,0.1,0,0.2,0c1.7,0.3,3.5-0.2,4.8-1.4c1.4,1.5,3.6,1.7,5.2,0.5c1.6,2.6,4.9,3.4,7.5,1.8
										c0.3-0.2,0.5-0.3,0.8-0.5c1.1,1.8,3.5,2.4,5.3,1.3c0.7,1.8,2.3,3,4.1,3.3c0,0,0,0,0.1,0c0,0.2,0,0.4,0,0.6
										c0-0.7,0-1.5,0-2.3C189.8,10.4,182.7,3.9,174,3.9"/>
									<path id="Caminho_526" class="st24" d="M199.2,22.8c-0.9-10.3-9-25.2-18.2-26.8c-6.3-1.1-13.7-1.5-19.2,2.4
										c-5.7,4-6.3,8.1-8.1,14.3c-0.4,1.5-0.2,2-0.9,3.3c-0.6,1.1-1.8,1.3-2.1,2.8c-0.4,2.2,1.1,4.2,3.2,4.6
										c2.2,0.4,4.2-1.1,4.6-3.2c0.1-0.4,0.1-0.9,0-1.3c1.5-0.3,2.7-1.4,3.1-2.9c0.1,0,0.1,0,0.2,0c1.7,0.3,3.5-0.2,4.8-1.4
										c1.4,1.5,3.6,1.7,5.2,0.5c1.6,2.6,4.9,3.4,7.5,1.8c0.3-0.2,0.5-0.3,0.7-0.5c1.1,1.8,3.5,2.4,5.3,1.3c0.7,1.8,2.3,3,4.1,3.3
										c0,0,0,0,0.1,0c0,1.4,0.8,2.7,2,3.4c-1,1.9-0.3,4.3,1.6,5.4c1.9,1,4.3,0.3,5.4-1.6c0.2-0.4,0.3-0.8,0.4-1.2
										C199.3,25.6,199.4,24.2,199.2,22.8"/>
									<path id="Caminho_527" class="st30" d="M167.1,6.9c-2,2.4,8.5,4.4,14.8,5c5,0.5,9.3,0.8,5.8-3.6
										C181.2,0.6,168.9,4.6,167.1,6.9"/>
									<path id="Caminho_528" class="st26" d="M154.7,130l18.7,7.5l18.3-6.6c0,0,4.8,14.1,4.8,28.2c0,7-7.1,62.9-7.1,63.4
										l-8.5,66.5l-5.7,3.7l0.4-39.5l0.3-39.7c0,0-0.7-33.7-0.4-42.5c0.1-2.9,1-11.5,1-11.5l-2-0.1l-3.5,0c0,0,1,8.5,1.1,11.4
										c0.4,8.8-0.4,42.5-0.4,42.5l0.4,39.5l-0.2,39.7l-5.7-2.4l-8.3-66.7c0-2.9-7-59.5-7.3-64.5C150,151.9,154.7,130,154.7,130"
										/>
									<path id="Caminho_529" class="st31" d="M194.1,130.3l-0.3-8.1h-41.4l-0.2,7.4c-0.2,0.8-6,20-5.8,26.7
										c0.1,2.5,2.6,18.4,5.2,34.6c1.2,7.3,3.5,17.3,3.5,21.9c0,9.3,36.7,9.3,37.1,0c0.8-16.1,8.6-51.2,8.4-56.3
										C200,143.2,194.1,130.4,194.1,130.3"/>
									<path id="Caminho_530" class="st32" d="M158.8,199.9c-3.4-13.8-7.6-30.4-8.1-33.4c-0.9-6-0.3-22.9,0.2-32.7
										c-1.7,6.2-4.7,17.7-4.6,22.6c0.1,2.5,1.9,18.2,4.5,34.4c1.2,7.3,2.5,15.1,3.5,21.8c0.7,4.7,8.2,6,8.2,6
										C161.6,214.7,160,204.4,158.8,199.9"/>
									<path id="Caminho_531" class="st32" d="M195.5,133.8c0.8,7.5,1.9,20.9,0.6,32.8c-0.7,6.6-9.2,38.7-12.7,52.2
										c0,0,5.7-1,7.9-3.9c3-3.9,9.4-53.3,9.2-58.4C200.2,147.3,197.3,138.4,195.5,133.8"/>
									<path id="Caminho_532" class="st32" d="M164.3,286.5c0,0-3.4,5.6-3.7,7.5c-0.3,1.9-0.9,7.2,0.7,7.9c1.6,0.7,8.1,0.8,9,0.2
										s2.8-4.3,2.9-6.4c0.2-2.1-1.1-10.6-1.1-10.6L164.3,286.5z"/>
									<path id="Caminho_533" class="st26" d="M164.5,285.8c0,0-3.5,7.1-1.2,9.9c0.9,1.1,9.2-1,8.8-10.5
										C171.7,275.7,164.5,285.8,164.5,285.8"/>
									<path id="Caminho_534" class="st32" d="M182.6,286.5c0,0,3.4,5.6,3.7,7.5c0.3,1.9,0.9,7.2-0.7,7.9c-1.6,0.7-8.1,0.8-9,0.2
										c-0.9-0.6-2.8-4.3-3-6.4c-0.2-2.1,1.1-10.6,1.1-10.6L182.6,286.5z"/>
									<path id="Caminho_535" class="st26" d="M182.5,285.8c0,0,3.5,7.1,1.2,9.9c-0.9,1.1-9.2-1-8.8-10.5S182.5,285.8,182.5,285.8
										"/>
									<path id="Caminho_536" class="st31" d="M193.6,124.8l11.8-58.5c0-4.5-3.1-9.5-7-11.2l-16.5-6.9c-2,3.7-4.7,6.9-8,9.5
										c-3.2-2.6-5.9-5.9-7.9-9.5l-16.5,6.9c-3.9,1.6-7,6.6-7,11.2l12.8,58.5H193.6z"/>
									<path id="Caminho_537" class="st12" d="M208,173c-1.6-14.9-10.6-45.3-10.8-57c-0.1-13,9.3-50.3,9.3-50.3
										c0-4.3-3.9-10-8-11.6l-12.9-5l-10.7,54l0.4,84.3C175.4,187.5,209.1,183.5,208,173"/>
									<path id="Caminho_538" class="st13" d="M190.9,56.8l-0.9-5.3l9.2,3.7C203.2,56.6,190.9,56.8,190.9,56.8"/>
									<path id="Caminho_539" class="st13" d="M191.9,71.2l-2.8-4.3l1.5-4.4l-1.8-12.1l-3.2-1.2l-10.2,51.6L191.9,71.2z"/>
									<rect id="Retângulo_156" x="187.7" y="77.6" class="st8" width="13.5" height="6.8"/>
									<rect id="Retângulo_157" x="188.1" y="77.9" class="st13" width="12.8" height="6"/>
									<rect id="Retângulo_158" x="193.6" y="76.9" class="st14" width="1.8" height="1.5"/>
									<rect id="Retângulo_159" x="188.9" y="78.5" class="st14" width="4" height="5"/>
									<g id="Grupo_501" class="st33">
										<g id="Grupo_500">
											<g>
												<defs>
													
														<rect id="SVGID_00000080914752066798508670000010957549575890560916_" x="192.9" y="138.9" width="11.5" height="22.3"/>
												</defs>
												<clipPath id="SVGID_00000054963815832797923880000014912005895349283755_">
													<use xlink:href="#SVGID_00000080914752066798508670000010957549575890560916_"  style="overflow:visible;"/>
												</clipPath>
												<g id="Grupo_499" style="clip-path:url(#SVGID_00000054963815832797923880000014912005895349283755_);">
													<path id="Caminho_540" class="st35" d="M201,138.9c-2.2,4.7-4.7,9.4-7.4,13.8c-2.8,1.9,3.5,9.7,5.5,8.4
														c1.9-2.4,3.7-4.9,5.3-7.3C203.3,148.9,202.1,143.8,201,138.9"/>
												</g>
											</g>
										</g>
									</g>
									<path id="Caminho_541" class="st26" d="M195.8,149.5c-2.3,1.1-6.9,3.5-6.2,4.6c0.9,1.5-2,4.1-3.3,5.7
										c-1.2,1.5,9.1,7.8,11.5,4.8c1.2-1.5,2.7-5.7,3.8-9.4C200,154.9,197.3,152.1,195.8,149.5"/>
									<path id="Caminho_542" class="st13" d="M186.4,151.6c0,0-1.6,28.5,1,28.1c2.6-0.4,13.5-3.4,15.7-7.9s-2.2-14.6-2.2-14.6
										L186.4,151.6z"/>
									<path id="Caminho_543" class="st12" d="M202.3,155.1c-2,1.3-9.6-8-6.9-9.8c20.1-33.7,14.5-37.3,6.8-61.1
										c1.5-9.2-4.7-22.5-1.8-23.3l0-5.5c10.7,6.2,10.9,13,14.9,23.6C221.4,95.1,225.9,125.4,202.3,155.1"/>
									<path id="Caminho_544" class="st12" d="M140.1,173c1.6-14.9,10.6-45.3,10.8-57c0.1-13-9.3-50.3-9.3-50.3
										c0-4.3,3.9-10,8-11.6l12.9-5l14.4,57l-1.5,81.3C175.4,187.5,139,183.5,140.1,173"/>
									<path id="Caminho_545" class="st13" d="M157.2,56.8l0.9-5.3l-9.2,3.7C144.9,56.6,157.2,56.8,157.2,56.8"/>
									<path id="Caminho_546" class="st13" d="M156.2,71.2l2.8-4.3l-1.5-4.4l1.8-12.1l3.2-1.2l14.4,57L156.2,71.2z"/>
									<g id="Grupo_504" class="st33">
										<g id="Grupo_503">
											<g>
												<defs>
													
														<rect id="SVGID_00000057106118301226998150000016606472374787629225_" x="143.7" y="138.9" width="11.5" height="22.3"/>
												</defs>
												<clipPath id="SVGID_00000007403330080460389380000001205814052620797575_">
													<use xlink:href="#SVGID_00000057106118301226998150000016606472374787629225_"  style="overflow:visible;"/>
												</clipPath>
												<g id="Grupo_502" style="clip-path:url(#SVGID_00000007403330080460389380000001205814052620797575_);">
													<path id="Caminho_547" class="st35" d="M147,138.9c2.2,4.7,4.7,9.4,7.4,13.8c2.8,1.9-3.5,9.7-5.5,8.4
														c-1.9-2.4-3.7-4.9-5.3-7.3C144.8,148.9,146,143.8,147,138.9"/>
												</g>
											</g>
										</g>
									</g>
									<path id="Caminho_548" class="st26" d="M152.3,149.5c2.3,1.1,6.9,3.5,6.2,4.6c-0.9,1.5,2,4.1,3.3,5.7
										c1.2,1.5-9.1,7.8-11.5,4.8c-1.2-1.5-2.7-5.7-3.8-9.4C148.1,154.9,150.8,152.1,152.3,149.5"/>
									<path id="Caminho_549" class="st13" d="M161.7,151.6c0,0,1.6,28.5-1,28.1c-2.6-0.4-13.5-3.4-15.7-7.9s2.2-14.6,2.2-14.6
										L161.7,151.6z"/>
									<path id="Caminho_550" class="st12" d="M145.8,155.1c2,1.3,9.6-8,6.9-9.8c-20.1-33.7-14.5-37.3-6.8-61.1
										c-1.5-9.2,4.7-22.5,1.8-23.3l0-5.5c-10.7,6.2-10.9,13-14.9,23.6C126.7,95.1,122.2,125.4,145.8,155.1"/>
									<path id="Caminho_551" class="st14" d="M182.8,95.6c-3.3-3.8-5.5-11-5.5-19.2h0.7c0,7.6,2,14.3,4.9,18V95.6z"/>
									<path id="Caminho_552" class="st14" d="M194.1,94.2c2.8-3.8,4.7-10.4,4.7-17.8h0.7c0,8.1-2.2,15.1-5.4,19L194.1,94.2z"/>
									<path id="Caminho_553" class="st14" d="M193.3,95.5c0,0.3,0.2,0.5,0.5,0.5s0.5-0.2,0.5-0.5c0,0,0,0,0,0v-1.4
										c0-0.3-0.2-0.5-0.5-0.5c-0.3,0-0.5,0.2-0.5,0.5V95.5z"/>
									<path id="Caminho_554" class="st14" d="M182.5,95.5c0,0.3,0.2,0.5,0.5,0.5c0.3,0,0.5-0.2,0.5-0.5v-1.4
										c0-0.3-0.2-0.5-0.5-0.5c-0.3,0-0.5,0.2-0.5,0.5c0,0,0,0,0,0V95.5z"/>
									<path id="Caminho_555" class="st14" d="M191.6,94.9c0,0.5,0.4,0.9,0.9,0.9h0.1c0.5,0,0.9-0.4,0.9-0.9
										c0-0.5-0.4-0.9-0.9-0.9h-0.1C192,94.1,191.6,94.5,191.6,94.9"/>
									<path id="Caminho_556" class="st14" d="M183.2,94.9c0,0.5,0.4,0.9,0.9,0.9h0.1c0.5,0,0.9-0.4,0.9-0.9
										c0-0.5-0.4-0.9-0.9-0.9l0,0h-0.1C183.6,94.1,183.2,94.5,183.2,94.9"/>
									<path id="Caminho_557" class="st8" d="M178.2,76.9v-0.3c0-11.6,4.6-21,10.1-21c5.5,0,10.1,9.4,10.1,21v0.3h1.4v-0.3
										c0-12.4-5.2-22.5-11.5-22.5s-11.4,10.1-11.4,22.5v0.3H178.2z"/>
									<path id="Caminho_558" class="st8" d="M182.5,47.1c2.9,1.9,5.2,4.7,6.5,8h-1.1c-1.1-2.7-3-5-5.3-6.6V47.1z"/>
									<path id="Caminho_559" class="st8" d="M158.5,89.7l1.2,0c-1.7-15.8,2.6-39.4,5-41.1v-1.3C161.7,49.2,157.3,67.9,158.5,89.7
										"/>
									<path id="Caminho_560" class="st8" d="M159.1,103.7c4,0,7.3-3.2,7.3-7.2c0-4-3.2-7.3-7.2-7.3c-4,0-7.3,3.2-7.3,7.2
										c0,0,0,0,0,0C151.9,100.4,155.1,103.7,159.1,103.7"/>
									<path id="Caminho_561" class="st14" d="M165.9,96.4c0-3.7-3-6.8-6.8-6.8c-3.7,0-6.8,3-6.8,6.8c0,3.7,3,6.8,6.8,6.8l0,0
										C162.9,103.2,165.9,100.2,165.9,96.4"/>
									<path id="Caminho_562" class="st37" d="M160.8,96.4c0-0.9-0.7-1.6-1.6-1.6c-0.9,0-1.6,0.7-1.6,1.6c0,0.9,0.7,1.6,1.6,1.6
										C160,98.1,160.8,97.3,160.8,96.4L160.8,96.4"/>
									<path id="Caminho_563" class="st12" d="M156.3,97.7c1.2,1.6,3.4,1.9,5,0.7c0.3-0.2,0.5-0.4,0.7-0.7h2.2
										c-0.2,2.8-2.6,4.8-5.4,4.6c-2.5-0.2-4.4-2.2-4.6-4.6H156.3z"/>
									<path id="Caminho_564" class="st14" d="M355.4,107.8c-3.3-3.8-5.5-11-5.5-19.2h0.7c0,7.6,2,14.3,4.9,18L355.4,107.8z"/>
									<path id="Caminho_565" class="st14" d="M366.7,106.4c2.8-3.8,4.7-10.4,4.7-17.8h0.7c0,8.1-2.2,15.1-5.4,19V106.4z"/>
									<path id="Caminho_566" class="st14" d="M366,107.7c0,0.3,0.2,0.5,0.5,0.5c0.3,0,0.5-0.2,0.5-0.5v-1.4
										c0-0.3-0.2-0.5-0.5-0.5c-0.3,0-0.5,0.2-0.5,0.5V107.7z"/>
									<path id="Caminho_567" class="st14" d="M355.2,107.7c0,0.3,0.2,0.5,0.5,0.5c0.3,0,0.5-0.2,0.5-0.5v-1.4
										c0-0.3-0.2-0.5-0.5-0.5c-0.3,0-0.5,0.2-0.5,0.5V107.7z"/>
									<path id="Caminho_568" class="st14" d="M364.3,107.2c0,0.5,0.4,0.9,0.9,0.9h0.1c0.5,0,0.9-0.4,0.9-0.9
										c0-0.5-0.4-0.9-0.9-0.9h-0.1C364.7,106.3,364.3,106.7,364.3,107.2"/>
									<path id="Caminho_569" class="st14" d="M355.9,107.2c0,0.5,0.4,0.9,0.9,0.9h0.1c0.5,0,0.9-0.4,0.9-0.9
										c0-0.5-0.4-0.9-0.9-0.9h-0.1C356.3,106.3,355.9,106.7,355.9,107.2"/>
									<path id="Caminho_570" class="st8" d="M350.9,89.1v-0.3c0-11.6,4.6-21,10.1-21s10.1,9.4,10.1,21v0.3h1.4v-0.3
										c0-12.4-5.2-22.5-11.5-22.5c-6.3,0-11.4,10.1-11.4,22.5v0.3L350.9,89.1z"/>
									<path id="Caminho_571" class="st8" d="M355.1,59.4c2.9,1.9,5.2,4.7,6.5,8h-1.1c-1.1-2.7-3-5-5.3-6.6V59.4z"/>
									<path id="Caminho_572" class="st8" d="M330.3,101.1l1.2,0c-1.7-15.8,2.6-39.4,5-41.1v-1.3
										C333.5,60.6,329.1,79.3,330.3,101.1"/>
									<path id="Caminho_573" class="st8" d="M331,115.1c4,0,7.3-3.2,7.3-7.3c0-4-3.2-7.3-7.3-7.3c-4,0-7.3,3.2-7.3,7.3
										c0,0,0,0,0,0C323.7,111.8,327,115.1,331,115.1"/>
									<path id="Caminho_574" class="st14" d="M337.7,107.8c0-3.7-3-6.8-6.8-6.8c-3.7,0-6.8,3-6.8,6.8c0,3.7,3,6.8,6.8,6.8l0,0
										C334.7,114.6,337.7,111.6,337.7,107.8"/>
									<path id="Caminho_575" class="st37" d="M332.6,107.8c0-0.9-0.7-1.6-1.6-1.6c-0.9,0-1.6,0.7-1.6,1.6c0,0.9,0.7,1.6,1.6,1.6
										C331.9,109.5,332.6,108.7,332.6,107.8L332.6,107.8"/>
									<path id="Caminho_576" class="st12" d="M328.1,109.1c1.2,1.6,3.4,1.9,5,0.7c0.3-0.2,0.5-0.4,0.7-0.7h2.2
										c-0.2,2.8-2.6,4.8-5.4,4.6c-2.5-0.2-4.4-2.2-4.6-4.6H328.1z"/>
									<path id="Caminho_577" class="st12" d="M231.8,219.1c-0.9,0-1.8,0-2.7-0.1c2.3,24.7,4.2,44.5,6,62.7
										c0.2,1.6,0.6,9,0.7,10.5c0.1,1.3-2.2,8.3-2.1,9.4c0.6,5.8,3.3,7.6,3.3,7.6l15.3,1l1.5-7.2l-1.2-7.9l1.6-75.6
										C246.8,219.4,239.3,219.2,231.8,219.1"/>
									<path id="Caminho_578" class="st12" d="M261,219.6l3.5,76.3l-1.5,6.9l2.2,7.1l13.8,0.2c0,0,2.6-2.2,3.1-8
										c0.1-1.6-2-9.3-1.9-11.2c1.6-17.8,4.5-44.3,6.9-70.8C278.4,219.9,269.7,219.8,261,219.6"/>
									<path id="Caminho_579" class="st3" d="M297.2,63.7c-1.5-3.3-4.2-5.9-7.5-7.4l-19.1-7.4v-31h-23.7v31l-19.1,7.4
										c-3.3,1.4-6,4.1-7.5,7.4l38.1,16.1L297.2,63.7z"/>
									<path id="Caminho_580" class="st4" d="M278.3,11.8c0,26.8-12.3,32.1-19.6,32.1c-7.3,0-19.6-5.4-19.6-32.1
										c0-13.5,8.8-21.7,19.6-21.7C269.5-9.9,278.3-1.7,278.3,11.8"/>
									<path id="Caminho_581" class="st4" d="M242.8,16.8c0.8,4.2-0.1,8-2.1,8.3c-2,0.4-4.2-2.8-5-7s0.1-8,2.1-8.3
										S242,12.6,242.8,16.8"/>
									<path id="Caminho_582" class="st4" d="M274.6,16.8c-0.8,4.2,0.1,8,2.1,8.3c2,0.4,4.2-2.8,5-7s-0.1-8-2.1-8.3
										C277.6,9.5,275.4,12.6,274.6,16.8"/>
									<path id="Caminho_583" class="st31" d="M239.1-13.5V9.8c8.3-12.9,31.4-10.7,39.2-0.2v-23.7
										C270.5-24.6,247.4-26.5,239.1-13.5"/>
									<path id="Caminho_584" class="st31" d="M291.3,235.8c0-20.8-0.2-69.2,2.7-108.6c1.4-19.5,4-38.8,7.7-58
										c0-5.3-4.3-11.1-9.6-13l-20.5-7.4l-13.1,26.7l-12.5-26.7l-20.5,7.4c-5.3,1.9-9.6,7.8-9.6,13c0,0,4.8,20.6,7.2,58.6
										c2.3,34.8,2.2,86.1,2.2,107.8C225.3,245.2,291.3,245,291.3,235.8"/>
									<path id="Caminho_585" class="st38" d="M258.4-20.6c-7.1,0-14.1,2.4-17.9,7.9v6.4L258.4-20.6z"/>
									<path id="Caminho_586" class="st38" d="M269,58.7l3.2-8.5l19.4,7C296.1,58.8,269,58.7,269,58.7"/>
									<path id="Caminho_587" class="st38" d="M225.8,57.2l19.4-7l6.3,13.5C251.5,63.6,209.2,65.3,225.8,57.2"/>
									<path id="Caminho_588" class="st3" d="M278.2,9.5c-7.8-10.5-30.7-12.6-39.1,0.1v0C239.2,9.7,255.1-4.8,278.2,9.5"/>
									<path id="Caminho_589" class="st6" d="M246.9,21.8V39c3.6,6,8.5,8.6,11.8,9.2c4.5,0.9,9-0.8,11.8-4.4V26l-11.8-5.1
										L246.9,21.8z"/>
									<path id="Caminho_590" class="st5" d="M239.1,8.9l-0.9,0.9l3,12.1l0.6-2L239.1,8.9z"/>
									<path id="Caminho_591" class="st5" d="M278.2,8.9l0.9,0.9l-3,12.1l-0.6-2L278.2,8.9z"/>
									<path id="Caminho_592" class="st8" d="M275.6,8.6C275.6,8.3,275.3,8,275,8h-12.4c-1,0-2.6,0.7-4,0.7c-1.4,0-3-0.7-4-0.7
										h-12.4c-0.3,0-0.6,0.2-0.7,0.5H238v1.1h3.4c0.4,2.6,1.8,7.3,2.4,7.3h9.6c1.1,0,2.8-2.3,3.4-3.7c0.3-0.9,1.3-1.5,2.2-1.2
										c0.6,0.2,1,0.6,1.2,1.2c0.6,1.4,2.2,3.7,3.4,3.7h9.6c0.7,0,2.1-4.7,2.4-7.3h3.4V8.6H275.6z M253.5,16.6c-0.9,0-8.4,0-9.1,0
										S241.3,9,243.2,9h10.4C259.2,9,254.4,16.6,253.5,16.6 M272.7,16.6c-0.8,0-8.2,0-9.1,0S257.9,9,263.5,9h10.4
										C275.8,9,273.5,16.6,272.7,16.6"/>
									<g id="Grupo_507" class="st27">
										<g id="Grupo_506">
											<g>
												<defs>
													<rect id="SVGID_00000098222540115316671160000013953506790722885028_" x="242.5" y="9" width="13.8" height="7.7"/>
												</defs>
												<clipPath id="SVGID_00000018215101133403465350000004959161084021305786_">
													<use xlink:href="#SVGID_00000098222540115316671160000013953506790722885028_"  style="overflow:visible;"/>
												</clipPath>
												<g id="Grupo_505" style="clip-path:url(#SVGID_00000018215101133403465350000004959161084021305786_);">
													<path id="Caminho_593" class="st5" d="M253.5,16.6c-0.9,0-8.4,0-9.1,0S241.3,9,243.2,9h10.4
														C259.2,9,254.4,16.6,253.5,16.6"/>
												</g>
											</g>
										</g>
									</g>
									<g id="Grupo_510" class="st27">
										<g id="Grupo_509">
											<g>
												<defs>
													<rect id="SVGID_00000139989023278227341460000000364138725992152729_" x="260.8" y="9" width="13.8" height="7.7"/>
												</defs>
												<clipPath id="SVGID_00000160897143990228078380000003379709094638275768_">
													<use xlink:href="#SVGID_00000139989023278227341460000000364138725992152729_"  style="overflow:visible;"/>
												</clipPath>
												<g id="Grupo_508" style="clip-path:url(#SVGID_00000160897143990228078380000003379709094638275768_);">
													<path id="Caminho_594" class="st5" d="M272.7,16.6c-0.8,0-8.2,0-9.1,0S257.9,9,263.5,9h10.4
														C275.8,9,273.5,16.6,272.7,16.6"/>
												</g>
											</g>
										</g>
									</g>
									<path id="Caminho_595" class="st5" d="M276.4,19.9l-17.7-4l-17.7,4c0.6,5.7,2.2,14,2.2,14c4.2,7.8,11,10,15.5,10
										c6.5,0,12.5-3.6,15.5-9.3C274.2,34.6,275.8,25.6,276.4,19.9"/>
									<path id="Caminho_596" class="st7" d="M258.7,16.8v7.7c0,0-14.4,3.5-16.7-3.8L258.7,16.8z"/>
									<rect id="Retângulo_164" x="270.8" y="78.7" class="st8" width="14.5" height="7.3"/>
									<rect id="Retângulo_165" x="271.2" y="79.1" class="st13" width="13.8" height="6.5"/>
									<rect id="Retângulo_166" x="277.1" y="77.9" class="st14" width="1.9" height="1.6"/>
									<rect id="Retângulo_167" x="272.1" y="79.7" class="st14" width="4.4" height="5.4"/>
									<path id="Caminho_597" class="st15" d="M252.5,319.4c0,2.3-2.7,4.2-6,4.2h-4c-3.3,0-6-1.9-6-4.2v-9c0-2.3,2.7-2.7,6-2.7h4
										c3.3,0,6,0.4,6,2.7V319.4z"/>
									<path id="Caminho_598" class="st16" d="M252.5,317c0,1.7-2.7,3.2-6,3.2h-4c-3.3,0-6-1.4-6-3.2v-6.7c0-1.7,2.7-5.5,6-5.5h4
										c3.3,0,6,3.8,6,5.5V317z"/>
									<path id="Caminho_599" class="st15" d="M280.1,319.4c0,2.3-2.7,4.2-6,4.2h-4c-3.3,0-6-1.9-6-4.2v-9c0-2.3,2.7-2.7,6-2.7h4
										c3.3,0,6,0.4,6,2.7L280.1,319.4z"/>
									<path id="Caminho_600" class="st16" d="M280.1,317c0,1.7-2.7,3.2-6,3.2h-4c-3.3,0-6-1.4-6-3.2v-6.7c0-1.7,2.7-5.5,6-5.5h4
										c3.3,0,6,3.8,6,5.5L280.1,317z"/>
									<path id="Caminho_601" class="st32" d="M216.1,70.2c0,0.1-0.1,0.3-0.1,0.4c1,6,4.9,31.8,7.3,60.8
										c18.3-2.4,59.1-14,64.6-15.7c-1.4-6.8-14.9-12.7-14.9-12.7s-44.7,4.2-44.5,0.6c0.2-3.5,2.5-22.6,2.5-22.6L216.1,70.2z"/>
									<path id="Caminho_602" class="st31" d="M216.1,66.7c-5.7,18.8-15.3,56.2-7.8,60.9c7.5,4.7,65.3-11.1,73-13.4
										c-1.4-6.8-8.5-9-8.5-9s-48.3,6.7-48.1,3.2c0.2-3.5,6.8-28.9,6.8-28.9L216.1,66.7z"/>
									<path id="Caminho_603" class="st32" d="M301.2,70.2c0,0.1,0.1,0.3,0.1,0.4c-1,6-5.5,35.7-7.9,64.6
										c-18.3-2.4-49.4-20.5-54.9-22.2c1.4-6.8,3.7-9.3,3.7-9.3s48.3,11.4,48.1,7.9c-0.2-3.5-4.1-30.6-4.1-30.6L301.2,70.2z"/>
									<path id="Caminho_604" class="st31" d="M301.2,66.7c5.7,18.8,15.3,56.2,7.8,60.9c-7.5,4.7-60.8-13.7-68.6-16.1
										c1.4-6.8,2.9-12.8,2.9-12.8s46.6,9.8,49.2,10.4c3.1,0.6-0.1-3.9-6.8-29.7L301.2,66.7z"/>
									<path id="Caminho_605" class="st38" d="M244.2,100.8c1,0.7,42,7.9,49.7,8.7C317.8,120.7,264.5,111.7,244.2,100.8"/>
									<path id="Caminho_606" class="st13" d="M303.7,104.3c-3.7-3.2-8.2-5.2-13-5.6l-0.4-1.8c-2.3-0.2-17.4,8.3-17.4,8.3
										s22.2,3.5,27,6.2C302.1,112.6,307.3,107.3,303.7,104.3"/>
									<path id="Caminho_607" class="st41" d="M291,99.3c6.4,2.7,13.2,8.5,13,6.7C303.9,104.2,297.9,99.7,291,99.3"/>
									<path id="Caminho_608" class="st13" d="M236.4,95.3l-5.2,1.2c0,0-1-0.6-4,0.1c-1,4.4-1.8,8-1.9,9.2c0,0.2,0.1,0.3,0.2,0.4
										c6.2-0.4,15.6,2,15.6,2l2.2-9.5C243.3,98.8,238.6,95.8,236.4,95.3"/>
									<path id="Caminho_609" class="st41" d="M226.9,97.6c-0.2,0.7-0.3,1.4-0.5,2c2.8-0.9,5.6-1.5,8.4-1.9
										C232.2,97.1,229.5,97.1,226.9,97.6"/>
								</g>
							</g>
						</g>
					</g>
				</g>
			</g>
		</g>
	</g>
</g>
</svg>
