<?xml version="1.0" encoding="UTF-8"?><svg id="Camada_1" xmlns="http://www.w3.org/2000/svg" xmlns:xlink="http://www.w3.org/1999/xlink" viewBox="0 0 593.99 159.03"><defs><style>.cls-1{fill:#fff;}.cls-2{fill:#294667;}.cls-3{fill:#108041;}.cls-4{fill:#6dafcc;}.cls-5{fill:none;}.cls-6{fill:#1b8790;}</style><clipPath id="clippath"><rect class="cls-5" x="1.25" y="3.76" width="594" height="159"/></clipPath><clipPath id="clippath-1"><rect class="cls-5" x="1.25" y="3.76" width="148" height="159"/></clipPath><clipPath id="clippath-3"><rect class="cls-5" x="1.25" y="3.76" width="594" height="159"/></clipPath><clipPath id="clippath-4"><rect class="cls-5" x="280.36" y="3.76" width="148" height="159"/></clipPath></defs><g><rect class="cls-5" x="1.25" y="3.76" width="594" height="159"/><path class="cls-6" d="M88.05,41.96h211l17.4,33.2-17.4,33.2H88.05l17.4-33.2-17.4-33.2Z"/><path class="cls-1" d="M108.45,75.16l-24.5,46.8H26.25l24.5-46.8L26.25,28.36h57.7l24.5,46.8Z"/><path class="cls-3" d="M92.45,75.16l-19.5,37.2h-9.7l19.5-37.2-19.5-37.3h9.6l19.6,37.3Z"/><path class="cls-6" d="M74.95,75.16l-19.5,37.2h-9.6l19.4-37.2-19.5-37.3h9.6l19.6,37.3Z"/><path class="cls-2" d="M366.85,41.96l17.4,33.2-17.4,33.2h211l17.4-33.2-17.4-33.2h-211Z"/><path class="cls-1" d="M387.25,75.16l-24.5,46.8h-57.7l24.5-46.8-24.5-46.8h57.7l24.5,46.8Z"/><path class="cls-4" d="M371.25,75.16l-19.5,37.2h-9.6l19.5-37.2-19.5-37.2h9.6l19.5,37.2Z"/><path class="cls-2" d="M353.75,75.16l-19.5,37.2h-9.6l19.5-37.2-19.5-37.2h9.6l19.5,37.2Z"/></g><g><path class="cls-1" d="M412.22,63.89c-.25,.46-.63,.83-1.16,1.11s-1.19,.42-2,.42h-1.64v3.75h-1.96v-9.77h3.6c.76,0,1.4,.13,1.93,.39,.53,.26,.93,.62,1.2,1.08,.27,.46,.4,.98,.4,1.55,0,.52-.12,1.01-.37,1.47Zm-2.04-.43c.26-.25,.39-.59,.39-1.04,0-.95-.53-1.43-1.6-1.43h-1.55v2.84h1.55c.54,0,.94-.12,1.2-.37Z"/><path class="cls-1" d="M416.93,61.65c.41-.23,.87-.35,1.39-.35v2.06h-.52c-.62,0-1.08,.14-1.39,.43s-.47,.79-.47,1.51v3.86h-1.96v-7.76h1.96v1.2c.25-.41,.58-.73,.99-.97Z"/><path class="cls-1" d="M421.07,68.8c-.6-.33-1.07-.8-1.41-1.41-.34-.61-.51-1.31-.51-2.1s.17-1.49,.52-2.1c.35-.61,.83-1.08,1.44-1.41,.61-.33,1.28-.5,2.03-.5s1.42,.17,2.03,.5,1.08,.8,1.44,1.41c.35,.61,.52,1.31,.52,2.1s-.18,1.49-.54,2.1c-.36,.61-.84,1.08-1.46,1.41s-1.29,.5-2.05,.5-1.42-.17-2.02-.5Zm3.02-1.47c.31-.17,.56-.43,.75-.78,.19-.34,.28-.76,.28-1.26,0-.74-.19-1.3-.58-1.7-.39-.4-.86-.59-1.42-.59s-1.03,.2-1.41,.59-.57,.96-.57,1.7,.18,1.3,.55,1.7c.37,.4,.83,.59,1.39,.59,.35,0,.69-.09,1-.26Z"/><path class="cls-1" d="M435.11,62.18c.57,.58,.85,1.4,.85,2.44v4.55h-1.96v-4.28c0-.62-.15-1.09-.46-1.42-.31-.33-.73-.5-1.26-.5s-.97,.17-1.28,.5-.47,.8-.47,1.42v4.28h-1.96v-7.76h1.96v.97c.26-.34,.59-.6,1-.79s.85-.29,1.34-.29c.92,0,1.67,.29,2.24,.88Z"/><path class="cls-1" d="M440.11,63.02v3.75c0,.26,.06,.45,.19,.57,.13,.12,.34,.17,.64,.17h.91v1.65h-1.23c-1.65,0-2.48-.8-2.48-2.41v-3.74h-.92v-1.61h.92v-1.92h1.97v1.92h1.74v1.61h-1.74Z"/><path class="cls-1" d="M450.58,61.41v7.76h-1.97v-.98c-.25,.34-.58,.6-.99,.79-.41,.19-.85,.29-1.32,.29-.61,0-1.14-.13-1.61-.38s-.83-.63-1.1-1.13c-.27-.5-.4-1.09-.4-1.79v-4.55h1.96v4.27c0,.62,.15,1.09,.46,1.42,.31,.33,.73,.5,1.26,.5s.97-.17,1.27-.5c.31-.33,.46-.8,.46-1.42v-4.27h1.97Z"/><path class="cls-1" d="M452.47,63.18c.31-.61,.74-1.07,1.27-1.4,.54-.33,1.14-.49,1.8-.49,.58,0,1.08,.12,1.52,.35,.43,.23,.78,.53,1.04,.88v-1.11h1.97v7.76h-1.97v-1.13c-.25,.36-.6,.67-1.04,.9-.44,.24-.95,.36-1.53,.36-.65,0-1.25-.17-1.79-.5-.54-.34-.96-.81-1.27-1.42s-.47-1.31-.47-2.11,.16-1.48,.47-2.09Zm5.36,.89c-.19-.34-.44-.6-.76-.78-.32-.18-.66-.27-1.02-.27s-.7,.09-1.01,.27c-.31,.18-.56,.44-.75,.78s-.29,.74-.29,1.21,.1,.88,.29,1.23c.19,.35,.44,.62,.76,.8s.65,.28,1,.28,.7-.09,1.02-.27c.32-.18,.57-.44,.76-.78,.19-.34,.28-.75,.28-1.22s-.09-.88-.28-1.22Zm.01-4.67l-3.22,1.47v-1.4l3.22-1.67v1.6Z"/><path class="cls-1" d="M464.95,61.65c.41-.23,.87-.35,1.39-.35v2.06h-.52c-.62,0-1.08,.14-1.39,.43s-.47,.79-.47,1.51v3.86h-1.96v-7.76h1.96v1.2c.25-.41,.58-.73,.99-.97Z"/><path class="cls-1" d="M467.79,60.16c-.23-.22-.34-.49-.34-.82s.11-.6,.34-.82c.23-.22,.52-.33,.86-.33s.63,.11,.86,.33c.23,.22,.34,.49,.34,.82s-.11,.6-.34,.82c-.23,.22-.52,.33-.86,.33s-.63-.11-.86-.33Zm1.83,1.25v7.76h-1.96v-7.76h1.96Z"/><path class="cls-1" d="M472.98,68.8c-.6-.33-1.07-.8-1.41-1.41-.34-.61-.51-1.31-.51-2.1s.17-1.49,.53-2.1c.35-.61,.83-1.08,1.43-1.41s1.28-.5,2.03-.5,1.42,.17,2.03,.5c.61,.33,1.08,.8,1.43,1.41,.35,.61,.53,1.31,.53,2.1s-.18,1.49-.54,2.1c-.36,.61-.84,1.08-1.46,1.41s-1.29,.5-2.05,.5-1.42-.17-2.02-.5Zm3.02-1.47c.31-.17,.56-.43,.75-.78,.19-.34,.28-.76,.28-1.26,0-.74-.19-1.3-.58-1.7-.39-.4-.86-.59-1.42-.59s-1.03,.2-1.41,.59c-.38,.4-.57,.96-.57,1.7s.18,1.3,.55,1.7,.83,.59,1.39,.59c.35,0,.69-.09,1-.26Z"/><path class="cls-1" d="M490.97,65.88h-5.67c.05,.56,.24,1,.59,1.32,.34,.32,.77,.48,1.27,.48,.73,0,1.25-.31,1.55-.94h2.11c-.22,.75-.65,1.36-1.29,1.84s-1.41,.72-2.34,.72c-.75,0-1.42-.17-2.01-.5s-1.05-.8-1.39-1.41c-.33-.61-.5-1.31-.5-2.1s.16-1.51,.49-2.11c.33-.61,.78-1.07,1.37-1.4,.59-.33,1.26-.49,2.03-.49s1.4,.16,1.98,.48c.58,.32,1.04,.77,1.36,1.35,.32,.58,.48,1.25,.48,2.01,0,.28-.02,.53-.06,.76Zm-1.97-1.32c0-.5-.19-.91-.55-1.21-.35-.3-.79-.46-1.3-.46-.49,0-.89,.15-1.22,.44-.33,.29-.54,.7-.61,1.22h3.68Z"/><path class="cls-1" d="M494.41,58.81v10.36h-1.96v-10.36h1.96Z"/><path class="cls-1" d="M503.5,65.88h-5.67c.05,.56,.24,1,.59,1.32s.77,.48,1.27,.48c.73,0,1.25-.31,1.55-.94h2.11c-.22,.75-.65,1.36-1.29,1.84s-1.41,.72-2.34,.72c-.75,0-1.42-.17-2.01-.5-.59-.33-1.06-.8-1.39-1.41-.33-.61-.5-1.31-.5-2.1s.16-1.51,.49-2.11c.33-.61,.78-1.07,1.37-1.4,.59-.33,1.26-.49,2.03-.49s1.4,.16,1.98,.48,1.04,.77,1.36,1.35c.32,.58,.48,1.25,.48,2.01,0,.28-.02,.53-.06,.76Zm-1.97-1.32c0-.5-.19-.91-.55-1.21-.36-.3-.79-.46-1.3-.46-.49,0-.89,.15-1.22,.44s-.53,.7-.61,1.22h3.68Z"/><path class="cls-1" d="M507.26,63.02v3.75c0,.26,.06,.45,.19,.57,.13,.12,.34,.17,.64,.17h.91v1.65h-1.23c-1.65,0-2.48-.8-2.48-2.41v-3.74h-.92v-1.61h.92v-1.92h1.97v1.92h1.74v1.61h-1.74Z"/><path class="cls-1" d="M513.36,61.65c.41-.23,.87-.35,1.39-.35v2.06h-.52c-.62,0-1.08,.14-1.39,.43-.31,.29-.47,.79-.47,1.51v3.86h-1.96v-7.76h1.96v1.2c.25-.41,.58-.73,.99-.97Z"/><path class="cls-1" d="M517.5,68.8c-.6-.33-1.07-.8-1.41-1.41-.34-.61-.51-1.31-.51-2.1s.17-1.49,.52-2.1c.35-.61,.83-1.08,1.44-1.41,.61-.33,1.28-.5,2.03-.5s1.42,.17,2.03,.5,1.08,.8,1.44,1.41c.35,.61,.52,1.31,.52,2.1s-.18,1.49-.54,2.1c-.36,.61-.84,1.08-1.46,1.41s-1.29,.5-2.05,.5-1.42-.17-2.02-.5Zm2.16-9.21l-2.09,1.18v-1.43l2.09-1.13,2.07,1.13v1.43l-2.07-1.18Zm.86,7.74c.31-.17,.56-.43,.75-.78,.19-.34,.28-.76,.28-1.26,0-.74-.19-1.3-.58-1.7-.39-.4-.86-.59-1.42-.59s-1.03,.2-1.41,.59-.57,.96-.57,1.7,.18,1.3,.55,1.7c.37,.4,.83,.59,1.39,.59,.35,0,.69-.09,1-.26Z"/><path class="cls-1" d="M531.54,62.18c.57,.58,.85,1.4,.85,2.44v4.55h-1.96v-4.28c0-.62-.15-1.09-.46-1.42-.31-.33-.73-.5-1.26-.5s-.97,.17-1.28,.5c-.31,.33-.47,.8-.47,1.42v4.28h-1.96v-7.76h1.96v.97c.26-.34,.6-.6,1-.79,.41-.19,.85-.29,1.34-.29,.92,0,1.67,.29,2.24,.88Z"/><path class="cls-1" d="M534.39,60.16c-.23-.22-.34-.49-.34-.82s.11-.6,.34-.82c.23-.22,.52-.33,.86-.33s.63,.11,.86,.33c.23,.22,.34,.49,.34,.82s-.11,.6-.34,.82c-.23,.22-.52,.33-.86,.33s-.63-.11-.86-.33Zm1.83,1.25v7.76h-1.96v-7.76h1.96Z"/><path class="cls-1" d="M538.13,63.18c.33-.6,.78-1.07,1.36-1.4s1.24-.5,1.99-.5c.96,0,1.76,.24,2.39,.72s1.05,1.16,1.27,2.02h-2.11c-.11-.34-.3-.6-.57-.79-.27-.19-.59-.29-.99-.29-.56,0-1,.2-1.33,.61-.33,.41-.49,.98-.49,1.73s.16,1.31,.49,1.71c.33,.41,.77,.61,1.33,.61,.79,0,1.31-.35,1.55-1.06h2.11c-.21,.84-.64,1.51-1.27,2-.63,.5-1.43,.74-2.38,.74-.75,0-1.41-.17-1.99-.5s-1.03-.8-1.36-1.4c-.33-.6-.49-1.3-.49-2.11s.16-1.5,.49-2.11Z"/><path class="cls-1" d="M548,68.8c-.6-.33-1.07-.8-1.41-1.41-.34-.61-.51-1.31-.51-2.1s.17-1.49,.53-2.1c.35-.61,.83-1.08,1.43-1.41s1.28-.5,2.03-.5,1.42,.17,2.03,.5c.61,.33,1.08,.8,1.43,1.41,.35,.61,.53,1.31,.53,2.1s-.18,1.49-.54,2.1c-.36,.61-.84,1.08-1.46,1.41s-1.29,.5-2.05,.5-1.42-.17-2.02-.5Zm3.02-1.47c.31-.17,.56-.43,.75-.78,.19-.34,.28-.76,.28-1.26,0-.74-.19-1.3-.58-1.7-.39-.4-.86-.59-1.42-.59s-1.03,.2-1.41,.59c-.38,.4-.57,.96-.57,1.7s.18,1.3,.55,1.7,.83,.59,1.39,.59c.35,0,.69-.09,1-.26Z"/><path class="cls-1" d="M405.43,79.98c.31-.61,.74-1.07,1.28-1.4,.54-.33,1.14-.49,1.81-.49,.5,0,.98,.11,1.44,.33,.46,.22,.82,.51,1.09,.88v-3.68h1.99v10.36h-1.99v-1.15c-.24,.38-.58,.69-1.02,.92-.44,.23-.95,.35-1.53,.35-.65,0-1.25-.17-1.79-.5-.54-.34-.97-.81-1.28-1.42s-.47-1.31-.47-2.11,.16-1.48,.47-2.09Zm5.36,.89c-.19-.34-.44-.6-.76-.78-.32-.18-.66-.27-1.02-.27s-.7,.09-1.01,.27c-.31,.18-.56,.44-.75,.78s-.29,.74-.29,1.21,.1,.88,.29,1.23c.19,.35,.44,.62,.76,.8s.65,.28,1,.28,.7-.09,1.02-.27c.32-.18,.57-.44,.76-.78,.19-.34,.28-.75,.28-1.22s-.09-.88-.28-1.22Z"/><path class="cls-1" d="M416.39,85.6c-.6-.33-1.07-.8-1.41-1.41-.34-.61-.51-1.31-.51-2.1s.17-1.49,.52-2.1c.35-.61,.83-1.08,1.44-1.41,.61-.33,1.28-.5,2.03-.5s1.42,.17,2.03,.5,1.08,.8,1.44,1.41c.35,.61,.52,1.31,.52,2.1s-.18,1.49-.54,2.1c-.36,.61-.84,1.08-1.46,1.41s-1.29,.5-2.05,.5-1.42-.17-2.02-.5Zm3.02-1.47c.31-.17,.56-.43,.75-.78,.19-.34,.28-.76,.28-1.26,0-.74-.19-1.3-.58-1.7-.39-.4-.86-.59-1.42-.59s-1.03,.2-1.41,.59-.57,.96-.57,1.7,.18,1.3,.55,1.7c.37,.4,.83,.59,1.39,.59,.35,0,.69-.09,1-.26Z"/><path class="cls-1" d="M427.21,79.98c.33-.6,.78-1.07,1.36-1.4,.58-.33,1.24-.5,1.99-.5,.96,0,1.76,.24,2.39,.72s1.05,1.16,1.27,2.02h-2.11c-.11-.34-.3-.6-.57-.79-.27-.19-.6-.29-.99-.29-.56,0-1,.2-1.33,.61-.33,.41-.49,.98-.49,1.73s.16,1.31,.49,1.71,.77,.61,1.33,.61c.79,0,1.31-.35,1.55-1.06h2.11c-.21,.84-.64,1.51-1.27,2-.64,.5-1.43,.74-2.38,.74-.75,0-1.41-.17-1.99-.5-.58-.33-1.03-.8-1.36-1.4-.33-.6-.49-1.3-.49-2.11s.16-1.5,.49-2.11Z"/><path class="cls-1" d="M435.79,76.96c-.23-.22-.34-.49-.34-.82s.11-.6,.34-.82c.23-.22,.52-.33,.86-.33s.63,.11,.86,.33c.23,.22,.34,.49,.34,.82s-.11,.6-.34,.82c-.23,.22-.52,.33-.86,.33s-.63-.11-.86-.33Zm1.83,1.25v7.76h-1.96v-7.76h1.96Z"/><path class="cls-1" d="M439.51,79.98c.31-.61,.74-1.07,1.28-1.4,.54-.33,1.14-.49,1.81-.49,.5,0,.98,.11,1.44,.33,.46,.22,.82,.51,1.09,.88v-3.68h1.99v10.36h-1.99v-1.15c-.24,.38-.58,.69-1.02,.92-.44,.23-.95,.35-1.53,.35-.65,0-1.25-.17-1.79-.5-.54-.34-.97-.81-1.28-1.42s-.47-1.31-.47-2.11,.16-1.48,.47-2.09Zm5.36,.89c-.19-.34-.44-.6-.76-.78-.32-.18-.66-.27-1.02-.27s-.7,.09-1.01,.27c-.31,.18-.56,.44-.75,.78s-.29,.74-.29,1.21,.1,.88,.29,1.23c.19,.35,.44,.62,.76,.8s.65,.28,1,.28,.7-.09,1.02-.27c.32-.18,.57-.44,.76-.78,.19-.34,.28-.75,.28-1.22s-.09-.88-.28-1.22Z"/><path class="cls-1" d="M449,79.98c.31-.61,.74-1.07,1.27-1.4,.54-.33,1.14-.49,1.8-.49,.58,0,1.08,.12,1.52,.35,.43,.23,.78,.53,1.04,.88v-1.11h1.97v7.76h-1.97v-1.13c-.25,.36-.6,.67-1.04,.9-.44,.24-.95,.36-1.53,.36-.65,0-1.25-.17-1.79-.5-.54-.34-.96-.81-1.27-1.42s-.47-1.31-.47-2.11,.16-1.48,.47-2.09Zm5.36,.89c-.19-.34-.44-.6-.76-.78-.32-.18-.66-.27-1.02-.27s-.7,.09-1.01,.27c-.31,.18-.56,.44-.75,.78s-.29,.74-.29,1.21,.1,.88,.29,1.23c.19,.35,.44,.62,.76,.8s.65,.28,1,.28,.7-.09,1.02-.27c.32-.18,.57-.44,.76-.78,.19-.34,.28-.75,.28-1.22s-.09-.88-.28-1.22Z"/><path class="cls-1" d="M458.49,79.98c.31-.61,.74-1.07,1.28-1.4,.54-.33,1.14-.49,1.81-.49,.5,0,.98,.11,1.44,.33,.46,.22,.82,.51,1.09,.88v-3.68h1.99v10.36h-1.99v-1.15c-.24,.38-.58,.69-1.02,.92-.44,.23-.95,.35-1.53,.35-.65,0-1.25-.17-1.79-.5-.54-.34-.97-.81-1.28-1.42-.31-.61-.47-1.31-.47-2.11s.16-1.48,.47-2.09Zm5.35,.89c-.19-.34-.44-.6-.76-.78-.32-.18-.66-.27-1.02-.27s-.7,.09-1.01,.27c-.31,.18-.56,.44-.75,.78s-.29,.74-.29,1.21,.1,.88,.29,1.23c.19,.35,.44,.62,.76,.8,.31,.19,.65,.28,1,.28s.71-.09,1.02-.27c.32-.18,.57-.44,.76-.78,.19-.34,.28-.75,.28-1.22s-.09-.88-.28-1.22Z"/><path class="cls-1" d="M467.99,79.98c.31-.61,.74-1.07,1.27-1.4,.54-.33,1.14-.49,1.8-.49,.58,0,1.08,.12,1.52,.35,.43,.23,.78,.53,1.04,.88v-1.11h1.97v7.76h-1.97v-1.13c-.25,.36-.6,.67-1.04,.9-.44,.24-.96,.36-1.53,.36-.65,0-1.25-.17-1.79-.5s-.96-.81-1.27-1.42c-.31-.61-.47-1.31-.47-2.11s.16-1.48,.47-2.09Zm1.9-3.88c.3-.3,.69-.46,1.16-.46,.2,0,.37,.03,.52,.09s.32,.15,.5,.26c.28,.18,.51,.27,.7,.27,.35,0,.55-.2,.6-.6h1.05c-.08,.62-.28,1.08-.58,1.38-.3,.3-.69,.46-1.16,.46-.2,0-.37-.03-.52-.09s-.32-.15-.5-.26c-.27-.19-.5-.28-.7-.28-.35,0-.55,.21-.62,.62h-1.04c.08-.62,.28-1.08,.58-1.38Zm3.45,4.77c-.19-.34-.44-.6-.76-.78-.32-.18-.66-.27-1.02-.27s-.7,.09-1.01,.27c-.31,.18-.56,.44-.75,.78s-.29,.74-.29,1.21,.1,.88,.29,1.23c.19,.35,.44,.62,.76,.8,.31,.19,.65,.28,1,.28s.71-.09,1.02-.27c.32-.18,.57-.44,.76-.78,.19-.34,.28-.75,.28-1.22s-.09-.88-.28-1.22Z"/><path class="cls-1" d="M478.94,85.6c-.6-.33-1.07-.8-1.41-1.41-.34-.61-.51-1.31-.51-2.1s.17-1.49,.53-2.1c.35-.61,.83-1.08,1.43-1.41s1.28-.5,2.03-.5,1.42,.17,2.03,.5c.61,.33,1.08,.8,1.43,1.41,.35,.61,.53,1.31,.53,2.1s-.18,1.49-.54,2.1c-.36,.61-.84,1.08-1.46,1.41s-1.29,.5-2.05,.5-1.42-.17-2.02-.5Zm3.02-1.47c.31-.17,.56-.43,.75-.78,.19-.34,.28-.76,.28-1.26,0-.74-.19-1.3-.58-1.7-.39-.4-.86-.59-1.42-.59s-1.03,.2-1.41,.59c-.38,.4-.57,.96-.57,1.7s.18,1.3,.55,1.7,.83,.59,1.39,.59c.35,0,.69-.09,1-.26Z"/><path class="cls-1" d="M491.06,85.37c-.5-1.36-.75-2.82-.75-4.38s.26-3.1,.78-4.5c.52-1.4,1.28-2.55,2.28-3.45h1.97v.18c-1.03,.98-1.81,2.16-2.35,3.53-.54,1.37-.8,2.79-.8,4.24s.25,2.79,.76,4.11,1.23,2.47,2.18,3.44v.2h-1.97c-.91-.88-1.61-2-2.11-3.36Z"/><path class="cls-1" d="M503.32,80.69c-.25,.46-.63,.83-1.16,1.11s-1.19,.42-2,.42h-1.64v3.75h-1.96v-9.77h3.6c.76,0,1.4,.13,1.93,.39,.53,.26,.93,.62,1.2,1.08,.27,.46,.4,.98,.4,1.55,0,.52-.12,1.01-.37,1.47Zm-2.04-.43c.26-.25,.39-.59,.39-1.04,0-.95-.53-1.43-1.6-1.43h-1.55v2.84h1.55c.54,0,.94-.12,1.2-.37Z"/><path class="cls-1" d="M507.04,77.78v2.45h3.29v1.55h-3.29v2.59h3.71v1.6h-5.67v-9.79h5.67v1.6h-3.71Z"/><path class="cls-1" d="M512.7,78.49c.43-.76,1.03-1.35,1.78-1.78,.75-.42,1.59-.64,2.53-.64,1.09,0,2.05,.28,2.87,.84,.82,.56,1.4,1.33,1.72,2.32h-2.25c-.22-.47-.54-.82-.95-1.05-.41-.23-.88-.35-1.41-.35-.57,0-1.08,.13-1.52,.4-.44,.27-.79,.64-1.04,1.13-.25,.49-.37,1.06-.37,1.71s.12,1.21,.37,1.7,.59,.87,1.04,1.13c.44,.27,.95,.4,1.52,.4,.53,0,1-.12,1.41-.36,.41-.24,.72-.59,.95-1.06h2.25c-.33,1-.9,1.78-1.71,2.33-.82,.56-1.78,.83-2.88,.83-.93,0-1.78-.21-2.53-.64-.75-.42-1.34-1.02-1.78-1.77-.43-.76-.65-1.61-.65-2.58s.22-1.82,.65-2.58Z"/><path class="cls-1" d="M522.77,88.73v-.2c.94-.97,1.67-2.12,2.18-3.44,.51-1.32,.76-2.69,.76-4.11s-.27-2.87-.8-4.24c-.54-1.37-1.32-2.55-2.35-3.53v-.18h1.97c1,.9,1.76,2.05,2.28,3.45,.52,1.41,.78,2.91,.78,4.5s-.25,3.02-.75,4.38c-.5,1.36-1.2,2.48-2.11,3.36h-1.97Z"/><path class="cls-1" d="M131.68,60.71c.43-.76,1.03-1.35,1.78-1.78s1.59-.64,2.53-.64c1.09,0,2.05,.28,2.87,.84,.82,.56,1.4,1.33,1.72,2.32h-2.25c-.22-.47-.54-.82-.95-1.05-.41-.23-.88-.35-1.41-.35-.57,0-1.08,.13-1.52,.4-.44,.27-.79,.64-1.04,1.13-.25,.49-.37,1.06-.37,1.71s.12,1.21,.37,1.7c.25,.49,.59,.87,1.04,1.13,.44,.27,.95,.4,1.52,.4,.53,0,1-.12,1.41-.36,.41-.24,.72-.59,.95-1.06h2.25c-.33,1-.9,1.78-1.71,2.33-.82,.56-1.78,.83-2.88,.83-.93,0-1.78-.21-2.53-.64s-1.34-1.02-1.78-1.77-.65-1.61-.65-2.58,.22-1.82,.65-2.58Z"/><path class="cls-1" d="M143.69,67.83c-.6-.33-1.07-.8-1.41-1.41-.34-.61-.51-1.31-.51-2.1s.17-1.49,.52-2.1c.35-.61,.83-1.08,1.44-1.41,.61-.33,1.28-.5,2.03-.5s1.42,.17,2.03,.5c.61,.33,1.08,.8,1.44,1.41,.35,.61,.52,1.31,.52,2.1s-.18,1.49-.54,2.1c-.36,.61-.84,1.08-1.46,1.41s-1.29,.5-2.05,.5-1.42-.17-2.02-.5Zm3.02-1.47c.31-.17,.56-.43,.75-.78,.19-.34,.28-.76,.28-1.26,0-.74-.19-1.3-.58-1.7s-.86-.59-1.42-.59-1.03,.2-1.41,.59c-.38,.4-.57,.96-.57,1.7s.18,1.3,.55,1.7c.37,.4,.83,.59,1.39,.59,.35,0,.69-.09,1-.26Z"/><path class="cls-1" d="M153.15,57.84v10.36h-1.96v-10.36h1.96Z"/><path class="cls-1" d="M162.24,64.91h-5.67c.05,.56,.24,1,.59,1.32,.35,.32,.77,.48,1.27,.48,.73,0,1.25-.31,1.55-.94h2.11c-.22,.75-.65,1.36-1.29,1.84s-1.41,.72-2.34,.72c-.75,0-1.42-.17-2.01-.5-.59-.33-1.06-.8-1.39-1.41-.33-.61-.5-1.31-.5-2.1s.16-1.51,.49-2.11c.33-.61,.78-1.07,1.37-1.4,.59-.33,1.26-.49,2.03-.49s1.4,.16,1.98,.48c.58,.32,1.04,.77,1.36,1.35,.32,.58,.48,1.25,.48,2.01,0,.28-.02,.53-.06,.76Zm-1.97-1.32c0-.5-.19-.91-.55-1.21-.35-.3-.79-.46-1.3-.46-.49,0-.89,.15-1.22,.44-.33,.29-.53,.7-.61,1.22h3.68Z"/><path class="cls-1" d="M166,62.05v3.75c0,.26,.06,.45,.19,.57,.13,.12,.34,.17,.64,.17h.91v1.65h-1.23c-1.65,0-2.48-.8-2.48-2.41v-3.74h-.92v-1.61h.92v-1.92h1.97v1.92h1.74v1.61h-1.74Z"/><path class="cls-1" d="M169.12,62.2c.31-.61,.74-1.07,1.27-1.4,.54-.33,1.14-.49,1.8-.49,.58,0,1.08,.12,1.52,.35s.78,.53,1.04,.88v-1.11h1.97v7.76h-1.97v-1.13c-.25,.36-.6,.67-1.04,.9-.44,.24-.95,.36-1.53,.36-.65,0-1.25-.17-1.79-.5-.54-.34-.96-.81-1.27-1.42-.31-.61-.47-1.31-.47-2.11s.16-1.48,.47-2.09Zm5.35,.89c-.19-.34-.44-.6-.76-.78-.32-.18-.66-.27-1.02-.27s-.7,.09-1.01,.27c-.31,.18-.56,.44-.75,.78s-.29,.74-.29,1.21,.1,.88,.29,1.23c.19,.35,.44,.62,.76,.8,.31,.19,.65,.28,1,.28s.7-.09,1.02-.27c.32-.18,.57-.44,.76-.78,.19-.34,.28-.75,.28-1.22s-.09-.88-.28-1.22Z"/><path class="cls-1" d="M181.94,62.2c.31-.61,.74-1.07,1.28-1.4,.54-.33,1.14-.49,1.81-.49,.5,0,.98,.11,1.44,.33,.46,.22,.82,.51,1.09,.88v-3.68h1.99v10.36h-1.99v-1.15c-.24,.38-.58,.69-1.02,.92-.44,.23-.95,.35-1.53,.35-.65,0-1.25-.17-1.79-.5s-.97-.81-1.28-1.42c-.31-.61-.47-1.31-.47-2.11s.16-1.48,.47-2.09Zm5.35,.89c-.19-.34-.44-.6-.76-.78-.32-.18-.66-.27-1.02-.27s-.7,.09-1.01,.27c-.31,.18-.56,.44-.75,.78s-.29,.74-.29,1.21,.1,.88,.29,1.23c.19,.35,.44,.62,.76,.8,.31,.19,.65,.28,1,.28s.7-.09,1.02-.27c.32-.18,.57-.44,.76-.78,.19-.34,.28-.75,.28-1.22s-.09-.88-.28-1.22Z"/><path class="cls-1" d="M198.62,64.91h-5.67c.05,.56,.24,1,.59,1.32,.35,.32,.77,.48,1.27,.48,.73,0,1.25-.31,1.55-.94h2.11c-.22,.75-.65,1.36-1.29,1.84s-1.41,.72-2.34,.72c-.75,0-1.42-.17-2.01-.5-.59-.33-1.06-.8-1.39-1.41-.33-.61-.5-1.31-.5-2.1s.16-1.51,.49-2.11c.33-.61,.78-1.07,1.37-1.4,.59-.33,1.26-.49,2.03-.49s1.4,.16,1.98,.48c.58,.32,1.04,.77,1.36,1.35,.32,.58,.48,1.25,.48,2.01,0,.28-.02,.53-.06,.76Zm-1.97-1.32c0-.5-.19-.91-.55-1.21-.35-.3-.79-.46-1.3-.46-.49,0-.89,.15-1.22,.44-.33,.29-.53,.7-.61,1.22h3.68Z"/><path class="cls-1" d="M203.4,62.2c.31-.61,.74-1.07,1.28-1.4,.54-.33,1.14-.49,1.81-.49,.5,0,.98,.11,1.44,.33,.46,.22,.82,.51,1.09,.88v-3.68h1.99v10.36h-1.99v-1.15c-.24,.38-.58,.69-1.02,.92-.44,.23-.95,.35-1.53,.35-.65,0-1.25-.17-1.79-.5s-.97-.81-1.28-1.42c-.31-.61-.47-1.31-.47-2.11s.16-1.48,.47-2.09Zm5.35,.89c-.19-.34-.44-.6-.76-.78-.32-.18-.66-.27-1.02-.27s-.7,.09-1.01,.27c-.31,.18-.56,.44-.75,.78s-.29,.74-.29,1.21,.1,.88,.29,1.23c.19,.35,.44,.62,.76,.8,.31,.19,.65,.28,1,.28s.7-.09,1.02-.27c.32-.18,.57-.44,.76-.78,.19-.34,.28-.75,.28-1.22s-.09-.88-.28-1.22Z"/><path class="cls-1" d="M212.89,62.2c.31-.61,.74-1.07,1.27-1.4,.54-.33,1.14-.49,1.8-.49,.58,0,1.08,.12,1.52,.35s.78,.53,1.04,.88v-1.11h1.97v7.76h-1.97v-1.13c-.25,.36-.6,.67-1.04,.9-.44,.24-.95,.36-1.53,.36-.65,0-1.25-.17-1.79-.5-.54-.34-.96-.81-1.27-1.42-.31-.61-.47-1.31-.47-2.11s.16-1.48,.47-2.09Zm5.35,.89c-.19-.34-.44-.6-.76-.78-.32-.18-.66-.27-1.02-.27s-.7,.09-1.01,.27c-.31,.18-.56,.44-.75,.78s-.29,.74-.29,1.21,.1,.88,.29,1.23c.19,.35,.44,.62,.76,.8,.31,.19,.65,.28,1,.28s.7-.09,1.02-.27c.32-.18,.57-.44,.76-.78,.19-.34,.28-.75,.28-1.22s-.09-.88-.28-1.22Z"/><path class="cls-1" d="M222.39,62.2c.31-.61,.74-1.07,1.28-1.4,.54-.33,1.14-.49,1.81-.49,.5,0,.98,.11,1.44,.33,.46,.22,.82,.51,1.09,.88v-3.68h1.99v10.36h-1.99v-1.15c-.24,.38-.58,.69-1.02,.92-.44,.23-.95,.35-1.53,.35-.65,0-1.25-.17-1.79-.5s-.97-.81-1.28-1.42c-.31-.61-.47-1.31-.47-2.11s.16-1.48,.47-2.09Zm5.35,.89c-.19-.34-.44-.6-.76-.78-.32-.18-.66-.27-1.02-.27s-.7,.09-1.01,.27c-.31,.18-.56,.44-.75,.78s-.29,.74-.29,1.21,.1,.88,.29,1.23c.19,.35,.44,.62,.76,.8,.31,.19,.65,.28,1,.28s.7-.09,1.02-.27c.32-.18,.57-.44,.76-.78,.19-.34,.28-.75,.28-1.22s-.09-.88-.28-1.22Z"/><path class="cls-1" d="M233.34,67.83c-.6-.33-1.07-.8-1.41-1.41-.34-.61-.51-1.31-.51-2.1s.17-1.49,.52-2.1c.35-.61,.83-1.08,1.44-1.41,.61-.33,1.28-.5,2.03-.5s1.42,.17,2.03,.5c.61,.33,1.08,.8,1.44,1.41,.35,.61,.52,1.31,.52,2.1s-.18,1.49-.54,2.1c-.36,.61-.84,1.08-1.46,1.41s-1.29,.5-2.05,.5-1.42-.17-2.02-.5Zm3.02-1.47c.31-.17,.56-.43,.75-.78,.19-.34,.28-.76,.28-1.26,0-.74-.19-1.3-.58-1.7s-.86-.59-1.42-.59-1.03,.2-1.41,.59c-.38,.4-.57,.96-.57,1.7s.18,1.3,.55,1.7c.37,.4,.83,.59,1.39,.59,.35,0,.69-.09,1-.26Z"/><path class="cls-1" d="M242.1,67.98c-.5-.23-.9-.54-1.2-.93-.29-.39-.45-.83-.48-1.3h1.97c.04,.3,.18,.55,.44,.74s.58,.29,.96,.29,.67-.07,.88-.22,.31-.34,.31-.57c0-.25-.13-.44-.38-.57-.26-.13-.67-.26-1.23-.41-.58-.14-1.05-.28-1.42-.43-.37-.15-.69-.38-.95-.69-.27-.31-.4-.72-.4-1.25,0-.43,.12-.82,.37-1.18,.25-.35,.6-.63,1.06-.84,.46-.21,1.01-.31,1.63-.31,.92,0,1.66,.23,2.21,.69,.55,.46,.85,1.09,.91,1.87h-1.88c-.03-.31-.16-.55-.39-.73-.23-.18-.53-.27-.92-.27-.35,0-.63,.07-.82,.2s-.29,.31-.29,.55c0,.26,.13,.46,.39,.59,.26,.14,.67,.27,1.22,.41,.56,.14,1.02,.29,1.39,.43,.36,.15,.68,.38,.95,.69,.27,.31,.4,.73,.41,1.24,0,.45-.12,.85-.37,1.2-.25,.35-.6,.63-1.06,.83-.46,.2-1,.3-1.62,.3s-1.2-.11-1.71-.34Z"/><path class="cls-1" d="M132.77,84.78c-.5-.23-.9-.54-1.2-.93-.29-.39-.45-.83-.48-1.3h1.97c.04,.3,.18,.55,.44,.74s.58,.29,.96,.29,.67-.07,.88-.22,.31-.34,.31-.57c0-.25-.13-.44-.38-.57-.26-.13-.67-.26-1.23-.41-.58-.14-1.05-.28-1.42-.43-.37-.15-.69-.38-.95-.69-.27-.31-.4-.72-.4-1.25,0-.43,.12-.82,.37-1.18,.25-.35,.6-.63,1.06-.84,.46-.21,1.01-.31,1.63-.31,.92,0,1.66,.23,2.21,.69,.55,.46,.85,1.09,.91,1.87h-1.88c-.03-.31-.16-.55-.39-.73-.23-.18-.53-.27-.92-.27-.35,0-.63,.07-.82,.2s-.29,.31-.29,.55c0,.26,.13,.46,.39,.59,.26,.14,.67,.27,1.22,.41,.56,.14,1.02,.29,1.39,.43,.36,.15,.68,.38,.95,.69,.27,.31,.4,.73,.41,1.24,0,.45-.12,.85-.37,1.2-.25,.35-.6,.63-1.06,.83-.46,.2-1,.3-1.62,.3s-1.2-.11-1.71-.34Z"/><path class="cls-1" d="M139.27,75.99c-.23-.22-.34-.49-.34-.82s.11-.6,.34-.82c.23-.22,.52-.33,.86-.33s.63,.11,.86,.33c.23,.22,.34,.49,.34,.82s-.11,.6-.34,.82c-.23,.22-.52,.33-.86,.33s-.63-.11-.86-.33Zm1.83,1.25v7.76h-1.96v-7.76h1.96Z"/><path class="cls-1" d="M154.96,78c.58,.58,.88,1.4,.88,2.44v4.55h-1.96v-4.28c0-.61-.15-1.07-.46-1.39-.31-.32-.73-.48-1.26-.48s-.95,.16-1.27,.48c-.31,.32-.47,.79-.47,1.39v4.28h-1.96v-4.28c0-.61-.15-1.07-.46-1.39-.31-.32-.73-.48-1.26-.48s-.97,.16-1.28,.48c-.31,.32-.47,.79-.47,1.39v4.28h-1.96v-7.76h1.96v.94c.25-.33,.58-.58,.97-.77,.4-.19,.83-.28,1.31-.28,.61,0,1.15,.13,1.62,.38,.48,.26,.84,.62,1.11,1.1,.25-.45,.62-.81,1.1-1.08,.48-.27,1-.41,1.56-.41,.95,0,1.72,.29,2.3,.88Z"/><path class="cls-1" d="M160.7,77.47c.44-.24,.95-.36,1.52-.36,.66,0,1.26,.16,1.8,.49,.54,.33,.96,.79,1.27,1.39,.31,.6,.47,1.3,.47,2.09s-.16,1.5-.47,2.11c-.31,.61-.74,1.08-1.27,1.42-.54,.34-1.14,.5-1.8,.5-.57,0-1.07-.12-1.5-.35-.43-.23-.79-.53-1.06-.88v4.8h-1.96v-11.45h1.96v1.12c.25-.35,.6-.65,1.04-.89Zm2.77,2.41c-.19-.34-.44-.6-.76-.78-.31-.18-.65-.27-1.01-.27s-.69,.09-1,.27c-.31,.18-.56,.45-.76,.79-.19,.34-.29,.75-.29,1.22s.1,.87,.29,1.22c.19,.35,.44,.61,.76,.79,.31,.18,.65,.27,1,.27s.7-.09,1.01-.28,.56-.45,.76-.8c.19-.35,.29-.76,.29-1.23s-.1-.87-.29-1.21Z"/><path class="cls-1" d="M169.15,74.64v10.36h-1.96v-10.36h1.96Z"/><path class="cls-1" d="M171.22,75.99c-.23-.22-.34-.49-.34-.82s.11-.6,.34-.82c.23-.22,.52-.33,.86-.33s.63,.11,.86,.33c.23,.22,.34,.49,.34,.82s-.11,.6-.34,.82c-.23,.22-.52,.33-.86,.33s-.63-.11-.86-.33Zm1.83,1.25v7.76h-1.96v-7.76h1.96Z"/><path class="cls-1" d="M178.53,78.85h-1.36v6.15h-1.99v-6.15h-.88v-1.61h.88v-.39c0-.95,.27-1.65,.81-2.1,.54-.45,1.36-.66,2.45-.63v1.65c-.48,0-.81,.07-.99,.24s-.28,.47-.28,.91v.32h1.36v1.61Z"/><path class="cls-1" d="M179.94,75.99c-.23-.22-.34-.49-.34-.82s.11-.6,.34-.82c.23-.22,.52-.33,.86-.33s.63,.11,.86,.33c.23,.22,.34,.49,.34,.82s-.11,.6-.34,.82c-.23,.22-.52,.33-.86,.33s-.63-.11-.86-.33Zm1.83,1.25v7.76h-1.96v-7.76h1.96Z"/><path class="cls-1" d="M183.68,79.01c.33-.6,.78-1.07,1.36-1.4,.58-.33,1.24-.5,1.99-.5,.96,0,1.76,.24,2.39,.72s1.05,1.16,1.27,2.02h-2.11c-.11-.34-.3-.6-.57-.79s-.6-.29-.99-.29c-.56,0-1,.2-1.33,.61-.33,.41-.49,.98-.49,1.73s.16,1.31,.49,1.71c.33,.41,.77,.61,1.33,.61,.79,0,1.31-.35,1.55-1.06h2.11c-.21,.84-.64,1.51-1.27,2-.64,.5-1.43,.74-2.38,.74-.75,0-1.41-.17-1.99-.5-.58-.33-1.03-.8-1.36-1.4-.33-.6-.49-1.3-.49-2.11s.16-1.5,.49-2.11Z"/><path class="cls-1" d="M192.09,79c.31-.61,.74-1.07,1.27-1.4,.54-.33,1.14-.49,1.8-.49,.58,0,1.08,.12,1.52,.35s.78,.53,1.04,.88v-1.11h1.97v7.76h-1.97v-1.13c-.25,.36-.6,.67-1.04,.9-.44,.24-.95,.36-1.53,.36-.65,0-1.25-.17-1.79-.5-.54-.34-.96-.81-1.27-1.42-.31-.61-.47-1.31-.47-2.11s.16-1.48,.47-2.09Zm5.35,.89c-.19-.34-.44-.6-.76-.78-.32-.18-.66-.27-1.02-.27s-.7,.09-1.01,.27c-.31,.18-.56,.44-.75,.78s-.29,.74-.29,1.21,.1,.88,.29,1.23c.19,.35,.44,.62,.76,.8,.31,.19,.65,.28,1,.28s.7-.09,1.02-.27c.32-.18,.57-.44,.76-.78,.19-.34,.28-.75,.28-1.22s-.09-.88-.28-1.22Z"/><path class="cls-1" d="M201.58,79c.31-.61,.74-1.07,1.28-1.4,.54-.33,1.14-.49,1.81-.49,.5,0,.98,.11,1.44,.33,.46,.22,.82,.51,1.09,.88v-3.68h1.99v10.36h-1.99v-1.15c-.24,.38-.58,.69-1.02,.92-.44,.23-.95,.35-1.53,.35-.65,0-1.25-.17-1.79-.5s-.97-.81-1.28-1.42c-.31-.61-.47-1.31-.47-2.11s.16-1.48,.47-2.09Zm5.35,.89c-.19-.34-.44-.6-.76-.78-.32-.18-.66-.27-1.02-.27s-.7,.09-1.01,.27c-.31,.18-.56,.44-.75,.78s-.29,.74-.29,1.21,.1,.88,.29,1.23c.19,.35,.44,.62,.76,.8,.31,.19,.65,.28,1,.28s.7-.09,1.02-.27c.32-.18,.57-.44,.76-.78,.19-.34,.28-.75,.28-1.22s-.09-.88-.28-1.22Z"/><path class="cls-1" d="M212.54,84.63c-.6-.33-1.07-.8-1.41-1.41-.34-.61-.51-1.31-.51-2.1s.17-1.49,.52-2.1c.35-.61,.83-1.08,1.44-1.41,.61-.33,1.28-.5,2.03-.5s1.42,.17,2.03,.5c.61,.33,1.08,.8,1.44,1.41,.35,.61,.52,1.31,.52,2.1s-.18,1.49-.54,2.1c-.36,.61-.84,1.08-1.46,1.41s-1.29,.5-2.05,.5-1.42-.17-2.02-.5Zm3.02-1.47c.31-.17,.56-.43,.75-.78,.19-.34,.28-.76,.28-1.26,0-.74-.19-1.3-.58-1.7s-.86-.59-1.42-.59-1.03,.2-1.41,.59c-.38,.4-.57,.96-.57,1.7s.18,1.3,.55,1.7c.37,.4,.83,.59,1.39,.59,.35,0,.69-.09,1-.26Z"/><path class="cls-1" d="M224.65,84.39c-.5-1.36-.75-2.82-.75-4.38s.26-3.1,.78-4.5c.52-1.4,1.28-2.55,2.28-3.45h1.97v.18c-1.03,.98-1.81,2.16-2.35,3.53s-.8,2.79-.8,4.24,.25,2.79,.76,4.11,1.23,2.47,2.18,3.44v.2h-1.97c-.91-.88-1.61-2-2.11-3.36Z"/><path class="cls-1" d="M230.34,77.51c.43-.76,1.03-1.35,1.78-1.78s1.59-.64,2.53-.64c1.09,0,2.05,.28,2.87,.84,.82,.56,1.4,1.33,1.72,2.32h-2.25c-.22-.47-.54-.82-.95-1.05-.41-.23-.88-.35-1.41-.35-.57,0-1.08,.13-1.52,.4-.44,.27-.79,.64-1.04,1.13-.25,.49-.37,1.06-.37,1.71s.12,1.21,.37,1.7c.25,.49,.59,.87,1.04,1.13,.44,.27,.95,.4,1.52,.4,.53,0,1-.12,1.41-.36,.41-.24,.72-.59,.95-1.06h2.25c-.33,1-.9,1.78-1.71,2.33-.82,.56-1.78,.83-2.88,.83-.93,0-1.78-.21-2.53-.64s-1.34-1.02-1.78-1.77-.65-1.61-.65-2.58,.22-1.82,.65-2.58Z"/><path class="cls-1" d="M247.04,75.83c.78,.4,1.38,.97,1.81,1.71s.64,1.6,.64,2.58-.21,1.84-.64,2.57-1.03,1.3-1.81,1.7-1.68,.6-2.71,.6h-3.42v-9.77h3.42c1.03,0,1.93,.2,2.71,.6Zm-.4,6.66c.56-.56,.84-1.35,.84-2.37s-.28-1.81-.84-2.39-1.35-.86-2.38-.86h-1.39v6.45h1.39c1.03,0,1.82-.28,2.38-.84Z"/><path class="cls-1" d="M252.48,84.74c-.55-.23-.98-.57-1.29-1.01-.32-.44-.48-.96-.49-1.55h2.1c.03,.4,.17,.72,.43,.95,.26,.23,.61,.35,1.06,.35s.82-.11,1.08-.33c.26-.22,.39-.51,.39-.86,0-.29-.09-.53-.27-.71s-.4-.33-.67-.44c-.27-.11-.63-.23-1.1-.36-.63-.19-1.15-.37-1.55-.55-.4-.18-.74-.46-1.02-.83-.28-.37-.43-.86-.43-1.48,0-.58,.14-1.08,.43-1.51,.29-.43,.7-.76,1.22-.99,.52-.23,1.12-.34,1.79-.34,1.01,0,1.83,.25,2.46,.74s.98,1.17,1.04,2.05h-2.16c-.02-.34-.16-.61-.43-.83-.27-.22-.62-.33-1.06-.33-.38,0-.69,.1-.92,.29s-.34,.48-.34,.85c0,.26,.09,.48,.26,.65,.17,.17,.39,.31,.64,.42,.26,.11,.62,.23,1.08,.37,.63,.19,1.15,.37,1.55,.56,.4,.19,.75,.47,1.04,.84,.29,.37,.43,.86,.43,1.47,0,.52-.14,1.01-.41,1.46-.27,.45-.67,.8-1.19,1.07-.52,.27-1.14,.4-1.86,.4-.68,0-1.29-.12-1.84-.35Z"/><path class="cls-1" d="M258.97,87.75v-.2c.94-.97,1.67-2.12,2.18-3.44,.51-1.32,.76-2.69,.76-4.11s-.27-2.87-.8-4.24c-.54-1.37-1.32-2.55-2.35-3.53v-.18h1.97c1,.9,1.76,2.05,2.28,3.45,.52,1.41,.78,2.91,.78,4.5s-.25,3.02-.75,4.38c-.5,1.36-1.2,2.48-2.11,3.36h-1.97Z"/></g></svg>