<?xml version="1.0" encoding="UTF-8"?><svg id="Camada_1" xmlns="http://www.w3.org/2000/svg" viewBox="0 0 670 136"><defs><style>.cls-1{fill:#54bfcd;}.cls-2{fill:#fff;}.cls-3{fill:#108141;}.cls-4{fill:#1b8992;}.cls-5{fill:#506d8f;}</style></defs><g><polygon class="cls-1" points="144.64 94.38 44.67 94.38 67.36 68 44.67 41.62 144.64 41.62 167.33 68 144.64 94.38"/><path class="cls-1" d="M144.03,93.05H47.87l21.36-25.05-21.36-25.05h96.16l21.55,25.05-21.55,25.05Zm-95.24-.38h95.07l21.22-24.67-21.22-24.67H48.79l20.98,24.67-20.98,24.67Z"/></g><g><polygon class="cls-5" points="286.3 94.38 165.68 94.38 193.05 68 165.68 41.62 286.3 41.62 313.68 68 286.3 94.38"/><path class="cls-5" d="M285.57,93.05h-116.03l25.77-25.05-25.77-25.05h116.03l26,25.05-26,25.05Zm-114.92-.38h114.71l25.61-24.67-25.61-24.67h-114.71l25.32,24.67-25.32,24.67Z"/></g><g><polygon class="cls-4" points="461.2 94.38 313.67 94.38 347.15 68 313.67 41.62 461.2 41.62 494.68 68 461.2 94.38"/><path class="cls-4" d="M460.3,93.05h-141.9l31.52-25.05-31.52-25.05h141.9l31.8,25.05-31.8,25.05Zm-140.55-.38h140.29l31.32-24.67-31.32-24.67h-140.29l30.96,24.67-30.96,24.67Z"/></g><g><polygon class="cls-3" points="602.64 94.38 492.67 94.38 515.36 68 492.67 41.62 602.64 41.62 625.33 68 602.64 94.38"/><path class="cls-3" d="M602.03,93.05h-106.16l21.36-25.05-21.36-25.05h106.16l21.55,25.05-21.55,25.05Zm-105.24-.38h105.07l21.22-24.67-21.22-24.67h-105.07l20.98,24.67-20.98,24.67Z"/></g><g><path class="cls-2" d="M79.57,64.67c.42-.76,1.01-1.35,1.76-1.78,.75-.42,1.6-.64,2.55-.64,1.17,0,2.17,.31,3,.92,.83,.62,1.39,1.46,1.67,2.52h-2.63c-.2-.41-.47-.72-.83-.94-.36-.21-.77-.32-1.23-.32-.74,0-1.33,.26-1.79,.77-.46,.51-.69,1.2-.69,2.06s.23,1.54,.69,2.06c.46,.51,1.05,.77,1.79,.77,.46,0,.87-.11,1.23-.32,.36-.21,.64-.53,.83-.94h2.63c-.28,1.06-.84,1.9-1.67,2.51s-1.83,.92-3,.92c-.95,0-1.8-.21-2.55-.64-.75-.42-1.34-1.01-1.76-1.77-.42-.76-.63-1.62-.63-2.59s.21-1.84,.63-2.6Z"/><path class="cls-2" d="M92.12,71.65c-.77-.43-1.38-1.03-1.83-1.8-.45-.77-.68-1.64-.68-2.6s.23-1.82,.68-2.59c.45-.76,1.06-1.36,1.83-1.79,.77-.43,1.62-.64,2.54-.64s1.77,.21,2.54,.64c.77,.43,1.38,1.03,1.82,1.79,.44,.77,.67,1.63,.67,2.59s-.22,1.83-.67,2.6c-.45,.77-1.05,1.37-1.82,1.8-.77,.43-1.61,.64-2.53,.64s-1.77-.21-2.54-.64Zm4.42-2.32c.47-.52,.71-1.21,.71-2.07s-.24-1.56-.71-2.08c-.47-.52-1.1-.78-1.88-.78s-1.43,.26-1.9,.77c-.47,.51-.71,1.21-.71,2.09s.24,1.56,.71,2.08c.47,.52,1.1,.78,1.9,.78s1.41-.26,1.88-.78Z"/><path class="cls-2" d="M103.41,70.34h3.14v1.85h-5.53v-9.83h2.39v7.98Z"/><path class="cls-2" d="M110.09,64.28v1.99h3.21v1.85h-3.21v2.16h3.63v1.92h-6.02v-9.83h6.02v1.92h-3.63Z"/><path class="cls-2" d="M122.34,62.36v1.92h-2.6v7.91h-2.39v-7.91h-2.6v-1.92h7.6Z"/><path class="cls-2" d="M129.66,70.46h-3.67l-.59,1.74h-2.51l3.56-9.83h2.77l3.56,9.83h-2.53l-.59-1.74Zm-.62-1.85l-1.22-3.6-1.2,3.6h2.42Z"/></g><g><path class="cls-2" d="M198.28,64.99c.42-.76,1.01-1.35,1.76-1.78,.75-.42,1.6-.64,2.55-.64,1.17,0,2.17,.31,3,.92,.83,.62,1.39,1.46,1.67,2.52h-2.63c-.2-.41-.47-.72-.83-.94-.36-.21-.77-.32-1.23-.32-.74,0-1.33,.26-1.79,.77-.46,.51-.69,1.2-.69,2.06s.23,1.54,.69,2.06c.46,.51,1.05,.77,1.79,.77,.46,0,.87-.11,1.23-.32,.36-.21,.64-.53,.83-.94h2.63c-.28,1.06-.84,1.9-1.67,2.51s-1.83,.92-3,.92c-.95,0-1.8-.21-2.55-.64-.75-.42-1.34-1.01-1.76-1.77-.42-.76-.63-1.62-.63-2.59s.21-1.84,.63-2.6Z"/><path class="cls-2" d="M210.83,71.97c-.77-.43-1.38-1.03-1.83-1.8-.45-.77-.68-1.64-.68-2.6s.23-1.82,.68-2.59c.45-.76,1.06-1.36,1.83-1.79,.77-.43,1.62-.64,2.54-.64s1.77,.21,2.54,.64c.77,.43,1.38,1.03,1.82,1.79,.44,.77,.67,1.63,.67,2.59s-.22,1.83-.67,2.6c-.45,.77-1.05,1.37-1.82,1.8-.77,.43-1.61,.64-2.53,.64s-1.77-.21-2.54-.64Zm4.42-2.32c.47-.52,.71-1.21,.71-2.07s-.24-1.56-.71-2.08c-.47-.52-1.1-.78-1.88-.78s-1.43,.26-1.9,.77c-.47,.51-.71,1.21-.71,2.09s.24,1.56,.71,2.08c.47,.52,1.1,.78,1.9,.78s1.41-.26,1.88-.78Z"/><path class="cls-2" d="M226.13,63.31c.77,.41,1.37,.99,1.8,1.73,.42,.74,.64,1.6,.64,2.57s-.21,1.82-.64,2.56c-.42,.75-1.03,1.33-1.81,1.74-.78,.41-1.68,.62-2.71,.62h-3.68v-9.83h3.68c1.04,0,1.94,.21,2.72,.62Zm-.76,6.4c.5-.49,.76-1.19,.76-2.1s-.25-1.61-.76-2.11c-.5-.5-1.21-.76-2.11-.76h-1.13v5.71h1.13c.91,0,1.61-.25,2.11-.74Z"/><path class="cls-2" d="M232.3,62.69v9.83h-2.39v-9.83h2.39Z"/><path class="cls-2" d="M240.44,62.69v1.92h-4v2.07h3v1.86h-3v3.98h-2.39v-9.83h6.4Z"/><path class="cls-2" d="M244.09,62.69v9.83h-2.39v-9.83h2.39Z"/><path class="cls-2" d="M246.05,64.99c.42-.76,1.01-1.35,1.76-1.78,.75-.42,1.6-.64,2.55-.64,1.17,0,2.17,.31,3,.92,.83,.62,1.39,1.46,1.67,2.52h-2.63c-.2-.41-.47-.72-.83-.94-.36-.21-.77-.32-1.23-.32-.74,0-1.33,.26-1.79,.77-.46,.51-.69,1.2-.69,2.06s.23,1.54,.69,2.06c.46,.51,1.05,.77,1.79,.77,.46,0,.87-.11,1.23-.32,.36-.21,.64-.53,.83-.94h2.63c-.28,1.06-.84,1.9-1.67,2.51s-1.83,.92-3,.92c-.95,0-1.8-.21-2.55-.64-.75-.42-1.34-1.01-1.76-1.77-.42-.76-.63-1.62-.63-2.59s.21-1.84,.63-2.6Z"/><path class="cls-2" d="M262.61,70.78h-3.67l-.59,1.74h-2.51l3.56-9.83h2.77l3.56,9.83h-2.53l-.59-1.74Zm-.62-1.85l-1.22-3.6-1.2,3.6h2.42Z"/><path class="cls-2" d="M272.55,70.1c.36-.21,.64-.53,.83-.94h2.63c-.25,.94-.72,1.71-1.41,2.3s-1.52,.95-2.5,1.08v.55c.48,0,.91,.13,1.27,.4,.36,.27,.55,.67,.55,1.2s-.19,.94-.57,1.21-.84,.41-1.37,.41h-2.16v-1.32h1.83c.19,0,.33-.03,.42-.08,.09-.06,.14-.15,.14-.28s-.05-.22-.14-.27c-.09-.05-.23-.08-.42-.08h-.99v-1.74c-.84-.09-1.58-.36-2.23-.81-.64-.44-1.14-1.02-1.5-1.74-.35-.72-.53-1.52-.53-2.41,0-.97,.21-1.84,.63-2.6,.42-.76,1.01-1.35,1.76-1.78,.75-.42,1.6-.64,2.55-.64,1.17,0,2.17,.31,3,.92,.83,.62,1.39,1.46,1.67,2.52h-2.63c-.2-.41-.47-.72-.83-.94-.36-.21-.77-.32-1.23-.32-.74,0-1.33,.26-1.79,.77-.46,.51-.69,1.2-.69,2.06s.23,1.54,.69,2.06c.46,.51,1.05,.77,1.79,.77,.46,0,.87-.11,1.23-.32Z"/><path class="cls-2" d="M283.6,70.78h-3.67l-.59,1.74h-2.51l3.56-9.83h2.77l3.56,9.83h-2.53l-.59-1.74Zm-2.69-10.85c.21,0,.39,.03,.54,.09,.15,.06,.34,.15,.57,.27,.17,.09,.3,.16,.41,.2,.1,.04,.21,.06,.32,.06,.35,0,.55-.21,.6-.63h1.23c-.22,1.38-.87,2.07-1.93,2.07-.21,0-.39-.03-.54-.09-.15-.06-.34-.15-.57-.27-.17-.09-.3-.16-.41-.2-.1-.04-.21-.06-.32-.06-.35,0-.55,.21-.62,.63h-1.22c.22-1.38,.87-2.07,1.93-2.07Zm2.07,9l-1.22-3.6-1.2,3.6h2.42Z"/><path class="cls-2" d="M289.91,71.97c-.77-.43-1.38-1.03-1.83-1.8-.45-.77-.68-1.64-.68-2.6s.23-1.82,.68-2.59c.45-.76,1.06-1.36,1.83-1.79,.77-.43,1.62-.64,2.54-.64s1.77,.21,2.54,.64c.77,.43,1.38,1.03,1.82,1.79,.44,.77,.67,1.63,.67,2.59s-.22,1.83-.67,2.6c-.45,.77-1.05,1.37-1.82,1.8-.77,.43-1.61,.64-2.53,.64s-1.77-.21-2.54-.64Zm4.42-2.32c.47-.52,.71-1.21,.71-2.07s-.24-1.56-.71-2.08c-.47-.52-1.1-.78-1.88-.78s-1.43,.26-1.9,.77c-.47,.51-.71,1.21-.71,2.09s.24,1.56,.71,2.08c.47,.52,1.1,.78,1.9,.78s1.41-.26,1.88-.78Z"/></g><g><path class="cls-2" d="M359.6,67.09c-.26,.47-.66,.85-1.2,1.14-.54,.29-1.21,.43-2.02,.43h-1.48v3.53h-2.39v-9.83h3.88c.78,0,1.45,.14,1.99,.41,.54,.27,.95,.64,1.22,1.12,.27,.48,.41,1.02,.41,1.64,0,.57-.13,1.09-.39,1.56Zm-2.38-.65c.22-.21,.34-.52,.34-.91s-.11-.7-.34-.91c-.22-.21-.56-.32-1.02-.32h-1.3v2.46h1.3c.46,0,.8-.11,1.02-.32Z"/><path class="cls-2" d="M366.25,72.19l-2.04-3.71h-.57v3.71h-2.39v-9.83h4.02c.77,0,1.43,.14,1.98,.41,.55,.27,.95,.64,1.22,1.11,.27,.47,.41,1,.41,1.57,0,.65-.18,1.24-.55,1.75-.37,.51-.91,.88-1.63,1.09l2.27,3.89h-2.7Zm-2.62-5.4h1.48c.44,0,.77-.11,.99-.32,.22-.21,.33-.52,.33-.91s-.11-.67-.33-.88c-.22-.21-.55-.32-.99-.32h-1.48v2.44Z"/><path class="cls-2" d="M372.47,71.65c-.77-.43-1.38-1.03-1.83-1.8-.45-.77-.68-1.64-.68-2.6s.23-1.82,.68-2.59c.45-.76,1.06-1.36,1.83-1.79,.77-.43,1.62-.64,2.54-.64s1.77,.21,2.54,.64c.77,.43,1.38,1.03,1.82,1.79,.44,.77,.67,1.63,.67,2.59s-.22,1.83-.67,2.6c-.45,.77-1.05,1.37-1.82,1.8s-1.61,.64-2.53,.64-1.77-.21-2.54-.64Zm4.42-2.32c.47-.52,.71-1.21,.71-2.07s-.24-1.56-.71-2.08c-.47-.52-1.1-.78-1.88-.78s-1.43,.26-1.9,.77c-.47,.51-.71,1.21-.71,2.09s.24,1.56,.71,2.08c.47,.52,1.1,.78,1.9,.78s1.41-.26,1.88-.78Z"/><path class="cls-2" d="M381.59,64.67c.42-.76,1.01-1.35,1.76-1.78s1.6-.64,2.55-.64c1.17,0,2.17,.31,3,.92,.83,.62,1.39,1.46,1.67,2.52h-2.63c-.2-.41-.47-.72-.83-.94s-.77-.32-1.22-.32c-.74,0-1.33,.26-1.79,.77-.46,.51-.69,1.2-.69,2.06s.23,1.54,.69,2.06c.46,.51,1.05,.77,1.79,.77,.46,0,.87-.11,1.22-.32s.64-.53,.83-.94h2.63c-.28,1.06-.83,1.9-1.67,2.51-.83,.61-1.83,.92-3,.92-.95,0-1.8-.21-2.55-.64-.75-.42-1.34-1.01-1.76-1.77s-.63-1.62-.63-2.59,.21-1.84,.63-2.6Z"/><path class="cls-2" d="M394.43,64.28v1.99h3.21v1.85h-3.21v2.16h3.63v1.92h-6.02v-9.83h6.02v1.92h-3.63Z"/><path class="cls-2" d="M401.23,71.94c-.57-.23-1.02-.58-1.37-1.04s-.52-1.01-.54-1.65h2.55c.04,.36,.16,.64,.38,.83,.21,.19,.49,.29,.84,.29s.63-.08,.84-.25c.21-.16,.31-.39,.31-.68,0-.24-.08-.44-.25-.6-.16-.16-.36-.29-.6-.39-.24-.1-.58-.22-1.01-.35-.63-.2-1.15-.39-1.55-.59-.4-.2-.75-.49-1.04-.87-.29-.38-.43-.88-.43-1.5,0-.92,.33-1.63,.99-2.15,.66-.52,1.53-.78,2.59-.78s1.96,.26,2.62,.78c.66,.52,1.02,1.24,1.06,2.16h-2.59c-.02-.32-.13-.57-.35-.75-.21-.18-.49-.27-.83-.27-.29,0-.52,.08-.7,.23-.18,.15-.27,.38-.27,.67,0,.32,.15,.57,.45,.74,.3,.18,.76,.37,1.4,.57,.63,.21,1.15,.42,1.55,.62,.4,.2,.74,.48,1.03,.85,.29,.37,.43,.85,.43,1.44s-.14,1.07-.43,1.53c-.28,.46-.7,.82-1.24,1.09-.54,.27-1.18,.41-1.92,.41s-1.36-.12-1.93-.35Z"/><path class="cls-2" d="M409.84,71.94c-.57-.23-1.02-.58-1.37-1.04s-.52-1.01-.54-1.65h2.55c.04,.36,.16,.64,.38,.83,.21,.19,.5,.29,.84,.29s.63-.08,.84-.25c.21-.16,.31-.39,.31-.68,0-.24-.08-.44-.25-.6-.16-.16-.36-.29-.6-.39-.24-.1-.58-.22-1.01-.35-.63-.2-1.15-.39-1.55-.59-.4-.2-.75-.49-1.04-.87s-.43-.88-.43-1.5c0-.92,.33-1.63,.99-2.15,.66-.52,1.53-.78,2.59-.78s1.96,.26,2.62,.78c.66,.52,1.02,1.24,1.06,2.16h-2.59c-.02-.32-.14-.57-.35-.75-.21-.18-.49-.27-.83-.27-.29,0-.52,.08-.7,.23-.18,.15-.27,.38-.27,.67,0,.32,.15,.57,.45,.74,.3,.18,.77,.37,1.4,.57,.63,.21,1.15,.42,1.55,.62,.4,.2,.74,.48,1.03,.85,.29,.37,.43,.85,.43,1.44s-.14,1.07-.43,1.53c-.29,.46-.7,.82-1.24,1.09s-1.18,.41-1.92,.41-1.36-.12-1.93-.35Z"/><path class="cls-2" d="M422.95,70.46h-3.67l-.59,1.74h-2.51l3.56-9.83h2.77l3.56,9.83h-2.53l-.59-1.74Zm-.62-1.85l-1.22-3.6-1.2,3.6h2.42Z"/><path class="cls-2" d="M438.28,62.36v9.83h-2.39v-5.89l-2.2,5.89h-1.93l-2.21-5.91v5.91h-2.39v-9.83h2.83l2.76,6.8,2.73-6.8h2.81Z"/><path class="cls-2" d="M442.39,64.28v1.99h3.21v1.85h-3.21v2.16h3.63v1.92h-6.02v-9.83h6.02v1.92h-3.63Z"/><path class="cls-2" d="M456.37,72.19h-2.39l-4-6.06v6.06h-2.39v-9.83h2.39l4,6.09v-6.09h2.39v9.83Z"/><path class="cls-2" d="M465.17,62.36v1.92h-2.6v7.91h-2.39v-7.91h-2.6v-1.92h7.6Z"/><path class="cls-2" d="M468.48,71.65c-.77-.43-1.38-1.03-1.83-1.8-.45-.77-.68-1.64-.68-2.6s.23-1.82,.68-2.59c.45-.76,1.06-1.36,1.83-1.79,.77-.43,1.62-.64,2.54-.64s1.77,.21,2.54,.64c.77,.43,1.38,1.03,1.82,1.79,.44,.77,.67,1.63,.67,2.59s-.22,1.83-.67,2.6c-.45,.77-1.05,1.37-1.82,1.8s-1.61,.64-2.53,.64-1.77-.21-2.54-.64Zm4.42-2.32c.47-.52,.71-1.21,.71-2.07s-.24-1.56-.71-2.08c-.47-.52-1.1-.78-1.88-.78s-1.43,.26-1.9,.77c-.47,.51-.71,1.21-.71,2.09s.24,1.56,.71,2.08c.47,.52,1.1,.78,1.9,.78s1.41-.26,1.88-.78Z"/></g><g><path class="cls-2" d="M527.06,63.31c.77,.41,1.37,.99,1.8,1.73,.42,.74,.64,1.6,.64,2.57s-.21,1.82-.64,2.56c-.42,.75-1.03,1.33-1.81,1.74-.78,.41-1.68,.62-2.71,.62h-3.68v-9.83h3.68c1.04,0,1.94,.21,2.72,.62Zm-.76,6.4c.5-.49,.76-1.19,.76-2.1s-.25-1.61-.76-2.11-1.21-.76-2.11-.76h-1.13v5.71h1.13c.91,0,1.61-.25,2.11-.74Z"/><path class="cls-2" d="M533.23,62.69v9.83h-2.39v-9.83h2.39Z"/><path class="cls-2" d="M544.19,62.69l-3.49,9.83h-3l-3.49-9.83h2.55l2.44,7.42,2.45-7.42h2.53Z"/><path class="cls-2" d="M547.54,62.69v5.88c0,.59,.14,1.04,.43,1.36,.29,.32,.71,.48,1.27,.48s.99-.16,1.29-.48,.45-.77,.45-1.36v-5.88h2.39v5.87c0,.88-.19,1.62-.56,2.23-.37,.61-.88,1.06-1.5,1.37-.63,.31-1.33,.46-2.11,.46s-1.47-.15-2.08-.46c-.61-.3-1.09-.76-1.45-1.37s-.53-1.36-.53-2.23v-5.87h2.39Z"/><path class="cls-2" d="M557.45,70.67h3.14v1.85h-5.53v-9.83h2.39v7.98Z"/><path class="cls-2" d="M568.26,65.8c-.18-.33-.43-.58-.76-.75s-.72-.26-1.17-.26c-.77,0-1.4,.25-1.86,.76-.47,.51-.7,1.19-.7,2.04,0,.91,.25,1.61,.73,2.12,.49,.51,1.17,.76,2.02,.76,.59,0,1.08-.15,1.49-.45s.7-.73,.89-1.29h-3.04v-1.76h5.21v2.23c-.18,.6-.48,1.15-.9,1.67-.42,.51-.96,.93-1.62,1.25s-1.39,.48-2.21,.48c-.97,0-1.84-.21-2.6-.64-.76-.42-1.35-1.01-1.78-1.77-.42-.76-.64-1.62-.64-2.59s.21-1.84,.64-2.6c.42-.76,1.01-1.35,1.77-1.78s1.62-.64,2.59-.64c1.18,0,2.17,.29,2.98,.85,.81,.57,1.34,1.36,1.6,2.37h-2.65Z"/><path class="cls-2" d="M578.52,70.78h-3.67l-.59,1.74h-2.51l3.56-9.83h2.77l3.56,9.83h-2.53l-.59-1.74Zm-.62-1.85l-1.22-3.6-1.2,3.6h2.42Z"/><path class="cls-2" d="M588.45,70.1c.36-.21,.64-.53,.83-.94h2.63c-.25,.94-.72,1.71-1.41,2.3-.69,.59-1.52,.95-2.5,1.08v.55c.48,0,.91,.13,1.27,.4,.36,.27,.55,.67,.55,1.2s-.19,.94-.57,1.21-.84,.41-1.37,.41h-2.16v-1.32h1.83c.19,0,.33-.03,.42-.08,.09-.06,.14-.15,.14-.28s-.05-.22-.14-.27c-.09-.05-.23-.08-.42-.08h-.99v-1.74c-.84-.09-1.58-.36-2.23-.81-.64-.44-1.14-1.02-1.5-1.74-.36-.72-.53-1.52-.53-2.41,0-.97,.21-1.84,.63-2.6,.42-.76,1.01-1.35,1.76-1.78s1.6-.64,2.55-.64c1.17,0,2.17,.31,3,.92,.83,.62,1.39,1.46,1.67,2.52h-2.63c-.2-.41-.47-.72-.83-.94s-.77-.32-1.22-.32c-.74,0-1.33,.26-1.79,.77-.46,.51-.69,1.2-.69,2.06s.23,1.54,.69,2.06c.46,.51,1.05,.77,1.79,.77,.46,0,.87-.11,1.22-.32Z"/><path class="cls-2" d="M599.5,70.78h-3.67l-.59,1.74h-2.51l3.56-9.83h2.77l3.56,9.83h-2.53l-.59-1.74Zm-2.69-10.85c.21,0,.38,.03,.54,.09s.34,.15,.57,.27c.17,.09,.3,.16,.41,.2s.21,.06,.32,.06c.34,0,.55-.21,.6-.63h1.23c-.22,1.38-.87,2.07-1.93,2.07-.21,0-.39-.03-.54-.09-.15-.06-.34-.15-.57-.27-.17-.09-.3-.16-.41-.2s-.21-.06-.32-.06c-.35,0-.55,.21-.62,.63h-1.22c.22-1.38,.87-2.07,1.93-2.07Zm2.07,9l-1.22-3.6-1.2,3.6h2.42Z"/><path class="cls-2" d="M605.81,71.97c-.77-.43-1.38-1.03-1.83-1.8-.45-.77-.68-1.64-.68-2.6s.23-1.82,.68-2.59c.45-.76,1.06-1.36,1.83-1.79,.77-.43,1.62-.64,2.54-.64s1.77,.21,2.54,.64c.77,.43,1.38,1.03,1.82,1.79,.44,.77,.67,1.63,.67,2.59s-.22,1.83-.67,2.6c-.45,.77-1.05,1.37-1.82,1.8-.76,.43-1.61,.64-2.53,.64s-1.77-.21-2.54-.64Zm4.42-2.32c.47-.52,.71-1.21,.71-2.07s-.24-1.56-.71-2.08c-.47-.52-1.1-.78-1.88-.78s-1.43,.26-1.9,.77c-.47,.51-.71,1.21-.71,2.09s.24,1.56,.71,2.08c.47,.52,1.1,.78,1.9,.78s1.41-.26,1.88-.78Z"/></g></svg>