<?xml version="1.0" encoding="UTF-8"?><svg id="a" xmlns="http://www.w3.org/2000/svg" viewBox="0 0 240 192"><defs><style>.b{fill:#085ca5;fill-rule:evenodd;}</style></defs><path class="b" d="M51.89,119.62c-9.36,0-16.66-6.63-16.66-14.86v-28.03h12.56v29.18c0,3.66,3.2,6.62,7.3,6.62,3.88,0,7.33-2.95,7.33-6.62v-29.18h5.92v28.03c0,8.23-7.31,14.86-16.45,14.86m-35.42-16.91l-7.77-2.28c-4.77-1.6-8.21-6.39-8.21-11.64,0-6.86,5.49-12.29,12.34-12.29h15.31v5.43h-10.75c-2.05,0-3.87,1.59-3.87,3.89,0,1.36,.9,2.97,2.49,3.41l7.54,2.51c5.04,1.61,7.76,6.84,7.76,12.79,0,7.54-5.92,13.71-13.47,13.71H1.65v-6.17H15.59c2.03,0,4.34-2.03,4.34-4.77,0-2.07-1.38-3.89-3.45-4.58m71.31,0l-7.79-2.28c-5.04-1.6-8.43-6.39-8.43-11.64,0-6.86,5.45-12.29,12.33-12.29h15.3v5.43h-10.73c-2.07,0-3.88,1.59-3.88,3.89,0,1.36,.89,2.97,2.52,3.41l7.52,2.51c5.25,1.61,8.01,6.84,8.01,12.79,0,7.54-6.19,13.71-13.74,13.71h-16.21v-6.17h13.93c2.05,0,4.35-2.03,4.35-4.77,0-2.07-1.15-3.89-3.19-4.58"/><path class="b" d="M193.75,118.05h4.93v31.49c-.61-3.26-2.46-22.44-2.22-28.57-.62-.63-2.71-2.91-2.71-2.91m-36.91-33.64h0l-5.27-5.37c-7.02,.09-29.64-2.3-36.9-3.57v40.5c36.3,3.59,55.35,4.49,76.61,3.82h.35l-34.79-35.38Zm.26-11.29h40.55V33.84h-40.55v39.28Zm-31.45,2.36c2.69,.23,26.41,2.3,28,2.3l37.57,38.2h48.28v-40.5H125.65Zm68.28,46.52s-21.66,1.48-40.08-.19c.37,22.4,3.08,33.9,3.52,36.36h40.26c-1.92-11.77-3.44-30.79-3.7-36.16"/></svg>