<?xml version="1.0" encoding="UTF-8"?><svg xmlns="http://www.w3.org/2000/svg" viewBox="0 0 500 500"><defs><style>.j{opacity:.3;}.j,.k{fill:#ffa800;}.l{fill:#f0f0f0;}.m{fill:#ea9706;}.n{fill:#29696d;}.o{fill:#37474f;}.p{fill:none;stroke:#fafafa;stroke-linecap:round;stroke-miterlimit:10;}.q{fill:#455a64;}.r{mix-blend-mode:multiply;}.r,.s{opacity:.2;}.t{isolation:isolate;}.u{fill:#e0e0e0;}.v{fill:#27debf;}.w{opacity:.1;}.s,.x{fill:#1b8992;}.y{fill:#ebebeb;}.a`{fill:#263238;}</style></defs><g class="t"><g id="a"><path class="l" d="M91.74,400.91c88.49,46.23,231.96,46.23,320.45,0,88.49-46.23,88.49-121.18,0-167.41-88.49-46.23-231.96-46.23-320.45,0-88.49,46.23-88.49,121.18,0,167.41Z"/></g><g id="b"><path class="u" d="M201.54,412.01l-127.25-74.02c-2.28-1.33-2.28-3.48,0-4.8l227.91-132.58c2.28-1.33,5.97-1.33,8.25,0l127.25,74.03c2.28,1.33,2.28,3.48,0,4.8l-227.9,132.58c-2.28,1.33-5.97,1.33-8.25,0Z"/></g><g id="c"><g><g><g><path class="v" d="M388.27,235.42c1.88-6.25,5.49-25.12,1.98-38.65-2.7-10.41-9.36-19.03-17.04-21.4-7.68-2.37-11.9,7.26-7.03,13.76,12.44,16.6,17.71,30.49,14.92,42.21l7.17,4.08Z"/><path class="w" d="M388.27,235.42c1.88-6.25,5.49-25.12,1.98-38.65-2.7-10.41-9.36-19.03-17.04-21.4-7.68-2.37-11.9,7.26-7.03,13.76,12.44,16.6,17.71,30.49,14.92,42.21l7.17,4.08Z"/></g><path class="p" d="M373.21,180.64c4.13,3.64,19.12,23.83,12.54,53.34"/></g><g><path class="v" d="M415.47,248.34c3.96-.47,8.98-1.73,11.39-6.58,2.41-4.85-4.71-8.96-4.57-13.04,.14-4.08,4.22-5.88,8.57-7.53s8.61-7.5,5.01-11.66c-3.6-4.16-7.37-9.4-3.6-14.55,3.77-5.15,10.38-10.14,4.28-13.23-7.65-3.87-15.47,5.14-21.07,8.38-5.6,3.23-12.57-1.71-17.69,3.65-5.12,5.36,4.55,12.25-1.52,17.83-6.07,5.58-14.4,6.74-10.8,18.96l30.01,17.76Z"/><path class="p" d="M432.7,184.35c-5.37,2.57-29.02,28.64-32.83,54.54"/><path class="p" d="M404.76,196.82s5.93,6.39,7.31,11.54"/><path class="p" d="M429.35,213.45c-4.97-.69-16.94-1.02-21.85,2.96"/></g></g></g><g id="d"><g><g><polygon class="q" points="251.69 370.96 203.06 384.06 88.15 317.72 136.78 304.62 251.69 370.96"/><polygon class="q" points="259.61 375.53 200.17 391.55 69.41 316.06 128.85 300.04 136.78 304.62 88.15 317.72 203.06 384.06 251.69 370.96 259.61 375.53"/></g><g><polygon class="o" points="307.17 320.63 251.69 370.96 136.78 304.62 192.25 254.29 307.17 320.63"/><polygon class="o" points="315.09 325.21 259.61 375.53 251.69 370.96 307.17 320.63 315.09 325.21"/><polygon class="o" points="192.25 254.29 136.78 304.62 128.85 300.04 184.32 249.72 192.25 254.29"/></g><g><polygon class="o" points="419.78 257.54 366.6 304.62 251.69 238.27 304.86 191.2 419.78 257.54"/><polygon class="o" points="433.96 256.57 374.52 309.19 366.6 304.62 419.78 257.54 304.86 191.2 251.69 238.27 243.76 233.7 303.19 181.08 433.96 256.57"/></g><g><polygon class="q" points="366.6 304.62 307.17 320.63 192.25 254.29 251.69 238.27 366.6 304.62"/><polygon class="q" points="251.69 238.27 192.25 254.29 184.32 249.72 243.76 233.7 251.69 238.27"/><polygon class="q" points="374.52 309.19 315.09 325.21 307.17 320.63 366.6 304.62 374.52 309.19"/></g><g><polygon class="a`" points="304.87 191.19 295.27 199.69 299.24 224.55 346.9 215.46 304.87 191.19"/><path class="a`" d="M384.26,237.03c-4.74,8.04-11.92,13.97-19.34,18.14l-20.96-33.11,10.76-2.1,29.55,17.06Z"/><path class="a`" d="M358.11,258.53c-7.69,3.29-14.93,4.79-19.25,4.91-2.57,.07-4.99-.03-7.27-.28l-7.64-37.19,12.2-2.38,21.95,34.94Z"/><path class="a`" d="M323.77,261.72c-9.98-2.63-16.46-7.66-20.17-10.1l-3.39-21.02,16.87-3.29,6.7,34.41Z"/><path class="a`" d="M389.45,240.03c-11.68,19.5-38.09,29.21-50.59,28.6,0,0-2.29,.35,0,1.68,2.29,1.33,23.77,13.73,23.77,13.73l35.25-7.1,21.9-19.39-30.33-17.51Z"/><polygon class="a`" points="390.37 283.57 369.17 287.8 379.11 293.54 390.37 283.57"/><polygon class="a`" points="295.27 249.72 283.38 256.57 251.69 238.27 289.23 205.04 295.27 249.72"/><path class="a`" d="M372.85,299.08l-6.25,5.54-55.48-32.03c-.7-4.98,1.17-8.48,3.96-6.87,2.79,1.62,57.77,33.35,57.77,33.35Z"/><path class="a`" d="M303.19,268.02l-13.16-7.6,8.14-4.46c2.73,1.58,8.73,5.19,8.73,5.19,0,0-4.29,3.23-3.71,6.87Z"/></g><g><polygon class="o" points="246.79 266.44 223.95 272.59 192.25 254.29 217.4 247.51 246.79 266.44"/><polygon class="o" points="238.41 241.85 233.66 250.4 225.71 245.28 238.41 241.85"/><polygon class="o" points="283.38 256.57 255.09 264.19 239.78 254.34 239.78 254.33 248.14 239.23 251.69 238.27 283.38 256.57"/><path class="o" d="M366.6,304.62l-14.86,4.01h0c-.53-.07-14.98-1.89-19.02-2.75-4.11-.87-6.72-1.82-8.87-5.83-2.16-4.01-12.72-27.45-12.72-27.45l55.48,32.03Z"/><polygon class="o" points="319.05 305.37 261.03 268.02 290.04 260.42 303.19 268.02 319.05 305.37"/><polygon class="o" points="302.55 302.33 283.38 306.91 230.07 276.13 230.09 276.11 252.66 270.2 302.55 302.33"/><polygon class="o" points="323.95 316.11 307.17 320.63 291.31 311.48 309.89 307.05 323.95 316.11"/><polygon class="o" points="338.86 312.09 325.16 310.24 331.37 314.11 338.86 312.09"/></g><g><polygon class="a`" points="307.17 320.63 284.47 341.22 261.03 338.93 265.9 320.19 291.31 311.48 307.17 320.63"/><polygon class="a`" points="200.54 292.67 166.56 321.81 136.78 304.62 140.4 301.34 154.54 301.71 178.62 288.15 200.54 292.67"/><polygon class="a`" points="283.38 306.91 263.57 313.77 217.51 287.16 230.07 276.13 283.38 306.91"/><polygon class="a`" points="223.95 272.59 206.45 287.6 190.88 284.02 192.25 254.29 223.95 272.59"/><polygon class="a`" points="184.68 261.16 183.71 282.77 176.41 281.74 173.37 283.49 170.22 274.28 184.68 261.16"/><polygon class="a`" points="166.2 287.63 153.94 294.71 147.46 294.93 163.65 280.24 166.2 287.63"/><polygon class="a`" points="255.17 318.06 216.03 332.07 186.07 314.77 211.22 292.69 255.17 318.06"/><polygon class="a`" points="257.08 323.76 244.64 366.89 219.24 352.23 219.24 352.22 216.03 338.48 257.08 323.76"/><polygon class="a`" points="277.61 347.44 261.81 361.78 252.99 369.78 259.23 345.8 277.61 347.44"/><polygon class="a`" points="212.72 348.08 212.59 348.39 198.66 340.35 210.05 338.93 212.72 348.08"/><polygon class="a`" points="207.11 333.85 191.57 336.25 191.56 336.25 173.49 325.82 180.8 319.4 207.11 333.85"/></g><g class="r"><polygon class="a`" points="304.87 191.19 295.27 199.69 299.24 224.55 346.9 215.46 304.87 191.19"/><path class="a`" d="M384.26,237.03c-4.74,8.04-11.92,13.97-19.34,18.14l-20.96-33.11,10.76-2.1,29.55,17.06Z"/><path class="a`" d="M358.11,258.53c-7.69,3.29-14.93,4.79-19.25,4.91-2.57,.07-4.99-.03-7.27-.28l-7.64-37.19,12.2-2.38,21.95,34.94Z"/><path class="a`" d="M323.77,261.72c-9.98-2.63-16.46-7.66-20.17-10.1l-3.39-21.02,16.87-3.29,6.7,34.41Z"/><path class="a`" d="M389.45,240.03c-11.68,19.5-38.09,29.21-50.59,28.6,0,0-2.29,.35,0,1.68,2.29,1.33,23.77,13.73,23.77,13.73l35.25-7.1,21.9-19.39-30.33-17.51Z"/><polygon class="a`" points="390.37 283.57 369.17 287.8 379.11 293.54 390.37 283.57"/><polygon class="a`" points="295.27 249.72 283.38 256.57 251.69 238.27 289.23 205.04 295.27 249.72"/><path class="a`" d="M372.85,299.08l-6.25,5.54-55.48-32.03c-.7-4.98,1.17-8.48,3.96-6.87,2.79,1.62,57.77,33.35,57.77,33.35Z"/><path class="a`" d="M303.19,268.02l-13.16-7.6,8.14-4.46c2.73,1.58,8.73,5.19,8.73,5.19,0,0-4.29,3.23-3.71,6.87Z"/></g><g class="r"><polygon class="a`" points="307.17 320.63 284.47 341.22 261.03 338.93 265.9 320.19 291.31 311.48 307.17 320.63"/><polygon class="a`" points="200.54 292.67 166.56 321.81 136.78 304.62 140.4 301.34 154.54 301.71 178.62 288.15 200.54 292.67"/><polygon class="a`" points="283.38 306.91 263.57 313.77 217.51 287.16 230.07 276.13 283.38 306.91"/><polygon class="a`" points="223.95 272.59 206.45 287.6 190.88 284.02 192.25 254.29 223.95 272.59"/><polygon class="a`" points="184.68 261.16 183.71 282.77 176.41 281.74 173.37 283.49 170.22 274.28 184.68 261.16"/><polygon class="a`" points="166.2 287.63 153.94 294.71 147.46 294.93 163.65 280.24 166.2 287.63"/><polygon class="a`" points="255.17 318.06 216.03 332.07 186.07 314.77 211.22 292.69 255.17 318.06"/><polygon class="a`" points="257.08 323.76 244.64 366.89 219.24 352.23 219.24 352.22 216.03 338.48 257.08 323.76"/><polygon class="a`" points="277.61 347.44 261.81 361.78 252.99 369.78 259.23 345.8 277.61 347.44"/><polygon class="a`" points="212.72 348.08 212.59 348.39 198.66 340.35 210.05 338.93 212.72 348.08"/><polygon class="a`" points="207.11 333.85 191.57 336.25 191.56 336.25 173.49 325.82 180.8 319.4 207.11 333.85"/></g><g><polygon class="o" points="135.15 325.52 107.34 328.8 107.33 328.8 88.15 317.72 127.76 307.05 135.15 325.52"/><polygon class="o" points="166.56 321.81 140.6 324.88 132.82 305.68 136.78 304.62 166.56 321.81"/><polygon class="o" points="191.56 336.25 155.68 356.71 155.67 356.71 114.99 333.22 173.49 325.82 191.56 336.25"/><polygon class="o" points="244.64 366.89 236.67 375.01 207.11 382.97 219.24 352.23 244.64 366.89"/><polygon class="o" points="212.59 348.39 199 381.72 162.66 360.74 198.66 340.35 212.59 348.39"/></g></g></g><g id="e"><g><g><path class="v" d="M294.21,162.54l-8.15-4.68h0c-3.89-2.6-9.29-2.49-15.26,.96-11.85,6.84-21.45,24.21-21.45,38.79v3.32c0,14.58,19.61,30.43,19.61,30.43l8.02,4.54s-4.82-5.49-4.27-6.62c5.25-10.78,19.55-41.22,19.55-53.12v-3.32c0-2.66-.32-5.04-.92-7.12l.92,.53,1.96-3.71Zm-23.42,33.44c-5.92,3.42-10.73,.65-10.73-6.19,3.19-.5,11.21-14.19,10.73-18.58,5.92-3.42,10.73-.65,10.73,6.19s-4.8,15.16-10.73,18.58Z"/><path class="n" d="M294.21,162.54l-8.15-4.68h0c-3.89-2.6-9.29-2.49-15.26,.96-11.85,6.84-21.45,24.21-21.45,38.79v3.32c0,14.58,19.61,30.43,19.61,30.43l8.02,4.54s-4.82-5.49-4.27-6.62c5.25-10.78,19.55-41.22,19.55-53.12v-3.32c0-2.66-.32-5.04-.92-7.12l.92,.53,1.96-3.71Zm-23.42,33.44c-5.92,3.42-10.73,.65-10.73-6.19,3.19-.5,11.21-14.19,10.73-18.58,5.92-3.42,10.73-.65,10.73,6.19s-4.8,15.16-10.73,18.58Z"/></g><g><path class="x" d="M300.83,177.79c0-14.58-9.6-20.86-21.45-14.02-11.85,6.84-21.45,24.21-21.45,38.79v3.32c0,11.23,12.72,24.26,18.57,29.66,1.43,1.32,3.71,.89,4.56-.85,5.05-10.34,19.77-41.5,19.77-53.58v-3.32Zm-21.45,23.14c-5.92,3.42-10.73,.65-10.73-6.19s4.8-15.16,10.73-18.58c5.92-3.42,10.73-.65,10.73,6.19s-4.8,15.16-10.73,18.58Z"/><path class="s" d="M300.83,177.79c0-14.58-9.6-20.86-21.45-14.02-11.85,6.84-21.45,24.21-21.45,38.79v3.32c0,11.23,12.72,24.26,18.57,29.66,1.43,1.32,3.71,.89,4.56-.85,5.05-10.34,19.77-41.5,19.77-53.58v-3.32Zm-21.45,23.14c-5.92,3.42-10.73,.65-10.73-6.19s4.8-15.16,10.73-18.58c5.92-3.42,10.73-.65,10.73,6.19s-4.8,15.16-10.73,18.58Z"/></g></g></g><g id="f"><g><g><path class="v" d="M434,355.21h0v-8.98l-67.06-15.42v8.97h0c0,.21,.1,.45,.31,.74l26.11,36.61c.64,.9,1.33,.75,1.54-.34l3.31-17.18c.21-1.08,1.27-2.02,2.37-2.09l32.57-2.09c.55-.04,.83-.12,.84-.23Z"/><path class="m" d="M434,355.21h0v-8.98l-67.06-15.42v8.97h0c0,.21,.1,.45,.31,.74l26.11,36.61c.64,.9,1.33,.75,1.54-.34l3.31-17.18c.21-1.08,1.27-2.02,2.37-2.09l32.57-2.09c.55-.04,.83-.12,.84-.23Z"/></g><g><path class="k" d="M394.91,367.81l3.31-17.18c.21-1.08,1.27-2.02,2.37-2.09l32.57-2.09c1.1-.07,1.12-.34,.05-.59l-65.16-15.49c-1.08-.26-1.43,.27-.79,1.16l26.11,36.61c.64,.9,1.33,.75,1.54-.33Z"/><path class="j" d="M394.91,367.81l3.31-17.18c.21-1.08,1.27-2.02,2.37-2.09l32.57-2.09c1.1-.07,1.12-.34,.05-.59l-65.16-15.49c-1.08-.26-1.43,.27-.79,1.16l26.11,36.61c.64,.9,1.33,.75,1.54-.33Z"/></g></g></g><g id="g"/><g id="h"/><g id="i"><path class="y" d="M344.3,89.78l-8.57,4.95c.04-.38,.07-.76,.07-1.13v-2.48c0-4.42-3.1-6.21-6.93-4-1.55,.89-2.97,2.31-4.13,3.97-.63-5.56-4.99-7.63-10.28-4.57-5.72,3.31-10.37,11.34-10.37,17.95v3.71c0,1.71,.32,3.15,.88,4.3l-7.12,4.11c-2.12,1.23-3.84,4.21-3.84,6.66s1.72,3.44,3.84,2.22l46.44-26.81c2.12-1.23,3.84-4.21,3.84-6.66s-1.72-3.44-3.84-2.22Z"/></g></g></svg>