<?xml version="1.0" encoding="UTF-8"?><svg xmlns="http://www.w3.org/2000/svg" xmlns:xlink="http://www.w3.org/1999/xlink" viewBox="0 0 500 500"><defs><style>.g{fill:#f0f0f0;}.h{fill:#fafafa;}.i{fill:#f5f5f5;}.j{fill:#45696c;}.k{fill:#e9a527;}.l{fill:#e6e6e6;}.m{fill:#ebebeb;}.n{fill:none;}.o{fill:#7ebdca;}.p{clip-path:url(#f);}</style><clipPath id="f"><circle class="n" cx="261.91" cy="234.73" r="136.07"/></clipPath></defs><g id="a"><g><rect class="m" y="382.4" width="500" height=".25"/><rect class="m" x="328.88" y="390.34" width="33.12" height=".25"/><rect class="m" x="399.78" y="390.47" width="41.14" height=".25"/><rect class="m" x="356.76" y="397" width="19.19" height=".25"/><rect class="m" x="174" y="395.11" width="51.67" height=".25"/><rect class="m" x="130.71" y="395.11" width="34.39" height=".25"/><rect class="m" x="63.29" y="390.89" width="46.84" height=".25"/><path class="m" d="M237.01,337.8H43.91c-3.15,0-5.71-2.56-5.71-5.71V60.66c0-3.15,2.56-5.71,5.71-5.71H237.01c3.15,0,5.71,2.56,5.71,5.71V332.09c0,3.15-2.56,5.71-5.71,5.71ZM43.91,55.2c-3.01,0-5.46,2.45-5.46,5.46V332.09c0,3.01,2.45,5.46,5.46,5.46H237.01c3.01,0,5.46-2.45,5.46-5.46V60.66c0-3.01-2.45-5.46-5.46-5.46H43.91Z"/><path class="m" d="M453.31,337.8h-193.1c-3.15,0-5.71-2.56-5.71-5.71V60.66c0-3.15,2.56-5.71,5.71-5.71h193.1c3.15,0,5.71,2.56,5.71,5.71V332.09c0,3.15-2.56,5.71-5.71,5.71ZM260.21,55.2c-3.01,0-5.46,2.45-5.46,5.46V332.09c0,3.01,2.45,5.46,5.46,5.46h193.1c3.01,0,5.46-2.45,5.46-5.46V60.66c0-3.01-2.45-5.46-5.46-5.46h-193.1Z"/></g><g><path class="h" d="M278.56,135.63c1.27-2.1,4.18-3.72,6.51-3.62,.87,.04,1.53,.31,1.96,.75,3.87-2.61,8.51-4.22,12.54-4.04,2.05,.09,3.7,.62,4.91,1.5,4-3.94,9.4-6.74,13.59-6.74,2.38,0,3.98,.9,4.7,2.41,4.29-2.65,8.85-4.27,12.7-4.27,6.13,0,8.67,4.13,6.93,9.93,1.15,1.09,6.19,2.62,6.23,4.45h-70.28c.07-.13,.14-.25,.22-.39Z"/><path class="h" d="M63.29,115.24c1.81-2.97,5.93-5.27,9.22-5.12,1.23,.06,2.17,.45,2.77,1.07,5.49-3.7,12.06-5.97,17.76-5.72,2.9,.12,5.25,.89,6.96,2.13,5.67-5.59,13.32-9.54,19.25-9.54,3.37,0,5.63,1.28,6.66,3.42,6.08-3.75,12.54-6.05,17.99-6.05,8.69,0,12.29,5.85,9.82,14.07,1.63,1.55,8.77,3.71,8.83,6.3H62.98c.1-.18,.2-.36,.31-.55Z"/><path class="h" d="M171.1,90.1c.99-1.63,3.25-2.89,5.05-2.81,.68,.03,1.19,.24,1.52,.58,3.01-2.03,6.61-3.28,9.74-3.14,1.59,.07,2.88,.49,3.82,1.17,3.11-3.06,7.3-5.23,10.56-5.23,1.85,0,3.09,.7,3.65,1.87,3.34-2.06,6.88-3.32,9.86-3.32,4.77,0,6.74,3.21,5.38,7.72,.89,.85,4.81,2.04,4.84,3.46h-54.6c.05-.1,.11-.2,.17-.3Z"/><path class="h" d="M374.61,119.55c.72,.04,1.26,.32,1.59,.77,3.25-2.67,7.1-4.31,10.4-4.13,1.68,.09,3.03,.64,3.99,1.54,0,0,0,0,0,0,3.39-4.03,7.89-6.88,11.33-6.88,1.96,0,3.24,.92,3.8,2.47,3.6-2.71,7.38-4.37,10.54-4.37,3.92,0,5.99,2.55,5.97,6.48,1.74-1.14,3.5-1.82,5.01-1.82,2.09,0,3.25,1.29,3.34,3.32,.18,0,.37,.01,.55,.03,3.24,.34,4.81,2.95,3.67,5.94h-65.45c1.17-1.97,3.45-3.45,5.25-3.35Z"/><path class="m" d="M187.32,154.95c.77,.17,1.51,.45,2.25,.75,.73,.33,1.44,.72,2.12,1.22,.51,.38,1.02,.8,1.49,1.34,.93-1.32,1.91-2.45,2.91-3.41,.61-.58,1.23-1.11,1.85-1.57,.62-.46,1.25-.87,1.89-1.16l-1.68,2.11c-.55,.7-1.1,1.39-1.64,2.1-.54,.69-1.06,1.44-1.57,2.16-.51,.73-.99,1.49-1.46,2.25l-.55,.91-.49-.6c-.51-.63-1.12-1.16-1.73-1.68-.62-.52-1.26-1.01-1.91-1.5-1.28-1.02-2.6-1.97-3.86-3.19,.82-.03,1.6,.1,2.37,.27Z"/><path class="m" d="M304.27,88.46c.77,.17,1.51,.45,2.25,.75,.73,.33,1.44,.72,2.12,1.22,.51,.38,1.02,.8,1.49,1.34,.93-1.32,1.91-2.45,2.91-3.41,.61-.58,1.23-1.11,1.85-1.57,.62-.46,1.25-.87,1.89-1.16l-1.68,2.11c-.55,.7-1.1,1.39-1.64,2.1-.54,.69-1.06,1.44-1.57,2.16-.51,.73-.99,1.49-1.46,2.25l-.55,.91-.49-.6c-.51-.63-1.12-1.16-1.73-1.68-.62-.52-1.26-1.01-1.91-1.5-1.28-1.02-2.6-1.97-3.86-3.19,.82-.03,1.6,.1,2.37,.27Z"/><path class="m" d="M135.14,144.51c1.14,.26,2.25,.66,3.34,1.12,1.08,.49,2.14,1.07,3.15,1.81,.76,.57,1.51,1.19,2.22,2,1.38-1.96,2.84-3.63,4.33-5.06,.91-.86,1.82-1.65,2.75-2.33,.93-.69,1.86-1.3,2.81-1.73l-2.5,3.14c-.82,1.05-1.63,2.07-2.43,3.13-.8,1.02-1.57,2.13-2.33,3.2-.76,1.08-1.48,2.21-2.17,3.34l-.82,1.35-.72-.89c-.75-.93-1.66-1.73-2.58-2.49-.92-.78-1.87-1.5-2.83-2.23-1.9-1.52-3.87-2.92-5.74-4.74,1.22-.05,2.38,.14,3.52,.4Z"/><path class="m" d="M201.89,122.15c.86,.19,1.69,.5,2.51,.84,.81,.37,1.61,.81,2.37,1.36,.57,.43,1.14,.9,1.67,1.5,1.04-1.47,2.14-2.73,3.26-3.81,.68-.64,1.37-1.24,2.07-1.75,.7-.52,1.4-.97,2.11-1.3l-1.88,2.36c-.62,.79-1.23,1.56-1.83,2.35-.6,.77-1.18,1.6-1.75,2.41-.57,.82-1.11,1.66-1.63,2.51l-.62,1.01-.54-.67c-.57-.7-1.25-1.3-1.94-1.87-.69-.58-1.41-1.13-2.13-1.68-1.43-1.14-2.91-2.2-4.31-3.57,.92-.04,1.79,.11,2.65,.3Z"/><path class="m" d="M377.69,96.92c.86,.19,1.69,.5,2.51,.84,.81,.37,1.61,.81,2.37,1.36,.58,.43,1.14,.9,1.67,1.5,1.04-1.47,2.14-2.73,3.26-3.81,.68-.64,1.37-1.24,2.07-1.75,.7-.52,1.4-.97,2.11-1.3l-1.88,2.36c-.62,.79-1.23,1.56-1.83,2.35-.6,.77-1.18,1.6-1.75,2.41-.57,.82-1.11,1.66-1.63,2.51l-.62,1.01-.54-.67c-.57-.7-1.25-1.3-1.94-1.87-.69-.58-1.41-1.13-2.13-1.68-1.43-1.14-2.91-2.2-4.31-3.57,.92-.04,1.79,.11,2.65,.3Z"/><path class="i" d="M417.06,381.67c-1.02-3.95-5.61-7.01-10.26-6.81-1.74,.08-3.25,.59-4.39,1.42-5.78-4.92-13.78-7.94-21.85-7.61-4.1,.16-7.74,1.18-10.76,2.83-5.09-7.43-13.75-12.69-22-12.69-4.69,0-8.48,1.7-10.98,4.55-6.59-4.99-14.41-8.05-22-8.05-12.09,0-20.03,7.78-20.72,18.71-3.04,2.06-14.06,4.94-15.45,8.38h138.55c-.05-.24-.09-.48-.15-.73Z"/><path class="h" d="M214.21,376.5c-1.35,.06-2.53,.56-3.44,1.35-4.22-4.71-10.23-7.6-16.43-7.28-3.16,.16-6.01,1.13-8.39,2.72-.01,0,0,0,0,0-3.57-7.1-9.99-12.13-16.33-12.13-3.61,0-6.6,1.63-8.64,4.34-4.83-4.77-10.71-7.7-16.54-7.7-7.23,0-12.74,4.5-15.31,11.42-2.45-2.01-5.25-3.2-8.04-3.2-3.86,0-6.84,2.28-8.37,5.84-.34,0-.69,.02-1.03,.05-6.2,.59-10.83,5.2-10.71,10.47h120.71c-.85-3.48-4.06-6.07-7.46-5.9Z"/><polygon class="g" points="363.63 344.31 363.28 329.81 355.84 310.26 362.81 310.26 362.28 288.33 383.94 288.33 386.06 327.89 391.3 328.77 388.6 349.74 387.23 349.82 388.98 382.4 364.56 382.4 364.18 366.82 361.14 344.05 363.63 344.31"/><path class="l" d="M435.28,251.9c3.36-7.73,1.22-13.28-5.04-15.77-2.42-9.54-19.13-20.19-41.03-25.35-24.85-5.85-42.21-.39-50.17,7.65-4.7-.75-10.02-.11-15.53,2.75-8.6,4.46-13.93,11.87-13.95,18.4-6.15,2.6-8.13,8.27-4.53,16.12,1.83,3.99,5.43,7.94,10.83,10.8-.16,2.3,.39,4.96,1.75,7.94,.69,1.5,1.63,3,2.83,4.44-2.8,3.06-3.17,7.64-.53,13.4,2.47,5.39,8.18,10.71,17.17,13.37,3.42,6.46,15.14,11.23,29.08,11.23s26.79-5.23,29.52-12.17c1.76,.16,3.58,.25,5.43,.25,16.62,0,26.6-7.49,30.1-15.12,1.98-4.32,2.26-7.97,1.11-10.82,4.81-2.8,8.07-6.49,9.78-10.22,4.01-8.76,1.09-14.79-6.82-16.9Z"/><polygon class="g" points="181.04 282.28 166.73 282.28 161.13 296.78 156.52 296.78 156.14 309.7 152.44 319.29 150.86 319.11 148.37 328.11 146.8 319.36 150.95 295.93 142.59 295.93 137.87 269.63 111.91 269.63 119.02 317.06 112.96 318.11 121.31 343.25 122.97 343.34 128.83 382.4 158.11 382.4 154.76 363.72 153.72 348.99 166.54 322.92 167.47 322.87 174.93 309.01 171.71 308.43 181.04 282.28"/><path class="i" d="M78.97,225.97c-4.03-9.27-1.47-15.92,6.04-18.91,2.9-11.44,22.93-24.21,49.18-30.39,29.78-7.02,50.6-.47,60.14,9.17,5.64-.9,12.01-.13,18.62,3.3,10.31,5.34,16.69,14.23,16.72,22.06,7.37,3.12,9.74,9.91,5.43,19.32-2.19,4.79-6.51,9.52-12.98,12.95,.19,2.76-.47,5.95-2.1,9.52-.83,1.8-1.96,3.6-3.39,5.32,3.36,3.67,3.81,9.16,.64,16.06-2.96,6.46-9.8,12.83-20.58,16.02-4.1,7.75-18.15,13.46-34.86,13.46s-32.11-6.27-35.39-14.59c-2.11,.19-4.29,.3-6.51,.3-19.93,0-31.88-8.97-36.08-18.13-2.37-5.18-2.71-9.55-1.32-12.97-5.77-3.36-9.67-7.78-11.72-12.25-4.81-10.5-1.31-17.73,8.17-20.25Z"/></g></g><g id="b"><ellipse id="c" class="i" cx="250" cy="416.24" rx="193.89" ry="11.32"/></g><g id="d"/><g id="e"><g><g><path class="k" d="M261.91,394.69h0c-42.73,0-82.9-16.64-113.11-46.85-62.37-62.37-62.37-163.85,0-226.22,.53-.53,1.48-.53,2.02,0l16.93,16.93c.56,.56,.56,1.46,0,2.02-.56,.56-1.46,.56-2.02,0l-15.92-15.92c-60.25,61.34-59.92,160.26,1,221.18,29.67,29.67,69.13,46.02,111.1,46.02s80.53-15.98,110.08-45.01l-15.94-15.94c-.56-.56-.56-1.46,0-2.02s1.46-.56,2.02,0l16.95,16.95c.56,.56,.56,1.46,0,2.02-30.21,30.21-70.39,46.85-113.11,46.85Z"/><circle class="o" cx="261.91" cy="234.73" r="136.07"/><g class="p"><g><g><path class="j" d="M366.5,123.18c4.07,.78,8.14,1.56,12.21,2.34-1.07,.81-1.81,2.07-2.93,2.81,8.73,.09,17.96-.9,26.36,1.44,7.86,2.19,14.6-.62,22.63,.24,4.71,.51,56.64,4,55.15,11.05-3.66-.57-8.45-2.39-11.9-.39,2.06,.88,4.12,1.77,6.19,2.65-3.29,1.81-12.13,3.36-12.07,6.47,.04,2.25,3.07,3.24,3.9,5.24,.82,1.99,.45,5.16,.63,7.26-2.55-2.32-9.51-6.43-10.47-9.53-.94-3.05,4.68-8.82-3.63-7.61-3.03,.44-2.72,3.16-3.5,3.47-1.94,.76-5.54,.19-7.66,.27-6.99,.24-6.53,1.58-9.63,7.62,4.21,.76,9.7,.7,12.46,3.46,2.59,2.59,4.87,11.92,1.79,14.73-1.51,1.38-3.68,.32-4.63,1.08-1.06,.84-2.65,4.76-2.34,5.85,.89,3.09,10.59,6.56,1.92,8.85-1.1-1.82-3.53-8.22-5.44-8.97-2.7-1.07-5.89,3.17-5.98-2.43-1.3,1.12-2.59,2.24-3.89,3.36,1.9,2.19,4.75,3.32,7.77,2.58-5.48,1.35-1.73,5.7-.08,7.65,2.54,3,2.68,3.08,2.85,6.44,.29,6.15-3.92,11.09-10.25,12.48-3.17,.7-5.48-.35-7.55,1.88-3.12,3.38-.09,3.65,1.67,6.46,1.23,1.97,3.71,5.97,3.3,8.36-.35,2.05-4.26,4.55-5.97,6.14-2.15-3.14-3.77-7.33-7.93-8.35-.36,5.2-.84,7.21,2.86,11.24,1.14,1.24,2.55,1.86,3.34,3.21,.89,1.53,.58,4.18,1.42,5.92-10.9-5.84-9.19-16.99-12.93-27.33-2.48,6.33-4.9-2.33-5.98-4.23-2.45-4.32-5-5.64-9.84-2.83-2.34,1.35-8.63,7.35-9.56,9.8-2.14,5.62,1.76,7.88-2.86,12.88-3.45-2.44-4.24-7.79-5.55-11.36-1.46-3.96-3.96-8.36-3.57-12.69-2.53,5.43-6.13-1.29-8.47-3.27-3.44-2.91-5.64-1.61-10.31-2.03-1.97-.18-3.88-1.15-5.26-1.52,.9,.24-2.05-1.74-1.64-1.57-.61-.26-1.58,.9-2.44,.57-2.68-1.05-7.72-6.49-10.11-5.14,1.03,2.03,3.07,7.81,5.16,8.97,3.24,1.79,5.76-1.86,8.19-1.38,.61,.12,4.82,4.01,4.99,4.79,.43,1.87-.03,1.2-1.37,3.65-2.05,3.74-3.97,5.27-7.51,7.2-2.52,1.38-8.38,5.13-11.36,5.2-3.94,.09-3.86-1.59-5.55-4.76-1.74-3.27-9.46-22.31-13.25-20.14,2.98,6.42,5.49,13.33,9.16,19.42,1.32,2.18,5.04,9.28,7.42,10.25,2.82,1.15,8.29-1.41,10.79-2.19-1.22,11.36-10.58,15.72-16.06,24.47-4.95,7.9,4.07,17.04-1.91,24.04-1.59,1.86-6.03,2.73-7.12,4.85-.91,1.76,.82,4.44,.28,6.4-.71,2.55-2.25,1.62-3.82,3.87-1.28,1.83-.87,4.45-2.33,6.53-2.99,4.25-5.82,6.35-10.79,7.47-6.82,1.53-7.41,1.32-9.65-4.65-2.33-6.21-4.65-12.42-6.98-18.63-1.74-4.64-1-6.48,.4-11.42,1.34-4.71,1.91-6.06-.16-10.53-1.3-2.8-3.14-5.73-4.03-8.67-.76-2.53,.02-4.41-.34-7.05-.28-2.07-.2-3.21-2.14-4.91-.53-.46-2.35,.5-3.01,.16-.76-.4-1.26-2.41-2.07-2.57-3.4-.65-8.09,1.63-12.01,1.79-6,.24-9.94,.14-13.92-3.54-4.06-3.75-7.37-7.86-7.68-13.4-.69-12.08,8.3-16.5,13.29-26.25,1.65-3.23,.05-4.42,4.2-6.9,2.13-1.27,2.71-1.15,5.39-1.65,6.32-1.19,12.98-1.47,19.39-2.2-.56,4.82-.96,4.1,2.96,6.46,3.12,1.88,6.74,3.26,10.05,4.86,1.1-6.86,10.29-1.84,15.34-1.4,7.72,.69,6.36-3,7.66-9.46-3.03,.16-7,1.06-9.89,.1-4.21-1.4-3.61-3.23-4.31-7.21-1.59,.29-3.17,.57-4.76,.86,1.02,1.93,1.13,4.21,.32,6.25-1.42-1.54-3.37-3.07-4.45-4.82-.63-1.02-.7-3.02-1.26-3.77-2.05-2.73-5.97-4.96-8.64-7.18-3.19,4.55,4.28,8.08,7.53,9.84-3.09,3.64-3.97,7.3-8.41,3.36,5,.32,5.55-.97,3.1-4.41-2.61-3.67-6.06-5.67-9.76-5.49-.58,.03-1.01,1.56-1.59,1.62-.62,.06-2.31-1.16-2.83-.88-.34,.18-1.51-.35-2.01-.13-.3,.13,.25,1.95,0,2.17-2.17,1.94-3.77,4.9-5.67,6.89-2.55,2.67-5.28,5.07-9.2,2.8-2.88-1.67-3.91-7.34-2.02-10.32,2.29-3.63,7.35,.9,10.65-1.55,3.19-2.37-1.12-6.22-2.8-8.12,2.54-.97,5.56-1.66,7.87-3.01,2.79-1.63,2.04-2.93,4.36-4.65,1.8-1.33,3.01-.51,4.18-2.03,1.72-2.23-2.06-4.6,3.01-4.83-2.77,7.09,9.7,6.25,13.31,3.69,.76-.54,.09-2.36,.64-3.12,.49-.69,1.7-1.38,2.23-1.87v-1.91h2.42c1.63-1.2,2.74,.99,3.53-1.95-3.51,.61-5.51,1.88-7.75-.4-3.17-3.23-.46-3.99,2.35-6.24-5.15-3.69-12.73,6.73-6.42,7.65-1.17,1.45-4.36,7.2-6.11,7.57-3.5,.75-2.9-4.11-3.33-6.48-2.33,.93-3.92,2.09-5.5,1.09-1.82-1.15-1.77-4.19-1.24-5.14,1.08-1.93,6.04-2.58,7.93-4.08,1.97-1.56,2.91-4.59,5.02-5.97,7.23-4.73,21.52-2.99,28.13,2.07-3.01,1.83-6.76,.62-10.07,.23,1.94,2.57,4.65,5.73,8.17,4.61,.44-.14,1.27-2.4,2.09-2.93,1.9-1.23,5.16-1.81,7.33-2.58,7.26-2.55,12.91-2.61,20.48-1.22-3.72-9.98,2.3-4.3,9.21-5.52,3.31-.58,6.34-3.19,9.54-4.2,3.43-1.09,7.36-1.4,10.91-2.07Z"/><path class="j" d="M260.38,162.06c-2.78,.62-5.55,1.25-8.33,1.87,.91-1.35,3.39-3.73,3.53-5.2,.29-3.16-1.37-1.51-1.94-2.68-2.36-4.89-1.08-5.04,3.33-7.49,.6,2.42,.77,5.81,1.98,8.04,1.2,2.2,4.86,3.24,1.43,5.47Z"/><path class="j" d="M252.85,156.25c-2.42,4.17-.44,4.12-6.11,5.04,1.46-3.38,.64-7.19,6.11-5.04Z"/><path class="j" d="M324.86,131.77c-9.85-2.98,5.6-7.32,7.53-7.81-4.01,0-9.61-.81-12.81,2.34-3.54,3.5,.64,7.42,5.27,5.47Z"/><path class="j" d="M279.5,123.96c1.19-.94,2.38-1.87,3.57-2.81-3.85-1.47-5.86-1.49-9.99-1.09,2.14,1.3,4.28,2.6,6.42,3.9Z"/><path class="j" d="M281.48,118.97c2.62,2.91,6.19,1.47,9.68,.98-3.24-.44-6.41-.77-9.68-.98Z"/><path class="j" d="M446.45,191.5c.54,1.59,2.05,3.2,3.09,4.53,1.49-6.2,5.31-3.04,9.37-6.8,2.19-2.03,2.04-6.3-.88-9.2-4.11-4.09-.84,2.21-2.47,5.11-1.77,3.14-6.7,3.28-9.11,6.37Z"/><path class="j" d="M454.77,178.07c.42-.16,.85-.31,1.27-.47-.21-.47-.42-.94-.63-1.41,2.35,.86,4.68,.84,5.39-1.72-2.59-1.07-5.18-2.13-7.77-3.2,2.17,3.03-1.17,4.63,1.74,6.79Z"/><path class="j" d="M452.47,170.18h1.98c-2.94-4.8-6.13-8.79-9.83-13.12-1.27,2.93,5.94,10.18,7.85,13.12Z"/><path class="j" d="M439.23,205.86c-2.27,1.01-2.17,3.29-.58,5.21,.19-1.74,.39-3.47,.58-5.21Z"/><path class="j" d="M422.04,214.92h2.43c-.75,2.26-.44,1.96-2.75,2.24l.32-2.24Z"/><path class="j" d="M402.69,238.71c8.37,3.52,16.55,10.98,16.55,19.83-4.35-.33-7.49-5.89-9.28-9.16-1.82-3.31-6.41-7.58-7.27-10.68Z"/><path class="j" d="M427.41,246.15c-.82-.18-1.64-.36-2.46-.55-2.38,6.58,5.34,12.83,10.4,7.96,2.34-2.25,1.86-6.42,2.35-9.09,.68-3.73,2.11-5.01-1.56-7.85-2.91,3.18-5.82,6.35-8.72,9.53Z"/><path class="j" d="M435.9,235.53c1.78-2.15,4.23-4.13,4.28-7.03-1.43,2.34-2.86,4.68-4.28,7.03Z"/><path class="j" d="M442,227.26c-2.89-3.98-2.67-5.27-2.3-10.1,3.47,.39,1.7,5.24,3.8,7.7,3.02,3.55,6.71,3.52,6.96,9.2,.15,3.42-1.74,6.42-5.56,2.74-2.53-2.43-.83-6.49-2.9-9.54Z"/><path class="j" d="M448.82,246.23c-3.34,1.76-6.56-.98-8.64,2.97,2.8-2.07,5.1-1.17,8.25-.57,.12-.72,.46-1.67,.4-2.39Z"/><path class="j" d="M445.65,249.66c-3.24,2.35-4.97-.78-6.28,3.53-.53,1.73,.33,5.41,2.24,5.35-.07-2.06-.82-4.3,.83-5.6-.41,2.47,.45,4.05,3.21,3.04-.77-1.43-1.53-2.86-2.3-4.29,1.06,.12,2.2-.44,3.25-.31l-.95-1.72Z"/><path class="j" d="M432.49,262.08c-3.15-.83-10.66-4.44-13.24-2.11,3.25,1.44,10.56,5.08,13.24,2.11Z"/><path class="j" d="M453.74,244.35c-1.85,1.7-1.78,4.04-.79,6.17,.95-1.91,1.51-4.11,.79-6.17Z"/><path class="j" d="M453.15,253.72c.39,1.87,2.42,1.38,4.56,1.64-.43-2.05-2.36-2.14-4.56-1.64Z"/><path class="j" d="M450.97,253.72c.29,.27,.58,.55,.87,.82-.77,.22-.91,.2-1.67,0,.26-.27,.53-.55,.79-.82Z"/><path class="j" d="M458.02,250.52c0,4.25,4.13,5.58,7.06,6.94,2.85,1.32,6.45,2.72,1.74,5.79,2.26-.33,4.2,1.16,5.98,1.02,.92-.08,2,.21,2.9,0,.74-.18,1.13-2.66,1.87-2.67,2.17-.02,1.89,.81,3.84,2.2,2.41,1.73,2.79,2.22,6.11,3.12-2.64-3.18-5.55-8.33-8.76-10.77-1.42-1.08-7.47-3.85-9.41-3.89-2.31-.05-2.99,.88-5.22,2.56-.84-2.86-2.15-6.88-6.11-4.29Z"/><path class="j" d="M483.33,257.55c2.51,1.86,9.96,1.29,7.61-2.73-2.17,3.03-4.06,2.73-7.61,2.73Z"/><path class="j" d="M459.06,267.7c-1.07,1.34-3.62,5.99-5.16,6.48-2.4,.76-3.31-1.55-5.19-1.2-4.09,.77-8.46,8-12,10.07-6.16,3.6-9.42,2.61-10.3,10.57-.32,2.92,1.19,6.31,.51,9.17-.63,2.64-4.27,3.84,.42,5.3,4.47,1.39,13.49-3.7,18.19-4.59,2.54-.48,3.69-1.41,6.2,.06,2.02,1.18,2.11,3.39,3.47,5.38,8.42,12.34,22.76,.09,27.73-8.94,3.32-6.04,1.68-10.96-2.04-16.37-1.59-2.3-2.52-2.84-3.58-5.46-1.31-3.25-1.76-7.08-2.6-10.47-1.87,3.78-3.74,7.56-5.6,11.35-5.3-3.93-7.1-3.59-4.02-9.26-2.01-.69-4.02-1.39-6.03-2.08Z"/><path class="j" d="M461.07,317.35c2.22,.14,4.44,.28,6.66,.42-1.95,2.56-3.21,6.09-7.19,5l.53-5.41Z"/><path class="j" d="M485.92,326.1c5.11,2.7,5.17,1.74,9.95-1.39,2.6-1.71,9.3-3.88,5.7-7.35-5.22,2.91-10.43,5.83-15.65,8.74Z"/><path class="j" d="M434.42,262.7c.9,3.3,12.36,.75,15.76,0h-15.76Z"/><path class="j" d="M440.18,265.2c.71,1.6,4.53,3.32,5.55,1.25-1.85-.42-3.7-.83-5.55-1.25Z"/><path class="j" d="M332.63,269.57c-3.26,2.94-7.35,5.39-8.32,9.54-.51,2.17-2.08,11.24-.17,12.64,4.42,3.25,5.91-6.8,6.76-9.18,1.93-5.38,2.93-7.54,1.73-13Z"/></g><g><path class="j" d="M243.42,137.76c3.28,.89,4.85-.15,7.82-1.47-1.62-1.39-12.04-2.04-7.82,1.47Z"/><path class="j" d="M158.13,239.59c-2.75,4.56-5.34,8.23-6.28,13.38-1.25,6.83,.56,8.52,4.18,14.73,1.12,1.92,2.09,4.36,3.66,5.96,2.11,2.15,5.78,2.94,7.91,5.08,3.34,3.33,2.57,6.36,2.89,11.45,.67,10.74,.24,21.52,3.77,31.77,1.78,5.16,2.77,9.47,6.33,13.56,5.1,5.87,6.97,6.04,14.65,6.04-6.26-4.95-8.85-5.64-9.01-13.23-.14-6.92-.72-8.92,3.56-14.2,8.04-9.95,19.18-19.92,23.47-31.87,1.4-3.9,2.8-7.81,4.2-11.71,.81-2.26,4.48-8.46,3.89-10.83-.83-3.33-12.13-5.82-16.14-7.34-1.69-.64-5.31-1.31-6.53-2.61-2.28-2.43-1.51-7.33-3.65-9.87-2.89-3.43-14.42-7.41-18.93-8.72-3.23-.94-4.41-.81-8.12-.28-3.27,.46-6.86,2.18-9.69,2.55-1.17,.15-6.19-.45-7.21-.98-4.04-2.11-2.14-6.32-1.58-9.61-2.64-.31-5.29-.62-7.93-.94l4.23-9.99c-3.35,.96-4.14,2.3-6.56,3.54-1.56,.8-4.88,2.7-6.81,1.7-4.32-2.23-3.54-11.38-1-14.75,2.13-2.83,10.07-4.86,14.16-5.27,8.12-.81,7.8,2.84,10.05,9.16,3.05-3.88-.41-7.92,1.48-11.55,1.53-2.94,7.7-4.86,10.18-7.36,6.97-7.05,9.69-12.7,19.54-16.16v2.08c2.82-1.11,5.64-2.22,8.46-3.33h-6.03c.2-1.65,.79-3.23,1.8-4.58-2.12,.31-4.23,.62-6.34,.94,5.34-2.8,13.53-1.8,18.06-4.68,4.83-3.07-1.18-10.65-2.94-14.47-1.94,1.14-3.88,2.29-5.82,3.44-2.18-3.13,1.87-3.95-3.22-5.86-4.23-1.58-4.92-.03-7.22,2.62-2.44,2.8-8.61,15.02-12.4,15,1.13-4.74,2.53-5.3-1.21-7.39-2.45-1.37-10.64-.77-9.45-5.73,.81-3.38,15.09-8.97,18.7-11.03-.65,1.19-.79,2.63-1.37,3.85l6.87-.1c-1.45-1.25-2.89-2.5-4.34-3.75,5.37-.67,6.34-.28,8.99-4.79-3.5-.69-5.89,1.48-8.67,3.12,.75-3.86-3.56-2.55-6.39-2.59l-19.42-.29c-5.02-.07-10.19-.49-15.2-.23-3.75,.2-7.55,1.62-11.29,1.59-9.42-.05-15.84-4.06-25.27-1.87-9.93,2.31-15.74,6.89-24.06,12.65,1.02,1.18,2.04,2.36,3.07,3.54-2.4,1.67-4.79,3.33-7.19,5,7.42-2.49,17.71-8.18,25.43-7.79,4.5,.23,9.29,1.6,10.41,4.9,1.08,3.17,.36,9.18-.59,12.37-2.17,7.3-12.96,18.28-7.86,26.54,.66,1.06,2.83,1.19,3.55,2.33,1.21,1.93,.16,6.14,.68,8.37,.66,2.81,2.79,8.83,6.55,8.66-2.42-5.45-4.04-9.27-4.55-15.09,4.26,1.19,8.44,11.37,9.23,14.92,.34,1.54-.38,3.7,.24,4.93,.82,1.64,6.75,4.93,8.35,5.6,2.22,.93,5.14,.06,7.24,.98,1.57,.69,4.14,3.61,5.74,4.71,1.17,.81,2.63,.64,3.68,1.55,1.17,1.02,1.36,2.99,2.43,4.12,1.82,1.94,4.9,3.14,7.3,4.5,1.46-5.97,4.65,1.98,5.34,3.64Z"/><path class="j" d="M149.3,210.96c5.81-2.24,9.23,4.53,15.02,3.44-6.22-3.25-8.46-5.96-15.02-3.44Z"/><path class="j" d="M165.69,215.13c2.83,.31,6.78-.43,7.61,2.6-3.44,.62-6.34,1.61-9.52-.31,1.07,.05,2.21-.42,3.28-.47-.46-.61-.92-1.21-1.37-1.82Z"/><path class="j" d="M157.97,216.95c1.01,.1,2.07,.46,3.07,.68-.74,.48-2.19,.93-3.07,1.15v-1.82Z"/><path class="j" d="M174.78,216.95c.75,.73,1.17,1.43,3.28,.91-1.09-.3-2.18-.67-3.28-.91Z"/><path class="j" d="M202.38,162.22c-1.77,1.69-3.54,3.38-5.31,5.07,3.07,.75,6.13,1.51,9.2,2.26-.12-1.32,.17-3.94-.48-5.15-.79-1.48-3.71,1.38-3.41-2.19Z"/><path class="j" d="M197.07,136.33c-3.02,1.35-6.05,2.71-9.07,4.06,2.64,.93,8.52,4.36,11.21,3.96,2.7-.41,6.99-5.22,9.2-6.87-2.9-2.66-6.86-8.07-10.53-9.37-4.79-1.69-11.32-.29-14.74,2.81,1,.84,2.45,2.72,3.7,3.12,.87,.28,2.4-1.32,3.31-1.15,2.64,.48,6.07,.77,6.92,3.44Z"/><path class="j" d="M194.03,135.08c-4.06,1.17-1.6,2.42,1.16,.88-.39-.29-.78-.59-1.16-.88Z"/><path class="j" d="M175.95,135.08c-6.2-4.27,6.5-8.95,10.15-8.95-1.87,1.09-6.03,2.58-6.98,4.31-1.24,2.26,1.78,6.04-3.17,4.64Z"/><path class="j" d="M149.51,135.08c0-1.71,2.44-4.59,3.28-6.14-2.47,.66-6.11,2.96-7.09,0,4.49-1.51,6.91-2.72,11.33-1.89,5.15,.97,6.65,1.96,11.93,1.06-.96,2.42-2.16,4.36-1.37,6.97h-18.08Z"/><path class="j" d="M156.7,124.35c6.43,3.04,9.91,2.11,17.13,1.3-2.41-.55-5.71-2.37-7.93-2.65-2.72-.34-6.47,.95-9.2,1.35Z"/><path class="j" d="M175.1,126.96c-1.34,.11-2.83,.78-4.12,1.15,.21,.64,1.18,2.03,1.69,2.5,1.97-1.21,3.95-2.43,5.92-3.64-1.13,0-2.37-.13-3.49,0Z"/><path class="j" d="M177.32,124.56c2.75,1.81,10.85,.95,14.17,1.2,4.57,.34,5.47,.03,9.58-2.04,7.54-3.8,15.19-5.04,23.52-6.87-8.65,0-18-1.02-26.57,0-4.65,.55-20.41,2.22-20.7,7.7Z"/><path class="j" d="M210.97,123.75c7.43-2.29,13.57-4.1,21.33-4.61,8.16-.54,14.66-.21,22.75,.92-3.52,3.58-7.45,9.44-11.99,11.61-3.28,1.57-7.77,.88-11.05,2.45-2.54,1.22-4.85,4.09-6.97,5.92-5.36,4.66-7.92-.54-7-6.07,.38-2.27,3.23-6.23,.69-8.52-1.7-1.53-5.74,.01-7.77-1.71Z"/></g></g></g></g><path class="k" d="M261.91,413.82c-.79,0-1.43-.64-1.43-1.43v-19.13c0-.79,.64-1.43,1.43-1.43s1.43,.64,1.43,1.43v19.13c0,.79-.64,1.43-1.43,1.43Z"/><path class="j" d="M302.78,412.4c0,2.31-18.3,4.18-40.87,4.18s-40.87-1.87-40.87-4.18,18.3-8.06,40.87-8.06,40.87,5.76,40.87,8.06Z"/></g></g></svg>